<svg id="Layer_1" enable-background="new 0 0 256 256" height="512" viewBox="0 0 256 256" width="512" xmlns="http://www.w3.org/2000/svg"><path d="m106.299 91.5c8.159-7.962 13.127-18.474 13.127-30.003 0-24.853-23.057-45-51.5-45-1.795 0-3.569.082-5.317.238-19.659 1.687-36.051 13.148-42.83 28.783-.077.177-.163.351-.237.529-.072.172-.133.349-.202.522-1.88 4.672-2.914 9.693-2.914 14.927v.011c0 .015-.001.03-.001.045 0 24.873 22.932 45.037 51.221 45.037 4.064 0 8.005-.447 11.795-1.236.552-.11 1.104-.221 1.649-.346.03-.007.061-.012.091-.019l30.013 9.879c1.998.658 3.857-1.315 3.081-3.271z" fill="#f16c7a"/><g fill="#3a312a"><path d="m108.058 91.865c8.307-8.442 12.868-19.188 12.868-30.368 0-25.641-23.775-46.5-53-46.5-1.811 0-3.645.082-5.444.243-19.692 1.69-36.994 13.341-44.079 29.68l-.096.213c-.05.109-.101.219-.152.342-.045.109-.087.22-.128.329l-.079.206c-2.006 4.985-3.022 10.195-3.023 15.543 0 25.661 23.65 46.537 52.721 46.537 3.988 0 8.06-.427 12.089-1.266.46-.092.919-.184 1.368-.282l29.622 9.75c.417.138.842.204 1.262.204 1.073 0 2.11-.438 2.88-1.256 1.071-1.137 1.379-2.745.803-4.197zm4.625 21.319c-.129.136-.484.434-1.021.259l-30.013-9.879c-.143-.047-.308-.068-.471-.068-.113 0-.226.01-.328.029-.019.004-.08.017-.099.021-.53.123-1.067.23-1.617.34-3.84.8-7.706 1.205-11.489 1.205-27.416 0-49.721-19.53-49.72-43.593 0-4.906.944-9.74 2.807-14.369l.423-1.014c6.652-15.343 22.975-26.288 41.588-27.886 1.717-.153 3.461-.231 5.183-.231 27.57 0 50 19.514 50 43.5 0 10.68-4.501 20.954-12.675 28.93-.433.423-.569 1.064-.347 1.627l7.976 20.097c.208.522-.068.895-.197 1.032z"/><path d="m93.926 42.505h-54.18c-.828 0-1.5.672-1.5 1.5s.672 1.5 1.5 1.5h54.18c.828 0 1.5-.672 1.5-1.5s-.672-1.5-1.5-1.5z"/><path d="m101.585 59.943h-67.467c-.828 0-1.5.672-1.5 1.5s.672 1.5 1.5 1.5h67.467c.828 0 1.5-.672 1.5-1.5s-.672-1.5-1.5-1.5z"/><path d="m93.926 77.382h-54.18c-.828 0-1.5.672-1.5 1.5s.672 1.5 1.5 1.5h54.18c.828 0 1.5-.672 1.5-1.5s-.672-1.5-1.5-1.5z"/></g><path d="m95.837 137.195c-.974 11.564-13.025 13.389-13.025 13.389 10.347.487 12.925 14.059 12.925 14.059.221-9.677 13.321-14.202 13.321-14.202-9.813-.587-13.221-13.246-13.221-13.246z" fill="#d7e057"/><path d="m109.148 148.944c-8.604-.515-11.832-12.024-11.863-12.141-.19-.702-.853-1.156-1.584-1.102-.725.066-1.298.642-1.359 1.367-.859 10.215-11.313 11.964-11.754 12.032-.763.116-1.313.791-1.273 1.561.04.771.657 1.385 1.428 1.421 9.028.425 11.499 12.718 11.522 12.843.138.711.76 1.217 1.473 1.217.042 0 .084-.002.126-.005.765-.064 1.357-.693 1.375-1.46.193-8.509 12.19-12.777 12.312-12.819.676-.234 1.092-.914.994-1.622-.1-.709-.683-1.25-1.397-1.292zm-13.565 10.346c-1.356-3.131-3.709-6.907-7.587-8.877 2.931-1.404 6.408-3.912 8.201-8.272 1.551 3.071 4.2 6.88 8.334 8.723-3.007 1.639-6.922 4.405-8.948 8.426z" fill="#3a312a"/><path d="m74.138 154.176c-.689 8.179-9.212 9.47-9.212 9.47 7.318.344 9.142 9.944 9.142 9.944.156-6.844 9.422-10.045 9.422-10.045-6.941-.415-9.352-9.369-9.352-9.369z" fill="#d7e057"/><path d="m83.58 162.048c-5.767-.345-7.972-8.186-7.993-8.265-.19-.701-.862-1.159-1.582-1.102-.726.065-1.3.643-1.361 1.368-.579 6.87-7.646 8.066-7.942 8.113-.763.116-1.313.791-1.273 1.561.04.771.657 1.385 1.428 1.421 6.035.284 7.724 8.645 7.739 8.727.136.713.759 1.22 1.473 1.22.041 0 .083-.002.125-.005.765-.063 1.358-.693 1.376-1.461.13-5.709 8.331-8.634 8.412-8.662.676-.234 1.093-.913.996-1.622-.099-.709-.684-1.251-1.398-1.293zm-9.585 6.795c-.924-1.886-2.34-3.947-4.447-5.28 1.855-1.041 3.697-2.63 4.871-4.916 1.057 1.874 2.654 3.955 4.941 5.224-1.849 1.1-3.989 2.739-5.365 4.972z" fill="#3a312a"/><path d="m74.138 127.518c-.689 8.179-9.212 9.471-9.212 9.471 7.318.344 9.142 9.944 9.142 9.944.156-6.845 9.422-10.045 9.422-10.045-6.941-.416-9.352-9.37-9.352-9.37z" fill="#d7e057"/><path d="m83.58 135.391c-5.767-.345-7.972-8.186-7.993-8.265-.19-.701-.862-1.158-1.582-1.102-.726.065-1.3.643-1.361 1.368-.579 6.87-7.646 8.066-7.942 8.113-.763.116-1.313.791-1.273 1.561.04.771.657 1.385 1.428 1.421 6.035.284 7.724 8.644 7.739 8.726.136.713.759 1.22 1.473 1.22.041 0 .083-.002.125-.005.765-.063 1.358-.693 1.376-1.461.13-5.708 8.331-8.633 8.412-8.661.676-.234 1.093-.913.996-1.622-.099-.709-.684-1.251-1.398-1.293zm-9.585 6.795c-.924-1.886-2.34-3.947-4.447-5.28 1.855-1.041 3.697-2.63 4.871-4.916 1.057 1.874 2.654 3.955 4.941 5.224-1.85 1.099-3.989 2.739-5.365 4.972z" fill="#3a312a"/><path d="m208.451 153.171h-16.431v-10.678c-4.545 3.151-9.247 5.01-13.81 5.01-4.377 0-8.996-1.877-13.522-5.065h-.279v10.734h-16.44c-13.735 0-24.869 11.133-24.869 24.869v22.537h110.22v-22.538c0-13.736-11.133-24.869-24.869-24.869z" fill="#f8e4c8"/><path d="m208.451 151.671h-14.931v-9.179c0-.559-.31-1.07-.805-1.329-.494-.258-1.091-.223-1.55.097-4.539 3.146-8.897 4.742-12.955 4.742-3.886 0-8.145-1.612-12.658-4.792-.253-.178-.555-.273-.864-.273h-.278c-.828 0-1.5.672-1.5 1.5v9.234h-14.94c-14.54 0-26.369 11.829-26.369 26.369v22.536c0 .828.672 1.5 1.5 1.5h110.22c.828 0 1.5-.672 1.5-1.5v-22.536c-.001-14.54-11.83-26.369-26.37-26.369zm23.369 47.405h-107.22v-21.036c0-12.886 10.483-23.369 23.369-23.369h16.44c.828 0 1.5-.672 1.5-1.5v-8.133c4.283 2.632 8.412 3.964 12.301 3.964 3.95 0 8.081-1.265 12.31-3.765v7.934c0 .828.672 1.5 1.5 1.5h16.431c12.886 0 23.369 10.483 23.369 23.369z" fill="#3a312a"/><path d="m208.451 153.16h-3.93l.1.08-17.09 22.66-8.82-6.64-8.82 6.64-17.09-22.66.1-.08h-4.93c-13.74 0-24.87 11.14-24.87 24.87v22.55h110.22v-22.55c0-13.73-11.13-24.87-24.87-24.87z" fill="#89c4db"/><path d="m208.45 151.66h-3.93c-.637 0-1.203.401-1.415 1.002-.018.052-.033.104-.045.155l-15.825 20.983-7.622-5.738c-.535-.402-1.27-.402-1.805 0l-7.623 5.738-15.825-20.983c-.012-.052-.027-.104-.045-.155-.212-.601-.778-1.002-1.415-1.002h-4.93c-14.541 0-26.37 11.829-26.37 26.37v22.55c0 .828.672 1.5 1.5 1.5h110.22c.828 0 1.5-.672 1.5-1.5v-22.55c0-14.541-11.83-26.37-26.37-26.37zm23.37 47.42h-107.22v-21.05c0-12.887 10.483-23.37 23.37-23.37h4.022l16.7 22.144c.498.66 1.438.79 2.1.295l7.918-5.96 7.917 5.96c.662.498 1.602.366 2.1-.295l16.7-22.144h3.022c12.887 0 23.37 10.483 23.37 23.37v21.05z" fill="#3a312a"/><path clip-rule="evenodd" d="m135.507 81.736c-5.405 0-9.785 4.381-9.785 9.786 0 5.404 4.381 9.785 9.785 9.785s9.786-4.381 9.786-9.785c0-5.405-4.382-9.786-9.786-9.786z" fill="#f8e4c8" fill-rule="evenodd"/><path d="m135.507 80.236c-6.223 0-11.285 5.063-11.285 11.285s5.063 11.285 11.285 11.285c6.224 0 11.286-5.063 11.286-11.285s-5.063-11.285-11.286-11.285zm0 19.571c-4.568 0-8.285-3.717-8.285-8.285s3.717-8.285 8.285-8.285c4.569 0 8.286 3.717 8.286 8.285s-3.717 8.285-8.286 8.285z" fill="#3a312a"/><path clip-rule="evenodd" d="m220.917 81.736c-5.404 0-9.786 4.381-9.786 9.786 0 5.404 4.381 9.785 9.786 9.785 5.404 0 9.786-4.381 9.786-9.785-.001-5.405-4.382-9.786-9.786-9.786z" fill="#f8e4c8" fill-rule="evenodd"/><path d="m220.917 80.236c-6.223 0-11.285 5.063-11.285 11.285s5.063 11.285 11.285 11.285 11.285-5.063 11.285-11.285-5.062-11.285-11.285-11.285zm0 19.571c-4.568 0-8.285-3.717-8.285-8.285s3.717-8.285 8.285-8.285 8.285 3.717 8.285 8.285-3.717 8.285-8.285 8.285z" fill="#3a312a"/><path d="m223.61 63.745c0-16.45-9.68-30.74-23.89-37.95.56 3.72.86 7.65.86 11.72 0 .551-.01 1.09-.02 1.64-.12 5.97 2.53 11.59 6.94 15.63 7.85 7.18 13.04 17.21 13.95 28.45.11-.16.37-.24.57-.31 1.85-.68 1.59-17.689 1.59-19.18z" fill="#87796f"/><path d="m225.112 64.267-.003-.521c0-16.499-9.469-31.553-24.711-39.288-.499-.253-1.101-.207-1.557.122-.455.328-.688.884-.605 1.438.56 3.723.844 7.591.844 11.498 0 .488-.009.969-.018 1.455l-.003.154c-.125 6.217 2.582 12.328 7.428 16.767 7.831 7.164 12.613 16.917 13.468 27.465.052.634.496 1.166 1.11 1.329.128.033.257.05.385.05.36 0 .709-.13.981-.365.011-.004.021-.008.032-.011.002-.001.045-.016.047-.017.009-.003.018-.006.026-.009 1.209-.444 2.712-.997 2.576-20.067zm-3.236 12.086c-2.062-8.673-6.675-16.556-13.362-22.674-4.21-3.855-6.563-9.139-6.454-14.497l.003-.156c.009-.505.018-1.003.018-1.51 0-3.031-.165-6.041-.491-8.983 12.729 7.541 20.521 20.79 20.521 35.213l.003.543c.038 5.622-.073 9.454-.238 12.064z" fill="#3a312a"/><path d="m143.746 181.267c-.828 0-1.5.672-1.5 1.5v17.812c0 .828.672 1.5 1.5 1.5s1.5-.672 1.5-1.5v-17.812c0-.829-.672-1.5-1.5-1.5z" fill="#3a312a"/><path d="m213.679 181.267c-.828 0-1.5.672-1.5 1.5v17.812c0 .828.672 1.5 1.5 1.5s1.5-.672 1.5-1.5v-17.812c0-.829-.672-1.5-1.5-1.5z" fill="#3a312a"/><path d="m182.931 183.92h-8.47l-2.57 16.66h13.61z" fill="#d4db56"/><path d="m186.983 200.352-2.57-16.66c-.113-.731-.742-1.271-1.482-1.271h-8.47c-.74 0-1.369.54-1.482 1.271l-2.57 16.66c-.066.433.059.873.344 1.205s.701.523 1.139.523h13.61c.438 0 .854-.191 1.139-.523s.409-.773.342-1.205zm-13.343-1.272 2.107-13.66h5.897l2.107 13.66z" fill="#3a312a"/><path d="m171.604 169.247 2.863 14.669h8.453l2.932-14.669z" fill="#d4db56"/><path d="m187.012 168.296c-.285-.348-.711-.549-1.16-.549h-14.247c-.448 0-.873.2-1.158.546-.284.347-.399.802-.314 1.241l2.863 14.669c.138.705.755 1.213 1.473 1.213h8.453c.715 0 1.331-.505 1.471-1.206l2.931-14.669c.086-.44-.028-.897-.312-1.245zm-5.321 14.12h-5.988l-2.277-11.669h10.597z" fill="#3a312a"/><path d="m160.233 147.038h11.09v28.387h-11.09z" fill="#87796f" transform="matrix(.799 -.602 .602 .799 -63.652 132.247)"/><path d="m179.947 168.327-17.086-22.67c-.24-.318-.596-.527-.989-.583-.398-.057-.795.048-1.112.287l-8.855 6.675c-.661.499-.793 1.439-.295 2.101l17.085 22.67c.24.318.596.527.989.583.07.01.14.015.209.015.324 0 .642-.104.902-.302l8.856-6.675c.318-.24.527-.596.583-.989.056-.395-.047-.794-.287-1.112zm-9.759 5.477-15.279-20.274 6.46-4.869 15.28 20.274z" fill="#3a312a"/><path d="m177.454 155.687h28.387v11.09h-28.387z" fill="#87796f" transform="matrix(.602 -.799 .799 .602 -52.457 217.244)"/><path d="m205.521 152.036-8.856-6.675c-.316-.239-.714-.345-1.111-.287-.394.056-.749.265-.989.583l-17.085 22.67c-.498.661-.366 1.602.296 2.101l8.856 6.675c.261.197.578.302.902.302.069 0 .139-.005.209-.015.394-.056.749-.265.989-.583l17.085-22.67c.497-.661.366-1.602-.296-2.101zm-18.283 21.768-6.461-4.869 15.279-20.274 6.461 4.869z" fill="#3a312a"/><path d="m207.496 54.782c-4.406-4.033-7.056-9.658-6.937-15.63.011-.543.016-1.088.016-1.636 0-4.07-.3-8-.86-11.72-6.27-3.18-13.42-4.979-21-4.979-7.4 0-14.38 1.71-20.53 4.74-.59 3.79-.9 7.8-.9 11.96v.219c.017 6.269-2.733 12.149-7.471 16.254-9.177 7.952-14.983 19.687-14.983 32.783 0 23.958 23.997 60.731 43.38 60.731 20.306 0 43.38-36.773 43.38-60.731.001-12.669-5.434-24.063-14.095-31.991z" fill="#f8e4c8"/><path d="m208.509 53.676c-4.206-3.851-6.558-9.134-6.45-14.495.011-.553.017-1.107.017-1.665 0-4.063-.295-8.081-.877-11.944-.072-.479-.372-.895-.805-1.114-6.633-3.363-14.129-5.142-21.679-5.142-7.366 0-14.694 1.692-21.192 4.895-.438.216-.744.632-.819 1.115-.609 3.915-.918 8.017-.918 12.19v.222c.017 5.765-2.518 11.274-6.952 15.117-9.851 8.536-15.501 20.897-15.501 33.917 0 11.688 5.628 27.092 14.688 40.203 9.531 13.793 20.818 22.028 30.192 22.028 9.867 0 21-8.032 30.545-22.037 8.842-12.974 14.335-28.376 14.335-40.194-.001-12.55-5.317-24.614-14.584-33.096zm-2.232 71.6c-8.845 12.979-19.337 20.727-28.065 20.727-8.389 0-18.753-7.751-27.725-20.734-8.731-12.636-14.155-27.387-14.155-38.497 0-12.148 5.272-23.685 14.466-31.649 5.095-4.415 8.006-10.755 7.987-17.389v-.218c0-3.744.258-7.426.767-10.953 5.978-2.818 12.421-4.247 19.163-4.247 6.818 0 13.588 1.545 19.629 4.474.485 3.479.731 7.083.731 10.727 0 .538-.006 1.073-.017 1.605-.124 6.224 2.582 12.335 7.425 16.768 8.648 7.916 13.608 19.173 13.608 30.883.001 11.247-5.292 26.001-13.814 38.503z" fill="#3a312a"/><path d="m162.896 82.048c-2.339 0-4.234 1.896-4.234 4.234s1.896 4.234 4.234 4.234 4.234-1.896 4.234-4.234-1.895-4.234-4.234-4.234z" fill="#3a312a"/><path d="m193.527 82.048c-2.338 0-4.234 1.896-4.234 4.234s1.896 4.234 4.234 4.234c2.339 0 4.234-1.896 4.234-4.234s-1.895-4.234-4.234-4.234z" fill="#3a312a"/><path d="m154.434 93.417c-4.028 0-7.294 2.441-7.294 5.453 0 3.011 3.266 5.452 7.294 5.452s7.294-2.441 7.294-5.452c0-3.012-3.266-5.453-7.294-5.453z" fill="#f59689"/><path d="m201.99 93.417c-4.028 0-7.294 2.441-7.294 5.453 0 3.011 3.266 5.452 7.294 5.452s7.294-2.441 7.294-5.452c-.001-3.012-3.266-5.453-7.294-5.453z" fill="#f59689"/><path d="m190.724 113.094c-.777-.294-1.641.103-1.931.878-.841 2.244-4.135 6.487-10.582 6.487-5.038 0-8.516-2.161-10.632-6.605-.355-.747-1.25-1.065-1.999-.71-.748.356-1.066 1.251-.71 1.999 2.627 5.519 7.115 8.316 13.341 8.316 7.029 0 11.869-4.372 13.391-8.435.291-.775-.103-1.64-.878-1.93z" fill="#3a312a"/><path d="m159.275 69.005c-9.409 0-17.064 7.655-17.064 17.065s7.655 17.065 17.064 17.065c9.41 0 17.065-7.655 17.065-17.065s-7.654-17.065-17.065-17.065zm0 31.131c-7.755 0-14.064-6.31-14.064-14.065s6.31-14.065 14.064-14.065c7.756 0 14.065 6.31 14.065 14.065s-6.309 14.065-14.065 14.065z" fill="#3a312a"/><path d="m198.146 69.005c-9.41 0-17.065 7.655-17.065 17.065s7.655 17.065 17.065 17.065 17.065-7.655 17.065-17.065-7.655-17.065-17.065-17.065zm0 31.131c-7.756 0-14.065-6.31-14.065-14.065s6.31-14.065 14.065-14.065 14.065 6.31 14.065 14.065-6.31 14.065-14.065 14.065z" fill="#3a312a"/><path d="m182.58 84.539h-7.739c-.828 0-1.5.672-1.5 1.5s.672 1.5 1.5 1.5h7.739c.828 0 1.5-.672 1.5-1.5s-.672-1.5-1.5-1.5z" fill="#3a312a"/><path d="m208.45 154.656h-3.02l-1.77 2.35c7.78 3.8 13.16 11.8 13.16 21.03v21.04h15v-21.04c0-12.891-10.48-23.38-23.37-23.38z" fill="#6ca6be"/><path d="m144.275 81.083-8.984-.906c-.809-.096-1.56.517-1.643 1.342-.083.824.518 1.56 1.342 1.643l8.984.906c.051.006.102.008.152.008.761 0 1.412-.576 1.49-1.35.084-.825-.516-1.56-1.341-1.643z" fill="#3a312a"/><path d="m222.785 81.446c-.098-.822-.847-1.419-1.667-1.312l-7.989.951c-.822.098-1.41.844-1.312 1.667.091.762.738 1.322 1.487 1.322.06 0 .119-.003.18-.011l7.989-.951c.823-.096 1.411-.842 1.312-1.666z" fill="#3a312a"/><path d="m182.317 16.599c-14.672-.917-27.652 5.868-34 12-9.58 7.871-14.507 22.122-14.507 35.146 0 2.38.42 15.92 1.18 19.27.124-1.446.492-3.027 1.042-4.69 5.005-15.103 20.164-24.537 35.972-22.735 2.198.25 4.477.382 6.812.382 18.225 0 33-8.013 33-17.898.001-9.885-13.499-20.475-29.499-21.475z" fill="#87796f"/><path d="m182.411 15.103c-14.427-.894-28.008 5.56-35.093 12.376-9.26 7.637-15.009 21.525-15.009 36.267 0 2.404.409 16.039 1.218 19.603.156.688.767 1.168 1.462 1.168.034 0 .069-.001.104-.004.738-.051 1.328-.632 1.391-1.369.107-1.262.435-2.724.972-4.346 4.743-14.313 19.19-23.451 34.379-21.717 2.274.26 4.623.392 6.982.392 19.346 0 34.5-8.521 34.5-19.397 0-11.013-14.731-21.963-30.906-22.973zm-3.594 39.369c-2.245 0-4.48-.125-6.643-.372-15.522-1.765-30.377 6.884-36.458 20.854-.26-4.564-.407-9.603-.407-11.209 0-13.68 5.479-27.021 13.96-33.986.031-.025.062-.053.09-.08 6.182-5.972 17.734-11.661 30.306-11.661.849 0 1.702.025 2.559.079 12.992.812 28.094 9.716 28.094 19.978-.001 8.888-14.425 16.397-31.501 16.397z" fill="#3a312a"/><path d="m227.519 168.997h-98.616c-4.136 0-7.489 3.353-7.489 7.489v46.434c0 4.136 3.353 7.489 7.489 7.489h98.616c4.136 0 7.489-3.353 7.489-7.489v-46.434c0-4.136-3.353-7.489-7.489-7.489z" fill="#87796f"/><path d="m227.519 167.497h-98.616c-4.957 0-8.989 4.032-8.989 8.989v18.507c0 .828.672 1.5 1.5 1.5s1.5-.672 1.5-1.5v-18.507c0-3.303 2.687-5.989 5.989-5.989h98.616c3.303 0 5.989 2.687 5.989 5.989v46.433c0 3.303-2.687 5.989-5.989 5.989h-98.616c-3.303 0-5.989-2.687-5.989-5.989v-14.669c0-.828-.672-1.5-1.5-1.5s-1.5.672-1.5 1.5v14.669c0 4.957 4.032 8.989 8.989 8.989h98.616c4.957 0 8.989-4.032 8.989-8.989v-46.433c0-4.957-4.032-8.989-8.989-8.989z" fill="#3a312a"/><path d="m116.961 230.406c0 4.987 4.043 9.03 9.03 9.03h104.439c4.987 0 9.03-4.043 9.03-9.03z" fill="#87796f"/><path d="m239.461 228.906h-122.5c-.828 0-1.5.672-1.5 1.5 0 5.807 4.724 10.53 10.53 10.53h47.195c.828 0 1.5-.672 1.5-1.5s-.672-1.5-1.5-1.5h-47.195c-3.639 0-6.683-2.594-7.38-6.03h119.199c-.697 3.437-3.741 6.03-7.38 6.03h-44.445c-.828 0-1.5.672-1.5 1.5s.672 1.5 1.5 1.5h44.445c5.807 0 10.53-4.724 10.53-10.53.001-.828-.671-1.5-1.499-1.5z" fill="#3a312a"/><circle cx="178.211" cy="199.997" fill="#d7e057" r="8.5"/><path d="m178.211 189.997c-5.514 0-10 4.486-10 10s4.486 10 10 10 10-4.486 10-10-4.486-10-10-10zm0 17c-3.859 0-7-3.141-7-7s3.141-7 7-7 7 3.141 7 7-3.141 7-7 7z" fill="#3a312a"/><path d="m227.521 170.497h-15c3.3 0 5.99 2.69 5.99 5.99v46.43c0 3.29-2.66 5.96-5.94 5.99h15c3.28-.03 5.94-2.7 5.94-5.99v-46.43c0-3.3-2.69-5.99-5.99-5.99z" fill="#695b51"/><path d="m222.811 231.906c-.7 3.44-3.74 6.03-7.38 6.03h15c3.64 0 6.68-2.59 7.38-6.03z" fill="#695b51"/></svg>