<svg id="Layer_1" enable-background="new 0 0 256 256" height="512" viewBox="0 0 256 256" width="512" xmlns="http://www.w3.org/2000/svg"><path d="m166.268 116.534h22.769v22.769h-22.769z" fill="#d6df58"/><path d="m189.037 115.034h-22.769c-.829 0-1.5.671-1.5 1.5v22.769c0 .829.671 1.5 1.5 1.5h22.769c.829 0 1.5-.671 1.5-1.5v-22.769c0-.829-.671-1.5-1.5-1.5zm-1.5 22.769h-19.769v-19.769h19.769z" fill="#3a312a"/><path d="m16.845 16.918h22.769v22.769h-22.769z" fill="#d6df58"/><path d="m39.614 15.418h-22.77c-.829 0-1.5.671-1.5 1.5v22.769c0 .829.671 1.5 1.5 1.5h22.77c.829 0 1.5-.671 1.5-1.5v-22.769c0-.829-.671-1.5-1.5-1.5zm-1.5 22.77h-19.77v-19.77h19.77z" fill="#3a312a"/><path d="m116.46 16.918h22.769v22.769h-22.769z" fill="#d6df58"/><path d="m139.229 15.418h-22.769c-.829 0-1.5.671-1.5 1.5v22.769c0 .829.671 1.5 1.5 1.5h22.769c.829 0 1.5-.671 1.5-1.5v-22.769c0-.829-.671-1.5-1.5-1.5zm-1.5 22.77h-19.769v-19.77h19.769z" fill="#3a312a"/><path d="m66.653 66.726h22.769v22.769h-22.769z" fill="#d6df58"/><path d="m89.422 65.226h-22.769c-.829 0-1.5.671-1.5 1.5v22.769c0 .829.671 1.5 1.5 1.5h22.769c.829 0 1.5-.671 1.5-1.5v-22.769c0-.829-.672-1.5-1.5-1.5zm-1.5 22.769h-19.769v-19.769h19.769z" fill="#3a312a"/><path d="m116.46 66.726h22.769v22.769h-22.769z" fill="#d6df58"/><path d="m139.229 65.226h-22.769c-.829 0-1.5.671-1.5 1.5v22.769c0 .829.671 1.5 1.5 1.5h22.769c.829 0 1.5-.671 1.5-1.5v-22.769c0-.829-.671-1.5-1.5-1.5zm-1.5 22.769h-19.769v-19.769h19.769z" fill="#3a312a"/><path d="m216.076 66.726h22.769v22.769h-22.769z" fill="#d6df58"/><path d="m238.845 65.226h-22.769c-.829 0-1.5.671-1.5 1.5v22.769c0 .829.671 1.5 1.5 1.5h22.769c.829 0 1.5-.671 1.5-1.5v-22.769c0-.829-.672-1.5-1.5-1.5zm-1.5 22.769h-19.769v-19.769h19.769z" fill="#3a312a"/><path d="m66.653 166.341h22.769v22.769h-22.769z" fill="#d6df58"/><path d="m89.422 164.841h-22.769c-.829 0-1.5.671-1.5 1.5v22.769c0 .829.671 1.5 1.5 1.5h22.769c.829 0 1.5-.671 1.5-1.5v-22.769c0-.828-.672-1.5-1.5-1.5zm-1.5 22.769h-19.769v-19.769h19.769z" fill="#3a312a"/><path d="m166.268 166.341h22.769v22.769h-22.769z" fill="#d6df58"/><path d="m189.037 164.841h-22.769c-.829 0-1.5.671-1.5 1.5v22.769c0 .829.671 1.5 1.5 1.5h22.769c.829 0 1.5-.671 1.5-1.5v-22.769c0-.828-.671-1.5-1.5-1.5zm-1.5 22.769h-19.769v-19.769h19.769z" fill="#3a312a"/><path d="m216.076 166.341h22.769v22.769h-22.769z" fill="#d6df58"/><path d="m238.845 164.841h-22.769c-.829 0-1.5.671-1.5 1.5v22.769c0 .829.671 1.5 1.5 1.5h22.769c.829 0 1.5-.671 1.5-1.5v-22.769c0-.828-.672-1.5-1.5-1.5zm-1.5 22.769h-19.769v-19.769h19.769z" fill="#3a312a"/><path d="m16.845 216.149h22.769v22.769h-22.769z" fill="#d6df58"/><path d="m39.614 214.649h-22.77c-.829 0-1.5.671-1.5 1.5v22.769c0 .829.671 1.5 1.5 1.5h22.77c.829 0 1.5-.671 1.5-1.5v-22.769c0-.829-.671-1.5-1.5-1.5zm-1.5 22.769h-19.77v-19.769h19.77z" fill="#3a312a"/><path d="m116.46 216.149h22.769v22.769h-22.769z" fill="#d6df58"/><path d="m139.229 214.649h-22.769c-.829 0-1.5.671-1.5 1.5v22.769c0 .829.671 1.5 1.5 1.5h22.769c.829 0 1.5-.671 1.5-1.5v-22.769c0-.829-.671-1.5-1.5-1.5zm-1.5 22.769h-19.769v-19.769h19.769z" fill="#3a312a"/><path d="m216.076 216.149h22.769v22.769h-22.769z" fill="#d6df58"/><path d="m238.845 214.649h-22.769c-.829 0-1.5.671-1.5 1.5v22.769c0 .829.671 1.5 1.5 1.5h22.769c.829 0 1.5-.671 1.5-1.5v-22.769c0-.829-.672-1.5-1.5-1.5zm-1.5 22.769h-19.769v-19.769h19.769z" fill="#3a312a"/><ellipse cx="78.037" cy="28.303" fill="#8ac5dc" rx="11.385" ry="11.385" transform="matrix(.707 -.707 .707 .707 2.844 63.47)"/><path d="m78.037 15.418c-7.104 0-12.884 5.78-12.884 12.885s5.78 12.885 12.884 12.885 12.885-5.78 12.885-12.885-5.78-12.885-12.885-12.885zm0 22.77c-5.45 0-9.884-4.434-9.884-9.885s4.434-9.885 9.884-9.885c5.451 0 9.885 4.434 9.885 9.885 0 5.45-4.434 9.885-9.885 9.885z" fill="#3a312a"/><circle cx="177.653" cy="28.303" fill="#8ac5dc" r="11.385"/><path d="m177.653 15.418c-7.104 0-12.885 5.78-12.885 12.885s5.78 12.885 12.885 12.885 12.884-5.78 12.884-12.885-5.78-12.885-12.884-12.885zm0 22.77c-5.451 0-9.885-4.434-9.885-9.885s4.434-9.885 9.885-9.885c5.45 0 9.884 4.434 9.884 9.885 0 5.45-4.434 9.885-9.884 9.885z" fill="#3a312a"/><ellipse cx="227.46" cy="28.303" fill="#8ac5dc" rx="11.385" ry="11.385" transform="matrix(.707 -.707 .707 .707 46.609 169.128)"/><path d="m227.46 15.418c-7.104 0-12.885 5.78-12.885 12.885s5.78 12.885 12.885 12.885c7.104 0 12.884-5.78 12.884-12.885.001-7.105-5.779-12.885-12.884-12.885zm0 22.77c-5.451 0-9.885-4.434-9.885-9.885s4.434-9.885 9.885-9.885c5.45 0 9.884 4.434 9.884 9.885.001 5.45-4.433 9.885-9.884 9.885z" fill="#3a312a"/><circle cx="177.653" cy="78.11" fill="#8ac5dc" r="11.385"/><path d="m177.653 65.226c-7.104 0-12.885 5.78-12.885 12.884s5.78 12.885 12.885 12.885 12.884-5.78 12.884-12.885c0-7.104-5.78-12.884-12.884-12.884zm0 22.769c-5.451 0-9.885-4.434-9.885-9.885 0-5.45 4.434-9.884 9.885-9.884 5.45 0 9.884 4.434 9.884 9.884 0 5.451-4.434 9.885-9.884 9.885z" fill="#3a312a"/><ellipse cx="28.23" cy="78.11" fill="#8ac5dc" rx="11.385" ry="11.385" transform="matrix(.383 -.924 .924 .383 -54.738 74.3)"/><path d="m28.229 65.226c-7.104 0-12.885 5.78-12.885 12.884s5.78 12.885 12.885 12.885 12.885-5.78 12.885-12.885c0-7.104-5.78-12.884-12.885-12.884zm0 22.769c-5.451 0-9.885-4.434-9.885-9.885 0-5.45 4.434-9.884 9.885-9.884s9.885 4.434 9.885 9.884c0 5.451-4.434 9.885-9.885 9.885z" fill="#3a312a"/><ellipse cx="78.037" cy="127.918" fill="#8ac5dc" rx="11.385" ry="11.385" transform="matrix(.987 -.16 .16 .987 -19.483 14.152)"/><path d="m78.037 115.034c-7.104 0-12.884 5.78-12.884 12.884s5.78 12.885 12.884 12.885 12.885-5.78 12.885-12.885-5.78-12.884-12.885-12.884zm0 22.769c-5.45 0-9.884-4.434-9.884-9.885 0-5.45 4.434-9.884 9.884-9.884 5.451 0 9.885 4.434 9.885 9.884 0 5.451-4.434 9.885-9.885 9.885z" fill="#3a312a"/><ellipse cx="227.46" cy="127.918" fill="#8ac5dc" rx="11.385" ry="11.385" transform="matrix(.987 -.16 .16 .987 -17.553 38.087)"/><path d="m227.46 115.034c-7.104 0-12.885 5.78-12.885 12.884s5.78 12.885 12.885 12.885c7.104 0 12.884-5.78 12.884-12.885s-5.779-12.884-12.884-12.884zm0 22.769c-5.451 0-9.885-4.434-9.885-9.885 0-5.45 4.434-9.884 9.885-9.884 5.45 0 9.884 4.434 9.884 9.884.001 5.451-4.433 9.885-9.884 9.885z" fill="#3a312a"/><ellipse cx="28.23" cy="177.726" fill="#8ac5dc" rx="11.385" ry="11.385" transform="matrix(.973 -.23 .23 .973 -40.078 11.24)"/><path d="m28.229 164.841c-7.104 0-12.885 5.78-12.885 12.885s5.78 12.884 12.885 12.884 12.885-5.78 12.885-12.884-5.78-12.885-12.885-12.885zm0 22.769c-5.451 0-9.885-4.434-9.885-9.884 0-5.451 4.434-9.885 9.885-9.885s9.885 4.434 9.885 9.885c0 5.45-4.434 9.884-9.885 9.884z" fill="#3a312a"/><circle cx="127.845" cy="177.726" fill="#8ac5dc" r="11.385"/><path d="m127.845 164.841c-7.104 0-12.884 5.78-12.884 12.885s5.78 12.884 12.884 12.884 12.885-5.78 12.885-12.884-5.781-12.885-12.885-12.885zm0 22.769c-5.45 0-9.884-4.434-9.884-9.884 0-5.451 4.434-9.885 9.884-9.885 5.451 0 9.885 4.434 9.885 9.885-.001 5.45-4.435 9.884-9.885 9.884z" fill="#3a312a"/><ellipse cx="78.037" cy="227.533" fill="#8ac5dc" rx="11.385" ry="11.385" transform="matrix(.973 -.23 .23 .973 -50.189 24.016)"/><path d="m78.037 214.649c-7.104 0-12.884 5.78-12.884 12.885s5.78 12.884 12.884 12.884 12.885-5.78 12.885-12.884-5.78-12.885-12.885-12.885zm0 22.769c-5.45 0-9.884-4.434-9.884-9.884 0-5.451 4.434-9.885 9.884-9.885 5.451 0 9.885 4.434 9.885 9.885 0 5.45-4.434 9.884-9.885 9.884z" fill="#3a312a"/><circle cx="177.653" cy="227.533" fill="#8ac5dc" r="11.385"/><path d="m177.653 214.649c-7.104 0-12.885 5.78-12.885 12.885s5.78 12.884 12.885 12.884 12.884-5.78 12.884-12.884-5.78-12.885-12.884-12.885zm0 22.769c-5.451 0-9.885-4.434-9.885-9.884 0-5.451 4.434-9.885 9.885-9.885 5.45 0 9.884 4.434 9.884 9.885 0 5.45-4.434 9.884-9.884 9.884z" fill="#3a312a"/><path d="m211.879 200.444-8.721-8.721-9.369-9.369-4.935-4.935-23.031-23.031c-1.518 2.167-3.246 4.23-5.178 6.162s-3.995 3.66-6.162 5.178l46.056 46.056c3.131 3.132 8.208 3.132 11.34 0 3.132-3.131 3.132-8.208 0-11.34z" fill="#87796f"/><path d="m212.94 199.384-8.721-8.721c-.586-.586-1.535-.586-2.121 0s-.586 1.536 0 2.121l8.721 8.721c2.541 2.542 2.541 6.677 0 9.219-1.231 1.232-2.868 1.909-4.609 1.909s-3.378-.678-4.609-1.909l-44.817-44.817c1.726-1.31 3.377-2.75 4.922-4.296 1.545-1.545 2.986-3.196 4.296-4.923l26.727 26.727c.586.586 1.536.586 2.121 0 .586-.586.586-1.536 0-2.121l-27.966-27.966c-.313-.314-.751-.472-1.191-.434-.442.039-.844.271-1.098.633-1.478 2.109-3.164 4.116-5.01 5.962-1.847 1.847-3.853 3.533-5.962 5.01-.363.254-.595.656-.634 1.098s.12.878.434 1.191l46.057 46.056c1.797 1.798 4.188 2.788 6.73 2.788 2.543 0 4.933-.99 6.73-2.788 3.711-3.71 3.711-9.749 0-13.46z" fill="#3a312a"/><path d="m174.2 149.498-3.644-3.644c-2.251 5.34-5.56 10.345-9.911 14.696s-9.356 7.659-14.696 9.911l3.644 3.644c2.591 2.592 6.801 2.592 9.392 0l15.214-15.214c2.592-2.592 2.592-6.801.001-9.393z" fill="#d7e057"/><path d="m175.26 148.438-3.644-3.644c-.353-.353-.859-.505-1.349-.412-.49.096-.9.429-1.094.89-2.238 5.309-5.464 10.093-9.589 14.218s-8.909 7.351-14.218 9.589c-.46.194-.794.604-.89 1.094s.058.996.412 1.349l3.644 3.644c1.537 1.537 3.581 2.383 5.757 2.383 2.175 0 4.22-.846 5.756-2.383l15.214-15.214c1.537-1.537 2.383-3.581 2.383-5.756.002-2.177-.845-4.221-2.382-5.758zm-2.121 9.392-15.214 15.214c-.97.97-2.261 1.504-3.635 1.504-1.375 0-2.666-.534-3.636-1.504l-2.106-2.106c4.868-2.324 9.286-5.455 13.158-9.327s7.003-8.29 9.327-13.158l2.107 2.107c.97.97 1.504 2.261 1.504 3.636 0 1.373-.535 2.664-1.505 3.634z" fill="#3a312a"/><ellipse cx="127.886" cy="127.791" fill="#f16c7a" rx="46.326" ry="46.326" transform="matrix(.29 -.957 .957 .29 -31.481 213.158)"/><path d="m161.704 93.974c-9.033-9.033-21.043-14.008-33.818-14.008-.001 0 0 0 0 0-12.774 0-24.785 4.975-33.818 14.008-18.648 18.647-18.648 48.989 0 67.636 9.324 9.324 21.571 13.985 33.818 13.985s24.495-4.662 33.818-13.985c18.647-18.648 18.647-48.989 0-67.636zm-2.121 65.514c-17.477 17.477-45.916 17.477-63.394 0-17.478-17.478-17.478-45.917 0-63.394s45.917-17.477 63.394 0c17.477 17.478 17.477 45.916 0 63.394z" fill="#3a312a"/><path d="m152.28 103.397c-11.986-11.986-30.593-13.299-44.041-3.957l-9.25 9.502c-8.745 13.378-7.246 31.493 4.504 43.242 13.472 13.472 35.315 13.472 48.788 0 13.471-13.471 13.471-35.314-.001-48.787z" fill="#8ac6dd"/><path d="m153.34 102.337c-12.326-12.328-31.655-14.063-45.957-4.128-.68.473-.849 1.407-.376 2.088.472.68 1.406.849 2.088.376 13.109-9.106 30.825-7.514 42.124 3.786 6.233 6.232 9.665 14.519 9.665 23.333s-3.433 17.101-9.665 23.333c-12.866 12.865-33.8 12.865-46.666 0-10.983-10.983-12.795-28.378-4.309-41.361.454-.693.259-1.623-.435-2.076s-1.623-.258-2.076.435c-9.259 14.165-7.283 33.143 4.699 45.124 7.018 7.018 16.236 10.527 25.455 10.527s18.437-3.509 25.454-10.527c6.799-6.799 10.544-15.839 10.544-25.455-.001-9.616-3.745-18.656-10.545-25.455z" fill="#3a312a"/><path d="m16.845 116.534h22.769v22.769h-22.769z" fill="#d6df58"/><path d="m39.614 115.034h-22.77c-.829 0-1.5.671-1.5 1.5v22.769c0 .829.671 1.5 1.5 1.5h22.77c.829 0 1.5-.671 1.5-1.5v-22.769c0-.829-.671-1.5-1.5-1.5zm-1.5 22.769h-19.77v-19.769h19.77z" fill="#3a312a"/><path d="m116.46 116.534h22.769v22.769h-22.769z" fill="#d6df58"/><path d="m139.229 115.034h-22.769c-.829 0-1.5.671-1.5 1.5v22.769c0 .829.671 1.5 1.5 1.5h22.769c.829 0 1.5-.671 1.5-1.5v-22.769c0-.829-.671-1.5-1.5-1.5zm-1.5 22.769h-19.769v-19.769h19.769z" fill="#3a312a"/><path d="m151.215 104.458c-6.23-6.23-14.52-9.66-23.33-9.66-2.56 0-5.07.29-7.5.86 5.95 1.37 11.41 4.38 15.83 8.8 12.87 12.87 12.87 33.8 0 46.67-4.51 4.51-10.02 7.45-15.83 8.79 10.73 2.49 22.48-.44 30.83-8.79 12.87-12.87 12.87-33.8 0-46.67z" fill="#6ca8bf"/></svg>