<svg id="Layer_1" enable-background="new 0 0 256 256" height="512" viewBox="0 0 256 256" width="512" xmlns="http://www.w3.org/2000/svg"><path d="m79.146 172.226-.047 16.462-.037 13.226-.105 37.154 99.241.281.189-66.842z" fill="#8ac6dd"/><path d="m178.392 171.007-99.241-.281h-.004c-.396 0-.776.157-1.058.437s-.441.662-.442 1.059l-.047 16.462c-.002.829.667 1.502 1.496 1.504h.004c.827 0 1.498-.669 1.5-1.496l.042-14.962 96.241.272-.18 63.842-96.241-.272.101-35.655c.003-.829-.668-1.502-1.496-1.504h-.004c-.827 0-1.497.669-1.5 1.496l-.105 37.155c-.002.829.668 1.502 1.496 1.504l99.241.281h.004c.396 0 .776-.157 1.058-.436.282-.28.441-.662.442-1.059l.189-66.842c.002-.829-.668-1.503-1.496-1.505z" fill="#3a312a"/><path d="m201.716 42.244h-28.108v9.178h23.519v6.142c0 13.331-10.402 24.284-23.519 25.156v2.93c0 2.134-.145 4.237-.444 6.287 18.387-.665 33.141-15.825 33.141-34.372v-10.732c0-2.532-2.057-4.589-4.589-4.589z" fill="#f16c7a"/><path d="m201.716 40.744h-28.108c-.829 0-1.5.671-1.5 1.5v9.178c0 .829.671 1.5 1.5 1.5h22.019v4.642c0 12.442-9.716 22.834-22.119 23.659-.788.052-1.4.707-1.4 1.497v2.93c0 2.076-.144 4.119-.428 6.071-.064.44.071.886.368 1.217.285.318.691.498 1.117.498.018 0 .036 0 .054-.001 19.395-.702 34.587-16.458 34.587-35.872v-10.731c-.001-3.357-2.732-6.088-6.09-6.088zm3.089 16.82c0 17.198-13.01 31.264-29.932 32.764.156-1.528.234-3.095.234-4.678v-1.563c13.297-1.59 23.519-12.978 23.519-26.522v-6.142c0-.829-.671-1.5-1.5-1.5h-22.019v-6.178h26.608c1.704 0 3.089 1.386 3.089 3.089v10.73z" fill="#3a312a"/><path d="m83.737 85.649v-2.93c-13.117-.871-23.52-11.824-23.52-25.155v-6.142h23.519v-9.178h-28.108c-2.532 0-4.589 2.057-4.589 4.589v10.731c0 18.548 14.754 33.707 33.141 34.372-.298-2.049-.443-4.153-.443-6.287z" fill="#f16c7a"/><path d="m85.665 91.721c-.284-1.95-.428-3.993-.428-6.071v-2.93c0-.79-.612-1.444-1.4-1.497-12.403-.825-22.119-11.217-22.119-23.659v-4.642h22.02c.829 0 1.5-.671 1.5-1.5v-9.178c0-.829-.671-1.5-1.5-1.5h-28.11c-3.358 0-6.089 2.731-6.089 6.089v10.732c0 19.413 15.192 35.169 34.587 35.872.018 0 .036.001.054.001.425 0 .832-.181 1.117-.498.297-.333.432-.779.368-1.219zm-33.126-34.157v-10.732c0-1.703 1.386-3.089 3.089-3.089h26.608v6.178h-22.02c-.829 0-1.5.671-1.5 1.5v6.142c0 13.545 10.221 24.933 23.52 26.522v1.563c0 1.584.079 3.151.234 4.678-16.921-1.498-29.931-15.564-29.931-32.762z" fill="#3a312a"/><path d="m138.01 130.581h-18.677c-.369 0-.746-.007-1.115-.021v19.164h20.907v-19.164c-.369.015-.745.021-1.115.021z" fill="#d7e057"/><path d="m140.165 129.48c-.293-.283-.676-.428-1.098-.419-.351.014-.707.02-1.058.02h-18.676c-.351 0-.708-.006-1.058-.02-.412-.009-.804.136-1.098.419s-.46.673-.46 1.081v19.165c0 .829.671 1.5 1.5 1.5h20.907c.829 0 1.5-.671 1.5-1.5v-19.166c.001-.407-.165-.797-.459-1.08zm-2.54 18.745h-17.907v-16.144h17.907z" fill="#3a312a"/><path d="m148.87 149.723h-40.396c-6.226 0-11.273 5.047-11.273 11.273h62.943c-.001-6.226-5.048-11.273-11.274-11.273z" fill="#f16c7a"/><path d="m148.87 148.223h-40.396c-7.043 0-12.773 5.73-12.773 12.773 0 .829.671 1.5 1.5 1.5h62.943c.829 0 1.5-.672 1.5-1.5 0-7.043-5.73-12.773-12.774-12.773zm-50.055 11.273c.724-4.68 4.779-8.273 9.659-8.273h40.396c4.879 0 8.935 3.594 9.659 8.273z" fill="#3a312a"/><path d="m160.613 160.996h-63.882c-6.226 0-11.273 5.047-11.273 11.273h86.429c-.001-6.226-5.048-11.273-11.274-11.273z" fill="#f16c7a"/><path d="m160.613 159.496h-63.882c-7.044 0-12.773 5.73-12.773 12.773 0 .829.671 1.5 1.5 1.5h86.429c.829 0 1.5-.671 1.5-1.5-.001-7.043-5.731-12.773-12.774-12.773zm-73.541 11.273c.724-4.68 4.779-8.273 9.659-8.273h63.882c4.879 0 8.935 3.593 9.658 8.273z" fill="#3a312a"/><path d="m83.737 33.359v61.626c0 19.659 15.938 35.597 35.597 35.597h18.677c19.659 0 35.597-15.938 35.597-35.597v-61.626z" fill="#d7e057"/><path d="m173.607 31.859h-89.87c-.829 0-1.5.671-1.5 1.5v61.626c0 20.455 16.642 37.097 37.097 37.097h18.676c20.456 0 37.097-16.642 37.097-37.097v-61.626c0-.829-.671-1.5-1.5-1.5zm-1.5 63.126c0 18.801-15.296 34.097-34.097 34.097h-18.676c-18.801 0-34.097-15.296-34.097-34.097v-60.126h86.871v60.126z" fill="#3a312a"/><path d="m172.13 16.633h-86.916c-3.758 0-6.805 3.047-6.805 6.805v3.115c0 3.759 3.047 6.805 6.805 6.805h86.916c3.758 0 6.805-3.046 6.805-6.805v-3.115c0-3.758-3.047-6.805-6.805-6.805z" fill="#d7e057"/><path d="m172.13 15.133h-48.731c-.829 0-1.5.671-1.5 1.5s.671 1.5 1.5 1.5h48.731c2.925 0 5.305 2.38 5.305 5.305v3.115c0 2.925-2.38 5.305-5.305 5.305h-86.916c-2.925 0-5.305-2.38-5.305-5.305v-3.115c0-2.925 2.38-5.305 5.305-5.305h25.398c.829 0 1.5-.671 1.5-1.5s-.671-1.5-1.5-1.5h-25.398c-4.579 0-8.305 3.726-8.305 8.305v3.115c0 4.58 3.726 8.305 8.305 8.305h86.916c4.58 0 8.305-3.726 8.305-8.305v-3.115c0-4.579-3.726-8.305-8.305-8.305z" fill="#3a312a"/><ellipse cx="129.021" cy="80.747" fill="#87796f" rx="28.572" ry="28.573" transform="matrix(.993 -.122 .122 .993 -8.899 16.369)"/><path d="m129.021 50.675c-16.582 0-30.072 13.49-30.072 30.072s13.49 30.073 30.072 30.073 30.072-13.491 30.072-30.073-13.491-30.072-30.072-30.072zm0 57.145c-14.928 0-27.072-12.145-27.072-27.073s12.145-27.072 27.072-27.072c14.928 0 27.072 12.144 27.072 27.072s-12.145 27.073-27.072 27.073z" fill="#3a312a"/><path d="m148.516 77.984c1.099-1.071.492-2.937-1.026-3.157l-10.652-1.548c-.603-.088-1.124-.466-1.394-1.013l-4.764-9.653c-.679-1.376-2.641-1.376-3.32 0l-4.764 9.653c-.27.546-.791.925-1.394 1.013l-10.652 1.548c-1.518.221-2.124 2.086-1.026 3.157l7.708 7.513c.436.425.635 1.038.532 1.638l-1.82 10.609c-.259 1.512 1.328 2.665 2.686 1.951l9.528-5.009c.539-.284 1.183-.284 1.723 0l9.528 5.009c1.358.714 2.945-.439 2.686-1.951l-1.82-10.609c-.103-.6.096-1.213.532-1.638z" fill="#fae6ca"/><path d="m149.563 79.058c.92-.897 1.245-2.213.848-3.435s-1.433-2.096-2.705-2.28l-10.651-1.548c-.115-.017-.214-.089-.265-.192l-4.764-9.652c-.568-1.152-1.72-1.868-3.005-1.868s-2.437.716-3.005 1.868l-4.764 9.653c-.051.104-.15.175-.264.192l-10.652 1.548c-1.271.185-2.308 1.059-2.705 2.28-.397 1.222-.072 2.538.848 3.436l7.707 7.513c.083.081.121.197.101.311l-1.82 10.609c-.217 1.266.294 2.522 1.333 3.277s2.392.854 3.529.255l9.527-5.009c.103-.055.225-.054.327 0l9.528 5.009c.494.26 1.03.389 1.562.389.692 0 1.379-.217 1.967-.644 1.039-.755 1.55-2.011 1.333-3.277l-1.82-10.61c-.02-.114.018-.229.101-.31zm-10.766 8.331 1.82 10.609c.031.178-.059.285-.14.343-.08.059-.211.11-.369.027l-9.528-5.01c-.488-.256-1.023-.384-1.559-.384-.535 0-1.071.128-1.56.385l-9.527 5.009c-.161.083-.289.032-.37-.027s-.17-.166-.14-.343l1.82-10.609c.187-1.087-.174-2.196-.964-2.966l-7.707-7.513c-.129-.126-.12-.266-.089-.36.031-.095.105-.213.284-.239l10.652-1.548c1.092-.159 2.035-.845 2.523-1.833l4.764-9.653c.079-.162.215-.195.314-.195s.235.034.315.195l4.764 9.653c.488.988 1.432 1.673 2.523 1.833l10.652 1.548c.179.026.253.144.284.239s.04.234-.089.36l-7.708 7.514c-.791.769-1.152 1.878-.965 2.965z" fill="#3a312a"/><path d="m185.207 185.093h47.36v61.24h-47.36z" fill="#d7e057" transform="matrix(.003 -1 1 .003 -7.399 424.008)"/><path d="m239.577 190.623-61.24-.18h-.004c-.396 0-.776.157-1.058.437s-.441.662-.442 1.06l-.13 47.36c-.002.828.667 1.502 1.496 1.504l61.24.18h.004c.396 0 .776-.157 1.058-.437s.441-.662.442-1.06l.13-47.36c.002-.828-.668-1.501-1.496-1.504zm-1.631 47.356-58.24-.171.122-44.36 58.24.171z" fill="#3a312a"/><path d="m16.522 210.493-.08 28.36 62.51.18.08-28.37z" fill="#f16c7a"/><path d="m80.096 209.605c-.28-.282-.662-.441-1.06-.442l-62.51-.17h-.004c-.827 0-1.498.669-1.5 1.496l-.08 28.36c-.002.829.667 1.502 1.496 1.504l62.51.18h.004c.396 0 .776-.157 1.058-.437s.441-.662.442-1.059l.08-28.37c.001-.398-.156-.779-.436-1.062zm-2.64 27.924-59.51-.171.071-25.36 59.51.162z" fill="#3a312a"/><path d="m62.438 129.192c-.974 11.564-13.024 13.389-13.024 13.389 10.346.487 12.925 14.059 12.925 14.059.221-9.677 13.321-14.202 13.321-14.202-9.814-.587-13.222-13.246-13.222-13.246z" fill="#d7e057"/><path d="m75.749 140.94c-8.605-.514-11.832-12.024-11.863-12.14-.191-.703-.861-1.167-1.583-1.102-.725.066-1.298.642-1.359 1.367-.86 10.215-11.314 11.963-11.754 12.032-.763.115-1.313.79-1.274 1.561.04.77.657 1.384 1.427 1.421 9.028.425 11.499 12.718 11.522 12.842.137.711.759 1.217 1.472 1.217.042 0 .084-.001.126-.005.764-.064 1.357-.693 1.375-1.46.195-8.508 12.192-12.777 12.313-12.819.675-.235 1.092-.915.994-1.623-.098-.707-.682-1.248-1.396-1.291zm-13.566 10.347c-1.356-3.13-3.709-6.907-7.586-8.876 2.931-1.405 6.409-3.913 8.202-8.273 1.551 3.071 4.199 6.88 8.334 8.722-3.008 1.64-6.924 4.406-8.95 8.427z" fill="#3a312a"/><path d="m40.739 146.172c-.689 8.179-9.212 9.471-9.212 9.471 7.318.344 9.142 9.944 9.142 9.944.156-6.845 9.422-10.046 9.422-10.046-6.941-.415-9.352-9.369-9.352-9.369z" fill="#d7e057"/><path d="m50.18 154.044c-5.766-.345-7.972-8.185-7.994-8.264-.19-.702-.853-1.17-1.582-1.102-.726.066-1.299.643-1.36 1.368-.579 6.871-7.646 8.067-7.942 8.114-.763.115-1.313.79-1.273 1.561.04.77.657 1.384 1.428 1.421 6.035.284 7.724 8.644 7.739 8.726.135.713.759 1.22 1.473 1.22.041 0 .082-.002.124-.005.765-.063 1.358-.694 1.376-1.461.13-5.709 8.331-8.634 8.412-8.662.677-.234 1.094-.913.996-1.622-.098-.71-.682-1.251-1.397-1.294zm-9.584 6.795c-.924-1.885-2.34-3.947-4.447-5.28 1.856-1.041 3.697-2.63 4.871-4.917 1.057 1.874 2.654 3.955 4.941 5.224-1.85 1.102-3.989 2.741-5.365 4.973z" fill="#3a312a"/><path d="m40.739 119.515c-.689 8.179-9.212 9.47-9.212 9.47 7.318.344 9.142 9.944 9.142 9.944.156-6.844 9.422-10.045 9.422-10.045-6.941-.415-9.352-9.369-9.352-9.369z" fill="#d7e057"/><path d="m50.181 127.387c-5.744-.344-7.956-8.126-7.994-8.263-.19-.703-.859-1.167-1.583-1.103-.726.065-1.299.643-1.36 1.368-.579 6.87-7.646 8.066-7.942 8.113-.763.115-1.313.79-1.273 1.561.04.77.657 1.384 1.428 1.421 6.035.284 7.724 8.644 7.739 8.726.135.713.759 1.22 1.472 1.22.042 0 .083-.002.125-.005.765-.064 1.358-.694 1.376-1.461.13-5.709 8.331-8.634 8.412-8.662.676-.234 1.094-.913.996-1.622s-.682-1.25-1.396-1.293zm-9.585 6.795c-.924-1.885-2.34-3.947-4.447-5.28 1.856-1.041 3.697-2.629 4.871-4.916 1.057 1.874 2.654 3.955 4.941 5.224-1.85 1.1-3.989 2.739-5.365 4.972z" fill="#3a312a"/><path d="m62.438 129.192c-.974 11.564-13.024 13.389-13.024 13.389 10.346.487 12.925 14.059 12.925 14.059.221-9.677 13.321-14.202 13.321-14.202-9.814-.587-13.222-13.246-13.222-13.246z" fill="#d7e057"/><path d="m75.749 140.94c-8.605-.514-11.832-12.024-11.863-12.14-.191-.703-.861-1.167-1.583-1.102-.725.066-1.298.642-1.359 1.367-.86 10.215-11.314 11.963-11.754 12.032-.763.115-1.313.79-1.274 1.561.04.77.657 1.384 1.427 1.421 9.028.425 11.499 12.718 11.522 12.842.137.711.759 1.217 1.472 1.217.042 0 .084-.001.126-.005.764-.064 1.357-.693 1.375-1.46.195-8.508 12.192-12.777 12.313-12.819.675-.235 1.092-.915.994-1.623-.098-.707-.682-1.248-1.396-1.291zm-13.566 10.347c-1.356-3.13-3.709-6.907-7.586-8.876 2.931-1.405 6.409-3.913 8.202-8.273 1.551 3.071 4.199 6.88 8.334 8.722-3.008 1.64-6.924 4.406-8.95 8.427z" fill="#3a312a"/><path d="m40.739 146.172c-.689 8.179-9.212 9.471-9.212 9.471 7.318.344 9.142 9.944 9.142 9.944.156-6.845 9.422-10.046 9.422-10.046-6.941-.415-9.352-9.369-9.352-9.369z" fill="#d7e057"/><path d="m50.18 154.044c-5.766-.345-7.972-8.185-7.994-8.264-.19-.702-.853-1.17-1.582-1.102-.726.066-1.299.643-1.36 1.368-.579 6.871-7.646 8.067-7.942 8.114-.763.115-1.313.79-1.273 1.561.04.77.657 1.384 1.428 1.421 6.035.284 7.724 8.644 7.739 8.726.135.713.759 1.22 1.473 1.22.041 0 .082-.002.124-.005.765-.063 1.358-.694 1.376-1.461.13-5.709 8.331-8.634 8.412-8.662.677-.234 1.094-.913.996-1.622-.098-.71-.682-1.251-1.397-1.294zm-9.584 6.795c-.924-1.885-2.34-3.947-4.447-5.28 1.856-1.041 3.697-2.63 4.871-4.917 1.057 1.874 2.654 3.955 4.941 5.224-1.85 1.102-3.989 2.741-5.365 4.973z" fill="#3a312a"/><path d="m40.739 119.515c-.689 8.179-9.212 9.47-9.212 9.47 7.318.344 9.142 9.944 9.142 9.944.156-6.844 9.422-10.045 9.422-10.045-6.941-.415-9.352-9.369-9.352-9.369z" fill="#d7e057"/><path d="m50.181 127.387c-5.744-.344-7.956-8.126-7.994-8.263-.19-.703-.859-1.167-1.583-1.103-.726.065-1.299.643-1.36 1.368-.579 6.87-7.646 8.066-7.942 8.113-.763.115-1.313.79-1.273 1.561.04.77.657 1.384 1.428 1.421 6.035.284 7.724 8.644 7.739 8.726.135.713.759 1.22 1.472 1.22.042 0 .083-.002.125-.005.765-.064 1.358-.694 1.376-1.461.13-5.709 8.331-8.634 8.412-8.662.676-.234 1.094-.913.996-1.622s-.682-1.25-1.396-1.293zm-9.585 6.795c-.924-1.885-2.34-3.947-4.447-5.28 1.856-1.041 3.697-2.629 4.871-4.916 1.057 1.874 2.654 3.955 4.941 5.224-1.85 1.1-3.989 2.739-5.365 4.972z" fill="#3a312a"/><g fill="#b9c239"><path d="m157.112 34.863v35.17c1.28 3.33 1.98 6.94 1.98 10.71s-.7 7.38-1.98 10.71v3.53c0 18.8-15.3 34.1-34.1 34.1h15c18.8 0 34.1-15.3 34.1-34.1v-60.12z"/><path d="m172.132 18.133h-15c2.92 0 5.3 2.38 5.3 5.31v3.11c0 2.93-2.38 5.31-5.3 5.31h15c2.92 0 5.3-2.38 5.3-5.31v-3.11c0-2.93-2.38-5.31-5.3-5.31z"/></g></svg>