<svg id="Layer_1" enable-background="new 0 0 256 256" height="512" viewBox="0 0 256 256" width="512" xmlns="http://www.w3.org/2000/svg"><path d="m226.118 26.134c-.974 11.564-13.025 13.389-13.025 13.389 10.347.487 12.925 14.059 12.925 14.059.221-9.677 13.321-14.202 13.321-14.202-9.813-.587-13.221-13.246-13.221-13.246z" fill="#d7e057"/><path d="m239.43 37.882c-8.605-.514-11.832-12.024-11.864-12.14-.191-.703-.861-1.165-1.584-1.102-.725.066-1.298.642-1.359 1.367-.86 10.215-11.313 11.963-11.754 12.032-.763.115-1.313.79-1.273 1.561.04.77.657 1.384 1.427 1.421 9.028.425 11.499 12.719 11.523 12.843.137.711.759 1.217 1.472 1.217.042 0 .084-.001.126-.005.764-.064 1.357-.693 1.375-1.459.194-8.509 12.192-12.777 12.313-12.819.675-.235 1.092-.914.994-1.623-.099-.709-.682-1.25-1.396-1.293zm-13.566 10.347c-1.357-3.13-3.709-6.907-7.587-8.876 2.931-1.405 6.409-3.913 8.202-8.273 1.551 3.071 4.2 6.88 8.334 8.722-3.008 1.639-6.923 4.406-8.949 8.427z" fill="#3a312a"/><path d="m204.419 43.114c-.689 8.179-9.212 9.47-9.212 9.47 7.318.344 9.142 9.944 9.142 9.944.156-6.844 9.422-10.045 9.422-10.045-6.941-.415-9.352-9.369-9.352-9.369z" fill="#d7e057"/><path d="m213.861 50.986c-5.766-.345-7.972-8.185-7.994-8.264-.19-.702-.854-1.165-1.582-1.102-.726.065-1.299.642-1.36 1.368-.579 6.871-7.647 8.066-7.942 8.113-.763.115-1.313.79-1.273 1.561.04.77.657 1.384 1.427 1.421 6.036.284 7.724 8.644 7.739 8.726.135.713.759 1.22 1.472 1.22.041 0 .083-.001.125-.005.765-.063 1.358-.694 1.376-1.461.13-5.709 8.332-8.634 8.413-8.662.677-.234 1.094-.913.996-1.622s-.682-1.25-1.397-1.293zm-9.585 6.795c-.924-1.886-2.34-3.947-4.447-5.28 1.856-1.042 3.697-2.63 4.871-4.917 1.057 1.874 2.654 3.955 4.941 5.224-1.849 1.101-3.989 2.741-5.365 4.973z" fill="#3a312a"/><path d="m204.419 16.457c-.689 8.179-9.212 9.471-9.212 9.471 7.318.344 9.142 9.944 9.142 9.944.156-6.845 9.422-10.045 9.422-10.045-6.941-.416-9.352-9.37-9.352-9.37z" fill="#d7e057"/><path d="m213.861 24.329c-5.767-.345-7.973-8.186-7.994-8.265-.19-.702-.854-1.166-1.582-1.102-.726.065-1.299.642-1.36 1.368-.579 6.871-7.647 8.067-7.942 8.114-.763.115-1.313.79-1.273 1.561.04.77.657 1.384 1.428 1.421 6.035.284 7.723 8.644 7.739 8.726.135.713.759 1.22 1.472 1.22.041 0 .083-.001.125-.005.765-.063 1.358-.694 1.376-1.461.13-5.709 8.332-8.634 8.413-8.662.676-.234 1.094-.913.996-1.622-.099-.709-.683-1.25-1.398-1.293zm-9.585 6.795c-.924-1.885-2.34-3.947-4.447-5.28 1.856-1.041 3.697-2.63 4.871-4.916 1.057 1.874 2.655 3.954 4.941 5.224-1.849 1.1-3.989 2.739-5.365 4.972z" fill="#3a312a"/><path d="m176.536 36.883c-.109-11.327-9.318-20.453-20.645-20.459l-118.883-.062c-11.413-.006-20.668 9.245-20.668 20.658v158.966c0 11.409 9.248 20.657 20.657 20.657h119.186c11.408 0 20.657-9.249 20.657-20.657v-127.499z" fill="#f16c7a"/><path d="m178.037 36.869c-.116-12.094-10.05-21.938-22.144-21.944l-118.884-.063h-.012c-5.915 0-11.478 2.303-15.663 6.486-4.188 4.186-6.494 9.751-6.494 15.671v38.958c0 .829.671 1.5 1.5 1.5s1.5-.671 1.5-1.5v-38.957c0-5.119 1.994-9.931 5.614-13.55 3.619-3.616 8.427-5.607 13.542-5.607h.01l118.883.062c10.457.005 19.046 8.517 19.146 18.974l.304 31.589v127.498c0 10.563-8.594 19.157-19.157 19.157h-119.185c-10.563 0-19.157-8.594-19.157-19.157v-106.76c0-.829-.671-1.5-1.5-1.5s-1.5.671-1.5 1.5v106.759c0 12.218 9.94 22.157 22.157 22.157h119.186c12.218 0 22.157-9.939 22.157-22.157v-127.512z" fill="#3a312a"/><path d="m147.704 39.352h-87.51c-11.526 0-20.854 9.328-20.854 20.854v158.583c0 11.526 9.328 20.854 20.854 20.854h118.792c11.526 0 20.854-9.329 20.854-20.854v-127.302z" fill="#f7e3c7"/><g fill="#3a312a"><path d="m200.901 90.427-52.136-52.135c-.281-.281-.663-.439-1.06-.439h-87.51c-12.326 0-22.354 10.028-22.354 22.354v158.583c0 12.326 10.028 22.354 22.354 22.354h55.774c.829 0 1.5-.672 1.5-1.5s-.671-1.5-1.5-1.5h-55.775c-10.672 0-19.354-8.682-19.354-19.354v-158.584c0-10.672 8.682-19.354 19.354-19.354h86.889l51.257 51.256v126.681c0 10.672-8.683 19.354-19.354 19.354h-50.275c-.829 0-1.5.672-1.5 1.5s.671 1.5 1.5 1.5h50.275c12.326 0 22.354-10.027 22.354-22.354v-127.302c0-.398-.158-.779-.439-1.06z"/><path d="m170.346 103.435h-101.513c-.829 0-1.5.671-1.5 1.5s.671 1.5 1.5 1.5h101.513c.829 0 1.5-.671 1.5-1.5s-.671-1.5-1.5-1.5z"/><path d="m170.346 128.322h-101.513c-.829 0-1.5.671-1.5 1.5 0 .828.671 1.5 1.5 1.5h101.513c.829 0 1.5-.672 1.5-1.5s-.671-1.5-1.5-1.5z"/><path d="m170.346 153.208h-101.513c-.829 0-1.5.672-1.5 1.5s.671 1.5 1.5 1.5h101.513c.829 0 1.5-.672 1.5-1.5s-.671-1.5-1.5-1.5z"/><path d="m170.346 178.095h-101.513c-.829 0-1.5.672-1.5 1.5s.671 1.5 1.5 1.5h101.513c.829 0 1.5-.672 1.5-1.5s-.671-1.5-1.5-1.5z"/><path d="m170.346 202.981h-101.513c-.829 0-1.5.672-1.5 1.5s.671 1.5 1.5 1.5h101.513c.829 0 1.5-.672 1.5-1.5s-.671-1.5-1.5-1.5z"/></g><path d="m147.812 39.459v33.797c0 10.14 8.22 18.36 18.36 18.36h33.668v-.129z" fill="#f7e3c7"/><path d="m200.901 90.427-52.028-52.028c-.429-.429-1.073-.559-1.635-.325-.561.232-.926.779-.926 1.386v33.797c0 10.951 8.909 19.86 19.86 19.86h33.668c.829 0 1.5-.671 1.5-1.5v-.129c0-.399-.158-.78-.439-1.061zm-34.729-.31c-9.297 0-16.86-7.563-16.86-16.86v-30.176l47.036 47.036z" fill="#3a312a"/><path d="m128.341 67.249h-54.396c-2.823 0-5.112 2.289-5.112 5.112v5.931c0 2.823 2.289 5.112 5.112 5.112h54.396c2.823 0 5.112-2.289 5.112-5.112v-5.931c0-2.823-2.288-5.112-5.112-5.112z" fill="#8ac6dd"/><path d="m128.341 65.749h-54.396c-3.646 0-6.612 2.966-6.612 6.612v5.931c0 3.646 2.966 6.612 6.612 6.612h54.396c3.646 0 6.612-2.966 6.612-6.612v-5.931c0-3.646-2.966-6.612-6.612-6.612zm3.612 12.543c0 1.992-1.62 3.612-3.612 3.612h-54.396c-1.992 0-3.612-1.62-3.612-3.612v-5.931c0-1.992 1.62-3.612 3.612-3.612h54.396c1.992 0 3.612 1.62 3.612 3.612z" fill="#3a312a"/><path d="m175.04 36.895c-.1-10.45-8.69-18.96-19.15-18.97h-15c10.46.01 19.05 8.52 19.15 18.97l.12 12.79 15.14 15.15z" fill="#d34e5c"/><path d="m230.668 171.503h-110.988c-4.974 0-9.006 4.032-9.006 9.006v35.988c0 4.974 4.032 9.006 9.006 9.006h110.988c4.974 0 9.006-4.032 9.006-9.006v-35.988c0-4.974-4.032-9.006-9.006-9.006z" fill="#8ac6dd"/><path d="m230.668 170.003h-110.988c-5.793 0-10.506 4.713-10.506 10.506v35.988c0 5.793 4.713 10.506 10.506 10.506h110.988c5.793 0 10.506-4.713 10.506-10.506v-35.988c0-5.793-4.713-10.506-10.506-10.506zm7.506 46.494c0 4.139-3.367 7.506-7.506 7.506h-110.988c-4.139 0-7.506-3.367-7.506-7.506v-35.988c0-4.139 3.367-7.506 7.506-7.506h110.988c4.139 0 7.506 3.367 7.506 7.506z" fill="#3a312a"/><path d="m136.81 206.405v-22.283h-9.135v29.562h23.392v-7.279z" fill="#f7e3c7"/><path d="m151.066 204.905h-12.756v-20.783c0-.828-.671-1.5-1.5-1.5h-9.135c-.829 0-1.5.672-1.5 1.5v29.563c0 .828.671 1.5 1.5 1.5h23.392c.829 0 1.5-.672 1.5-1.5v-7.279c-.001-.829-.672-1.501-1.501-1.501zm-1.5 7.28h-20.392v-26.563h6.135v20.783c0 .828.671 1.5 1.5 1.5h12.757z" fill="#3a312a"/><path d="m182.07 187.581c-2.662-2.643-6.453-3.963-11.373-3.963-4.8 0-8.544 1.344-11.232 4.033s-4.033 6.446-4.033 11.272c0 3.455.679 6.331 2.037 8.63 1.357 2.299 3.129 3.98 5.313 5.042 2.185 1.062 4.943 1.593 8.278 1.593 3.279 0 6.019-.615 8.217-1.845s3.879-2.95 5.041-5.163c1.163-2.211 1.745-5.044 1.745-8.499 0-4.758-1.331-8.46-3.993-11.1zm-6.755 17.855c-1.076 1.277-2.595 1.916-4.558 1.916-1.909 0-3.418-.652-4.527-1.956s-1.664-3.448-1.664-6.433c0-3.012.559-5.169 1.674-6.473 1.116-1.305 2.595-1.957 4.437-1.957 1.923 0 3.445.643 4.567 1.926 1.123 1.285 1.684 3.318 1.684 6.101-.001 3.308-.538 5.6-1.613 6.876z" fill="#f7e3c7"/><path d="m183.126 186.517c-2.94-2.919-7.122-4.398-12.43-4.398-5.19 0-9.327 1.505-12.294 4.473-2.967 2.969-4.472 7.118-4.472 12.333 0 3.711.755 6.871 2.246 9.393 1.504 2.547 3.506 4.441 5.949 5.629 2.381 1.156 5.387 1.743 8.934 1.743 3.523 0 6.534-.685 8.949-2.036 2.447-1.369 4.344-3.313 5.636-5.773 1.272-2.419 1.917-5.513 1.917-9.197.002-5.155-1.491-9.247-4.435-12.167zm-.137 19.966c-1.033 1.966-2.487 3.455-4.445 4.551-1.962 1.098-4.48 1.654-7.484 1.654-3.089 0-5.654-.485-7.623-1.442-1.931-.938-3.461-2.396-4.678-4.455-1.213-2.054-1.829-4.7-1.829-7.867 0-4.452 1.176-7.793 3.594-10.212 2.417-2.418 5.744-3.594 10.171-3.594 4.487 0 7.958 1.187 10.317 3.528 2.388 2.369 3.549 5.651 3.549 10.035.002 3.193-.528 5.818-1.572 7.802zm-12.313-17.449c-2.291 0-4.167.835-5.576 2.482-1.369 1.6-2.034 4.036-2.034 7.447 0 3.384.661 5.806 2.022 7.404 1.403 1.648 3.311 2.484 5.67 2.484 2.416 0 4.336-.824 5.705-2.449 1.323-1.57 1.965-4.136 1.965-7.843 0-3.188-.672-5.506-2.054-7.088-1.416-1.617-3.333-2.437-5.698-2.437zm3.491 15.436c-.784.931-1.899 1.383-3.411 1.383-1.46 0-2.567-.467-3.385-1.428-.855-1.005-1.307-2.893-1.307-5.461 0-2.592.454-4.493 1.314-5.497.825-.964 1.903-1.433 3.297-1.433 1.482 0 2.607.462 3.438 1.413.871.997 1.313 2.717 1.313 5.113.001 3.649-.684 5.228-1.259 5.91z" fill="#3a312a"/><path d="m207.909 196.826v6.151h6.11v2.782c-1.197.712-2.259 1.217-3.187 1.513-.928.295-1.902.443-2.924.443-2.151 0-3.828-.686-5.031-2.057s-1.805-3.656-1.805-6.856c0-3.011.595-5.213 1.784-6.604 1.19-1.391 2.786-2.087 4.789-2.087 1.345 0 2.45.296 3.317.888s1.482 1.445 1.846 2.561l8.812-1.572c-.537-1.909-1.341-3.486-2.409-4.729-1.069-1.243-2.413-2.161-4.033-2.753-1.62-.591-4.063-.887-7.33-.887-3.388 0-6.083.478-8.086 1.432-2.568 1.237-4.518 3.049-5.849 5.435-1.331 2.387-1.996 5.192-1.996 8.419 0 3.065.608 5.781 1.825 8.146 1.217 2.367 2.931 4.148 5.142 5.344 2.212 1.197 5.072 1.795 8.581 1.795 2.85 0 5.313-.332 7.391-.998 2.076-.666 4.466-1.919 7.168-3.761v-12.604h-14.115z" fill="#f7e3c7"/><path d="m222.024 195.326h-14.115c-.829 0-1.5.672-1.5 1.5v6.151c0 .828.671 1.5 1.5 1.5h4.61v.411c-.799.436-1.517.755-2.141.954-.778.248-1.609.373-2.469.373-1.714 0-2.991-.506-3.904-1.546-.937-1.067-1.432-3.097-1.432-5.867 0-2.63.479-4.524 1.424-5.629.9-1.052 2.094-1.563 3.649-1.563 1.031 0 1.862.211 2.472.627.591.403 1.005.987 1.265 1.786.232.711.951 1.142 1.69 1.012l8.812-1.572c.417-.074.782-.321 1.007-.68.225-.358.288-.796.173-1.203-.594-2.112-1.508-3.896-2.716-5.302-1.234-1.435-2.801-2.506-4.657-3.184-1.803-.658-4.369-.978-7.844-.978-3.596 0-6.534.53-8.737 1.58-2.84 1.368-5.029 3.405-6.508 6.056-1.451 2.601-2.186 5.68-2.186 9.149 0 3.292.67 6.265 1.991 8.832 1.352 2.63 3.291 4.642 5.762 5.978 2.422 1.311 5.549 1.976 9.295 1.976 2.994 0 5.635-.36 7.849-1.069 2.206-.708 4.748-2.037 7.555-3.95.41-.279.655-.743.655-1.239v-12.604c0-.827-.671-1.499-1.5-1.499zm-1.5 13.303c-2.302 1.514-4.36 2.566-6.126 3.133-1.917.615-4.25.927-6.933.927-3.242 0-5.888-.543-7.868-1.614-1.956-1.058-3.435-2.599-4.521-4.711-1.101-2.14-1.659-4.649-1.659-7.46 0-2.953.608-5.539 1.806-7.688 1.188-2.129 2.885-3.704 5.184-4.811 1.791-.854 4.295-1.286 7.441-1.286 3.075 0 5.368.268 6.815.796 1.387.506 2.502 1.266 3.41 2.321.617.718 1.138 1.583 1.558 2.583l-5.918 1.057c-.471-.863-1.108-1.572-1.904-2.115-1.117-.762-2.518-1.148-4.163-1.148-2.451 0-4.445.879-5.929 2.612-1.443 1.688-2.144 4.167-2.144 7.579 0 3.609.712 6.176 2.177 7.846 1.495 1.704 3.567 2.567 6.159 2.567 1.169 0 2.306-.173 3.379-.515 1.043-.332 2.187-.873 3.497-1.652.455-.271.733-.76.733-1.289v-2.782c0-.828-.671-1.5-1.5-1.5h-4.61v-3.151h11.115v10.301z" fill="#3a312a"/><path d="m163.984 238.143h15c7.73 0 14.4-4.57 17.5-11.14h-15c-3.1 6.57-9.77 11.14-17.5 11.14zm19.36-145.03v76.89h15v-76.89z" fill="#decaad"/></svg>