<svg id="Layer_1" enable-background="new 0 0 256 256" height="512" viewBox="0 0 256 256" width="512" xmlns="http://www.w3.org/2000/svg"><g fill="#3a312a"><path d="m238.617 226.58h-209.5v-210.5c0-.829-.672-1.5-1.5-1.5s-1.5.671-1.5 1.5v212c0 .829.672 1.5 1.5 1.5h211c.828 0 1.5-.671 1.5-1.5 0-.828-.672-1.5-1.5-1.5z"/><path d="m27.617 226.58c-.828 0-1.5.671-1.5 1.5v11.75c0 .829.672 1.5 1.5 1.5s1.5-.671 1.5-1.5v-11.75c0-.828-.672-1.5-1.5-1.5z"/><path d="m61.087 226.58c-.828 0-1.5.671-1.5 1.5v11.75c0 .829.672 1.5 1.5 1.5s1.5-.671 1.5-1.5v-11.75c0-.828-.672-1.5-1.5-1.5z"/><path d="m94.547 226.58c-.828 0-1.5.671-1.5 1.5v11.75c0 .829.672 1.5 1.5 1.5s1.5-.671 1.5-1.5v-11.75c0-.828-.672-1.5-1.5-1.5z"/><path d="m128.017 226.58c-.828 0-1.5.671-1.5 1.5v11.75c0 .829.672 1.5 1.5 1.5s1.5-.671 1.5-1.5v-11.75c0-.828-.672-1.5-1.5-1.5z"/><path d="m161.478 226.58c-.828 0-1.5.671-1.5 1.5v11.75c0 .829.672 1.5 1.5 1.5s1.5-.671 1.5-1.5v-11.75c0-.828-.672-1.5-1.5-1.5z"/><path d="m194.947 226.58c-.828 0-1.5.671-1.5 1.5v11.75c0 .829.672 1.5 1.5 1.5s1.5-.671 1.5-1.5v-11.75c0-.828-.672-1.5-1.5-1.5z"/><path d="m228.407 226.58c-.828 0-1.5.671-1.5 1.5v11.75c0 .829.672 1.5 1.5 1.5s1.5-.671 1.5-1.5v-11.75c0-.828-.672-1.5-1.5-1.5z"/><path d="m27.617 226.58h-11.75c-.828 0-1.5.671-1.5 1.5s.672 1.5 1.5 1.5h11.75c.828 0 1.5-.671 1.5-1.5 0-.828-.672-1.5-1.5-1.5z"/><path d="m27.617 193.11h-11.75c-.828 0-1.5.671-1.5 1.5s.672 1.5 1.5 1.5h11.75c.828 0 1.5-.671 1.5-1.5 0-.828-.672-1.5-1.5-1.5z"/><path d="m27.617 159.65h-11.75c-.828 0-1.5.671-1.5 1.5s.672 1.5 1.5 1.5h11.75c.828 0 1.5-.671 1.5-1.5s-.672-1.5-1.5-1.5z"/><path d="m27.617 126.18h-11.75c-.828 0-1.5.671-1.5 1.5s.672 1.5 1.5 1.5h11.75c.828 0 1.5-.671 1.5-1.5 0-.828-.672-1.5-1.5-1.5z"/><path d="m27.617 92.72h-11.75c-.828 0-1.5.671-1.5 1.5s.672 1.5 1.5 1.5h11.75c.828 0 1.5-.671 1.5-1.5s-.672-1.5-1.5-1.5z"/><path d="m27.617 59.25h-11.75c-.828 0-1.5.671-1.5 1.5s.672 1.5 1.5 1.5h11.75c.828 0 1.5-.671 1.5-1.5s-.672-1.5-1.5-1.5z"/><path d="m27.617 25.79h-11.75c-.828 0-1.5.671-1.5 1.5s.672 1.5 1.5 1.5h11.75c.828 0 1.5-.671 1.5-1.5s-.672-1.5-1.5-1.5z"/></g><path d="m39.049 128.955h36.477v99.125h-36.477z" fill="#f16c7a"/><path d="m75.525 127.455h-36.476c-.828 0-1.5.671-1.5 1.5v25.374c0 .829.672 1.5 1.5 1.5s1.5-.671 1.5-1.5v-23.874h33.477v96.125h-33.477v-58.999c0-.829-.672-1.5-1.5-1.5s-1.5.671-1.5 1.5v60.499c0 .829.672 1.5 1.5 1.5h36.477c.828 0 1.5-.671 1.5-1.5v-99.125c-.001-.828-.673-1.5-1.501-1.5z" fill="#3a312a"/><path d="m89.685 80.955h36.477v147.125h-36.477z" fill="#d7e057"/><path d="m126.162 79.455h-36.477c-.828 0-1.5.671-1.5 1.5v147.125c0 .829.672 1.5 1.5 1.5h36.477c.828 0 1.5-.671 1.5-1.5v-147.125c0-.828-.672-1.5-1.5-1.5zm-1.5 147.125h-33.477v-144.125h33.477z" fill="#3a312a"/><path d="m140.322 80.955h36.477v147.125h-36.477z" fill="#8ac6dd"/><path d="m176.799 99.669c.828 0 1.5-.671 1.5-1.5v-17.214c0-.829-.672-1.5-1.5-1.5h-36.477c-.828 0-1.5.671-1.5 1.5v147.125c0 .829.672 1.5 1.5 1.5h36.477c.828 0 1.5-.671 1.5-1.5v-116.672c0-.829-.672-1.5-1.5-1.5s-1.5.671-1.5 1.5v115.172h-33.477v-144.125h33.477v15.714c0 .829.672 1.5 1.5 1.5z" fill="#3a312a"/><path d="m190.959 128.955h36.477v99.125h-36.477z" fill="#87796f"/><path d="m227.436 127.455h-36.477c-.828 0-1.5.671-1.5 1.5v99.125c0 .829.672 1.5 1.5 1.5h36.477c.828 0 1.5-.671 1.5-1.5v-99.125c0-.828-.672-1.5-1.5-1.5zm-1.5 99.125h-33.477v-96.125h33.477z" fill="#3a312a"/><path d="m226.711 26.175c-.974 11.564-13.024 13.39-13.024 13.39 10.347.487 12.925 14.059 12.925 14.059.221-9.677 13.321-14.202 13.321-14.202-9.813-.588-13.222-13.247-13.222-13.247z" fill="#d7e057"/><path d="m240.023 37.924c-8.604-.514-11.832-12.024-11.863-12.141-.19-.702-.849-1.164-1.584-1.102-.725.066-1.298.642-1.359 1.367-.86 10.215-11.313 11.964-11.755 12.033-.763.115-1.313.79-1.273 1.561.04.77.657 1.384 1.428 1.421 9.028.425 11.499 12.718 11.522 12.842.138.711.76 1.217 1.473 1.217.042 0 .084-.002.126-.005.765-.064 1.357-.693 1.375-1.459.193-8.508 12.191-12.777 12.313-12.819.676-.235 1.092-.914.994-1.623-.1-.708-.683-1.249-1.397-1.292zm-13.566 10.346c-1.356-3.131-3.709-6.908-7.587-8.877 2.931-1.404 6.409-3.913 8.202-8.273 1.551 3.071 4.199 6.88 8.334 8.723-3.008 1.64-6.923 4.405-8.949 8.427z" fill="#3a312a"/><path d="m205.013 43.156c-.689 8.179-9.213 9.47-9.213 9.47 7.318.344 9.142 9.944 9.142 9.944.156-6.844 9.422-10.045 9.422-10.045-6.94-.415-9.351-9.369-9.351-9.369z" fill="#d7e057"/><path d="m214.454 51.027c-5.766-.345-7.972-8.185-7.994-8.264-.189-.702-.864-1.159-1.581-1.102-.726.065-1.3.643-1.361 1.368-.578 6.87-7.646 8.066-7.941 8.113-.763.115-1.313.79-1.273 1.56s.657 1.384 1.428 1.421c6.034.284 7.723 8.644 7.738 8.726.136.713.759 1.22 1.473 1.22.041 0 .083-.002.125-.005.765-.063 1.358-.694 1.376-1.461.13-5.709 8.331-8.634 8.412-8.662.676-.234 1.093-.913.996-1.622-.099-.707-.684-1.249-1.398-1.292zm-9.585 6.796c-.924-1.886-2.339-3.947-4.446-5.28 1.855-1.042 3.697-2.63 4.87-4.917 1.058 1.873 2.654 3.955 4.941 5.224-1.849 1.101-3.988 2.741-5.365 4.973z" fill="#3a312a"/><path d="m205.013 16.498c-.689 8.179-9.213 9.471-9.213 9.471 7.318.344 9.142 9.944 9.142 9.944.156-6.845 9.422-10.045 9.422-10.045-6.94-.416-9.351-9.37-9.351-9.37z" fill="#d7e057"/><path d="m214.454 24.37c-5.766-.345-7.972-8.185-7.994-8.265-.189-.702-.864-1.166-1.581-1.102-.726.065-1.3.643-1.361 1.368-.578 6.871-7.646 8.067-7.941 8.114-.763.115-1.313.79-1.273 1.561.04.77.657 1.384 1.428 1.421 6.034.284 7.723 8.644 7.738 8.726.136.713.759 1.22 1.473 1.22.041 0 .083-.001.125-.005.765-.063 1.358-.694 1.376-1.461.13-5.71 8.331-8.634 8.412-8.662.676-.234 1.093-.913.996-1.622-.099-.708-.684-1.25-1.398-1.293zm-9.585 6.795c-.924-1.885-2.34-3.947-4.446-5.28 1.855-1.041 3.697-2.629 4.87-4.916 1.058 1.874 2.654 3.954 4.941 5.223-1.849 1.102-3.989 2.741-5.365 4.973z" fill="#3a312a"/><path d="m227.742 108.955h-1.147c-13.53 0-25.758-7.485-31.912-19.534l-27.12-53.094c-6.774-13.263-19.692-21.169-34.575-21.169h-.12c-14.933.042-27.857 8.03-34.574 21.367l-26.547 52.713c-6.124 12.162-18.388 19.717-32.005 19.717-.828 0-1.5.671-1.5 1.5s.672 1.5 1.5 1.5c14.757 0 28.048-8.188 34.685-21.367l26.546-52.713c6.198-12.307 18.124-19.677 31.903-19.717h.11c13.732 0 25.653 7.296 31.904 19.534l27.12 53.094c6.67 13.058 19.921 21.169 34.584 21.169h1.147c.828 0 1.5-.671 1.5-1.5.001-.828-.671-1.5-1.499-1.5z" fill="#3a312a"/><path d="m210.932 130.455h15v96.12h-15z" fill="#695b51"/></svg>