<svg height="454pt" viewBox="0 0 454 454.212" width="454pt" xmlns="http://www.w3.org/2000/svg"><path d="m69.882812 64.234375c-2.101562 24.980469-28.136718 28.925781-28.136718 28.925781 22.351562 1.050782 27.925781 30.375 27.925781 30.375.476563-20.90625 28.777344-30.683594 28.777344-30.683594-21.199219-1.269531-28.566407-28.617187-28.566407-28.617187zm0 0" fill="#d7e057"/><path d="m98.628906 89.855469c-18.765625-1.125-25.777344-26.152344-25.847656-26.40625-.382812-1.402344-1.703125-2.328125-3.167969-2.203125-1.449219.132812-2.59375 1.285156-2.71875 2.734375-1.875 22.261719-24.632812 26.0625-25.597656 26.210937-1.523437.234375-2.625 1.582032-2.542969 3.121094.078125 1.542969 1.3125 2.773438 2.851563 2.84375 19.695312.929688 25.066406 27.667969 25.117187 27.941406.277344 1.421875 1.519532 2.433594 2.945313 2.433594.085937 0 .167969-.003906.253906-.007812 1.527344-.128907 2.710937-1.386719 2.75-2.921876.421875-18.550781 26.5-27.824218 26.761719-27.917968 1.347656-.46875 2.183594-1.828125 1.988281-3.242188-.199219-1.417968-1.367187-2.5-2.792969-2.585937zm-29.308594 22.6875c-2.929687-6.933594-8.140624-15.5-16.925781-19.753907 6.488281-3.023437 14.375-8.574218 18.246094-18.457031 3.347656 6.785157 9.230469 15.441407 18.578125 19.402344-6.636719 3.558594-15.527344 9.722656-19.898438 18.808594zm0 0" fill="#3a312a"/><path d="m23.007812 100.917969c-1.488281 17.671875-19.902343 20.460937-19.902343 20.460937 15.808593.742188 19.75 21.484375 19.75 21.484375.335937-14.789062 20.355469-21.703125 20.355469-21.703125-14.996094-.898437-20.203126-20.242187-20.203126-20.242187zm0 0" fill="#d7e057"/><path d="m43.390625 118.164062c-12.632813-.757812-17.441406-17.859374-17.488281-18.03125-.378906-1.40625-1.703125-2.34375-3.164063-2.203124-1.453125.128906-2.597656 1.285156-2.71875 2.734374-1.265625 15.039063-16.714843 17.644532-17.363281 17.746094-1.527344.230469-2.625 1.582032-2.546875 3.121094.082031 1.542969 1.316406 2.769531 2.855469 2.84375 13.230468.621094 16.910156 18.867188 16.945312 19.046875.269532 1.425781 1.519532 2.4375 2.945313 2.4375.082031 0 .164062-.003906.25-.007813 1.527343-.128906 2.714843-1.386718 2.75-2.921874.285156-12.503907 18.160156-18.875 18.339843-18.9375 1.351563-.46875 2.183594-1.828126 1.988282-3.246094-.199219-1.414063-1.367188-2.492188-2.792969-2.582032zm-20.714844 14.941407c-2.023437-4.246094-5.210937-8.984375-10.0625-11.917969 4.203125-2.285156 8.414063-5.863281 10.988281-11.125 2.316407 4.21875 5.914063 9.007812 11.171876 11.789062-4.152344 2.421876-9.074219 6.128907-12.097657 11.253907zm0 0" fill="#3a312a"/><path d="m23.007812 43.328125c-1.488281 17.667969-19.902343 20.460937-19.902343 20.460937 15.808593.742188 19.75 21.484376 19.75 21.484376.335937-14.789063 20.355469-21.703126 20.355469-21.703126-14.996094-.898437-20.203126-20.242187-20.203126-20.242187zm0 0" fill="#d7e057"/><path d="m43.390625 60.574219c-12.632813-.757813-17.441406-17.859375-17.488281-18.03125-.378906-1.40625-1.703125-2.332031-3.164063-2.203125-1.453125.128906-2.597656 1.285156-2.71875 2.734375-1.265625 15.039062-16.714843 17.640625-17.363281 17.742187-1.527344.234375-2.625 1.582032-2.546875 3.125.082031 1.539063 1.316406 2.769532 2.855469 2.839844 13.230468.625 16.910156 18.871094 16.945312 19.046875.269532 1.425781 1.519532 2.441406 2.945313 2.441406.082031 0 .167969-.003906.25-.007812 1.53125-.128907 2.714843-1.386719 2.753906-2.921875.285156-12.503906 18.160156-18.878906 18.339844-18.941406 1.347656-.46875 2.179687-1.828126 1.984375-3.246094-.199219-1.414063-1.367188-2.496094-2.792969-2.578125zm-20.714844 14.941406c-2.023437-4.246094-5.210937-8.984375-10.0625-11.917969 4.203125-2.285156 8.414063-5.863281 10.988281-11.125 2.316407 4.214844 5.914063 9.007813 11.171876 11.789063-4.152344 2.421875-9.074219 6.128906-12.097657 11.253906zm0 0" fill="#3a312a"/><path d="m152.535156 187.246094c-.03125 0-.0625 0-.089844 0-.027343 0-.058593 0-.085937 0-1.992187 0-3.972656.050781-5.941406.125-18.945313.621094-36.953125 4.128906-53.429688 9.945312l-26.371093 12.011719c-38.042969 21.773437-62.878907 57.613281-62.878907 98.148437 0 33.121094 16.578125 63.109376 43.386719 84.855469l-19.75 49.777344c-2.082031 5.242187 2.902344 10.527344 8.257812 8.765625l80.449219-26.484375c11.558594 2.78125 23.714844 4.292969 36.277344 4.292969 14.90625 0 29.242187-2.117188 42.683594-5.976563 61.460937-14.78125 106.289062-60.765625 106.289062-115.230469 0-66.402343-66.621093-120.230468-148.796875-120.230468zm0 0" fill="#f16c7a"/><g fill="#3a312a"><path d="m152.359375 184.246094c-2.03125 0-4.046875.050781-6.042969.125-18.78125.613281-37.058594 4.019531-54.328125 10.117187-1.558593.550781-2.378906 2.265625-1.828125 3.828125.550782 1.558594 2.265625 2.386719 3.828125 1.828125 16.683594-5.890625 34.355469-9.183593 52.539063-9.777343 1.9375-.070313 3.875-.125 5.769531-.125.035156.003906.203125.003906.238281 0 80.390625 0 145.796875 52.59375 145.796875 117.234374 0 51.398438-42.765625 97.582032-104.121093 112.34375-24.921876 7.164063-52.023438 7.757813-77.429688 1.652344-.542969-.128906-1.109375-.105468-1.640625.066406l-80.449219 26.480469c-1.378906.449219-2.796875.09375-3.796875-.960937-.996093-1.058594-1.269531-2.496094-.734375-3.847656l19.75-49.773438c.484375-1.21875.121094-2.613281-.894531-3.441406-27.261719-22.113282-42.28125-51.421875-42.28125-82.523438 0-37.835937 22.945313-73.550781 61.371094-95.542968 1.4375-.820313 1.933593-2.65625 1.113281-4.09375-.824219-1.441407-2.65625-1.9375-4.09375-1.113282-40.316406 23.070313-64.386719 60.738282-64.386719 100.75 0 32.292969 15.175781 62.671875 42.792969 85.78125l-18.949219 47.742188c-1.394531 3.523437-.648437 7.417968 1.945313 10.175781 1.867187 1.980469 4.378906 3.039063 6.984375 3.039063 1.015625 0 2.046875-.160157 3.054687-.492188l79.644532-26.214844c26.167968 6.140625 54.121093 5.425782 79.53125-1.886718 30.648437-7.371094 58.234374-22.851563 77.679687-43.597657 20.21875-21.570312 30.910156-47.347656 30.910156-74.542969 0-67.949218-68.097656-123.230468-151.972656-123.230468zm0 0"/><path d="m231.621094 252.734375h-158.171875c-1.65625 0-3 1.34375-3 3s1.34375 3 3 3h158.171875c1.65625 0 3-1.34375 3-3s-1.34375-3-3-3zm0 0"/><path d="m251.015625 303.644531h-196.960937c-1.660157 0-3 1.34375-3 3s1.339843 3 3 3h196.960937c1.65625 0 3-1.34375 3-3s-1.34375-3-3-3zm0 0"/><path d="m231.621094 354.554688h-158.171875c-1.65625 0-3 1.34375-3 3s1.34375 3 3 3h158.171875c1.65625 0 3-1.34375 3-3s-1.34375-3-3-3zm0 0"/></g><path d="m406.738281 208.085938c26.8125-21.746094 43.390625-51.734376 43.390625-84.855469 0-64.742188-63.339844-117.511719-142.679687-120.105469-1.972657-.074219-3.949219-.128906-5.941407-.128906-.03125 0-.058593.003906-.085937.003906-.03125 0-.058594-.003906-.089844-.003906-21.941406 0-42.757812 3.871094-61.507812 10.761718l-26.515625 12.546876c-36.84375 21.886718-60.773438 57.140624-60.773438 96.925781 0 54.464843 44.828125 100.445312 106.289063 115.226562 13.4375 3.863281 27.777343 5.980469 42.683593 5.980469 12.5625 0 24.71875-1.511719 36.277344-4.292969l80.449219 26.480469c5.359375 1.765625 10.335937-3.523438 8.257813-8.765625zm0 0" fill="#8ac6dd"/><path d="m410.335938 209.011719c27.617187-23.109375 42.792968-53.492188 42.792968-85.78125 0-66.359375-63.945312-120.433594-145.566406-123.105469-2.007812-.0742188-4.027344-.125-6.230469-.125-21.734375 0-42.777343 3.683594-62.542969 10.941406-1.554687.574219-2.351562 2.292969-1.78125 3.851563.574219 1.554687 2.292969 2.351562 3.851563 1.78125 19.097656-7.015625 39.445313-10.570313 60.421875-10.570313h.222656c1.957032 0 3.894532.046875 5.847656.121094 78.378907 2.566406 139.777344 54.007812 139.777344 117.109375 0 31.105469-15.015625 60.410156-42.277344 82.527344-1.019531.824219-1.382812 2.214843-.898437 3.4375l19.75 49.773437c.539063 1.351563.261719 2.789063-.734375 3.847656-.996094 1.054688-2.410156 1.414063-3.792969.960938l-80.453125-26.480469c-.527344-.171875-1.09375-.199219-1.636718-.066406-11.613282 2.792969-23.585938 4.210937-35.578126 4.210937-14.242187 0-28.324218-1.972656-41.980468-5.894531-61.226563-14.730469-103.992188-60.914062-103.992188-112.3125 0-37.019531 22.171875-72.289062 59.308594-94.34375 1.425781-.847656 1.894531-2.6875 1.046875-4.113281-.84375-1.425781-2.683594-1.894531-4.113281-1.046875-38.972656 23.148437-62.242188 60.347656-62.242188 99.503906 0 27.199219 10.6875 52.976563 30.910156 74.546875 19.445313 20.742188 47.03125 36.226563 77.550782 43.5625 25.636718 7.375 53.492187 8.058594 79.65625 1.921875l79.644531 26.210938c1.007813.332031 2.042969.496093 3.054687.496093 2.605469 0 5.117188-1.0625 6.984376-3.042968 2.59375-2.753906 3.339843-6.652344 1.945312-10.171875zm0 0" fill="#3a312a"/><path d="m380.417969 68.488281h-158.175781c-1.65625 0-3 1.34375-3 3s1.34375 3 3 3h158.175781c1.652343 0 3-1.34375 3-3s-1.34375-3-3-3zm0 0" fill="#3a312a"/><path d="m399.8125 119.398438h-196.960938c-1.65625 0-3 1.34375-3 3s1.34375 3 3 3h196.960938c1.65625 0 3-1.34375 3-3s-1.34375-3-3-3zm0 0" fill="#3a312a"/><path d="m380.417969 170.308594h-158.175781c-1.65625 0-3 1.34375-3 3s1.34375 3 3 3h158.175781c1.652343 0 3-1.34375 3-3s-1.34375-3-3-3zm0 0" fill="#3a312a"/><path d="m276.109375 245.371094c-6.121094-1-12.179687-2.320313-18.121094-4.019532-30.519531-7.339843-58.097656-22.820312-77.539062-43.582031-1.878907-2-3.640625-4.039062-5.359375-6.121093-7.359375-.917969-14.878906-1.398438-22.558594-1.398438h-.242188c-1.878906 0-3.820312.039062-5.757812.121094-2.320312.078125-4.640625.199218-6.941406.359375 3.199218.21875 6.359375.519531 9.5.917969 1.71875 2.082031 3.480468 4.121093 5.359375 6.121093 19.441406 20.761719 47.019531 36.242188 77.539062 43.582031.0625.015626.121094.03125.179688.046876 13.816406 3.9375 25.640625 13.265624 31.535156 26.371093 5.578125 12.402344 8.628906 25.765625 8.628906 39.699219 0 51.402344-42.761719 97.601562-104.121093 112.359375-9.359376 2.683594-19.019532 4.460937-28.800782 5.28125 18.441406 1.5625 37.179688-.21875 54.800782-5.28125 61.359374-14.757813 104.121093-60.957031 104.121093-112.359375 0-22.796875-8.160156-44.078125-22.222656-62.097656zm0 0" fill="#ce4e61"/><path d="m403.949219 209.191406c-.480469-1.222656-.117188-2.601562.902343-3.441406 27.257813-22.101562 42.277344-51.421875 42.277344-82.519531 0-63.101563-61.398437-114.539063-139.777344-117.101563-1.941406-.078125-3.882812-.117187-5.839843-.117187h-.242188c-4.398437 0-8.78125.160156-13.078125.476562 75.078125 5.222657 132.9375 55.480469 132.9375 116.742188 0 31.097656-15.019531 60.417969-42.277344 82.519531-1.019531.839844-1.382812 2.21875-.902343 3.441406l18.722656 47.179688 22.5 7.398437c1.378906.460938 2.796875.101563 3.796875-.960937 1-1.058594 1.261719-2.5.742188-3.839844zm0 0" fill="#68a8bc"/></svg>