<svg height="453pt" viewBox="0 -14 453 453" width="453pt" xmlns="http://www.w3.org/2000/svg"><path d="m3 209.160156v189.910156c0 13.113282 10.632812 23.75 23.75 23.75h399.5c13.117188 0 23.75-10.636718 23.75-23.75v-189.910156zm0 0" fill="#87796f"/><path d="m450 206.160156h-447c-1.65625 0-3 1.34375-3 3v80.289063c0 1.65625 1.34375 3 3 3s3-1.34375 3-3v-77.289063h441v186.910156c0 11.441407-9.308594 20.75-20.75 20.75h-399.5c-11.441406 0-20.75-9.308593-20.75-20.75v-83.878906c0-1.65625-1.34375-3-3-3s-3 1.34375-3 3v83.878906c0 14.75 12 26.75 26.75 26.75h399.5c14.75 0 26.75-12 26.75-26.75v-189.910156c0-1.65625-1.34375-3-3-3zm0 0" fill="#3a312a"/><path d="m3.902344 405.492188c2.804687 9.992187 11.960937 17.328124 22.847656 17.328124h399.5c10.886719 0 20.042969-7.335937 22.847656-17.328124zm0 0" fill="#fce8cb"/><path d="m451.484375 403.679688c-.5625-.75-1.449219-1.1875-2.386719-1.1875h-445.195312c-.9375 0-1.824219.4375-2.386719 1.1875-.566406.746093-.753906 1.714843-.5 2.621093 3.226563 11.492188 13.808594 19.519531 25.738281 19.519531h399.5c11.925782 0 22.511719-8.027343 25.730469-19.519531.253906-.90625.066406-1.875-.5-2.621093zm-25.234375 16.140624h-399.5c-7.863281 0-14.976562-4.5-18.464844-11.328124h436.433594c-3.492188 6.824218-10.601562 11.328124-18.46875 11.328124zm0 0" fill="#3a312a"/><path d="m426.25 153.492188h-399.5c-13.117188 0-23.75 10.632812-23.75 23.75v31.917968h447v-31.917968c0-13.117188-10.632812-23.75-23.75-23.75zm0 0" fill="#fce8cb"/><path d="m426.25 150.492188h-45.375c-1.65625 0-3 1.34375-3 3 0 1.652343 1.34375 3 3 3h45.375c11.441406 0 20.75 9.304687 20.75 20.75v28.917968h-441v-28.917968c0-11.445313 9.308594-20.75 20.75-20.75h329.375c1.65625 0 3-1.347657 3-3 0-1.65625-1.34375-3-3-3h-329.375c-14.75 0-26.75 12-26.75 26.75v31.917968c0 1.652344 1.34375 3 3 3h447c1.65625 0 3-1.347656 3-3v-31.917968c0-14.75-12-26.75-26.75-26.75zm0 0" fill="#3a312a"/><path d="m85.179688 125.597656h-49.359376c-4.960937 0-8.984374 4.023438-8.984374 8.992188v18.902344h67.332031v-18.902344c-.003907-4.96875-4.027344-8.992188-8.988281-8.992188zm0 0" fill="#fce8cb"/><path d="m85.179688 122.601562h-49.359376c-6.609374 0-11.988281 5.375-11.988281 11.988282v18.902344c0 1.652343 1.34375 3 3 3h67.332031c1.660157 0 3-1.347657 3-3v-18.902344c0-6.613282-5.375-11.988282-11.984374-11.988282zm5.984374 27.890626h-61.328124v-15.902344c0-3.304688 2.683593-5.988282 5.988281-5.988282h49.355469c3.300781 0 5.992187 2.683594 5.992187 5.988282v15.902344zm0 0" fill="#3a312a"/><path d="m337.179688 131.910156h-34.121094c-4.964844 0-8.988282 4.023438-8.988282 8.988282v12.59375h52.097657v-12.59375c-.003907-4.964844-4.027344-8.988282-8.988281-8.988282zm0 0" fill="#8ac6dd"/><path d="m337.179688 128.910156h-34.121094c-6.613282 0-11.992188 5.375-11.992188 11.988282v12.59375c0 1.652343 1.34375 3 3 3h52.097656c1.65625 0 3-1.347657 3-3v-12.59375c0-6.613282-5.375-11.988282-11.984374-11.988282zm5.984374 21.582032h-46.097656v-9.59375c0-3.300782 2.691406-5.988282 5.992188-5.988282h34.121094c3.300781 0 5.984374 2.6875 5.984374 5.988282zm0 0" fill="#3a312a"/><path d="m338.5 298.324219c0 61.855469-50.144531 112-112 112s-112-50.144531-112-112 50.144531-112 112-112 112 50.144531 112 112zm0 0" fill="#fce8cb"/><path d="m226.5 183.324219c-63.410156 0-115 51.589843-115 115 0 63.414062 51.589844 115 115 115s115-51.585938 115-115c0-63.410157-51.589844-115-115-115zm0 224c-60.101562 0-109-48.894531-109-109s48.898438-109 109-109c60.105469 0 109 48.894531 109 109s-48.894531 109-109 109zm0 0" fill="#3a312a"/><path d="m413.664062 171.160156h-54.332031c-5.984375 0-10.835937 4.847656-10.835937 10.832032v34.398437c0 5.984375 4.851562 10.832031 10.835937 10.832031h54.332031c5.984376 0 10.835938-4.847656 10.835938-10.832031v-34.398437c0-5.984376-4.851562-10.832032-10.835938-10.832032zm0 0" fill="#d7e057"/><path d="m413.664062 168.160156h-54.328124c-7.628907 0-13.835938 6.203125-13.835938 13.832032v34.398437c0 7.625 6.207031 13.832031 13.835938 13.832031h54.328124c7.628907 0 13.835938-6.207031 13.835938-13.832031v-34.398437c0-7.628907-6.207031-13.832032-13.835938-13.832032zm7.835938 48.230469c0 4.316406-3.515625 7.832031-7.835938 7.832031h-54.328124c-4.320313 0-7.835938-3.515625-7.835938-7.832031v-34.398437c0-4.320313 3.515625-7.832032 7.835938-7.832032h54.328124c4.320313 0 7.835938 3.511719 7.835938 7.832032zm0 0" fill="#3a312a"/><path d="m70 171.160156h-40c-5.800781 0-10.5 4.699219-10.5 10.5 0 5.796875 4.699219 10.5 10.5 10.5h40c5.796875 0 10.5-4.703125 10.5-10.5 0-5.800781-4.703125-10.5-10.5-10.5zm0 0" fill="#d7e057"/><path d="m70 168.160156h-40c-7.445312 0-13.5 6.054688-13.5 13.5 0 7.441406 6.054688 13.5 13.5 13.5h40c7.445312 0 13.5-6.058594 13.5-13.5 0-7.445312-6.054688-13.5-13.5-13.5zm0 21h-40c-4.136719 0-7.5-3.367187-7.5-7.5 0-4.136718 3.363281-7.5 7.5-7.5h40c4.136719 0 7.5 3.363282 7.5 7.5 0 4.132813-3.363281 7.5-7.5 7.5zm0 0" fill="#3a312a"/><path d="m154 171.160156h-1.335938c-5.796874 0-10.5 4.699219-10.5 10.5 0 5.796875 4.703126 10.5 10.5 10.5h1.335938c5.796875 0 10.5-4.703125 10.5-10.5 0-5.800781-4.703125-10.5-10.5-10.5zm0 0" fill="#f16c7a"/><path d="m154 168.160156h-1.335938c-7.441406 0-13.5 6.054688-13.5 13.5 0 7.441406 6.058594 13.5 13.5 13.5h1.335938c7.445312 0 13.5-6.058594 13.5-13.5 0-7.445312-6.054688-13.5-13.5-13.5zm0 21h-1.335938c-4.132812 0-7.5-3.367187-7.5-7.5 0-4.136718 3.367188-7.5 7.5-7.5h1.335938c4.136719 0 7.5 3.363282 7.5 7.5 0 4.132813-3.363281 7.5-7.5 7.5zm0 0" fill="#3a312a"/><path d="m133.5 209.660156c0 11.871094-9.625 21.5-21.5 21.5s-21.5-9.628906-21.5-21.5c0-11.875 9.625-21.5 21.5-21.5s21.5 9.625 21.5 21.5zm0 0" fill="#f16c7a"/><path d="m112 185.160156c-13.511719 0-24.5 10.988282-24.5 24.5 0 13.507813 10.988281 24.5 24.5 24.5s24.5-10.992187 24.5-24.5c0-13.511718-10.988281-24.5-24.5-24.5zm0 43c-10.203125 0-18.5-8.300781-18.5-18.5 0-10.203125 8.296875-18.5 18.5-18.5s18.5 8.296875 18.5 18.5c0 10.199219-8.296875 18.5-18.5 18.5zm0 0" fill="#3a312a"/><path d="m117.101562 22.355469c-1.949218 23.128906-26.046874 26.78125-26.046874 26.78125 20.691406.972656 25.847656 28.117187 25.847656 28.117187.441406-19.351562 26.640625-28.402344 26.640625-28.402344-19.625-1.175781-26.441407-26.496093-26.441407-26.496093zm0 0" fill="#d7e057"/><path d="m143.722656 45.855469c-17.207031-1.027344-23.664062-24.046875-23.726562-24.28125-.378906-1.402344-1.695313-2.324219-3.164063-2.203125-1.449219.132812-2.597656 1.285156-2.71875 2.734375-1.71875 20.429687-22.625 23.925781-23.507812 24.0625-1.527344.230469-2.625 1.582031-2.546875 3.121093.082031 1.542969 1.316406 2.769532 2.855468 2.839844 18.054688.855469 22.996094 25.441406 23.046876 25.691406.273437 1.421876 1.515624 2.433594 2.941406 2.433594.085937 0 .167968-.003906.253906-.011718 1.527344-.128907 2.714844-1.386719 2.75-2.917969.386719-17.019531 24.382812-25.554688 24.625-25.640625 1.347656-.46875 2.183594-1.828125 1.988281-3.242188-.199219-1.417968-1.367187-2.5-2.796875-2.585937zm-27.128906 20.691406c-2.714844-6.261719-7.417969-13.816406-15.175781-17.753906 5.863281-2.808594 12.816406-7.828125 16.402343-16.542969 3.105469 6.140625 8.402344 13.757812 16.667969 17.445312-6.011719 3.277344-13.84375 8.808594-17.894531 16.851563zm0 0" fill="#3a312a"/><path d="m73.703125 56.320312c-1.378906 16.355469-18.421875 18.941407-18.421875 18.941407 14.632812.6875 18.28125 19.886719 18.28125 19.886719.3125-13.6875 18.84375-20.089844 18.84375-20.089844-13.878906-.832032-18.703125-18.738282-18.703125-18.738282zm0 0" fill="#d7e057"/><path d="m92.585938 72.0625c-11.53125-.691406-15.945313-16.371094-15.988282-16.53125-.378906-1.402344-1.699218-2.335938-3.164062-2.203125-1.453125.128906-2.597656 1.285156-2.71875 2.734375-1.160156 13.742188-15.292969 16.132812-15.886719 16.226562-1.523437.230469-2.625 1.582032-2.542969 3.121094.078125 1.542969 1.3125 2.769532 2.851563 2.84375 12.074219.566406 15.449219 17.289063 15.480469 17.453125.269531 1.421875 1.515624 2.4375 2.941406 2.4375.085937 0 .167968-.003906.25-.007812 1.53125-.125 2.71875-1.386719 2.753906-2.921875.257812-11.417969 16.664062-17.265625 16.824219-17.324219 1.355469-.464844 2.1875-1.824219 1.992187-3.242187-.191406-1.417969-1.363281-2.503907-2.792968-2.585938zm-19.167969 13.589844c-1.847657-3.773438-4.679688-7.894532-8.894531-10.558594 3.710937-2.082031 7.394531-5.261719 9.742187-9.832031 2.113281 3.746093 5.304687 7.90625 9.878906 10.445312-3.695312 2.203125-7.972656 5.480469-10.726562 9.945313zm0 0" fill="#3a312a"/><path d="m73.703125 3.003906c-1.378906 16.355469-18.421875 18.941406-18.421875 18.941406 14.632812.6875 18.28125 19.886719 18.28125 19.886719.3125-13.6875 18.84375-20.089843 18.84375-20.089843-13.878906-.832032-18.703125-18.738282-18.703125-18.738282zm0 0" fill="#d7e057"/><path d="m92.589844 18.75c-11.535156-.695312-15.949219-16.375-15.988282-16.535156-.382812-1.402344-1.703124-2.335938-3.164062-2.2031252-1.453125.1289062-2.597656 1.2851562-2.722656 2.7382812-1.15625 13.742188-15.289063 16.128906-15.882813 16.222656-1.527343.234375-2.625 1.582032-2.546875 3.125.082032 1.539063 1.316406 2.769532 2.855469 2.839844 12.070313.570312 15.449219 17.289062 15.476563 17.453125.269531 1.425781 1.519531 2.441406 2.945312 2.441406.082031 0 .164062-.003906.25-.007812 1.53125-.128907 2.714844-1.386719 2.75-2.921875.261719-11.417969 16.664062-17.269532 16.828125-17.324219 1.351563-.464844 2.1875-1.824219 1.992187-3.242187-.195312-1.417969-1.367187-2.5-2.792968-2.585938zm-19.171875 13.585938c-1.847657-3.773438-4.679688-7.894532-8.894531-10.558594 3.710937-2.082032 7.394531-5.257813 9.742187-9.832032 2.113281 3.746094 5.308594 7.910157 9.882813 10.449219-3.699219 2.199219-7.976563 5.476563-10.730469 9.941407zm0 0" fill="#3a312a"/><path d="m320.261719 294.085938c-2.347657-51.78125-46.230469-91.855469-98.011719-89.507813s-91.855469 46.230469-89.507812 98.011719c2.351562 51.78125 46.230468 91.855468 98.011718 89.503906 51.78125-2.347656 91.855469-46.226562 89.507813-98.007812zm0 0" fill="#d7e057"/><path d="m226.5 201.46875c-53.40625 0-96.855469 43.453125-96.855469 96.855469 0 53.402343 43.449219 96.855469 96.855469 96.855469 53.402344 0 96.855469-43.453126 96.855469-96.855469 0-53.402344-43.453125-96.855469-96.855469-96.855469zm0 187.710938c-50.097656 0-90.855469-40.757813-90.855469-90.855469 0-50.097657 40.757813-90.855469 90.855469-90.855469s90.855469 40.757812 90.855469 90.855469c0 50.097656-40.757813 90.855469-90.855469 90.855469zm0 0" fill="#3a312a"/><path d="m255.453125 228.449219c-38.589844-15.984375-82.828125 2.34375-98.816406 40.933593-15.984375 38.589844 2.339843 82.832032 40.929687 98.816407s82.832032-2.339844 98.816406-40.929688c15.984376-38.59375-2.339843-82.835937-40.929687-98.820312zm0 0" fill="#8ac6dd"/><path d="m226.5 219.695312c-43.355469 0-78.628906 35.273438-78.628906 78.628907s35.273437 78.628906 78.628906 78.628906 78.628906-35.273437 78.628906-78.628906-35.273437-78.628907-78.628906-78.628907zm0 151.257813c-40.046875 0-72.628906-32.582031-72.628906-72.628906s32.582031-72.628907 72.628906-72.628907 72.628906 32.582032 72.628906 72.628907-32.582031 72.628906-72.628906 72.628906zm0 0" fill="#3a312a"/><path d="m427.5 212.152344v4.238281c0 6.460937-4.460938 11.917969-10.5 13.417969v169.261718c0 1.160157-.121094 2.300782-.300781 3.421876h30c.179687-1.121094.300781-2.261719.300781-3.421876v-186.917968zm0 0" fill="#695b51"/><g fill="#decaad"><path d="m414.71875 408.492188c-3.5 6.816406-10.597656 11.316406-18.457031 11.316406h30c7.859375 0 14.957031-4.5 18.457031-11.316406zm0 0"/><path d="m426.261719 156.492188h-30c8.21875 0 15.316406 4.796874 18.679687 11.738281 7.039063.621093 12.558594 6.558593 12.558594 13.761719v24.160156h19.5v-28.902344c0-11.460938-9.300781-20.757812-20.738281-20.757812zm0 0"/></g></svg>