<svg id="Layer_1" enable-background="new 0 0 256 256" height="512" viewBox="0 0 256 256" width="512" xmlns="http://www.w3.org/2000/svg"><g><g><g><path d="m23.338 41.61c-3.86 0-6.99 3.13-6.99 6.99v158.8c0 3.86 3.13 6.99 6.99 6.99h114.22v-172.78z" fill="#87796f"/></g></g><g><g><path d="m137.558 40.11h-114.22c-4.682 0-8.49 3.809-8.49 8.49v59.901c0 .829.671 1.5 1.5 1.5s1.5-.671 1.5-1.5v-59.901c0-3.027 2.463-5.49 5.49-5.49h112.72v169.78h-112.72c-3.027 0-5.49-2.463-5.49-5.49v-83.901c0-.829-.671-1.5-1.5-1.5s-1.5.671-1.5 1.5v83.901c0 4.682 3.809 8.49 8.49 8.49h114.22c.828 0 1.5-.671 1.5-1.5v-172.78c0-.829-.672-1.5-1.5-1.5z" fill="#3a312a"/></g></g><g><g><path d="m111.688 80.54c-5.4 0-9.77 4.37-9.77 9.77v75.38c0 5.4 4.37 9.77 9.77 9.77h25.87v-94.92z" fill="#89c4db"/></g></g><g><g><path d="m137.558 79.04h-25.87c-6.214 0-11.27 5.056-11.27 11.27v75.38c0 6.214 5.056 11.27 11.27 11.27h25.87c.828 0 1.5-.671 1.5-1.5v-94.92c0-.829-.672-1.5-1.5-1.5zm-1.5 94.92h-24.37c-4.56 0-8.27-3.71-8.27-8.27v-75.38c0-4.56 3.71-8.27 8.27-8.27h24.37z" fill="#3a312a"/></g></g><g><g><path d="m67.638 80.538h-26.09c-5.399 0-9.776 4.377-9.776 9.776v75.372c0 5.399 4.377 9.776 9.776 9.776h26.09c5.399 0 9.776-4.377 9.776-9.776v-75.372c0-5.399-4.377-9.776-9.776-9.776z" fill="#89c4db"/></g></g><g><g><path d="m67.638 79.038h-26.09c-6.218 0-11.276 5.059-11.276 11.276v75.372c0 6.218 5.059 11.276 11.276 11.276h26.09c6.218 0 11.276-5.059 11.276-11.276v-75.372c0-6.218-5.058-11.276-11.276-11.276zm8.276 86.648c0 4.563-3.712 8.276-8.276 8.276h-26.09c-4.564 0-8.276-3.713-8.276-8.276v-75.372c0-4.563 3.713-8.276 8.276-8.276h26.09c4.563 0 8.276 3.713 8.276 8.276z" fill="#3a312a"/></g></g><g><g><path d="m47.818 51.156h-13.13c-1.61 0-2.916 1.305-2.916 2.916v13.13c0 1.61 1.305 2.916 2.916 2.916h13.13c1.61 0 2.916-1.305 2.916-2.916v-13.13c-.001-1.61-1.306-2.916-2.916-2.916z" fill="#d4d752"/></g></g><g><g><path d="m47.817 49.656h-13.13c-2.435 0-4.416 1.981-4.416 4.416v13.13c0 2.435 1.981 4.416 4.416 4.416h13.13c2.435 0 4.416-1.981 4.416-4.416v-13.13c0-2.435-1.981-4.416-4.416-4.416zm1.416 17.546c0 .781-.635 1.416-1.416 1.416h-13.13c-.781 0-1.416-.635-1.416-1.416v-13.13c0-.781.635-1.416 1.416-1.416h13.13c.781 0 1.416.635 1.416 1.416z" fill="#3a312a"/></g></g><g><g><path d="m76.759 51.156h-13.13c-1.61 0-2.916 1.305-2.916 2.916v13.13c0 1.61 1.305 2.916 2.916 2.916h13.13c1.61 0 2.916-1.305 2.916-2.916v-13.13c-.001-1.61-1.306-2.916-2.916-2.916z" fill="#d4d752"/></g></g><g><g><path d="m76.759 49.656h-13.13c-2.435 0-4.416 1.981-4.416 4.416v13.13c0 2.435 1.981 4.416 4.416 4.416h13.13c2.435 0 4.416-1.981 4.416-4.416v-13.13c-.001-2.435-1.982-4.416-4.416-4.416zm1.415 17.546c0 .781-.635 1.416-1.416 1.416h-13.13c-.781 0-1.416-.635-1.416-1.416v-13.13c0-.781.635-1.416 1.416-1.416h13.13c.781 0 1.416.635 1.416 1.416z" fill="#3a312a"/></g></g><g><g><path d="m105.7 51.156h-13.13c-1.61 0-2.916 1.305-2.916 2.916v13.13c0 1.61 1.305 2.916 2.916 2.916h13.13c1.61 0 2.916-1.305 2.916-2.916v-13.13c0-1.61-1.306-2.916-2.916-2.916z" fill="#d4d752"/></g></g><g><g><path d="m105.7 49.656h-13.13c-2.435 0-4.416 1.981-4.416 4.416v13.13c0 2.435 1.981 4.416 4.416 4.416h13.13c2.435 0 4.416-1.981 4.416-4.416v-13.13c-.001-2.435-1.982-4.416-4.416-4.416zm1.415 17.546c0 .781-.635 1.416-1.416 1.416h-13.129c-.781 0-1.416-.635-1.416-1.416v-13.13c0-.781.635-1.416 1.416-1.416h13.13c.781 0 1.416.635 1.416 1.416v13.13z" fill="#3a312a"/></g></g><g><g><path d="m134.641 51.156h-13.13c-1.61 0-2.916 1.305-2.916 2.916v13.13c0 1.61 1.305 2.916 2.916 2.916h13.13c1.61 0 2.916-1.305 2.916-2.916v-13.13c0-1.61-1.306-2.916-2.916-2.916z" fill="#d4d752"/></g></g><g><g><path d="m134.641 49.656h-13.13c-2.435 0-4.416 1.981-4.416 4.416v13.13c0 2.435 1.981 4.416 4.416 4.416h13.13c2.435 0 4.416-1.981 4.416-4.416v-13.13c0-2.435-1.982-4.416-4.416-4.416zm1.416 17.546c0 .781-.635 1.416-1.416 1.416h-13.13c-.781 0-1.416-.635-1.416-1.416v-13.13c0-.781.635-1.416 1.416-1.416h13.13c.781 0 1.416.635 1.416 1.416z" fill="#3a312a"/></g></g><g><g><path d="m47.818 185.882h-13.13c-1.61 0-2.916 1.305-2.916 2.916v13.13c0 1.61 1.305 2.916 2.916 2.916h13.13c1.61 0 2.916-1.305 2.916-2.916v-13.13c-.001-1.61-1.306-2.916-2.916-2.916z" fill="#d4d752"/></g></g><g><g><path d="m47.817 184.382h-13.13c-2.435 0-4.416 1.981-4.416 4.416v13.13c0 2.435 1.981 4.416 4.416 4.416h13.13c2.435 0 4.416-1.981 4.416-4.416v-13.13c0-2.435-1.981-4.416-4.416-4.416zm1.416 17.546c0 .781-.635 1.416-1.416 1.416h-13.13c-.781 0-1.416-.635-1.416-1.416v-13.13c0-.781.635-1.416 1.416-1.416h13.13c.781 0 1.416.635 1.416 1.416z" fill="#3a312a"/></g></g><g><g><path d="m76.759 185.882h-13.13c-1.61 0-2.916 1.305-2.916 2.916v13.13c0 1.61 1.305 2.916 2.916 2.916h13.13c1.61 0 2.916-1.305 2.916-2.916v-13.13c-.001-1.61-1.306-2.916-2.916-2.916z" fill="#d4d752"/></g></g><g><g><path d="m76.759 184.382h-13.13c-2.435 0-4.416 1.981-4.416 4.416v13.13c0 2.435 1.981 4.416 4.416 4.416h13.13c2.435 0 4.416-1.981 4.416-4.416v-13.13c-.001-2.435-1.982-4.416-4.416-4.416zm1.415 17.546c0 .781-.635 1.416-1.416 1.416h-13.13c-.781 0-1.416-.635-1.416-1.416v-13.13c0-.781.635-1.416 1.416-1.416h13.13c.781 0 1.416.635 1.416 1.416z" fill="#3a312a"/></g></g><g><g><path d="m105.7 185.882h-13.13c-1.61 0-2.916 1.305-2.916 2.916v13.13c0 1.61 1.305 2.916 2.916 2.916h13.13c1.61 0 2.916-1.305 2.916-2.916v-13.13c0-1.61-1.306-2.916-2.916-2.916z" fill="#d4d752"/></g></g><g><g><path d="m105.7 184.382h-13.13c-2.435 0-4.416 1.981-4.416 4.416v13.13c0 2.435 1.981 4.416 4.416 4.416h13.13c2.435 0 4.416-1.981 4.416-4.416v-13.13c-.001-2.435-1.982-4.416-4.416-4.416zm1.415 17.546c0 .781-.635 1.416-1.416 1.416h-13.129c-.781 0-1.416-.635-1.416-1.416v-13.13c0-.781.635-1.416 1.416-1.416h13.13c.781 0 1.416.635 1.416 1.416v13.13z" fill="#3a312a"/></g></g><g><g><path d="m134.641 185.882h-13.13c-1.61 0-2.916 1.305-2.916 2.916v13.13c0 1.61 1.305 2.916 2.916 2.916h13.13c1.61 0 2.916-1.305 2.916-2.916v-13.13c0-1.61-1.306-2.916-2.916-2.916z" fill="#d4d752"/></g></g><g><g><path d="m134.641 184.382h-13.13c-2.435 0-4.416 1.981-4.416 4.416v13.13c0 2.435 1.981 4.416 4.416 4.416h13.13c2.435 0 4.416-1.981 4.416-4.416v-13.13c0-2.435-1.982-4.416-4.416-4.416zm1.416 17.546c0 .781-.635 1.416-1.416 1.416h-13.13c-.781 0-1.416-.635-1.416-1.416v-13.13c0-.781.635-1.416 1.416-1.416h13.13c.781 0 1.416.635 1.416 1.416z" fill="#3a312a"/></g></g><g><g><path d="m224.117 16.501h-70.829c-8.688 0-15.731 7.043-15.731 15.731v191.536c0 8.688 7.043 15.731 15.731 15.731h70.829c8.688 0 15.731-7.043 15.731-15.731v-191.536c0-8.688-7.043-15.731-15.731-15.731z" fill="#87796f"/></g></g><g><g><path d="m224.117 15.001h-33.776c-.828 0-1.5.671-1.5 1.5s.672 1.5 1.5 1.5h33.776c7.847 0 14.231 6.384 14.231 14.231v191.536c0 7.847-6.384 14.231-14.231 14.231h-70.83c-7.847 0-14.23-6.384-14.23-14.231v-191.536c0-7.847 6.384-14.231 14.23-14.231h22.567c.828 0 1.5-.671 1.5-1.5s-.672-1.5-1.5-1.5h-22.567c-9.501 0-17.23 7.73-17.23 17.231v191.536c0 9.501 7.729 17.231 17.23 17.231h70.83c9.501 0 17.231-7.73 17.231-17.231v-191.536c0-9.501-7.73-17.231-17.231-17.231z" fill="#3a312a"/></g></g><g><g><path d="m224.118 18h-15c7.85 0 14.23 6.38 14.23 14.23v191.54c0 7.85-6.38 14.23-14.23 14.23h15c7.85 0 14.23-6.38 14.23-14.23v-191.54c0-7.85-6.38-14.23-14.23-14.23z" fill="#695b51"/></g></g></g></svg>