<svg id="Layer_1" enable-background="new 0 0 256 256" height="512" viewBox="0 0 256 256" width="512" xmlns="http://www.w3.org/2000/svg"><g><g><g><path d="m51.876 26.177c-.974 11.564-13.031 13.389-13.031 13.389 10.352.487 12.932 14.059 12.932 14.059.221-9.677 13.328-14.202 13.328-14.202-9.819-.587-13.229-13.246-13.229-13.246z" fill="#d4d853"/></g></g><g><g><path d="m65.194 37.926c-8.609-.515-11.838-12.025-11.87-12.141-.191-.702-.859-1.173-1.583-1.101-.725.066-1.298.642-1.359 1.367-.86 10.215-11.32 11.963-11.761 12.033-.763.115-1.313.79-1.273 1.561.04.77.657 1.384 1.428 1.421 9.033.425 11.505 12.718 11.529 12.842.137.711.759 1.217 1.472 1.217.042 0 .084-.001.126-.005.764-.064 1.357-.693 1.375-1.459.195-8.509 12.198-12.777 12.319-12.819.676-.235 1.092-.914.995-1.623-.1-.709-.684-1.25-1.398-1.293zm-13.573 10.347c-1.357-3.13-3.71-6.908-7.591-8.878 2.933-1.405 6.413-3.913 8.207-8.274 1.551 3.071 4.201 6.881 8.338 8.724-3.009 1.64-6.926 4.407-8.954 8.428z" fill="#3a312a"/></g></g><g><g><path d="m30.166 43.158c-.689 8.179-9.217 9.47-9.217 9.47 7.322.344 9.147 9.944 9.147 9.944.156-6.844 9.427-10.045 9.427-10.045-6.945-.415-9.357-9.369-9.357-9.369z" fill="#d4d853"/></g></g><g><g><path d="m39.612 51.03c-5.77-.345-7.977-8.186-7.999-8.265-.19-.702-.855-1.162-1.582-1.102-.726.065-1.299.642-1.36 1.368-.579 6.871-7.651 8.067-7.947 8.114-.763.115-1.313.79-1.273 1.561.04.77.657 1.384 1.428 1.421 6.039.284 7.728 8.644 7.744 8.726.135.712.759 1.22 1.472 1.22.042 0 .083-.001.125-.005.765-.063 1.358-.694 1.376-1.461.13-5.709 8.337-8.633 8.417-8.662.677-.234 1.094-.913.997-1.622-.098-.709-.683-1.25-1.398-1.293zm-9.589 6.796c-.924-1.886-2.341-3.948-4.45-5.281 1.856-1.041 3.699-2.63 4.873-4.917 1.057 1.874 2.655 3.956 4.944 5.225-1.85 1.1-3.99 2.74-5.367 4.973z" fill="#3a312a"/></g></g><g><g><path d="m30.166 16.5c-.689 8.179-9.217 9.471-9.217 9.471 7.322.345 9.147 9.944 9.147 9.944.156-6.844 9.427-10.045 9.427-10.045-6.945-.416-9.357-9.37-9.357-9.37z" fill="#d4d853"/></g></g><g><g><path d="m39.612 24.372c-5.77-.345-7.977-8.186-7.999-8.265-.19-.702-.855-1.161-1.582-1.102-.726.065-1.299.642-1.36 1.368-.579 6.871-7.651 8.067-7.947 8.114-.763.115-1.313.79-1.273 1.561.04.77.657 1.384 1.428 1.421 6.039.284 7.728 8.644 7.744 8.726.135.712.759 1.22 1.472 1.22.042 0 .083-.001.125-.005.765-.063 1.358-.694 1.376-1.461.13-5.708 8.337-8.633 8.418-8.662.676-.234 1.094-.913.996-1.622-.098-.708-.683-1.25-1.398-1.293zm-9.589 6.796c-.924-1.886-2.341-3.948-4.45-5.281 1.857-1.041 3.7-2.63 4.874-4.917 1.057 1.874 2.656 3.956 4.944 5.225-1.851 1.101-3.991 2.741-5.368 4.973z" fill="#3a312a"/></g></g><g><g><ellipse cx="96.82" cy="58.639" fill="#ef6d7a" rx="29.276" ry="29.276" transform="matrix(.099 -.995 .995 .099 28.927 149.21)"/></g></g><g><g><path d="m96.82 27.863c-16.97 0-30.776 13.806-30.776 30.776s13.806 30.776 30.776 30.776 30.776-13.806 30.776-30.776-13.806-30.776-30.776-30.776zm0 58.552c-15.316 0-27.776-12.46-27.776-27.776 0-15.315 12.46-27.776 27.776-27.776 15.315 0 27.776 12.46 27.776 27.776s-12.46 27.776-27.776 27.776z" fill="#3a312a"/></g></g><g><g><path d="m96.82 49.622c-4.98 0-9.017 4.037-9.017 9.017s4.037 9.017 9.017 9.017 9.017-4.037 9.017-9.017-4.037-9.017-9.017-9.017z" fill="#87796f"/></g></g><g><g><path d="m96.82 48.122c-5.799 0-10.517 4.718-10.517 10.517s4.718 10.517 10.517 10.517 10.517-4.718 10.517-10.517-4.717-10.517-10.517-10.517zm0 18.034c-4.145 0-7.517-3.372-7.517-7.517s3.372-7.517 7.517-7.517 7.517 3.372 7.517 7.517-3.371 7.517-7.517 7.517z" fill="#3a312a"/></g></g><g><g><ellipse cx="161.705" cy="52.306" fill="#ef6d7a" rx="35.609" ry="35.609" transform="matrix(.383 -.924 .924 .383 51.499 181.686)"/></g></g><g><g><path d="m161.705 15.197c-20.462 0-37.109 16.647-37.109 37.109s16.647 37.109 37.109 37.109 37.109-16.647 37.109-37.109c0-20.462-16.647-37.109-37.109-37.109zm0 71.218c-18.808 0-34.109-15.301-34.109-34.109s15.301-34.109 34.109-34.109 34.109 15.301 34.109 34.109-15.301 34.109-34.109 34.109z" fill="#3a312a"/></g></g><g><g><ellipse cx="161.705" cy="52.306" fill="#87796f" rx="10.968" ry="10.968" transform="matrix(.383 -.924 .924 .383 51.499 181.686)"/></g></g><g><g><path d="m161.705 39.838c-6.875 0-12.467 5.593-12.467 12.467s5.593 12.468 12.467 12.468c6.875 0 12.468-5.593 12.468-12.468s-5.593-12.467-12.468-12.467zm0 21.935c-5.22 0-9.467-4.247-9.467-9.468 0-5.22 4.247-9.467 9.467-9.467 5.221 0 9.468 4.247 9.468 9.467 0 5.221-4.247 9.468-9.468 9.468z" fill="#3a312a"/></g></g><g><g><path d="m29.679 112.5v39l14.5-7.5v-24z" fill="#87796f"/></g></g><g><g><path d="m44.868 118.667-14.5-7.5c-.464-.24-1.022-.222-1.469.051-.447.272-.72.758-.72 1.281v39c0 .523.273 1.009.72 1.281.239.146.509.219.78.219.236 0 .473-.056.689-.167l14.5-7.5c.498-.258.811-.772.811-1.333v-24c0-.56-.313-1.074-.811-1.332zm-2.189 24.42-11.5 5.948v-34.07l11.5 5.948z" fill="#3a312a"/></g></g><g><g><path d="m113.189 189.5-5.69 14.356-5.552 14.007-4.779 12.057c-1.42 3.59.34 7.66 3.93 9.08.85.34 1.72.5 2.58.5 2.78 0 5.42-1.68 6.51-4.42l18.06-45.58z" fill="#87796f"/></g></g><g><g><path d="m129.49 188.657c-.279-.411-.744-.657-1.241-.657h-15.06c-.615 0-1.168.375-1.395.947l-5.69 14.356c-.305.77.072 1.642.842 1.947.771.304 1.642-.071 1.947-.842l5.315-13.408h11.833l-17.246 43.526c-.826 2.078-2.882 3.474-5.116 3.474-.69 0-1.371-.132-2.028-.395-2.817-1.114-4.202-4.314-3.087-7.132l4.779-12.057c.305-.77-.072-1.642-.842-1.947-.772-.305-1.642.071-1.947.842l-4.779 12.058c-1.723 4.357.418 9.304 4.768 11.025 1.008.403 2.063.607 3.137.607 3.505 0 6.607-2.106 7.904-5.367l18.06-45.58c.183-.463.125-.986-.154-1.397z" fill="#3a312a"/></g></g><g><g><path d="m166.189 229.92-16.02-40.42h-15.06l18.06 45.58c1.09 2.74 3.73 4.42 6.51 4.42.86 0 1.73-.16 2.58-.5 3.59-1.42 5.35-5.49 3.93-9.08z" fill="#87796f"/></g></g><g><g><path d="m167.584 229.367-16.02-40.42c-.227-.572-.779-.947-1.395-.947h-15.06c-.497 0-.961.246-1.241.657-.279.411-.337.934-.154 1.396l18.061 45.582c1.297 3.259 4.399 5.365 7.904 5.365 1.073 0 2.128-.204 3.136-.606 4.353-1.725 6.492-6.67 4.769-11.027zm-5.876 8.238c-.002.001-.004.001-.005.002-.652.261-1.333.393-2.023.393-2.233 0-4.289-1.396-5.116-3.473l-17.247-43.527h11.833l15.644 39.472c1.115 2.819-.269 6.019-3.086 7.133z" fill="#3a312a"/></g></g><g><g><path d="m185.287 87.915h-107.215c-7.645 0-13.842 6.198-13.842 13.843v59.322c0 7.645 6.198 13.843 13.842 13.843h107.215c7.645 0 13.842-6.198 13.842-13.843v-59.322c0-7.646-6.197-13.843-13.842-13.843z" fill="#87796f"/></g></g><g><g><path d="m185.287 86.415h-107.216c-8.46 0-15.342 6.882-15.342 15.342v59.322c0 8.46 6.882 15.342 15.342 15.342h107.215c8.46 0 15.342-6.882 15.342-15.342v-59.322c.001-8.46-6.881-15.342-15.341-15.342zm12.342 74.664c0 6.806-5.537 12.342-12.342 12.342h-107.216c-6.806 0-12.342-5.537-12.342-12.342v-59.322c0-6.806 5.537-12.342 12.342-12.342h107.215c6.806 0 12.342 5.537 12.342 12.342v59.322z" fill="#3a312a"/></g></g><g><g><path d="m44.179 104.5h20.05v55h-20.05z" fill="#87796f"/></g></g><g><g><path d="m64.229 103h-20.05c-.829 0-1.5.671-1.5 1.5v55c0 .829.671 1.5 1.5 1.5h20.05c.829 0 1.5-.671 1.5-1.5v-55c0-.829-.671-1.5-1.5-1.5zm-1.5 55h-17.05v-52h17.05z" fill="#3a312a"/></g></g><g><g><path d="m199.129 102.915v57.006l36.05 15v-87.006z" fill="#89c4db"/></g></g><g><g><path d="m236.012 86.667c-.418-.278-.947-.329-1.409-.137l-36.05 15c-.56.232-.924.779-.924 1.385v57.006c0 .606.364 1.152.924 1.385l36.05 15c.185.077.381.115.576.115.292 0 .582-.085.833-.252.417-.278.667-.747.667-1.248v-87.006c0-.501-.25-.97-.667-1.248zm-2.333 86.005-33.05-13.751v-55.005l33.05-13.751z" fill="#3a312a"/></g></g><g><g><path d="m92.965 174.921v4.709c0 5.45 4.419 9.869 9.869 9.869h56.891c5.451 0 9.869-4.419 9.869-9.869v-4.709z" fill="#89c4db"/></g></g><g><g><path d="m169.595 173.421h-76.629c-.829 0-1.5.671-1.5 1.5v4.709c0 6.269 5.1 11.369 11.369 11.369h56.891c6.269 0 11.369-5.1 11.369-11.369v-4.709c0-.828-.671-1.5-1.5-1.5zm-1.5 6.21c0 4.615-3.754 8.369-8.369 8.369h-56.891c-4.615 0-8.369-3.754-8.369-8.369v-3.209h73.629z" fill="#3a312a"/></g></g><g><g><path d="m163.08 104.677h-62.802c-5.556 0-10.059 4.504-10.059 10.059v33.363c0 5.555 4.504 10.059 10.059 10.059h62.802c5.556 0 10.059-4.504 10.059-10.059v-33.363c0-5.555-4.503-10.059-10.059-10.059z" fill="#d4d853"/></g></g><g><g><path d="m163.08 103.178h-12.844c-.829 0-1.5.671-1.5 1.5s.671 1.5 1.5 1.5h12.844c4.72 0 8.559 3.839 8.559 8.559v33.363c0 4.72-3.839 8.559-8.559 8.559h-62.802c-4.72 0-8.56-3.839-8.56-8.559v-33.363c0-4.72 3.84-8.559 8.56-8.559h35.678c.829 0 1.5-.671 1.5-1.5s-.671-1.5-1.5-1.5h-35.678c-6.374 0-11.56 5.186-11.56 11.559v33.363c0 6.374 5.186 11.559 11.56 11.559h62.802c6.373 0 11.559-5.186 11.559-11.559v-33.363c0-6.374-5.185-11.559-11.559-11.559z" fill="#3a312a"/></g></g><g><g><path d="m218.679 96.41v70.02l15 6.24v-82.51z" fill="#6ca8bf"/></g></g></g></svg>