<svg id="Layer_1" enable-background="new 0 0 256 256" height="512" viewBox="0 0 256 256" width="512" xmlns="http://www.w3.org/2000/svg"><path d="m85.836 93.333c3.774-.267 7.313.718 10.235 2.574 2.841 1.795 6.502-.041 6.871-3.261v-19.399c0-3.452-2.799-6.251-6.251-6.251h-15.885c-4.495 0-7.644-4.658-5.738-8.729 1.012-2.164 1.579-4.578 1.579-7.126 0-9.952-8.613-17.905-18.803-16.787-6.998.768-13.849 7.409-14.813 14.383-.465 3.364.064 6.566 1.334 9.36 1.894 4.167-1.079 8.899-5.656 8.899h-15.89c-3.452 0-6.251 2.799-6.251 6.251v73.873c0 3.452 2.799 6.251 6.251 6.251h73.873c3.453 0 6.251-2.799 6.251-6.251v-19.532c-.369-3.199-4.031-4.923-6.882-3.118-2.605 1.652-5.692 2.605-9.005 2.605-9.62 0-17.363-8.051-16.871-17.763.431-8.421 7.241-15.384 15.651-15.979z" fill="#f16c7a"/><path d="m85.941 94.829c3.317-.233 6.542.577 9.329 2.346 1.757 1.111 3.924 1.239 5.794.343 1.874-.897 3.134-2.655 3.369-4.701.007-.057.01-.114.01-.171v-19.399c0-4.274-3.478-7.751-7.752-7.751h-15.884c-1.655 0-3.177-.84-4.072-2.248-.857-1.348-.97-2.932-.308-4.346 1.142-2.439 1.721-5.051 1.721-7.762 0-5.219-2.231-10.213-6.122-13.7-3.943-3.534-9.032-5.158-14.346-4.578-7.688.844-15.078 8.02-16.136 15.669-.483 3.504.019 7.026 1.455 10.187.688 1.511.566 3.239-.323 4.62-.883 1.371-2.328 2.158-3.967 2.158h-15.891c-4.273 0-7.751 3.477-7.751 7.751v28.824c0 .829.672 1.5 1.5 1.5s1.5-.671 1.5-1.5v-28.824c0-2.62 2.131-4.751 4.751-4.751h15.891c2.639 0 5.064-1.321 6.489-3.534 1.444-2.243 1.643-5.042.531-7.486-1.2-2.642-1.62-5.593-1.213-8.534.868-6.284 7.172-12.404 13.491-13.098 4.443-.491 8.715.872 12.016 3.83 3.257 2.919 5.124 7.098 5.124 11.466 0 2.268-.483 4.452-1.438 6.49-1.09 2.327-.905 5.029.493 7.228 1.448 2.278 3.917 3.638 6.604 3.638h15.885c2.62 0 4.752 2.131 4.752 4.751v19.305c-.139.982-.76 1.823-1.675 2.261-.948.454-2.003.391-2.893-.171-3.33-2.114-7.184-3.085-11.146-2.804-9.091.643-16.577 8.285-17.043 17.399-.258 5.091 1.53 9.926 5.036 13.614 3.51 3.691 8.244 5.725 13.333 5.725 3.486 0 6.878-.981 9.808-2.838.916-.581 2.034-.657 2.983-.203.883.422 1.461 1.202 1.596 2.148v19.437c0 2.62-2.132 4.751-4.752 4.751h-73.872c-2.62 0-4.751-2.131-4.751-4.751v-31.857c0-.829-.672-1.5-1.5-1.5s-1.5.671-1.5 1.5v31.857c0 4.274 3.478 7.751 7.751 7.751h73.873c4.274 0 7.752-3.477 7.752-7.751v-19.532c0-.058-.003-.115-.01-.172-.231-1.999-1.462-3.713-3.293-4.588-1.887-.901-4.086-.762-5.882.375-2.449 1.552-5.285 2.373-8.202 2.373-4.259 0-8.222-1.702-11.158-4.792-2.934-3.086-4.431-7.133-4.215-11.395.39-7.627 6.654-14.022 14.258-14.56z" fill="#3a312a"/><path d="m171.024 179.784c4.228-.594 8.216.386 11.458 2.438 2.98 1.886 6.866-.298 6.866-3.824v-20.579c0-2.486-2.016-4.502-4.502-4.502h-20.656c-3.559 0-5.588-3.911-3.698-6.927 1.622-2.588 2.561-5.647 2.561-8.929 0-9.952-8.613-17.905-18.803-16.786-7.574.831-13.77 6.835-14.813 14.383-.582 4.21.393 8.167 2.43 11.387 1.886 2.983-.292 6.871-3.821 6.871h-20.569c-2.487 0-4.502 2.016-4.502 4.502v20.604c0 3.545-3.908 5.701-6.901 3.802-2.924-1.856-6.459-2.836-10.24-2.569-8.408.593-15.22 7.555-15.645 15.974-.49 9.719 7.246 17.766 16.869 17.766 3.314 0 6.401-.958 9.005-2.609 3-1.902 6.912.114 6.912 3.666v20.737c0 2.487 2.016 4.502 4.502 4.502h77.371c2.487 0 4.502-2.016 4.502-4.502v-20.66c0-3.562-3.915-5.594-6.934-3.702-2.597 1.627-5.667 2.568-8.953 2.568-9.958 0-17.896-8.616-16.788-18.786.824-7.567 6.811-13.767 14.349-14.825z" fill="#8ac6dd"/><path d="m171.233 181.269c3.717-.519 7.329.246 10.447 2.22 1.858 1.175 4.12 1.242 6.051.178 1.952-1.075 3.117-3.045 3.117-5.27v-20.579c0-3.31-2.692-6.002-6.002-6.002h-20.656c-1.092 0-2.018-.541-2.539-1.482-.546-.988-.505-2.165.111-3.148 1.825-2.911 2.79-6.274 2.79-9.725 0-5.22-2.231-10.213-6.122-13.7-3.945-3.535-9.041-5.163-14.345-4.577-8.22.902-15.005 7.492-16.136 15.669-.608 4.405.307 8.691 2.648 12.395.583.922.614 2.046.085 3.008-.539.978-1.525 1.562-2.639 1.562h-20.569c-3.31 0-6.002 2.693-6.002 6.002v20.604c0 1.112-.581 2.095-1.556 2.631-.971.533-2.108.497-3.042-.095-3.325-2.111-7.18-3.081-11.149-2.799-9.094.642-16.577 8.282-17.037 17.395-.257 5.096 1.532 9.934 5.038 13.621 3.508 3.689 8.241 5.72 13.329 5.72 3.484 0 6.876-.982 9.809-2.842.975-.619 2.145-.666 3.132-.124.938.517 1.477 1.436 1.477 2.523v20.736c0 3.31 2.692 6.002 6.002 6.002h77.371c3.31 0 6.002-2.693 6.002-6.002v-20.66c0-2.185-1.133-4.116-3.031-5.167-1.93-1.068-4.305-.994-6.199.193-2.441 1.53-5.262 2.339-8.155 2.339-4.365 0-8.543-1.865-11.46-5.118-2.958-3.297-4.321-7.561-3.837-12.005.748-6.867 6.243-12.545 13.067-13.503zm-11.463 27.511c3.485 3.886 8.477 6.115 13.693 6.115 3.458 0 6.829-.967 9.748-2.797.986-.618 2.164-.659 3.154-.111.942.522 1.483 1.449 1.483 2.542v20.66c0 1.656-1.347 3.002-3.002 3.002h-77.371c-1.655 0-3.002-1.347-3.002-3.002v-20.736c0-2.182-1.133-4.107-3.031-5.151-.899-.495-1.896-.741-2.894-.741-1.141 0-2.285.321-3.291.959-2.45 1.554-5.286 2.375-8.201 2.375-4.258 0-8.22-1.7-11.155-4.788-2.934-3.086-4.431-7.135-4.216-11.402.385-7.624 6.645-14.017 14.252-14.554 3.321-.236 6.551.575 9.331 2.34 1.871 1.188 4.15 1.259 6.095.191 1.947-1.071 3.11-3.037 3.11-5.26v-20.604c0-1.656 1.347-3.002 3.002-3.002h20.569c2.224 0 4.192-1.164 5.267-3.114 1.064-1.933.999-4.198-.178-6.059-1.957-3.096-2.723-6.686-2.211-10.38.944-6.835 6.618-12.343 13.491-13.097 4.446-.491 8.714.871 12.015 3.829 3.256 2.918 5.124 7.098 5.124 11.466 0 2.887-.807 5.699-2.331 8.132-1.188 1.893-1.262 4.266-.195 6.193 1.05 1.897 2.98 3.03 5.164 3.03h20.656c1.655 0 3.002 1.347 3.002 3.002v20.579c0 1.115-.585 2.103-1.564 2.642-.959.529-2.08.497-3-.085-3.676-2.326-8.106-3.27-12.468-2.656-8.164 1.146-14.738 7.937-15.633 16.148-.569 5.227 1.103 10.451 4.587 14.334z" fill="#3a312a"/><path d="m235.976 36.526-74.751-19.96c-2.402-.642-4.87.786-5.511 3.188l-5.306 19.872c-.911 3.41-5.229 4.511-7.624 1.919-2.587-2.798-6.158-4.761-10.375-5.285-7.562-.939-14.961 3.498-17.718 10.601-3.71 9.556 1.752 19.93 11.367 22.497 3.17.847 6.368.729 9.287-.171 3.401-1.048 6.656 1.922 5.738 5.36l-5.329 19.957c-.641 2.402.786 4.87 3.188 5.511l19.882 5.309c3.407.91 6.52-2.282 5.466-5.647-1.146-3.662-1.064-7.768.601-11.699 2.967-7.01 10.502-11.195 18.026-10.039 10.111 1.553 16.388 11.445 13.819 21.066-.848 3.175-2.549 5.898-4.791 7.988-2.606 2.428-1.653 6.735 1.788 7.654l19.96 5.33c2.402.642 4.87-.786 5.511-3.188l19.96-74.751c.642-2.403-.786-4.871-3.188-5.512z" fill="#fae6ca"/><path d="m240.01 37.87c-.803-1.388-2.099-2.38-3.647-2.793l-74.751-19.96c-1.55-.413-3.166-.199-4.554.604s-2.38 2.098-2.794 3.647l-5.307 19.873c-.287 1.076-1.105 1.878-2.188 2.146-1.069.263-2.144-.058-2.885-.858-2.974-3.217-6.879-5.208-11.292-5.756-8.191-1.015-16.309 3.84-19.302 11.547-1.932 4.977-1.675 10.318.723 15.04 2.365 4.659 6.613 8.103 11.656 9.449 3.334.89 6.834.825 10.116-.187 1.11-.343 2.257-.079 3.07.705.775.747 1.059 1.78.777 2.835l-5.329 19.957c-.414 1.549-.199 3.167.604 4.554.803 1.388 2.098 2.38 3.647 2.793l19.882 5.309c2.148.573 4.353-.044 5.896-1.652 1.526-1.592 2.045-3.795 1.389-5.892-1.103-3.523-.912-7.212.55-10.667 2.688-6.347 9.588-10.191 16.418-9.142 4.418.679 8.186 3.095 10.608 6.804 2.391 3.658 3.114 8.175 1.988 12.393-.746 2.796-2.256 5.312-4.364 7.277-1.636 1.524-2.32 3.8-1.786 5.939.525 2.105 2.1 3.698 4.21 4.261l19.961 5.33c.516.138 1.038.206 1.559.206 1.041 0 2.069-.274 2.995-.81 1.388-.803 2.38-2.098 2.794-3.647l19.96-74.751c.413-1.549.199-3.166-.604-4.554zm-2.295 3.78-19.96 74.751c-.207.775-.703 1.423-1.397 1.825s-1.506.507-2.278.302l-19.961-5.33c-1.056-.282-1.812-1.043-2.072-2.089-.274-1.098.07-2.226.92-3.018 2.521-2.349 4.326-5.357 5.218-8.698 1.346-5.04.48-10.438-2.375-14.808-2.853-4.367-7.469-7.33-12.665-8.127-8.161-1.256-16.421 3.344-19.636 10.937-1.718 4.06-1.948 8.581-.65 12.732.325 1.038.066 2.129-.691 2.92-.774.808-1.879 1.118-2.956.83l-19.882-5.309c-.775-.207-1.423-.703-1.824-1.397s-.509-1.503-.302-2.278l5.329-19.958c.563-2.109-.033-4.266-1.596-5.77-1.585-1.527-3.897-2.068-6.033-1.411-2.745.847-5.67.9-8.46.155-4.22-1.127-7.775-4.009-9.755-7.909-2.007-3.952-2.22-8.425-.601-12.596 2.502-6.445 9.285-10.511 16.136-9.656 3.7.459 6.972 2.125 9.458 4.814 1.494 1.616 3.664 2.264 5.809 1.734 2.16-.535 3.793-2.137 4.366-4.285l5.307-19.872c.207-.775.703-1.423 1.397-1.825.693-.401 1.502-.509 2.278-.302l74.751 19.96c.774.207 1.423.703 1.824 1.397.4.697.508 1.506.301 2.281z" fill="#3a312a"/><path d="m85.836 179.653c3.774-.266 7.313.718 10.235 2.574 2.841 1.795 6.502-.041 6.871-3.261v-19.399c0-3.452-2.799-6.251-6.251-6.251h-15.885c-4.495 0-7.644-4.658-5.738-8.729 1.012-2.164 1.579-4.578 1.579-7.126 0-9.952-8.613-17.905-18.803-16.786-6.998.768-13.849 7.409-14.813 14.383-.465 3.364.064 6.566 1.334 9.36 1.894 4.167-1.079 8.899-5.656 8.899h-15.89c-3.452 0-6.251 2.798-6.251 6.251v73.874c0 3.452 2.799 6.251 6.251 6.251h28.453 12.759 32.661c3.453 0 6.251-2.799 6.251-6.251v-19.532c-.369-3.2-4.031-4.923-6.882-3.118-2.605 1.652-5.692 2.605-9.005 2.605-9.62 0-17.363-8.051-16.871-17.763.431-8.422 7.241-15.386 15.651-15.981z" fill="#d7e057"/><path d="m85.941 181.149c3.317-.234 6.542.576 9.329 2.346 1.757 1.11 3.924 1.239 5.794.343 1.874-.897 3.134-2.655 3.369-4.701.007-.057.01-.114.01-.171v-19.399c0-4.273-3.478-7.75-7.752-7.75h-15.884c-1.655 0-3.177-.84-4.072-2.248-.857-1.348-.97-2.932-.308-4.346 1.142-2.439 1.721-5.051 1.721-7.762 0-5.22-2.231-10.213-6.122-13.7-3.943-3.534-9.029-5.155-14.346-4.578-7.688.844-15.078 8.02-16.136 15.669-.483 3.504.02 7.026 1.455 10.187.688 1.511.566 3.239-.323 4.62-.883 1.371-2.328 2.158-3.967 2.158h-15.891c-4.273 0-7.751 3.477-7.751 7.75v73.874c0 4.274 3.478 7.751 7.751 7.751h28.454c.828 0 1.5-.671 1.5-1.5s-.672-1.5-1.5-1.5h-28.454c-2.62 0-4.751-2.131-4.751-4.751v-73.874c0-2.62 2.131-4.75 4.751-4.75h15.891c2.639 0 5.064-1.321 6.489-3.534 1.444-2.243 1.643-5.042.531-7.486-1.2-2.642-1.62-5.593-1.213-8.534.868-6.284 7.172-12.404 13.491-13.098 4.443-.49 8.715.872 12.016 3.829 3.256 2.918 5.124 7.098 5.124 11.466 0 2.268-.483 4.452-1.438 6.49-1.09 2.327-.905 5.029.493 7.228 1.448 2.278 3.917 3.638 6.604 3.638h15.885c2.62 0 4.752 2.131 4.752 4.75v19.305c-.139.982-.76 1.823-1.675 2.261-.948.454-2.003.391-2.893-.171-3.329-2.114-7.183-3.083-11.146-2.804-9.091.643-16.577 8.285-17.043 17.399-.258 5.091 1.53 9.926 5.036 13.614 3.51 3.691 8.244 5.725 13.333 5.725 3.488 0 6.88-.981 9.808-2.838.919-.581 2.035-.655 2.983-.203.883.422 1.461 1.202 1.596 2.149v19.437c0 2.62-2.132 4.751-4.752 4.751h-32.66c-.828 0-1.5.671-1.5 1.5s.672 1.5 1.5 1.5h32.66c4.274 0 7.752-3.477 7.752-7.751v-19.532c0-.058-.003-.115-.01-.172-.231-1.999-1.462-3.714-3.293-4.588-1.89-.902-4.088-.762-5.882.375-2.448 1.552-5.284 2.372-8.202 2.372-4.258 0-8.221-1.702-11.158-4.792-2.934-3.086-4.431-7.133-4.215-11.395.391-7.625 6.655-14.02 14.259-14.559z" fill="#3a312a"/><path d="m226.096 134.985c-.974 11.564-13.024 13.39-13.024 13.39 10.346.487 12.925 14.059 12.925 14.059.221-9.677 13.321-14.202 13.321-14.202-9.814-.587-13.222-13.247-13.222-13.247z" fill="#d7e057"/><path d="m239.407 146.734c-8.604-.515-11.832-12.024-11.863-12.141-.19-.702-.848-1.164-1.584-1.102-.725.066-1.298.642-1.359 1.367-.859 10.215-11.313 11.964-11.754 12.033-.763.115-1.313.79-1.273 1.561.04.77.657 1.384 1.428 1.421 9.028.425 11.499 12.718 11.522 12.842.138.711.76 1.217 1.473 1.217.042 0 .084-.001.126-.005.765-.064 1.357-.693 1.375-1.459.193-8.509 12.19-12.777 12.312-12.819.676-.235 1.092-.914.994-1.623s-.683-1.249-1.397-1.292zm-13.565 10.346c-1.357-3.13-3.709-6.907-7.587-8.876 2.931-1.405 6.408-3.913 8.201-8.272 1.551 3.071 4.2 6.88 8.334 8.722-3.007 1.639-6.922 4.405-8.948 8.426z" fill="#3a312a"/><path d="m204.397 151.966c-.689 8.179-9.212 9.471-9.212 9.471 7.318.344 9.142 9.944 9.142 9.944.156-6.845 9.422-10.046 9.422-10.046-6.941-.415-9.352-9.369-9.352-9.369z" fill="#d7e057"/><path d="m213.839 159.838c-5.767-.345-7.972-8.186-7.993-8.265-.19-.702-.857-1.158-1.582-1.102-.726.065-1.3.643-1.361 1.368-.578 6.871-7.646 8.067-7.942 8.114-.763.115-1.313.79-1.273 1.561.04.77.657 1.384 1.428 1.421 6.035.284 7.724 8.644 7.739 8.726.136.713.759 1.22 1.473 1.22.041 0 .083-.001.125-.005.765-.063 1.358-.694 1.376-1.461.13-5.709 8.331-8.634 8.412-8.662.676-.234 1.093-.913.996-1.622-.099-.709-.684-1.25-1.398-1.293zm-9.585 6.795c-.924-1.885-2.34-3.947-4.447-5.28 1.856-1.041 3.697-2.629 4.871-4.916 1.057 1.874 2.654 3.954 4.941 5.224-1.849 1.1-3.989 2.739-5.365 4.972z" fill="#3a312a"/><path d="m204.397 125.309c-.689 8.179-9.212 9.47-9.212 9.47 7.318.344 9.142 9.944 9.142 9.944.156-6.844 9.422-10.045 9.422-10.045-6.941-.416-9.352-9.369-9.352-9.369z" fill="#d7e057"/><path d="m213.839 133.18c-5.767-.345-7.972-8.185-7.993-8.264-.19-.702-.857-1.165-1.582-1.102-.726.065-1.3.643-1.361 1.368-.578 6.871-7.646 8.066-7.942 8.113-.763.115-1.313.79-1.273 1.561.04.77.657 1.384 1.428 1.421 6.035.284 7.724 8.644 7.739 8.726.136.712.759 1.22 1.473 1.22.041 0 .083-.001.125-.005.765-.063 1.358-.694 1.376-1.461.13-5.709 8.331-8.634 8.412-8.662.676-.234 1.093-.913.996-1.622-.099-.708-.684-1.25-1.398-1.293zm-9.585 6.796c-.924-1.886-2.34-3.947-4.447-5.28 1.856-1.041 3.697-2.629 4.871-4.916 1.057 1.874 2.654 3.954 4.94 5.223-1.848 1.101-3.988 2.74-5.364 4.973z" fill="#3a312a"/><g fill="#6ca8bf"><path d="m155.188 194.45c.71-6.51 4.98-12.13 10.79-14.74-3.15-1.4-6.67-1.9-10.16-1.41-8.17 1.14-14.74 7.94-15.63 16.15-.57 5.22 1.1 10.45 4.58 14.33 3.49 3.89 8.48 6.12 13.69 6.12 2.61 0 5.16-.55 7.51-1.6-2.33-1.04-4.45-2.58-6.2-4.52-3.48-3.88-5.15-9.11-4.58-14.33z"/><path d="m159.028 151.79c-1.07-1.93-.99-4.3.19-6.2 1.53-2.43 2.34-5.24 2.34-8.13 0-4.37-1.87-8.55-5.13-11.47-3.3-2.95-7.57-4.31-12.01-3.82-2.05.22-4 .87-5.74 1.85.97.55 1.89 1.2 2.75 1.97 3.26 2.92 5.13 7.1 5.13 11.47 0 2.89-.81 5.7-2.34 8.13-1.18 1.9-1.26 4.27-.19 6.2 1.05 1.89 2.98 3.03 5.16 3.03h15c-2.18 0-4.11-1.14-5.16-3.03z"/><path d="m184.848 154.82h-15c1.65 0 3 1.34 3 3v20.31c3.69-.12 7.33.86 10.44 2.82.91.59 2.04.62 3 .09.98-.54 1.56-1.53 1.56-2.64v-20.58c0-1.66-1.35-3-3-3z"/><path d="m186.368 211.99c-.99-.55-2.17-.51-3.16.11-2.92 1.83-6.29 2.8-9.75 2.8-.2 0-.41 0-.61-.02v20.31c0 1.65-1.35 3-3 3h15c1.65 0 3-1.35 3-3v-20.66c0-1.09-.54-2.02-1.48-2.54z"/></g><path d="m237.418 39.37c-.41-.69-1.05-1.19-1.83-1.39l-74.75-19.97c-.78-.2-1.58-.09-2.28.31-.69.4-1.19 1.05-1.4 1.82l-.22.83 63.65 17.01c.78.2 1.42.7 1.83 1.39.4.7.5 1.51.3 2.28l-19.74 73.92 11.1 2.96c1.6.42 3.25-.53 3.68-2.13l19.96-74.75c.2-.77.1-1.58-.3-2.28z" fill="#decaad"/></svg>