<svg id="Layer_1" enable-background="new 0 0 256 256" height="512" viewBox="0 0 256 256" width="512" xmlns="http://www.w3.org/2000/svg"><g fill="#3a312a"><path d="m238.944 226.625h-209.5v-210.5c0-.829-.671-1.5-1.5-1.5s-1.5.671-1.5 1.5v212c0 .829.671 1.5 1.5 1.5h211c.828 0 1.5-.671 1.5-1.5s-.672-1.5-1.5-1.5z"/><path d="m27.945 226.625c-.829 0-1.5.671-1.5 1.5v11.75c0 .829.671 1.5 1.5 1.5s1.5-.671 1.5-1.5v-11.75c0-.829-.672-1.5-1.5-1.5z"/><path d="m61.415 226.625c-.829 0-1.5.671-1.5 1.5v11.75c0 .829.671 1.5 1.5 1.5s1.5-.671 1.5-1.5v-11.75c0-.829-.672-1.5-1.5-1.5z"/><path d="m94.875 226.625c-.829 0-1.5.671-1.5 1.5v11.75c0 .829.671 1.5 1.5 1.5s1.5-.671 1.5-1.5v-11.75c0-.829-.671-1.5-1.5-1.5z"/><path d="m128.345 226.625c-.829 0-1.5.671-1.5 1.5v11.75c0 .829.671 1.5 1.5 1.5.828 0 1.5-.671 1.5-1.5v-11.75c0-.829-.672-1.5-1.5-1.5z"/><path d="m161.805 226.625c-.828 0-1.5.671-1.5 1.5v11.75c0 .829.672 1.5 1.5 1.5s1.5-.671 1.5-1.5v-11.75c0-.829-.672-1.5-1.5-1.5z"/><path d="m195.274 226.625c-.828 0-1.5.671-1.5 1.5v11.75c0 .829.672 1.5 1.5 1.5s1.5-.671 1.5-1.5v-11.75c0-.829-.672-1.5-1.5-1.5z"/><path d="m228.734 226.625c-.828 0-1.5.671-1.5 1.5v11.75c0 .829.672 1.5 1.5 1.5s1.5-.671 1.5-1.5v-11.75c0-.829-.671-1.5-1.5-1.5z"/><path d="m27.945 226.625h-11.75c-.829 0-1.5.671-1.5 1.5s.671 1.5 1.5 1.5h11.75c.829 0 1.5-.671 1.5-1.5s-.672-1.5-1.5-1.5z"/><path d="m27.945 193.155h-11.75c-.829 0-1.5.671-1.5 1.5s.671 1.5 1.5 1.5h11.75c.829 0 1.5-.671 1.5-1.5s-.672-1.5-1.5-1.5z"/><path d="m27.945 159.695h-11.75c-.829 0-1.5.671-1.5 1.5s.671 1.5 1.5 1.5h11.75c.829 0 1.5-.671 1.5-1.5s-.672-1.5-1.5-1.5z"/><path d="m27.945 126.225h-11.75c-.829 0-1.5.671-1.5 1.5s.671 1.5 1.5 1.5h11.75c.829 0 1.5-.671 1.5-1.5 0-.828-.672-1.5-1.5-1.5z"/><path d="m27.945 92.765h-11.75c-.829 0-1.5.671-1.5 1.5s.671 1.5 1.5 1.5h11.75c.829 0 1.5-.671 1.5-1.5 0-.828-.672-1.5-1.5-1.5z"/><path d="m27.945 59.295h-11.75c-.829 0-1.5.671-1.5 1.5s.671 1.5 1.5 1.5h11.75c.829 0 1.5-.671 1.5-1.5s-.672-1.5-1.5-1.5z"/><path d="m27.945 25.835h-11.75c-.829 0-1.5.671-1.5 1.5s.671 1.5 1.5 1.5h11.75c.829 0 1.5-.671 1.5-1.5s-.672-1.5-1.5-1.5z"/><path d="m228.676 118.487c-.561-.612-1.508-.652-2.119-.094l-48.357 44.274-44.567-24.482c-.6-.329-1.343-.212-1.811.283l-45.576 48.11-45.379-28.35c-.704-.44-1.629-.225-2.067.477-.439.703-.226 1.628.477 2.067l46.42 29c.246.153.521.228.794.228.401 0 .798-.161 1.089-.468l45.623-48.16 44.494 24.442c.565.309 1.261.226 1.735-.208l49.15-45c.611-.559.653-1.508.094-2.119z"/></g><path d="m227.039 26.22c-.974 11.564-13.024 13.39-13.024 13.39 10.347.487 12.925 14.059 12.925 14.059.221-9.677 13.321-14.202 13.321-14.202-9.814-.588-13.222-13.247-13.222-13.247z" fill="#d7e057"/><path d="m240.351 37.969c-8.604-.515-11.832-12.024-11.863-12.141-.19-.702-.849-1.162-1.584-1.102-.725.066-1.298.642-1.359 1.367-.859 10.215-11.313 11.964-11.754 12.033-.763.115-1.313.79-1.273 1.56s.657 1.384 1.428 1.421c9.027.425 11.498 12.718 11.521 12.842.138.711.76 1.217 1.473 1.217.042 0 .084-.002.126-.005.764-.064 1.357-.693 1.375-1.459.194-8.508 12.191-12.777 12.313-12.819.676-.235 1.092-.914.994-1.623-.101-.707-.684-1.248-1.397-1.291zm-13.567 10.346c-1.357-3.131-3.708-6.908-7.586-8.877 2.931-1.405 6.408-3.913 8.201-8.272 1.551 3.071 4.2 6.88 8.334 8.722-3.006 1.64-6.922 4.406-8.949 8.427z" fill="#3a312a"/><path d="m205.34 43.2c-.689 8.179-9.212 9.47-9.212 9.47 7.318.344 9.142 9.944 9.142 9.944.156-6.844 9.422-10.045 9.422-10.045-6.941-.414-9.352-9.369-9.352-9.369z" fill="#d7e057"/><path d="m214.782 51.072c-5.767-.345-7.972-8.186-7.993-8.265-.19-.702-.866-1.164-1.582-1.102-.726.065-1.3.642-1.361 1.368-.579 6.871-7.647 8.067-7.942 8.114-.763.115-1.313.79-1.273 1.561.04.77.657 1.384 1.428 1.421 6.035.284 7.724 8.644 7.739 8.726.136.713.759 1.22 1.473 1.22.041 0 .083-.001.125-.005.765-.063 1.358-.694 1.376-1.461.13-5.709 8.331-8.634 8.412-8.662.676-.234 1.093-.913.996-1.622-.099-.708-.684-1.25-1.398-1.293zm-9.585 6.795c-.924-1.885-2.34-3.947-4.447-5.28 1.855-1.041 3.697-2.63 4.871-4.917 1.057 1.874 2.654 3.955 4.941 5.224-1.849 1.102-3.989 2.741-5.365 4.973z" fill="#3a312a"/><path d="m205.34 16.543c-.689 8.179-9.212 9.471-9.212 9.471 7.318.344 9.142 9.944 9.142 9.944.156-6.845 9.422-10.045 9.422-10.045-6.941-.416-9.352-9.37-9.352-9.37z" fill="#d7e057"/><path d="m214.782 24.415c-5.767-.345-7.972-8.185-7.993-8.265-.19-.703-.866-1.164-1.582-1.102-.726.065-1.3.642-1.361 1.368-.579 6.871-7.647 8.067-7.942 8.114-.763.115-1.313.79-1.273 1.56s.657 1.384 1.428 1.421c6.035.284 7.724 8.644 7.739 8.726.136.713.759 1.22 1.473 1.22.041 0 .083-.001.125-.005.765-.064 1.358-.694 1.376-1.461.13-5.709 8.331-8.634 8.412-8.662.676-.234 1.093-.913.996-1.622-.099-.707-.684-1.249-1.398-1.292zm-9.585 6.795c-.924-1.885-2.34-3.947-4.447-5.28 1.855-1.041 3.697-2.63 4.871-4.917 1.057 1.874 2.654 3.955 4.941 5.224-1.849 1.101-3.989 2.741-5.365 4.973z" fill="#3a312a"/><circle cx="87.07" cy="188.5" fill="#f16c7a" r="8"/><path d="m87.07 179c-5.238 0-9.5 4.262-9.5 9.5s4.262 9.5 9.5 9.5 9.5-4.262 9.5-9.5-4.262-9.5-9.5-9.5zm0 16c-3.584 0-6.5-2.916-6.5-6.5s2.916-6.5 6.5-6.5 6.5 2.916 6.5 6.5-2.916 6.5-6.5 6.5z" fill="#3a312a"/><circle cx="133.07" cy="139.5" fill="#d7e057" r="8"/><path d="m133.069 130c-5.238 0-9.5 4.262-9.5 9.5s4.261 9.5 9.5 9.5c5.238 0 9.5-4.262 9.5-9.5s-4.261-9.5-9.5-9.5zm0 16c-3.584 0-6.5-2.916-6.5-6.5s2.916-6.5 6.5-6.5 6.5 2.916 6.5 6.5-2.916 6.5-6.5 6.5z" fill="#3a312a"/><circle cx="178.07" cy="164.5" fill="#8ac6dd" r="8"/><path d="m178.069 155c-5.238 0-9.5 4.262-9.5 9.5s4.262 9.5 9.5 9.5 9.5-4.262 9.5-9.5-4.261-9.5-9.5-9.5zm0 16c-3.584 0-6.5-2.916-6.5-6.5s2.916-6.5 6.5-6.5 6.5 2.916 6.5 6.5-2.916 6.5-6.5 6.5z" fill="#3a312a"/><circle cx="227.07" cy="120.5" fill="#87796f" r="8"/><path d="m227.069 111c-5.238 0-9.5 4.262-9.5 9.5s4.262 9.5 9.5 9.5 9.5-4.262 9.5-9.5-4.261-9.5-9.5-9.5zm0 16c-3.584 0-6.5-2.916-6.5-6.5s2.916-6.5 6.5-6.5 6.5 2.916 6.5 6.5-2.916 6.5-6.5 6.5z" fill="#3a312a"/></svg>