<svg id="Layer_1" enable-background="new 0 0 256 256" height="512" viewBox="0 0 256 256" width="512" xmlns="http://www.w3.org/2000/svg"><g><g><g><path d="m60.467 26.2c-.974 11.564-13.031 13.389-13.031 13.389 10.352.487 12.932 14.059 12.932 14.059.221-9.677 13.328-14.202 13.328-14.202-9.819-.587-13.229-13.246-13.229-13.246z" fill="#d6df58"/></g></g><g><g><path d="m73.785 37.949c-8.609-.515-11.838-12.025-11.87-12.142-.191-.703-.861-1.164-1.583-1.102-.725.066-1.298.642-1.359 1.367-.86 10.216-11.32 11.964-11.761 12.032-.762.116-1.313.791-1.273 1.561.04.771.657 1.385 1.428 1.421 9.033.426 11.505 12.72 11.529 12.844.137.711.759 1.217 1.472 1.217.042 0 .084-.002.127-.005.764-.064 1.357-.693 1.374-1.46.195-8.508 12.198-12.776 12.319-12.819.676-.234 1.092-.914.995-1.622-.1-.709-.684-1.25-1.398-1.292zm-13.572 10.347c-1.357-3.131-3.711-6.908-7.591-8.878 2.933-1.405 6.413-3.913 8.207-8.274 1.551 3.071 4.201 6.882 8.338 8.725-3.01 1.639-6.927 4.405-8.954 8.427z" fill="#3a312a"/></g></g><g><g><path d="m38.757 43.18c-.689 8.179-9.217 9.471-9.217 9.471 7.322.344 9.147 9.944 9.147 9.944.156-6.844 9.427-10.045 9.427-10.045-6.945-.416-9.357-9.37-9.357-9.37z" fill="#d6df58"/></g></g><g><g><path d="m48.204 51.053c-5.77-.346-7.978-8.187-7.999-8.266-.19-.702-.854-1.161-1.582-1.102-.726.065-1.299.643-1.36 1.368-.579 6.871-7.651 8.066-7.947 8.113-.762.116-1.313.791-1.273 1.561.04.771.657 1.385 1.428 1.421 6.039.284 7.728 8.645 7.744 8.727.135.713.759 1.22 1.472 1.22.042 0 .083-.002.125-.005.765-.063 1.358-.693 1.376-1.461.13-5.709 8.336-8.633 8.417-8.661.677-.233 1.094-.913.997-1.622-.099-.709-.684-1.25-1.398-1.293zm-9.59 6.795c-.925-1.886-2.341-3.947-4.45-5.28 1.857-1.041 3.699-2.631 4.873-4.918 1.058 1.874 2.656 3.956 4.944 5.226-1.85 1.1-3.99 2.739-5.367 4.972z" fill="#3a312a"/></g></g><g><g><path d="m38.757 16.522c-.689 8.179-9.217 9.471-9.217 9.471 7.322.344 9.147 9.944 9.147 9.944.156-6.844 9.427-10.045 9.427-10.045-6.945-.415-9.357-9.37-9.357-9.37z" fill="#d6df58"/></g></g><g><g><path d="m48.204 24.396c-5.77-.346-7.978-8.187-7.999-8.266-.19-.702-.854-1.16-1.582-1.102-.726.065-1.299.643-1.36 1.368-.579 6.87-7.651 8.066-7.947 8.113-.763.116-1.313.791-1.273 1.561.04.771.657 1.385 1.428 1.421 6.039.284 7.728 8.645 7.744 8.727.135.713.759 1.22 1.473 1.22.041 0 .083-.002.125-.005.765-.063 1.358-.693 1.376-1.461.13-5.709 8.336-8.633 8.417-8.661.677-.233 1.094-.913.997-1.622-.1-.71-.685-1.251-1.399-1.293zm-9.59 6.794c-.925-1.886-2.341-3.947-4.45-5.28 1.857-1.042 3.7-2.631 4.874-4.918 1.057 1.874 2.656 3.955 4.944 5.226-1.851 1.1-3.991 2.74-5.368 4.972z" fill="#3a312a"/></g></g><g><g><path d="m179.54 223.56h-77c-8.837 0-16 7.163-16 16h109c0-8.837-7.163-16-16-16z" fill="#89c4db"/></g></g><g><g><path d="m179.54 222.061h-77c-9.649 0-17.5 7.851-17.5 17.5 0 .828.671 1.5 1.5 1.5h37.052c.829 0 1.5-.672 1.5-1.5s-.671-1.5-1.5-1.5h-35.475c.753-7.293 6.934-13 14.423-13h77c7.489 0 13.67 5.707 14.423 13h-56.977c-.828 0-1.5.672-1.5 1.5s.672 1.5 1.5 1.5h58.554c.828 0 1.5-.672 1.5-1.5 0-9.65-7.85-17.5-17.5-17.5z" fill="#3a312a"/></g></g><g><g><path d="m218.371 100.465h-154.661c-4.576 0-8.285 3.71-8.285 8.286s3.709 8.285 8.285 8.285h154.661c4.576 0 8.285-3.709 8.285-8.285s-3.71-8.286-8.285-8.286z" fill="#89c4db"/></g></g><g><g><path d="m218.371 98.965h-154.662c-5.396 0-9.785 4.39-9.785 9.785 0 5.396 4.39 9.786 9.785 9.786h154.661c5.396 0 9.785-4.39 9.785-9.786.001-5.396-4.389-9.785-9.784-9.785zm0 16.571h-154.662c-3.741 0-6.785-3.044-6.785-6.786 0-3.741 3.044-6.785 6.785-6.785h154.661c3.741 0 6.785 3.044 6.785 6.785.001 3.742-3.043 6.786-6.784 6.786z" fill="#3a312a"/></g></g><g><g><path d="m190.034 59.657c-.464-3.778-1.359-7.424-2.629-10.882-.155-.431-.32-.85-.497-1.27-7.269-18.206-25.066-31.065-45.868-31.065-20.791 0-38.588 12.859-45.857 31.065-.177.42-.343.839-.497 1.27-1.271 3.458-2.165 7.104-2.629 10.882-.254 2.01-.386 4.065-.386 6.153v60.958c0 5.988 1.072 11.732 3.016 17.035 6.949 18.88 25.077 32.335 46.354 32.335 13.632 0 25.983-5.524 34.92-14.461 5.015-5.015 8.948-11.091 11.445-17.874 1.944-5.303 3.016-11.047 3.016-17.035v-60.958c-.001-2.088-.133-4.143-.388-6.153z" fill="#fce8cb"/></g></g><g><g><path d="m191.524 59.475c-.47-3.825-1.382-7.599-2.707-11.208-.164-.454-.339-.897-.516-1.318-7.764-19.443-26.314-32.008-47.261-32.008-20.94 0-39.487 12.564-47.24 31.982-.188.444-.362.89-.522 1.335-1.329 3.615-2.241 7.389-2.71 11.211-.264 2.091-.398 4.225-.398 6.342v60.958c0 6.023 1.045 11.929 3.108 17.554 7.335 19.928 26.529 33.316 47.762 33.316 13.594 0 26.372-5.292 35.981-14.9 5.264-5.264 9.231-11.46 11.793-18.418 2.062-5.623 3.107-11.528 3.107-17.552v-60.958c0-2.115-.133-4.249-.397-6.336zm-2.603 67.294c0 5.67-.983 11.228-2.923 16.517-2.41 6.546-6.145 12.377-11.099 17.332-9.042 9.042-21.066 14.021-33.859 14.021-19.982 0-38.044-12.6-44.946-31.352-1.94-5.291-2.924-10.849-2.924-16.519v-60.957c0-1.992.126-3.999.375-5.971.442-3.6 1.299-7.148 2.552-10.557.146-.406.302-.801.479-1.222 7.306-18.298 24.759-30.121 44.464-30.121 19.712 0 37.169 11.823 44.484 30.144.166.396.323.793.473 1.208 1.249 3.402 2.106 6.951 2.549 10.554.249 1.969.375 3.976.375 5.965z" fill="#3a312a"/></g></g><g><g><path d="m91.666 117.102v9.666c0 5.988 1.072 11.732 3.016 17.035 6.948 18.88 25.077 32.335 46.354 32.335 13.632 0 25.983-5.524 34.92-14.461 5.016-5.015 8.948-11.091 11.445-17.874 1.944-5.303 3.016-11.047 3.016-17.035v-9.666z" fill="#87796f"/></g></g><g><g><path d="m190.417 115.603h-98.751c-.829 0-1.5.672-1.5 1.5v9.666c0 6.022 1.045 11.928 3.108 17.554 7.335 19.928 26.529 33.316 47.762 33.316 13.595 0 26.373-5.292 35.98-14.9 5.264-5.264 9.232-11.46 11.793-18.418 2.061-5.623 3.107-11.528 3.107-17.552v-9.666c.001-.829-.67-1.5-1.499-1.5zm-1.5 11.166c0 5.67-.983 11.228-2.923 16.517-2.41 6.546-6.144 12.377-11.099 17.332-9.041 9.042-21.066 14.021-33.859 14.021-19.981 0-38.044-12.6-44.946-31.352-1.94-5.292-2.924-10.85-2.924-16.519v-8.166h95.751z" fill="#3a312a"/></g></g><g><g><path d="m208.152 82.967c-4.271 0-7.733 3.462-7.733 7.733v43.747c0 29.828-26.635 54.087-59.379 54.087s-59.379-24.26-59.379-54.087v-43.748c0-4.271-3.462-7.733-7.733-7.733s-7.733 3.462-7.733 7.733v43.747c0 38.356 33.573 69.553 74.845 69.553s74.845-31.197 74.845-69.553v-43.747c0-4.27-3.462-7.732-7.733-7.732z" fill="#89c4db"/></g></g><g><g><path d="m208.152 81.467c-5.091 0-9.233 4.142-9.233 9.232v43.747c0 28.997-25.964 52.588-57.878 52.588-31.915 0-57.879-23.591-57.879-52.588v-43.747c0-5.091-4.142-9.232-9.233-9.232s-9.233 4.142-9.233 9.232v43.747c0 39.179 34.249 71.054 76.345 71.054s76.345-31.875 76.345-71.054v-43.747c-.001-5.091-4.143-9.232-9.234-9.232zm6.233 52.979c0 37.525-32.902 68.054-73.345 68.054s-73.345-30.528-73.345-68.054v-43.747c0-3.437 2.796-6.232 6.233-6.232s6.233 2.796 6.233 6.232v43.747c0 30.651 27.31 55.588 60.879 55.588 33.568 0 60.878-24.937 60.878-55.588v-43.747c0-3.437 2.796-6.232 6.233-6.232s6.233 2.796 6.233 6.232v43.747z" fill="#3a312a"/></g></g><g><g><path d="m115.355 47.505h-20.172c-.177.42-.343.839-.497 1.27-1.271 3.458-2.165 7.104-2.629 10.882h23.299c1.679 0 3.193-.685 4.297-1.779 1.105-1.094 1.779-2.618 1.779-4.297-.001-3.359-2.718-6.076-6.077-6.076z" fill="#87796f"/></g></g><g><g><path d="m115.355 46.005h-20.172c-.604 0-1.149.361-1.382.918-.188.444-.362.89-.522 1.335-1.329 3.615-2.241 7.389-2.711 11.217-.052.427.081.854.365 1.177.285.321.694.506 1.123.506h23.299c2.01 0 3.911-.786 5.353-2.214 1.433-1.419 2.223-3.323 2.223-5.362 0-4.179-3.398-7.577-7.576-7.577zm3.243 10.807c-.877.868-2.028 1.346-3.242 1.346h-21.573c.482-3.022 1.258-5.998 2.315-8.874.033-.094.067-.187.102-.278h19.156c2.523 0 4.576 2.053 4.576 4.576-.001 1.23-.475 2.378-1.334 3.23z" fill="#3a312a"/></g></g><g><g><path d="m115.355 70.704h-23.685v12.152h23.685c1.679 0 3.193-.685 4.297-1.779 1.105-1.094 1.779-2.618 1.779-4.297 0-3.359-2.717-6.076-6.076-6.076z" fill="#87796f"/></g></g><g><g><path d="m115.355 69.204h-23.685c-.829 0-1.5.672-1.5 1.5v12.151c0 .828.671 1.5 1.5 1.5h23.685c2.01 0 3.911-.786 5.353-2.213 1.433-1.419 2.223-3.323 2.223-5.362 0-4.177-3.398-7.576-7.576-7.576zm3.243 10.807c-.876.867-2.027 1.345-3.242 1.345h-22.186v-9.151h22.185c2.523 0 4.576 2.053 4.576 4.576 0 1.231-.474 2.378-1.333 3.23z" fill="#3a312a"/></g></g><g><g><path d="m166.736 70.704c-1.679 0-3.193.685-4.297 1.779-1.105 1.094-1.779 2.618-1.779 4.297 0 3.358 2.718 6.076 6.076 6.076h23.685v-12.152z" fill="#87796f"/></g></g><g><g><path d="m190.421 69.204h-23.685c-2.011 0-3.911.786-5.353 2.213-1.434 1.42-2.224 3.324-2.224 5.363 0 4.177 3.399 7.575 7.576 7.575h23.685c.828 0 1.5-.672 1.5-1.5v-12.151c.001-.828-.671-1.5-1.499-1.5zm-1.5 12.151h-22.185c-2.523 0-4.576-2.053-4.576-4.575 0-1.231.474-2.38 1.335-3.232.875-.866 2.026-1.344 3.241-1.344h22.185z" fill="#3a312a"/></g></g><g><g><path d="m187.405 48.775c-.155-.431-.32-.85-.497-1.27h-20.183c-1.679 0-3.193.685-4.297 1.778-1.105 1.094-1.779 2.618-1.779 4.298 0 3.358 2.718 6.076 6.076 6.076h23.31c-.465-3.778-1.359-7.424-2.63-10.882z" fill="#87796f"/></g></g><g><g><path d="m191.524 59.475c-.47-3.825-1.382-7.599-2.707-11.208-.164-.454-.339-.897-.525-1.341-.233-.558-.779-.921-1.384-.921h-20.183c-2.012 0-3.912.786-5.354 2.213-1.434 1.419-2.223 3.324-2.223 5.363 0 4.178 3.398 7.576 7.576 7.576h23.309c.43 0 .839-.185 1.123-.506.287-.322.42-.75.368-1.176zm-24.799-1.318c-2.523 0-4.576-2.053-4.576-4.576 0-1.232.474-2.38 1.334-3.232.875-.866 2.026-1.344 3.242-1.344h19.167c.035.095.07.19.106.287 1.054 2.87 1.829 5.845 2.311 8.865z" fill="#3a312a"/></g></g><g><g><path d="m151.105 183h-20.13c-4.526 0-8.195 3.669-8.195 8.195v32.365h36.52v-32.365c0-4.526-3.669-8.195-8.195-8.195z" fill="#d6df58"/></g></g><g><g><path d="m151.105 181.5h-20.13c-5.346 0-9.695 4.35-9.695 9.695v32.365c0 .828.671 1.5 1.5 1.5h36.52c.828 0 1.5-.672 1.5-1.5v-32.365c0-5.345-4.349-9.695-9.695-9.695zm6.695 40.561h-33.52v-30.865c0-3.691 3.003-6.695 6.695-6.695h20.13c3.691 0 6.695 3.004 6.695 6.695z" fill="#3a312a"/></g></g><g><g><path d="m189.783 94.5h-97.486c-2.075 0-3.757 1.682-3.757 3.757v22.485c0 2.075 1.682 3.757 3.757 3.757h97.485c2.075 0 3.757-1.682 3.757-3.757v-22.485c.001-2.075-1.681-3.757-3.756-3.757z" fill="#87796f"/></g></g><g><g><path d="m189.783 93h-38.999c-.828 0-1.5.672-1.5 1.5s.672 1.5 1.5 1.5h38.999c1.245 0 2.258 1.013 2.258 2.257v22.485c0 1.245-1.013 2.258-2.258 2.258h-97.486c-1.245 0-2.257-1.013-2.257-2.258v-22.485c0-1.244 1.013-2.257 2.257-2.257h44.004c.828 0 1.5-.672 1.5-1.5s-.672-1.5-1.5-1.5h-44.004c-2.899 0-5.257 2.358-5.257 5.257v22.485c0 2.899 2.358 5.258 5.257 5.258h97.485c2.899 0 5.258-2.358 5.258-5.258v-22.485c0-2.899-2.358-5.257-5.257-5.257z" fill="#3a312a"/></g></g><g><g><path d="m173.92 72.2h15v9.16h-15z" fill="#695b51"/></g></g><g><g><path d="m186 49.29c-.04-.09-.07-.19-.11-.29h-15c.04.1.07.2.11.29 1.05 2.87 1.83 5.85 2.31 8.87h15c-.48-3.02-1.26-6-2.31-8.87z" fill="#695b51"/></g></g><g><g><path d="m141.04 17.94c-2.54 0-5.05.2-7.5.58 15.81 2.47 29.36 12.66 36.09 27.48h15c-7.77-17.12-24.64-28.06-43.59-28.06z" fill="#decaad"/></g></g><g><g><path d="m188.67 61.16h-15c.15 1.54.25 3.1.25 4.65v3.39h15v-3.39c0-1.55-.1-3.11-.25-4.65z" fill="#decaad"/></g></g><g><g><path d="m173.92 84.36h15v8.64h-15z" fill="#decaad"/></g></g><g><g><path d="m173.92 126v.77c0 5.67-.99 11.22-2.93 16.52-2.41 6.54-6.14 12.37-11.09 17.33-7.24 7.24-16.39 11.87-26.31 13.43 2.44.39 4.93.59 7.45.59 12.79 0 24.81-4.98 33.86-14.02 4.95-4.96 8.68-10.79 11.09-17.33 1.94-5.3 2.93-10.85 2.93-16.52v-.77z" fill="#695b51"/></g></g><g><g><path d="m189.78 96h-15c1.25 0 2.26 1.01 2.26 2.26v22.48c0 1.25-1.01 2.26-2.26 2.26h15c1.25 0 2.26-1.01 2.26-2.26v-22.48c0-1.25-1.01-2.26-2.26-2.26z" fill="#695b51"/></g></g></g></svg>