<svg id="Layer_1" enable-background="new 0 0 256 256" height="512" viewBox="0 0 256 256" width="512" xmlns="http://www.w3.org/2000/svg"><g><g><g><path d="m64.33 25.111c-.829 0-1.5.671-1.5 1.5v107.97c0 .829.671 1.5 1.5 1.5s1.5-.671 1.5-1.5v-107.97c0-.829-.671-1.5-1.5-1.5z" fill="#3a312a"/></g></g><g><g><ellipse cx="64.705" cy="150.5" fill="#e96c7a" rx="15.921" ry="15.921" transform="matrix(.995 -.099 .099 .995 -14.515 7.108)"/></g></g><g><g><path d="m64.705 133.079c-9.606 0-17.421 7.815-17.421 17.421 0 9.605 7.815 17.42 17.421 17.42s17.421-7.815 17.421-17.42c0-9.606-7.815-17.421-17.421-17.421zm0 31.841c-7.952 0-14.421-6.469-14.421-14.42s6.469-14.421 14.421-14.421 14.421 6.469 14.421 14.421-6.469 14.42-14.421 14.42z" fill="#3a312a"/></g></g><g><g><path d="m96.92 25.111c-.829 0-1.5.671-1.5 1.5v107.97c0 .829.671 1.5 1.5 1.5s1.5-.671 1.5-1.5v-107.97c0-.829-.672-1.5-1.5-1.5z" fill="#3a312a"/></g></g><g><g><ellipse cx="97.305" cy="150.5" fill="#e96c7a" rx="15.921" ry="15.921" transform="matrix(.16 -.987 .987 .16 -66.838 222.441)"/></g></g><g><g><path d="m97.305 133.079c-9.606 0-17.421 7.815-17.421 17.421 0 9.605 7.815 17.42 17.421 17.42s17.421-7.815 17.421-17.42c0-9.606-7.815-17.421-17.421-17.421zm0 31.841c-7.952 0-14.421-6.469-14.421-14.42s6.469-14.421 14.421-14.421 14.421 6.469 14.421 14.421-6.47 14.42-14.421 14.42z" fill="#3a312a"/></g></g><g><g><path d="m129.52 25.111c-.829 0-1.5.671-1.5 1.5v107.97c0 .829.671 1.5 1.5 1.5s1.5-.671 1.5-1.5v-107.97c0-.829-.671-1.5-1.5-1.5z" fill="#3a312a"/></g></g><g><g><ellipse cx="129.904" cy="150.5" fill="#e96c7a" rx="15.921" ry="15.921" transform="matrix(.995 -.099 .099 .995 -14.198 13.533)"/></g></g><g><g><path d="m129.904 133.079c-9.606 0-17.42 7.815-17.42 17.421 0 9.605 7.815 17.42 17.42 17.42 9.606 0 17.421-7.815 17.421-17.42 0-9.606-7.815-17.421-17.421-17.421zm0 31.841c-7.952 0-14.42-6.469-14.42-14.42s6.469-14.421 14.42-14.421 14.421 6.469 14.421 14.421-6.469 14.42-14.421 14.42z" fill="#3a312a"/></g></g><g><g><path d="m188.789 121.025-19.72-94.72c-.169-.811-.962-1.331-1.774-1.163-.811.169-1.331.963-1.163 1.774l19.72 94.72c.147.708.772 1.195 1.467 1.195.101 0 .204-.011.307-.032.81-.169 1.331-.963 1.163-1.774z" fill="#3a312a"/></g></g><g><g><path d="m206.689 135.299c-2.235-8.504-10.94-13.586-19.444-11.352-8.504 2.235-13.586 10.94-11.352 19.444 2.235 8.504 10.94 13.586 19.444 11.352s13.587-10.94 11.352-19.444z" fill="#e96c7a"/></g></g><g><g><path d="m208.14 134.918c-1.183-4.5-4.047-8.271-8.066-10.617s-8.711-2.987-13.21-1.804c-4.5 1.183-8.271 4.047-10.617 8.066s-2.987 8.71-1.804 13.21 4.047 8.271 8.066 10.617c2.701 1.577 5.706 2.383 8.753 2.383 1.486 0 2.982-.192 4.457-.58 4.5-1.183 8.271-4.047 10.617-8.065s2.986-8.71 1.804-13.21zm-4.395 11.699c-1.942 3.326-5.063 5.697-8.788 6.676s-7.608.448-10.936-1.493c-3.327-1.942-5.698-5.063-6.677-8.789-.979-3.725-.449-7.609 1.494-10.936 1.942-3.327 5.063-5.698 8.789-6.677 1.221-.321 2.459-.479 3.689-.479 2.523 0 5.01.667 7.247 1.973 3.327 1.942 5.698 5.063 6.677 8.789s.447 7.609-1.495 10.936z" fill="#3a312a"/></g></g><g><g><path d="m187.786 170.291c-.974 11.564-13.024 13.39-13.024 13.39 10.347.487 12.925 14.059 12.925 14.059.221-9.677 13.321-14.202 13.321-14.202-9.814-.588-13.222-13.247-13.222-13.247z" fill="#d7e057"/></g></g><g><g><path d="m201.098 182.04c-8.605-.515-11.832-12.024-11.864-12.141-.19-.702-.849-1.159-1.583-1.102-.725.066-1.298.642-1.359 1.367-.86 10.215-11.313 11.964-11.754 12.033-.763.115-1.313.79-1.273 1.561.04.77.657 1.384 1.428 1.421 9.028.425 11.498 12.718 11.522 12.842.137.711.759 1.217 1.472 1.217.042 0 .084-.001.126-.005.764-.064 1.357-.693 1.374-1.459.194-8.509 12.191-12.777 12.313-12.819.675-.235 1.092-.914.994-1.623-.099-.708-.683-1.249-1.396-1.292zm-13.566 10.345c-1.357-3.13-3.709-6.907-7.587-8.876 2.931-1.405 6.409-3.913 8.202-8.272 1.551 3.071 4.199 6.88 8.333 8.722-3.007 1.64-6.922 4.405-8.948 8.426z" fill="#3a312a"/></g></g><g><g><path d="m166.087 187.271c-.689 8.179-9.212 9.471-9.212 9.471 7.318.344 9.142 9.944 9.142 9.944.156-6.844 9.422-10.045 9.422-10.045-6.941-.416-9.352-9.37-9.352-9.37z" fill="#d7e057"/></g></g><g><g><path d="m175.529 195.143c-5.767-.345-7.973-8.186-7.994-8.265-.191-.702-.855-1.167-1.582-1.102-.726.065-1.299.642-1.36 1.368-.579 6.871-7.646 8.067-7.942 8.114-.763.115-1.313.79-1.273 1.561.04.77.657 1.384 1.428 1.421 6.035.284 7.723 8.644 7.739 8.726.135.713.759 1.22 1.472 1.22.042 0 .083-.001.125-.005.765-.063 1.358-.694 1.376-1.461.13-5.709 8.331-8.634 8.413-8.662.676-.234 1.094-.913.996-1.622-.099-.708-.683-1.25-1.398-1.293zm-9.585 6.795c-.924-1.885-2.34-3.947-4.447-5.28 1.856-1.041 3.697-2.63 4.871-4.916 1.057 1.874 2.655 3.954 4.941 5.224-1.85 1.1-3.989 2.74-5.365 4.972z" fill="#3a312a"/></g></g><g><g><path d="m166.087 160.614c-.689 8.179-9.212 9.471-9.212 9.471 7.318.344 9.142 9.944 9.142 9.944.156-6.845 9.422-10.045 9.422-10.045-6.941-.416-9.352-9.37-9.352-9.37z" fill="#d7e057"/></g></g><g><g><path d="m175.529 168.485c-5.767-.345-7.973-8.186-7.994-8.265-.191-.702-.855-1.168-1.582-1.102-.726.065-1.299.642-1.36 1.368-.579 6.871-7.646 8.067-7.942 8.114-.763.115-1.313.79-1.273 1.561.04.77.657 1.384 1.427 1.421 6.036.284 7.724 8.644 7.739 8.726.135.713.759 1.22 1.472 1.22.042 0 .083-.001.125-.005.765-.063 1.358-.694 1.376-1.461.13-5.709 8.332-8.634 8.413-8.662.677-.234 1.094-.913.996-1.622-.098-.708-.682-1.25-1.397-1.293zm-9.585 6.796c-.924-1.886-2.34-3.947-4.447-5.28 1.856-1.042 3.697-2.63 4.871-4.917 1.057 1.874 2.655 3.954 4.941 5.224-1.849 1.101-3.989 2.741-5.365 4.973z" fill="#3a312a"/></g></g><g><g><path d="m205.13 16.611h-154.26c-12.47 0-22.62 10.15-22.62 22.62v175.84h10v-175.84c0-6.96 5.66-12.62 12.62-12.62h154.26c6.96 0 12.62 5.66 12.62 12.62v175.84h10v-175.84c0-12.47-10.15-22.62-22.62-22.62z" fill="#87796f"/></g></g><g><g><path d="m205.13 15.111h-32.435c-.829 0-1.5.671-1.5 1.5s.671 1.5 1.5 1.5h32.435c11.646 0 21.12 9.474 21.12 21.12v174.34h-7v-174.341c0-7.786-6.335-14.12-14.12-14.12h-154.26c-7.786 0-14.12 6.334-14.12 14.12v174.34h-7v-174.34c0-11.646 9.475-21.12 21.12-21.12h107.769c.829 0 1.5-.671 1.5-1.5s-.671-1.5-1.5-1.5h-107.769c-13.3 0-24.12 10.82-24.12 24.12v175.84c0 .829.671 1.5 1.5 1.5h10c.829 0 1.5-.671 1.5-1.5v-175.84c0-6.131 4.988-11.12 11.12-11.12h154.26c6.132 0 11.12 4.988 11.12 11.12v175.84c0 .829.671 1.5 1.5 1.5h10c.829 0 1.5-.671 1.5-1.5v-175.84c0-13.299-10.82-24.119-24.12-24.119z" fill="#3a312a"/></g></g><g><g><path d="m17 215.071h222v24.319h-222z" fill="#89c4db"/></g></g><g><g><path d="m239 213.571h-148.327c-.829 0-1.5.671-1.5 1.5s.671 1.5 1.5 1.5h146.827v21.318h-219v-21.318h58.161c.829 0 1.5-.671 1.5-1.5s-.671-1.5-1.5-1.5h-59.661c-.829 0-1.5.671-1.5 1.5v24.318c0 .829.671 1.5 1.5 1.5h222c.829 0 1.5-.671 1.5-1.5v-24.318c0-.829-.671-1.5-1.5-1.5z" fill="#3a312a"/></g></g><g><g><path d="m218.5 216.571h19v21.32h-19z" fill="#6ca8bf"/></g></g></g></svg>