<svg id="Layer_1" enable-background="new 0 0 256 256" height="512" viewBox="0 0 256 256" width="512" xmlns="http://www.w3.org/2000/svg"><path d="m225.914 26.13c-.974 11.564-13.024 13.39-13.024 13.39 10.347.487 12.925 14.059 12.925 14.059.221-9.677 13.321-14.202 13.321-14.202-9.813-.588-13.222-13.247-13.222-13.247z" fill="#d7e057"/><path d="m239.226 37.879c-8.605-.515-11.832-12.024-11.864-12.141-.191-.703-.86-1.164-1.583-1.102-.725.066-1.298.642-1.359 1.367-.86 10.215-11.314 11.964-11.754 12.033-.763.115-1.313.79-1.273 1.561.04.77.657 1.384 1.428 1.421 9.028.425 11.498 12.718 11.522 12.842.137.711.759 1.217 1.472 1.217.041 0 .084-.001.126-.005.764-.064 1.357-.693 1.375-1.459.195-8.508 12.192-12.777 12.313-12.819.675-.235 1.092-.914.994-1.622-.1-.709-.683-1.25-1.397-1.293zm-13.566 10.346c-1.356-3.13-3.708-6.907-7.586-8.877 2.931-1.405 6.409-3.913 8.202-8.273 1.551 3.071 4.2 6.88 8.334 8.723-3.008 1.64-6.923 4.405-8.95 8.427z" fill="#3a312a"/><path d="m204.216 43.111c-.689 8.179-9.212 9.47-9.212 9.47 7.318.344 9.142 9.944 9.142 9.944.156-6.844 9.422-10.045 9.422-10.045-6.941-.415-9.352-9.369-9.352-9.369z" fill="#d7e057"/><path d="m213.657 50.982c-5.766-.345-7.972-8.185-7.994-8.264-.19-.702-.851-1.166-1.582-1.102-.725.065-1.299.642-1.36 1.368-.579 6.87-7.646 8.066-7.942 8.113-.763.115-1.314.79-1.273 1.561.04.77.657 1.384 1.428 1.421 6.035.284 7.723 8.644 7.739 8.726.135.713.759 1.22 1.473 1.22.041 0 .083-.002.125-.005.765-.064 1.358-.694 1.376-1.461.13-5.709 8.332-8.634 8.413-8.662.676-.234 1.094-.913.996-1.622-.1-.708-.684-1.25-1.399-1.293zm-9.584 6.795c-.924-1.885-2.34-3.947-4.447-5.28 1.855-1.041 3.697-2.629 4.87-4.916 1.057 1.874 2.654 3.955 4.941 5.224-1.85 1.101-3.988 2.74-5.364 4.972z" fill="#3a312a"/><path d="m204.216 16.453c-.689 8.179-9.212 9.471-9.212 9.471 7.318.344 9.142 9.944 9.142 9.944.156-6.845 9.422-10.045 9.422-10.045-6.941-.416-9.352-9.37-9.352-9.37z" fill="#d7e057"/><path d="m213.658 24.325c-5.767-.345-7.973-8.186-7.994-8.265-.19-.702-.851-1.167-1.582-1.102-.725.065-1.299.642-1.36 1.368-.579 6.871-7.646 8.067-7.942 8.114-.763.115-1.314.79-1.273 1.561.04.77.657 1.384 1.428 1.421 6.035.284 7.723 8.644 7.739 8.726.135.713.759 1.22 1.472 1.22.042 0 .083-.001.125-.005.765-.063 1.358-.694 1.376-1.461.13-5.709 8.332-8.634 8.413-8.662.676-.234 1.094-.913.996-1.622-.1-.708-.684-1.25-1.398-1.293zm-9.585 6.795c-.924-1.885-2.34-3.947-4.447-5.28 1.856-1.041 3.697-2.63 4.871-4.916 1.057 1.874 2.655 3.954 4.941 5.224-1.85 1.1-3.989 2.74-5.365 4.972z" fill="#3a312a"/><path d="m176.333 36.88c-.109-11.326-9.318-20.453-20.645-20.459l-118.884-.062c-11.413-.006-20.668 9.244-20.668 20.657v158.966c0 11.409 9.248 20.657 20.657 20.657h119.186c11.408 0 20.657-9.249 20.657-20.657v-127.498z" fill="#f16c7a"/><path d="m177.833 36.865c-.116-12.094-10.05-21.938-22.145-21.944l-118.883-.062h-.012c-5.917 0-11.479 2.303-15.664 6.485-4.188 4.186-6.494 9.752-6.494 15.672v38.957c0 .829.671 1.5 1.5 1.5s1.5-.671 1.5-1.5v-38.957c0-5.119 1.994-9.931 5.615-13.55 3.618-3.616 8.427-5.607 13.542-5.607h.01l118.883.062c10.457.005 19.046 8.517 19.146 18.973l.303 31.59v127.498c0 10.564-8.594 19.157-19.157 19.157h-119.183c-10.563 0-19.157-8.594-19.157-19.157v-106.759c0-.829-.671-1.5-1.5-1.5s-1.5.671-1.5 1.5v106.759c0 12.218 9.94 22.157 22.157 22.157h119.186c12.217 0 22.157-9.939 22.157-22.157v-127.512z" fill="#3a312a"/><path d="m147.501 39.348h-87.51c-11.526 0-20.854 9.328-20.854 20.854v158.583c0 11.526 9.328 20.854 20.854 20.854h118.792c11.526 0 20.854-9.328 20.854-20.854v-127.301z" fill="#f7e3c7"/><g fill="#3a312a"><path d="m200.697 90.423-52.135-52.136c-.281-.281-.663-.44-1.061-.44h-87.511c-12.326 0-22.354 10.028-22.354 22.354v158.583c0 12.326 10.028 22.354 22.354 22.354h55.774c.829 0 1.5-.671 1.5-1.5s-.671-1.5-1.5-1.5h-55.774c-10.672 0-19.354-8.682-19.354-19.354v-158.581c0-10.672 8.682-19.354 19.354-19.354h86.89l51.256 51.257v126.68c0 10.672-8.682 19.354-19.354 19.354h-50.275c-.829 0-1.5.671-1.5 1.5s.671 1.5 1.5 1.5h50.275c12.326 0 22.354-10.028 22.354-22.354v-127.302c0-.398-.158-.779-.439-1.061z"/><path d="m170.143 103.432h-101.513c-.829 0-1.5.671-1.5 1.5s.671 1.5 1.5 1.5h101.513c.829 0 1.5-.671 1.5-1.5s-.672-1.5-1.5-1.5z"/><path d="m170.143 128.318h-101.513c-.829 0-1.5.671-1.5 1.5s.671 1.5 1.5 1.5h101.513c.829 0 1.5-.671 1.5-1.5 0-.828-.672-1.5-1.5-1.5z"/><path d="m170.143 153.205h-101.513c-.829 0-1.5.671-1.5 1.5s.671 1.5 1.5 1.5h101.513c.829 0 1.5-.671 1.5-1.5s-.672-1.5-1.5-1.5z"/><path d="m170.143 178.091h-101.513c-.829 0-1.5.671-1.5 1.5s.671 1.5 1.5 1.5h101.513c.829 0 1.5-.671 1.5-1.5 0-.828-.672-1.5-1.5-1.5z"/><path d="m170.143 202.978h-101.513c-.829 0-1.5.671-1.5 1.5s.671 1.5 1.5 1.5h101.513c.829 0 1.5-.671 1.5-1.5s-.672-1.5-1.5-1.5z"/></g><path d="m147.609 39.456v33.797c0 10.14 8.22 18.36 18.36 18.36h33.668v-.129z" fill="#f7e3c7"/><path d="m200.697 90.423-52.028-52.028c-.428-.429-1.074-.559-1.635-.325-.561.232-.926.779-.926 1.386v33.797c0 10.951 8.909 19.86 19.86 19.86h33.667c.829 0 1.5-.671 1.5-1.5v-.129c.001-.398-.157-.779-.438-1.061zm-34.728-.31c-9.297 0-16.86-7.563-16.86-16.86v-30.176l47.036 47.036z" fill="#3a312a"/><path d="m128.138 67.245h-54.396c-2.823 0-5.112 2.289-5.112 5.112v5.931c0 2.823 2.289 5.112 5.112 5.112h54.396c2.823 0 5.112-2.289 5.112-5.112v-5.931c0-2.823-2.289-5.112-5.112-5.112z" fill="#8ac6dd"/><path d="m128.138 65.746h-54.396c-3.646 0-6.612 2.966-6.612 6.612v5.931c0 3.646 2.966 6.612 6.612 6.612h54.396c3.646 0 6.612-2.966 6.612-6.612v-5.931c0-3.647-2.966-6.612-6.612-6.612zm3.612 12.543c0 1.992-1.62 3.612-3.612 3.612h-54.396c-1.992 0-3.612-1.62-3.612-3.612v-5.931c0-1.992 1.62-3.612 3.612-3.612h54.396c1.992 0 3.612 1.62 3.612 3.612z" fill="#3a312a"/><path d="m174.836 36.892c-.1-10.45-8.69-18.96-19.15-18.97h-15c10.46.01 19.05 8.52 19.15 18.97l.12 12.79 15.14 15.15z" fill="#d34e5c"/><path d="m227.742 192.214h-53.544l-11.811 47.285h77.166z" fill="#8ac5dc"/><path d="m241.008 239.136-11.811-47.285c-.167-.668-.767-1.137-1.455-1.137h-53.544c-.688 0-1.288.469-1.455 1.137l-11.811 47.285c-.112.448-.011.922.273 1.287.284.364.72.577 1.182.577h77.166c.462 0 .898-.213 1.182-.577.284-.365.386-.84.273-1.287zm-76.7-1.137 11.062-44.285h51.201l11.062 44.285z" fill="#3a312a"/><path d="m230.054 179.418h-58.166c-2.244 0-4.063 1.819-4.063 4.063v4.671c0 2.244 1.819 4.063 4.063 4.063h58.166c2.244 0 4.063-1.819 4.063-4.063v-4.671c-.001-2.244-1.82-4.063-4.063-4.063z" fill="#d7e057"/><path d="m230.054 177.918h-58.167c-3.067 0-5.563 2.495-5.563 5.563v4.671c0 3.067 2.495 5.563 5.563 5.563h58.167c3.067 0 5.563-2.495 5.563-5.563v-4.671c-.001-3.068-2.496-5.563-5.563-5.563zm2.562 10.234c0 1.413-1.149 2.563-2.563 2.563h-58.167c-1.413 0-2.563-1.149-2.563-2.563v-4.671c0-1.413 1.149-2.563 2.563-2.563h58.167c1.413 0 2.563 1.149 2.563 2.563z" fill="#3a312a"/><path d="m200.97 68.999c-3.59 0-6.5 2.91-6.5 6.5v103.919h13v-103.919c0-3.59-2.91-6.5-6.5-6.5z" fill="#87796f"/><path d="m200.97 67.499c-4.411 0-8 3.589-8 8v103.919c0 .829.671 1.5 1.5 1.5h13c.829 0 1.5-.671 1.5-1.5v-103.919c0-4.411-3.589-8-8-8zm5 110.419h-10v-102.419c0-2.757 2.243-5 5-5s5 2.243 5 5z" fill="#3a312a"/><path d="m181.97 216.999c-.829 0-1.5.671-1.5 1.5v21c0 .829.671 1.5 1.5 1.5s1.5-.671 1.5-1.5v-21c0-.829-.671-1.5-1.5-1.5z" fill="#3a312a"/><path d="m200.97 216.999c-.829 0-1.5.671-1.5 1.5v21c0 .829.671 1.5 1.5 1.5s1.5-.671 1.5-1.5v-21c0-.829-.671-1.5-1.5-1.5z" fill="#3a312a"/><path d="m219.97 216.999c-.829 0-1.5.671-1.5 1.5v21c0 .829.671 1.5 1.5 1.5s1.5-.671 1.5-1.5v-21c0-.829-.671-1.5-1.5-1.5z" fill="#3a312a"/><path d="m177.97 93.109h15v84.81h-15z" fill="#decaad"/></svg>