<svg id="Layer_1" enable-background="new 0 0 256 256" height="512" viewBox="0 0 256 256" width="512" xmlns="http://www.w3.org/2000/svg"><g><g><g><path d="m47.659 26.427c-.974 11.564-13.031 13.389-13.031 13.389 10.352.487 12.932 14.059 12.932 14.059.221-9.677 13.328-14.202 13.328-14.202-9.819-.587-13.229-13.246-13.229-13.246z" fill="#d4d752"/></g></g><g><g><path d="m60.978 38.177c-8.61-.516-11.84-12.024-11.871-12.141-.192-.702-.849-1.162-1.584-1.102-.725.066-1.298.643-1.359 1.367-.859 10.215-11.319 11.963-11.761 12.031-.763.115-1.314.791-1.273 1.561.04.771.657 1.385 1.428 1.421 9.034.426 11.506 12.72 11.529 12.844.138.711.76 1.217 1.473 1.217.042 0 .084-.002.126-.005.765-.064 1.358-.693 1.375-1.46.193-8.508 12.198-12.776 12.319-12.819.675-.234 1.092-.914.994-1.622s-.682-1.249-1.396-1.292zm-13.573 10.346c-1.358-3.131-3.711-6.908-7.592-8.878 2.933-1.405 6.413-3.913 8.207-8.273 1.551 3.07 4.201 6.881 8.339 8.724-3.01 1.639-6.927 4.406-8.954 8.427z" fill="#3a312a"/></g></g><g><g><path d="m25.949 43.408c-.689 8.179-9.217 9.47-9.217 9.47 7.322.344 9.147 9.944 9.147 9.944.156-6.844 9.427-10.045 9.427-10.045-6.945-.415-9.357-9.369-9.357-9.369z" fill="#d4d752"/></g></g><g><g><path d="m35.396 51.28c-5.748-.345-7.962-8.13-7.999-8.265-.191-.703-.845-1.167-1.583-1.103-.725.065-1.299.643-1.36 1.368-.578 6.871-7.65 8.066-7.946 8.113-.763.116-1.314.791-1.273 1.561.04.771.657 1.385 1.428 1.421 6.039.284 7.728 8.645 7.744 8.727.136.713.759 1.22 1.473 1.22.041 0 .083-.002.125-.005.765-.063 1.358-.693 1.376-1.461.13-5.708 8.336-8.633 8.416-8.661.677-.233 1.094-.913.997-1.622-.099-.709-.685-1.25-1.398-1.293zm-9.59 6.796c-.924-1.886-2.341-3.948-4.45-5.281 1.858-1.041 3.7-2.631 4.874-4.918 1.058 1.874 2.655 3.956 4.944 5.226-1.851 1.1-3.991 2.74-5.368 4.973z" fill="#3a312a"/></g></g><g><g><path d="m25.949 16.75c-.689 8.179-9.217 9.471-9.217 9.471 7.322.345 9.147 9.944 9.147 9.944.156-6.844 9.427-10.045 9.427-10.045-6.945-.416-9.357-9.37-9.357-9.37z" fill="#d4d752"/></g></g><g><g><path d="m35.396 24.623c-5.743-.345-7.958-8.116-7.999-8.265-.191-.702-.845-1.163-1.583-1.103-.725.065-1.299.643-1.36 1.368-.578 6.871-7.65 8.066-7.946 8.113-.763.116-1.314.791-1.273 1.561.04.771.657 1.385 1.428 1.421 6.039.284 7.728 8.645 7.744 8.727.136.713.759 1.22 1.473 1.22.041 0 .083-.002.125-.005.765-.063 1.358-.693 1.376-1.461.13-5.709 8.335-8.633 8.416-8.661.677-.233 1.094-.913.997-1.622-.099-.709-.685-1.25-1.398-1.293zm-9.59 6.796c-.924-1.887-2.341-3.948-4.45-5.281 1.858-1.041 3.7-2.631 4.874-4.918 1.058 1.874 2.656 3.955 4.944 5.226-1.851 1.1-3.991 2.74-5.368 4.973z" fill="#3a312a"/></g></g><g><g><path d="m225.335 17.25h-140.112c-7.767 0-14.064 6.297-14.064 14.064v193.872c0 7.767 6.297 14.064 14.064 14.064h140.112c7.767 0 14.064-6.297 14.064-14.064v-193.872c0-7.767-6.296-14.064-14.064-14.064z" fill="#ed6e7a"/></g></g><g><g><path d="m225.335 15.75h-140.112c-8.582 0-15.563 6.982-15.563 15.564v71.11c0 .828.672 1.5 1.5 1.5s1.5-.672 1.5-1.5v-71.11c0-6.928 5.636-12.564 12.563-12.564h140.112c6.928 0 12.565 5.637 12.565 12.564v193.871c0 6.928-5.637 12.564-12.565 12.564h-140.112c-6.928 0-12.563-5.637-12.563-12.564v-107.776c0-.828-.672-1.5-1.5-1.5s-1.5.672-1.5 1.5v107.776c0 8.582 6.981 15.564 15.563 15.564h140.112c8.582 0 15.565-6.982 15.565-15.564v-193.871c0-8.582-6.983-15.564-15.565-15.564z" fill="#3a312a"/></g></g><g><g><path d="m216.865 34.25h-123.171c-3.198 0-5.79 2.592-5.79 5.79v109.42c0 3.198 2.592 5.79 5.79 5.79h123.171c3.198 0 5.79-2.592 5.79-5.79v-109.42c0-3.198-2.592-5.79-5.79-5.79z" fill="#8ac3da"/></g></g><g><g><path d="m216.865 32.75h-32.264c-.828 0-1.5.672-1.5 1.5s.672 1.5 1.5 1.5h32.264c2.365 0 4.29 1.925 4.29 4.29v109.42c0 2.365-1.925 4.29-4.29 4.29h-123.172c-2.365 0-4.29-1.925-4.29-4.29v-109.42c0-2.365 1.925-4.29 4.29-4.29h76.421c.828 0 1.5-.672 1.5-1.5s-.672-1.5-1.5-1.5h-76.421c-4.019 0-7.29 3.271-7.29 7.29v109.42c0 4.02 3.271 7.29 7.29 7.29h123.172c4.019 0 7.29-3.271 7.29-7.29v-109.42c0-4.019-3.27-7.29-7.29-7.29z" fill="#3a312a"/></g></g><g><g><path d="m126.551 184.479v-18.729h-19.543v18.729h-18.729v19.542h18.729v18.729h19.543v-18.729h18.729v-19.542z" fill="#d3d650"/></g></g><g><g><path d="m145.28 182.979h-17.229v-17.229c0-.828-.672-1.5-1.5-1.5h-19.543c-.828 0-1.5.672-1.5 1.5v17.229h-17.228c-.828 0-1.5.672-1.5 1.5v19.543c0 .828.672 1.5 1.5 1.5h17.229v17.229c0 .828.672 1.5 1.5 1.5h19.543c.828 0 1.5-.672 1.5-1.5v-17.229h17.229c.828 0 1.5-.672 1.5-1.5v-19.543c-.001-.829-.673-1.5-1.501-1.5zm-1.5 19.542h-17.229c-.828 0-1.5.672-1.5 1.5v17.229h-16.543v-17.229c0-.828-.672-1.5-1.5-1.5h-17.228v-16.543h17.229c.828 0 1.5-.672 1.5-1.5v-17.228h16.543v17.229c0 .828.672 1.5 1.5 1.5h17.229v16.542z" fill="#3a312a"/></g></g><g><g><circle cx="193.78" cy="174.75" fill="#d3d650" r="9"/></g></g><g><g><path d="m193.78 164.25c-5.79 0-10.5 4.71-10.5 10.5s4.71 10.5 10.5 10.5 10.5-4.71 10.5-10.5-4.71-10.5-10.5-10.5zm0 18c-4.136 0-7.5-3.364-7.5-7.5s3.364-7.5 7.5-7.5 7.5 3.364 7.5 7.5-3.365 7.5-7.5 7.5z" fill="#3a312a"/></g></g><g><g><circle cx="193.78" cy="213.75" fill="#d3d650" r="9"/></g></g><g><g><path d="m193.78 203.25c-5.79 0-10.5 4.71-10.5 10.5s4.71 10.5 10.5 10.5 10.5-4.71 10.5-10.5-4.71-10.5-10.5-10.5zm0 18c-4.136 0-7.5-3.364-7.5-7.5s3.364-7.5 7.5-7.5 7.5 3.364 7.5 7.5-3.365 7.5-7.5 7.5z" fill="#3a312a"/></g></g><g><g><circle cx="213.28" cy="194.25" fill="#d3d650" r="9"/></g></g><g><g><path d="m213.28 183.75c-5.79 0-10.5 4.71-10.5 10.5s4.71 10.5 10.5 10.5 10.5-4.71 10.5-10.5-4.71-10.5-10.5-10.5zm0 18c-4.136 0-7.5-3.364-7.5-7.5s3.364-7.5 7.5-7.5 7.5 3.364 7.5 7.5-3.365 7.5-7.5 7.5z" fill="#3a312a"/></g></g><g><g><circle cx="174.28" cy="194.25" fill="#d3d650" r="9"/></g></g><g><g><path d="m174.28 183.75c-5.79 0-10.5 4.71-10.5 10.5s4.71 10.5 10.5 10.5 10.5-4.71 10.5-10.5-4.71-10.5-10.5-10.5zm0 18c-4.136 0-7.5-3.364-7.5-7.5s3.364-7.5 7.5-7.5 7.5 3.364 7.5 7.5-3.365 7.5-7.5 7.5z" fill="#3a312a"/></g></g><g><g><path d="m225.335 18.75h-15c6.93 0 12.57 5.64 12.57 12.56v4.66c.79 1.16 1.25 2.56 1.25 4.07v109.42c0 1.51-.46 2.91-1.25 4.07v36.55c.56 1.27.87 2.69.87 4.17s-.31 2.9-.87 4.17v26.77c0 6.92-5.64 12.56-12.57 12.56h15c6.93 0 12.57-5.64 12.57-12.56v-193.88c0-6.92-5.64-12.56-12.57-12.56z" fill="#d24e5c"/></g></g><g><g><path d="m183.779 85h19v19h-19z" fill="#ed6e7a"/></g></g><g><g><path d="m202.78 83.5h-19c-.828 0-1.5.672-1.5 1.5v19c0 .828.672 1.5 1.5 1.5h19c.828 0 1.5-.672 1.5-1.5v-19c0-.828-.672-1.5-1.5-1.5zm-1.5 19h-16v-16h16z" fill="#3a312a"/></g></g><g><g><path d="m183.779 104h19v19h-19z" fill="#ed6e7a"/></g></g><g><g><path d="m202.78 102.5h-19c-.828 0-1.5.672-1.5 1.5v19c0 .828.672 1.5 1.5 1.5h19c.828 0 1.5-.672 1.5-1.5v-19c0-.828-.672-1.5-1.5-1.5zm-1.5 19h-16v-16h16z" fill="#3a312a"/></g></g><g><g><path d="m145.779 123h19v19h-19z" fill="#87796f"/></g></g><g><g><path d="m164.78 121.5h-19c-.828 0-1.5.672-1.5 1.5v19c0 .828.672 1.5 1.5 1.5h19c.828 0 1.5-.672 1.5-1.5v-19c0-.828-.672-1.5-1.5-1.5zm-1.5 19h-16v-16h16z" fill="#3a312a"/></g></g><g><g><path d="m164.779 123h19v19h-19z" fill="#ed6e7a"/></g></g><g><g><path d="m183.78 121.5h-19c-.828 0-1.5.672-1.5 1.5v19c0 .828.672 1.5 1.5 1.5h19c.828 0 1.5-.672 1.5-1.5v-19c0-.828-.672-1.5-1.5-1.5zm-1.5 19h-16v-16h16z" fill="#3a312a"/></g></g><g><g><path d="m164.779 104h19v19h-19z" fill="#87796f"/></g></g><g><g><path d="m183.78 102.5h-19c-.828 0-1.5.672-1.5 1.5v19c0 .828.672 1.5 1.5 1.5h19c.828 0 1.5-.672 1.5-1.5v-19c0-.828-.672-1.5-1.5-1.5zm-1.5 19h-16v-16h16z" fill="#3a312a"/></g></g><g><g><path d="m183.779 123h19v19h-19z" fill="#ed6e7a"/></g></g><g><g><path d="m202.78 121.5h-19c-.828 0-1.5.672-1.5 1.5v19c0 .828.672 1.5 1.5 1.5h19c.828 0 1.5-.672 1.5-1.5v-19c0-.828-.672-1.5-1.5-1.5zm-1.5 19h-16v-16h16z" fill="#3a312a"/></g></g><g><g><path d="m126.779 123h19v19h-19z" fill="#f8e4c8"/></g></g><g><g><path d="m145.78 121.5h-19c-.828 0-1.5.672-1.5 1.5v19c0 .828.672 1.5 1.5 1.5h19c.828 0 1.5-.672 1.5-1.5v-19c0-.828-.672-1.5-1.5-1.5zm-1.5 19h-16v-16h16z" fill="#3a312a"/></g></g><g><g><path d="m145.779 104h19v19h-19z" fill="#87796f"/></g></g><g><g><path d="m164.78 102.5h-19c-.828 0-1.5.672-1.5 1.5v19c0 .828.672 1.5 1.5 1.5h19c.828 0 1.5-.672 1.5-1.5v-19c0-.828-.672-1.5-1.5-1.5zm-1.5 19h-16v-16h16z" fill="#3a312a"/></g></g><g><g><path d="m126.779 104h19v19h-19z" fill="#87796f"/></g></g><g><g><path d="m145.78 102.5h-19c-.828 0-1.5.672-1.5 1.5v19c0 .828.672 1.5 1.5 1.5h19c.828 0 1.5-.672 1.5-1.5v-19c0-.828-.672-1.5-1.5-1.5zm-1.5 19h-16v-16h16z" fill="#3a312a"/></g></g><g><g><path d="m107.779 85h19v19h-19z" fill="#f8e4c8"/></g></g><g><g><path d="m126.78 83.5h-19c-.828 0-1.5.672-1.5 1.5v19c0 .828.672 1.5 1.5 1.5h19c.828 0 1.5-.672 1.5-1.5v-19c0-.828-.672-1.5-1.5-1.5zm-1.5 19h-16v-16h16z" fill="#3a312a"/></g></g><g><g><path d="m107.779 104h19v19h-19z" fill="#f8e4c8"/></g></g><g><g><path d="m126.78 102.5h-19c-.828 0-1.5.672-1.5 1.5v19c0 .828.672 1.5 1.5 1.5h19c.828 0 1.5-.672 1.5-1.5v-19c0-.828-.672-1.5-1.5-1.5zm-1.5 19h-16v-16h16z" fill="#3a312a"/></g></g><g><g><path d="m145.779 66h19v19h-19z" fill="#d3d650"/></g></g><g><g><path d="m164.78 64.5h-19c-.828 0-1.5.672-1.5 1.5v19c0 .828.672 1.5 1.5 1.5h19c.828 0 1.5-.672 1.5-1.5v-19c0-.828-.672-1.5-1.5-1.5zm-1.5 19h-16v-16h16z" fill="#3a312a"/></g></g><g><g><path d="m126.779 66h19v19h-19z" fill="#d3d650"/></g></g><g><g><path d="m145.78 64.5h-19c-.828 0-1.5.672-1.5 1.5v19c0 .828.672 1.5 1.5 1.5h19c.828 0 1.5-.672 1.5-1.5v-19c0-.828-.672-1.5-1.5-1.5zm-1.5 19h-16v-16h16z" fill="#3a312a"/></g></g><g><g><path d="m126.779 47h19v19h-19z" fill="#d3d650"/></g></g><g><g><path d="m145.78 45.5h-19c-.828 0-1.5.672-1.5 1.5v19c0 .828.672 1.5 1.5 1.5h19c.828 0 1.5-.672 1.5-1.5v-19c0-.828-.672-1.5-1.5-1.5zm-1.5 19h-16v-16h16z" fill="#3a312a"/></g></g><g><g><path d="m107.779 47h19v19h-19z" fill="#d3d650"/></g></g><g><g><path d="m126.78 45.5h-19c-.828 0-1.5.672-1.5 1.5v19c0 .828.672 1.5 1.5 1.5h19c.828 0 1.5-.672 1.5-1.5v-19c0-.828-.672-1.5-1.5-1.5zm-1.5 19h-16v-16h16z" fill="#3a312a"/></g></g><g><g><path d="m107.779 123h19v19h-19z" fill="#f8e4c8"/></g></g><g><g><path d="m126.78 121.5h-19c-.828 0-1.5.672-1.5 1.5v19c0 .828.672 1.5 1.5 1.5h19c.828 0 1.5-.672 1.5-1.5v-19c0-.828-.672-1.5-1.5-1.5zm-1.5 19h-16v-16h16z" fill="#3a312a"/></g></g></g></svg>