<svg id="Layer_1" enable-background="new 0 0 256 256" height="512" viewBox="0 0 256 256" width="512" xmlns="http://www.w3.org/2000/svg"><g><g><g><path d="m31.67 177.712h193.81v61.44h-193.81z" fill="#87796f"/></g></g><g><g><path d="m225.48 176.212h-193.81c-.829 0-1.5.671-1.5 1.5v61.439c0 .829.671 1.5 1.5 1.5h193.81c.829 0 1.5-.671 1.5-1.5v-61.439c0-.829-.671-1.5-1.5-1.5zm-1.5 61.439h-190.81v-58.439h190.81z" fill="#3a312a"/></g></g><g><g><path d="m47.09 190.152h104v36.56h-104z" fill="#ed6e7a"/></g></g><g><g><path d="m151.09 188.651h-104c-.829 0-1.5.671-1.5 1.5v36.561c0 .829.671 1.5 1.5 1.5h104c.829 0 1.5-.671 1.5-1.5v-36.561c0-.828-.671-1.5-1.5-1.5zm-1.5 36.561h-101v-33.561h101z" fill="#3a312a"/></g></g><g><g><path d="m171.09 190.152h38v36.56h-38z" fill="#ed6e7a"/></g></g><g><g><path d="m209.09 188.651h-38c-.829 0-1.5.671-1.5 1.5v36.561c0 .829.671 1.5 1.5 1.5h38c.829 0 1.5-.671 1.5-1.5v-36.561c0-.828-.671-1.5-1.5-1.5zm-1.5 36.561h-35v-33.561h35z" fill="#3a312a"/></g></g><g><g><path d="m210.781 16.848h-165.381c-7.851 0-14.215 6.365-14.215 14.215v97.227h193.812v-97.226c-.001-7.851-6.365-14.216-14.216-14.216z" fill="#87796f"/></g></g><g><g><path d="m210.781 15.349h-165.381c-8.666 0-15.715 7.05-15.715 15.715v35.332c0 .829.671 1.5 1.5 1.5s1.5-.671 1.5-1.5v-35.333c0-7.011 5.704-12.715 12.715-12.715h165.381c7.011 0 12.715 5.704 12.715 12.715v95.727h-190.812v-45.55c0-.829-.671-1.5-1.5-1.5s-1.5.671-1.5 1.5v47.05c0 .829.671 1.5 1.5 1.5h193.812c.829 0 1.5-.671 1.5-1.5v-97.227c0-8.665-7.05-15.714-15.715-15.714z" fill="#3a312a"/></g></g><g><g><path d="m224.996 128.291h-193.812l-14.536 36.824h222.884z" fill="#87796f"/></g></g><g><g><path d="m240.927 164.564-14.536-36.824c-.226-.573-.779-.949-1.395-.949h-193.812c-.616 0-1.169.376-1.395.949l-14.536 36.824c-.183.462-.125.984.155 1.395s.744.656 1.24.656h222.884c.497 0 .961-.246 1.24-.656s.338-.933.155-1.395zm-222.074-.949 13.352-33.824h191.771l13.352 33.824z" fill="#3a312a"/></g></g><g><g><path d="m16.648 165.115h222.884v12.598h-222.884z" fill="#87796f"/></g></g><g><g><path d="m239.532 163.615h-222.884c-.829 0-1.5.671-1.5 1.5v12.598c0 .829.671 1.5 1.5 1.5h222.884c.829 0 1.5-.671 1.5-1.5v-12.598c0-.829-.671-1.5-1.5-1.5zm-1.5 12.597h-219.884v-9.598h219.884z" fill="#3a312a"/></g></g><g><g><path d="m206.355 29.119h-156.53c-2.801 0-5.072 2.271-5.072 5.072v81.828h166.674v-81.828c0-2.801-2.271-5.072-5.072-5.072z" fill="#8ac3da"/></g></g><g><g><path d="m206.355 27.62h-29.036c-.829 0-1.5.671-1.5 1.5s.671 1.5 1.5 1.5h29.036c1.969 0 3.572 1.603 3.572 3.572v80.328h-163.674v-80.329c0-1.969 1.602-3.572 3.572-3.572h113.037c.829 0 1.5-.671 1.5-1.5s-.671-1.5-1.5-1.5h-113.037c-3.624 0-6.572 2.948-6.572 6.572v81.828c0 .829.671 1.5 1.5 1.5h166.674c.829 0 1.5-.671 1.5-1.5v-81.828c0-3.623-2.948-6.571-6.572-6.571z" fill="#3a312a"/></g></g><g><g><circle cx="50.939" cy="146.734" fill="#ed6e7a" r="10.287"/></g></g><g><g><path d="m50.939 134.947c-6.5 0-11.787 5.288-11.787 11.787s5.288 11.787 11.787 11.787 11.787-5.288 11.787-11.787-5.288-11.787-11.787-11.787zm0 20.574c-4.845 0-8.787-3.942-8.787-8.787s3.942-8.787 8.787-8.787 8.787 3.942 8.787 8.787-3.942 8.787-8.787 8.787z" fill="#3a312a"/></g></g><g><g><ellipse cx="102.373" cy="146.734" fill="#d4d752" rx="10.287" ry="10.287" transform="matrix(.383 -.924 .924 .383 -72.368 185.162)"/></g></g><g><g><path d="m102.373 134.947c-6.499 0-11.787 5.288-11.787 11.787s5.288 11.787 11.787 11.787 11.787-5.288 11.787-11.787-5.288-11.787-11.787-11.787zm0 20.574c-4.845 0-8.787-3.942-8.787-8.787s3.942-8.787 8.787-8.787 8.787 3.942 8.787 8.787-3.942 8.787-8.787 8.787z" fill="#3a312a"/></g></g><g><g><ellipse cx="153.807" cy="146.734" fill="#d4d752" rx="10.287" ry="10.287" transform="matrix(.987 -.16 .16 .987 -21.518 26.532)"/></g></g><g><g><path d="m153.807 134.947c-6.499 0-11.787 5.288-11.787 11.787s5.288 11.787 11.787 11.787 11.787-5.288 11.787-11.787-5.287-11.787-11.787-11.787zm0 20.574c-4.845 0-8.787-3.942-8.787-8.787s3.942-8.787 8.787-8.787 8.787 3.942 8.787 8.787-3.942 8.787-8.787 8.787z" fill="#3a312a"/></g></g><g><g><circle cx="205.241" cy="146.734" fill="#ed6e7a" r="10.287"/></g></g><g><g><path d="m205.241 134.947c-6.499 0-11.787 5.288-11.787 11.787s5.288 11.787 11.787 11.787c6.5 0 11.787-5.288 11.787-11.787s-5.287-11.787-11.787-11.787zm0 20.574c-4.845 0-8.787-3.942-8.787-8.787s3.942-8.787 8.787-8.787 8.787 3.942 8.787 8.787-3.942 8.787-8.787 8.787z" fill="#3a312a"/></g></g><g><g><path d="m208.98 179.212v9.44h.11c.83 0 1.5.67 1.5 1.5v36.56c0 .83-.67 1.5-1.5 1.5h-.11v9.44h15v-58.44z" fill="#6a5c52"/></g></g><g><g><path d="m223.03 166.612h15v9.6h-15z" fill="#6a5c52"/></g></g><g><g><path d="m50.954 121.768c-1.586 0-2.872 1.286-2.872 2.873v19.255c0 1.586 1.286 2.872 2.872 2.872s2.872-1.286 2.872-2.872v-19.256c.001-1.586-1.285-2.872-2.872-2.872z" fill="#f8e4c8"/></g></g><g><g><path d="m50.955 120.268c-2.411 0-4.373 1.961-4.373 4.373v19.255c0 2.411 1.961 4.372 4.373 4.372 2.411 0 4.372-1.961 4.372-4.372v-19.256c0-2.411-1.962-4.372-4.372-4.372zm1.372 23.628c0 .756-.616 1.372-1.372 1.372-.757 0-1.373-.616-1.373-1.372v-19.256c0-.757.616-1.373 1.373-1.373.756 0 1.372.616 1.372 1.373z" fill="#3a312a"/></g></g><g><g><path d="m50.954 108.33c-5.04 0-9.125 3.876-9.125 11.125s4.085 17 9.125 17 9.125-9.751 9.125-17c0-7.248-4.085-11.125-9.125-11.125z" fill="#ed6e7a"/></g></g><g><g><path d="m50.955 106.83c-5.289 0-10.625 3.904-10.625 12.625 0 7.365 4.238 18.5 10.625 18.5s10.625-11.135 10.625-18.5c0-8.721-5.337-12.625-10.625-12.625zm0 28.125c-3.563 0-7.625-8.257-7.625-15.5 0-5.847 2.993-9.625 7.625-9.625s7.625 3.778 7.625 9.625c0 7.243-4.063 15.5-7.625 15.5z" fill="#3a312a"/></g></g><g><g><path d="m205.288 121.768c-1.586 0-2.872 1.286-2.872 2.873v19.255c0 1.586 1.286 2.872 2.872 2.872s2.872-1.286 2.872-2.872v-19.256c0-1.586-1.286-2.872-2.872-2.872z" fill="#f8e4c8"/></g></g><g><g><path d="m205.288 120.268c-2.411 0-4.372 1.961-4.372 4.373v19.255c0 2.411 1.961 4.372 4.372 4.372s4.372-1.961 4.372-4.372v-19.256c0-2.411-1.961-4.372-4.372-4.372zm1.372 23.628c0 .756-.616 1.372-1.372 1.372s-1.372-.616-1.372-1.372v-19.256c0-.757.616-1.373 1.372-1.373.757 0 1.372.616 1.372 1.373z" fill="#3a312a"/></g></g><g><g><path d="m205.288 108.33c-5.04 0-9.125 3.876-9.125 11.125s4.085 17 9.125 17 9.125-9.751 9.125-17c0-7.248-4.086-11.125-9.125-11.125z" fill="#ed6e7a"/></g></g><g><g><path d="m205.288 106.83c-5.289 0-10.625 3.904-10.625 12.625 0 7.365 4.238 18.5 10.625 18.5s10.625-11.135 10.625-18.5c0-8.721-5.337-12.625-10.625-12.625zm0 28.125c-3.563 0-7.625-8.257-7.625-15.5 0-5.847 2.993-9.625 7.625-9.625s7.625 3.778 7.625 9.625c0 7.243-4.062 15.5-7.625 15.5z" fill="#3a312a"/></g></g><g><g><path d="m210.783 18.348h-15c5.9 0 10.88 4.04 12.3 9.51 2.79.76 4.84 3.31 4.84 6.33v76.08c1.8 2.07 2.99 5.09 2.99 9.19 0 2.23-.39 4.82-1.12 7.33h8.7v-95.72c0-7.02-5.7-12.72-12.71-12.72z" fill="#6a5c52"/></g></g><g><g><path d="m223.973 129.788h-10.22c-.77 1.86-1.72 3.57-2.83 4.94-.34.42-.69.81-1.06 1.16.68.29 1.33.64 1.93 1.05 3.15 2.12 5.23 5.72 5.23 9.8 0 .92-.11 1.81-.31 2.67l5.61 14.21h15z" fill="#6a5c52"/></g></g></g></svg>