<svg id="Layer_1" height="512" viewBox="0 0 256 256" width="512" xmlns="http://www.w3.org/2000/svg"><g><g fill="#3a312a"><path d="m218.059 52.439h-121.52c-.828 0-1.5-.672-1.5-1.5s.672-1.5 1.5-1.5h121.521c.828 0 1.5.672 1.5 1.5-.001.828-.673 1.5-1.501 1.5z"/><path d="m210.729 71.699h-106.86c-.828 0-1.5-.672-1.5-1.5s.672-1.5 1.5-1.5h106.86c.828 0 1.5.672 1.5 1.5s-.672 1.5-1.5 1.5z"/><path d="m157.628 90.969h-.66c-.828 0-1.5-.672-1.5-1.5s.672-1.5 1.5-1.5h.66c.828 0 1.5.672 1.5 1.5s-.671 1.5-1.5 1.5z"/><path d="m210.889 110.239h-107.181c-.828 0-1.5-.672-1.5-1.5s.672-1.5 1.5-1.5h107.181c.828 0 1.5.672 1.5 1.5s-.672 1.5-1.5 1.5z"/><path d="m218.059 129.499h-121.52c-.828 0-1.5-.672-1.5-1.5s.672-1.5 1.5-1.5h121.521c.828 0 1.5.672 1.5 1.5-.001.828-.673 1.5-1.501 1.5z"/><path d="m210.878 148.769h-107.16c-.828 0-1.5-.672-1.5-1.5s.672-1.5 1.5-1.5h107.16c.828 0 1.5.672 1.5 1.5s-.671 1.5-1.5 1.5z"/><path d="m157.609 168.039h-.62c-.828 0-1.5-.672-1.5-1.5s.672-1.5 1.5-1.5h.62c.828 0 1.5.672 1.5 1.5s-.672 1.5-1.5 1.5z"/><path d="m210.718 187.299h-106.84c-.828 0-1.5-.672-1.5-1.5s.672-1.5 1.5-1.5h106.84c.828 0 1.5.672 1.5 1.5s-.672 1.5-1.5 1.5z"/><path d="m218.059 206.57h-121.52c-.828 0-1.5-.672-1.5-1.5s.672-1.5 1.5-1.5h121.521c.828 0 1.5.672 1.5 1.5-.001.828-.673 1.5-1.501 1.5z"/></g><path d="m128.3 151.407-8.745-2.399c-11.811-3.24-16.02-12.976-16.02-21.006 0-8.031 4.209-17.767 16.02-21.007l79.192-21.727c15.987-4.386 26.316-17.931 26.316-34.508s-10.329-30.123-26.316-34.508c-3.721-1.02-7.578 1.17-8.603 4.898-1.022 3.729 1.171 7.58 4.9 8.603 11.811 3.241 16.02 12.977 16.02 21.007s-4.208 17.766-16.02 21.007l-79.192 21.727c-15.986 4.386-26.316 17.931-26.316 34.508s10.33 30.122 26.315 34.508l79.194 21.727c11.812 3.24 16.02 12.977 16.02 21.008-.001 8.03-4.209 17.766-16.02 21.006-3.729 1.023-5.922 4.875-4.899 8.603.854 3.109 3.672 5.15 6.747 5.15.612 0 1.236-.081 1.855-.251 15.986-4.386 26.316-17.932 26.317-34.508 0-16.577-10.329-30.123-26.316-34.51l-53.229-14.604z" fill="#ef6d7a"/><path d="m196.893 241.503c-3.814 0-7.184-2.571-8.194-6.253-1.239-4.521 1.43-9.206 5.948-10.446 10.999-3.018 14.918-12.082 14.918-19.56 0-7.479-3.919-16.544-14.917-19.562l-79.194-21.727c-16.656-4.569-27.418-18.683-27.418-35.954 0-17.272 10.763-31.386 27.42-35.955l79.192-21.726c10.997-3.018 14.916-12.083 14.916-19.561s-3.919-16.543-14.916-19.56c-4.52-1.24-7.188-5.926-5.95-10.445 1.242-4.521 5.93-7.191 10.446-5.948 16.657 4.569 27.42 18.682 27.42 35.954 0 17.273-10.763 31.385-27.42 35.954l-79.193 21.727c-10.997 3.019-14.915 12.084-14.915 19.562s3.918 16.542 14.915 19.56l8.746 2.399c.799.219 1.27 1.044 1.05 1.843s-1.045 1.271-1.843 1.05l-8.746-2.399c-12.624-3.463-17.122-13.869-17.122-22.452 0-8.584 4.498-18.99 17.122-22.454l79.193-21.727c15.316-4.202 25.213-17.18 25.213-33.061 0-15.882-9.896-28.859-25.213-33.062-2.933-.804-5.957.926-6.761 3.85-.801 2.924.927 5.956 3.851 6.759 12.625 3.463 17.123 13.869 17.123 22.453s-4.498 18.99-17.123 22.453l-79.192 21.727c-15.316 4.202-25.213 17.18-25.213 33.063 0 15.882 9.896 28.859 25.211 33.062l79.194 21.728c12.626 3.463 17.124 13.87 17.124 22.454 0 8.583-4.498 18.989-17.124 22.452-2.924.803-4.65 3.835-3.85 6.76.654 2.383 2.834 4.047 5.302 4.047.489 0 .98-.066 1.459-.197 15.316-4.202 25.213-17.18 25.213-33.062 0-15.883-9.896-28.86-25.213-33.063l-53.229-14.604c-.799-.219-1.27-1.044-1.05-1.843.219-.799 1.046-1.271 1.843-1.05l53.229 14.604c16.657 4.57 27.42 18.684 27.42 35.956 0 17.271-10.763 31.385-27.42 35.954-.737.197-1.494.3-2.252.3z" fill="#3a312a"/><path d="m183.612 103.857 11.433 3.136c11.812 3.241 16.02 12.977 16.02 21.007 0 8.031-4.209 17.766-16.02 21.006l-79.195 21.727c-15.986 4.387-26.315 17.933-26.315 34.51.001 16.577 10.33 30.122 26.316 34.508.619.17 1.242.251 1.855.251 3.074 0 5.894-2.042 6.747-5.15 1.023-3.728-1.171-7.579-4.899-8.603-11.811-3.24-16.02-12.976-16.02-21.006 0-8.031 4.208-17.768 16.021-21.008l79.193-21.727c15.986-4.386 26.316-17.932 26.316-34.508 0-16.577-10.33-30.123-26.317-34.508l-79.192-21.727c-11.811-3.241-16.02-12.977-16.02-21.007 0-8.031 4.209-17.767 16.02-21.007 3.729-1.023 5.922-4.874 4.899-8.603-1.023-3.727-4.875-5.924-8.603-4.898-15.986 4.386-26.316 17.931-26.316 34.508s10.33 30.122 26.316 34.508l50.557 13.87z" fill="#8bbfd6"/><path d="m117.707 241.503c-.759 0-1.517-.103-2.252-.305-16.656-4.569-27.419-18.682-27.419-35.954s10.762-31.386 27.418-35.956l79.195-21.727c10.997-3.018 14.916-12.082 14.916-19.56s-3.919-16.543-14.917-19.562l-11.433-3.136c-.799-.219-1.27-1.044-1.05-1.843.219-.799 1.046-1.272 1.843-1.05l11.433 3.136c12.626 3.464 17.124 13.87 17.124 22.454 0 8.583-4.498 18.989-17.123 22.452l-79.195 21.728c-15.314 4.203-25.211 17.182-25.211 33.063 0 15.882 9.896 28.859 25.213 33.062.478.131.968.197 1.458.197 2.467 0 4.647-1.664 5.301-4.048.389-1.416.202-2.898-.524-4.176-.728-1.276-1.908-2.193-3.326-2.583-12.623-3.463-17.121-13.869-17.121-22.452 0-8.584 4.498-18.991 17.124-22.454l79.192-21.728c15.316-4.202 25.213-17.18 25.213-33.062 0-15.883-9.896-28.86-25.213-33.063l-79.193-21.724c-12.626-3.463-17.124-13.869-17.124-22.453s4.498-18.99 17.124-22.453c2.924-.803 4.65-3.835 3.849-6.76-.39-1.416-1.307-2.598-2.583-3.324-1.278-.729-2.761-.913-4.176-.524-15.317 4.202-25.214 17.18-25.214 33.062s9.896 28.859 25.213 33.061l50.558 13.87c.799.219 1.27 1.044 1.05 1.843s-1.045 1.272-1.843 1.05l-50.558-13.87c-16.657-4.569-27.42-18.683-27.42-35.954s10.763-31.385 27.42-35.954c2.188-.602 4.482-.314 6.454.81 1.973 1.124 3.391 2.948 3.991 5.138 1.239 4.52-1.429 9.206-5.947 10.446-10.999 3.018-14.918 12.083-14.918 19.56 0 7.478 3.919 16.543 14.917 19.561l79.192 21.726c16.657 4.569 27.42 18.683 27.42 35.955s-10.763 31.385-27.42 35.954l-79.192 21.727c-10.998 3.018-14.917 12.083-14.917 19.562 0 7.478 3.918 16.542 14.915 19.56 2.19.601 4.015 2.019 5.139 3.991 1.124 1.974 1.412 4.266.811 6.455-1.012 3.681-4.381 6.252-8.194 6.252z" fill="#3a312a"/><path d="m61.862 25.914s3.41 12.659 13.229 13.246c0 0-13.107 4.525-13.328 14.202 0 0-2.58-13.572-12.932-14.059 0 0 12.057-1.825 13.031-13.389z" fill="#d6df58"/><path d="m61.761 54.861c-.713 0-1.335-.506-1.473-1.217-.023-.125-2.495-12.418-11.528-12.844-.771-.036-1.388-.65-1.428-1.421-.04-.77.511-1.445 1.273-1.561.441-.068 10.901-1.816 11.761-12.031.062-.726.635-1.301 1.359-1.367.736-.059 1.393.399 1.584 1.102.031.116 3.261 11.626 11.871 12.141.714.042 1.298.583 1.396 1.292.098.708-.318 1.388-.994 1.622-.121.043-12.126 4.312-12.32 12.819-.018.767-.61 1.396-1.375 1.46-.042.004-.084.005-.126.005zm-7.745-15.729c3.881 1.97 6.234 5.747 7.591 8.878 2.027-4.021 5.945-6.788 8.955-8.428-4.138-1.843-6.788-5.652-8.34-8.724-1.793 4.36-5.273 6.87-8.206 8.274z" fill="#3a312a"/><path d="m40.152 42.894s2.412 8.954 9.357 9.37c0 0-9.271 3.201-9.427 10.045 0 0-1.825-9.6-9.147-9.944 0 0 8.528-1.292 9.217-9.471z" fill="#d6df58"/><path d="m40.082 63.809c-.714 0-1.337-.507-1.473-1.22-.016-.082-1.705-8.442-7.744-8.727-.771-.036-1.388-.65-1.428-1.421-.04-.77.511-1.444 1.273-1.561.296-.047 7.368-1.242 7.947-8.113.062-.726.636-1.303 1.361-1.368.72-.061 1.392.399 1.581 1.102.023.079 2.229 7.921 7.999 8.266.714.042 1.299.584 1.397 1.293.097.709-.32 1.389-.997 1.622-.081.028-8.287 2.953-8.416 8.661-.018.767-.611 1.397-1.376 1.461-.041.003-.083.005-.124.005zm-4.523-11.528c2.109 1.333 3.525 3.395 4.45 5.28 1.377-2.232 3.517-3.872 5.368-4.973-2.289-1.27-3.887-3.352-4.944-5.226-1.174 2.289-3.016 3.878-4.874 4.919z" fill="#3a312a"/><path d="m40.152 16.237s2.412 8.954 9.357 9.37c0 0-9.271 3.201-9.427 10.045 0 0-1.825-9.6-9.147-9.944 0-.001 8.528-1.292 9.217-9.471z" fill="#d6df58"/><path d="m40.082 37.152c-.714 0-1.337-.507-1.473-1.22-.016-.082-1.705-8.442-7.744-8.727-.771-.036-1.388-.65-1.428-1.421-.04-.77.511-1.444 1.273-1.56.296-.047 7.368-1.242 7.947-8.113.062-.726.636-1.303 1.361-1.368.72-.06 1.392.399 1.581 1.102.023.079 2.229 7.92 7.999 8.266.714.043 1.299.584 1.397 1.293.097.709-.32 1.389-.997 1.622-.081.028-8.287 2.952-8.416 8.661-.018.767-.611 1.397-1.376 1.461-.041.002-.083.004-.124.004zm-4.523-11.528c2.108 1.333 3.525 3.394 4.45 5.28 1.377-2.232 3.517-3.872 5.368-4.973-2.288-1.27-3.887-3.352-4.944-5.226-1.174 2.288-3.016 3.878-4.874 4.919z" fill="#3a312a"/></g></svg>