<svg height="452pt" viewBox="0 -1 452.0261 452" width="452pt" xmlns="http://www.w3.org/2000/svg"><path d="m64.820312 22.367188c-1.949218 23.128906-26.046874 26.78125-26.046874 26.78125 20.691406.972656 25.847656 28.117187 25.847656 28.117187.441406-19.355469 26.644531-28.402344 26.644531-28.402344-19.628906-1.175781-26.445313-26.496093-26.445313-26.496093zm0 0" fill="#d7e057"/><path d="m91.445312 45.867188c-17.210937-1.03125-23.664062-24.050782-23.730468-24.285157-.378906-1.402343-1.691406-2.316406-3.164063-2.203125-1.449219.132813-2.597656 1.285156-2.71875 2.734375-1.71875 20.429688-22.625 23.929688-23.507812 24.066407-1.527344.230468-2.625 1.578124-2.546875 3.121093.082031 1.539063 1.316406 2.765625 2.855468 2.839844 18.058594.851563 23 25.4375 23.046876 25.683594.273437 1.421875 1.515624 2.433593 2.941406 2.433593.085937 0 .167968-.003906.253906-.007812 1.527344-.128906 2.714844-1.386719 2.75-2.917969.386719-17.019531 24.382812-25.554687 24.625-25.636719 1.351562-.472656 2.183594-1.828124 1.988281-3.246093-.199219-1.414063-1.367187-2.496094-2.792969-2.582031zm-27.132812 20.691406c-2.714844-6.261719-7.417969-13.816406-15.175781-17.753906 5.863281-2.808594 12.820312-7.824219 16.40625-16.542969 3.101562 6.140625 8.398437 13.757812 16.664062 17.445312-6.011719 3.277344-13.84375 8.808594-17.894531 16.851563zm0 0" fill="#3a312a"/><path d="m21.425781 56.328125c-1.378906 16.359375-18.425781 18.941406-18.425781 18.941406 14.636719.691407 18.285156 19.890625 18.285156 19.890625.3125-13.691406 18.84375-20.09375 18.84375-20.09375-13.886718-.828125-18.703125-18.738281-18.703125-18.738281zm0 0" fill="#d7e057"/><path d="m40.304688 72.074219c-11.53125-.691407-15.945313-16.371094-15.988282-16.53125-.378906-1.402344-1.710937-2.332031-3.164062-2.203125-1.449219.128906-2.597656 1.285156-2.71875 2.734375-1.15625 13.742187-15.292969 16.136719-15.882813 16.230469-1.527343.230468-2.6249998 1.578124-2.54687475 3.121093.08203125 1.539063 1.31249975 2.769531 2.85546875 2.839844 12.070313.570313 15.445313 17.289063 15.476563 17.453125.269531 1.425781 1.519531 2.441406 2.945312 2.441406.082031 0 .164062-.003906.25-.011718 1.527344-.125 2.714844-1.386719 2.75-2.921876.261719-11.417968 16.664062-17.265624 16.828125-17.324218 1.351563-.46875 2.1875-1.824219 1.992187-3.242188-.199218-1.417968-1.367187-2.5-2.796874-2.585937zm-19.167969 13.589843c-1.847657-3.769531-4.679688-7.894531-8.894531-10.558593 3.714843-2.085938 7.394531-5.261719 9.742187-9.835938 2.117187 3.75 5.3125 7.910157 9.882813 10.449219-3.699219 2.199219-7.980469 5.480469-10.730469 9.945312zm0 0" fill="#3a312a"/><path d="m21.425781 3.015625c-1.378906 16.359375-18.425781 18.941406-18.425781 18.941406 14.636719.6875 18.285156 19.886719 18.285156 19.886719.3125-13.6875 18.84375-20.089844 18.84375-20.089844-13.886718-.832031-18.703125-18.738281-18.703125-18.738281zm0 0" fill="#d7e057"/><path d="m40.304688 18.757812c-11.53125-.691406-15.941407-16.371093-15.988282-16.527343-.378906-1.40625-1.710937-2.335938-3.164062-2.2031252-1.449219.1289062-2.597656 1.2851562-2.71875 2.7343752-1.15625 13.742187-15.292969 16.132812-15.882813 16.226562-1.527343.230469-2.6249998 1.578125-2.54687475 3.121094.08203125 1.539063 1.31249975 2.765625 2.85546875 2.839844 12.070313.566406 15.445313 17.289062 15.476563 17.453125.269531 1.425781 1.519531 2.4375 2.945312 2.4375.082031 0 .164062-.003906.25-.007813 1.527344-.125 2.714844-1.386719 2.75-2.921875.261719-11.417968 16.664062-17.269531 16.828125-17.324218 1.351563-.46875 2.1875-1.828126 1.992187-3.246094-.199218-1.414063-1.367187-2.496094-2.796874-2.582032zm-19.167969 13.589844c-1.847657-3.769531-4.679688-7.894531-8.894531-10.558594 3.714843-2.082031 7.394531-5.257812 9.742187-9.832031 2.113281 3.746094 5.308594 7.910157 9.882813 10.445313-3.699219 2.199218-7.980469 5.480468-10.730469 9.945312zm0 0" fill="#3a312a"/><path d="m3.027344 170.324219v277.285156l111.515625-53.449219v-277.285156zm0 0" fill="#fce8cb" fill-rule="evenodd"/><path d="m116.144531 114.335938c-.871093-.546876-1.96875-.609376-2.894531-.164063l-111.523438 53.449219c-1.039062.5-1.7031245 1.550781-1.7031245 2.707031v125.964844c0 1.660156 1.3437505 3 3.0000005 3 1.660156 0 3-1.339844 3-3v-124.078125l105.519531-50.574219v270.628906l-105.519531 50.574219v-115.960938c0-1.660156-1.339844-3-3-3-1.65625 0-3.0000005 1.339844-3.0000005 3v120.726563c0 1.03125.5312505 1.988281 1.4023435 2.539063.484375.308593 1.042969.460937 1.597657.460937.441406 0 .886718-.097656 1.296874-.292969l111.519532-53.449218c1.042968-.5 1.703125-1.550782 1.703125-2.707032v-277.285156c.003906-1.03125-.527344-1.988281-1.398438-2.539062zm0 0" fill="#3a312a"/><path d="m114.542969 116.875v277.285156l111.519531 53.449219v-277.285156zm0 0" fill="#fce8cb" fill-rule="evenodd"/><path d="m227.359375 167.621094-111.515625-53.449219c-.933594-.445313-2.023438-.382813-2.898438.164063-.871093.550781-1.402343 1.507812-1.402343 2.542968v277.28125c0 1.15625.664062 2.207032 1.707031 2.707032l111.515625 53.449218c.414063.199219.855469.296875 1.296875.296875.554688 0 1.113281-.15625 1.597656-.460937.871094-.550782 1.402344-1.507813 1.402344-2.539063v-277.289062c0-1.152344-.664062-2.203125-1.703125-2.703125zm-4.296875 275.222656-105.515625-50.574219v-270.628906l105.515625 50.574219zm0 0" fill="#3a312a"/><path d="m225.988281 170.324219v277.285156l111.519531-53.449219v-277.285156zm0 0" fill="#fce8cb" fill-rule="evenodd"/><path d="m339.105469 114.335938c-.875-.546876-1.964844-.609376-2.894531-.164063l-111.519532 53.449219c-1.042968.5-1.703125 1.550781-1.703125 2.707031v277.285156c0 1.03125.53125 1.988281 1.402344 2.539063.484375.304687 1.042969.460937 1.597656.460937.441407 0 .886719-.101562 1.296875-.296875l111.515625-53.449218c1.042969-.5 1.707031-1.550782 1.707031-2.707032v-277.285156c0-1.03125-.53125-1.988281-1.402343-2.539062zm-4.597657 277.933593-105.523437 50.574219v-270.628906l105.523437-50.574219zm0 0" fill="#3a312a"/><path d="m337.507812 116.875v277.285156l111.519532 53.449219v-277.285156zm0 0" fill="#fce8cb" fill-rule="evenodd"/><path d="m450.320312 167.621094-111.519531-53.453125c-.929687-.445313-2.019531-.378907-2.894531.167969-.871094.550781-1.398438 1.507812-1.398438 2.539062v277.285156c0 1.152344.660157 2.207032 1.703126 2.707032l111.519531 53.449218c.410156.195313.855469.292969 1.296875.292969.554687 0 1.109375-.15625 1.597656-.460937.875-.550782 1.402344-1.507813 1.402344-2.539063v-277.285156c0-1.152344-.664063-2.203125-1.707032-2.703125zm-4.292968 275.222656-105.519532-50.574219v-270.628906l105.519532 50.574219zm0 0" fill="#3a312a"/><path d="m226.027344 4.453125c-62.089844 0-112.425782 50.332031-112.425782 112.421875 0 26.0625 19.8125 68.085938 42.800782 108.082031l15.601562 26.144531c16.050782 26.011719 31.863282 49.242188 42.195313 63.988282 5.753906 8.214844 17.90625 8.214844 23.65625 0 28.871093-41.222656 100.59375-148.621094 100.59375-198.214844 0-62.089844-50.332031-112.421875-112.421875-112.421875zm0 0" fill="#f16c7a" fill-rule="evenodd"/><path d="m226.027344 1.453125c-63.644532 0-115.425782 51.777344-115.425782 115.421875 0 22.835938 14.535157 59.703125 43.199219 109.578125.824219 1.433594 2.65625 1.933594 4.09375 1.105469s1.933594-2.660156 1.109375-4.097656c-28.136718-48.953126-42.402344-84.8125-42.402344-106.585938 0-60.335938 49.089844-109.421875 109.425782-109.421875 60.335937 0 109.421875 49.085937 109.421875 109.421875 0 48.417969-69.96875 153.542969-100.050781 196.496094-2.171876 3.101562-5.589844 4.882812-9.371094 4.882812-3.785156 0-7.203125-1.78125-9.375-4.882812-10.351563-14.78125-26.054688-37.855469-42.097656-63.839844-.871094-1.410156-2.714844-1.851562-4.125-.980469-1.410157.871094-1.847657 2.71875-.980469 4.128907 16.113281 26.113281 31.894531 49.289062 42.289062 64.132812 3.265625 4.660156 8.605469 7.441406 14.289063 7.441406 5.679687 0 11.019531-2.78125 14.28125-7.441406 30.410156-43.414062 101.140625-149.8125 101.140625-199.933594 0-63.648437-51.777344-115.425781-115.421875-115.425781zm0 0" fill="#3a312a"/><path d="m285.496094 98.867188c-9.945313-32.839844-44.628906-51.402344-77.472656-41.460938-32.839844 9.945312-51.402344 44.628906-41.457032 77.472656 9.941406 32.839844 44.628906 51.402344 77.46875 41.457032 32.84375-9.941407 51.402344-44.628907 41.460938-77.46875zm0 0" fill="#d7e057" fill-rule="evenodd"/><path d="m226.027344 51.746094c-35.914063 0-65.128906 29.21875-65.128906 65.128906 0 35.914062 29.214843 65.128906 65.128906 65.128906 35.910156 0 65.128906-29.214844 65.128906-65.128906-.003906-35.910156-29.21875-65.128906-65.128906-65.128906zm0 124.257812c-32.605469 0-59.128906-26.523437-59.128906-59.125 0-32.605468 26.527343-59.128906 59.128906-59.128906 32.601562 0 59.128906 26.527344 59.128906 59.128906-.003906 32.601563-26.527344 59.125-59.128906 59.125zm0 0" fill="#3a312a"/><path d="m226.027344 7.460938c-3.480469 0-6.921875.160156-10.320313.480468 55.5 5.238282 99.078125 52.078125 99.078125 108.9375 0 47.902344-68.519531 151.320313-99.097656 195.121094.320312.480469.636719.941406.957031 1.378906 2.179688 3.101563 5.601563 4.878906 9.382813 4.878906 3.777344 0 7.199218-1.777343 9.378906-4.878906 30.078125-42.960937 100.039062-148.078125 100.039062-196.5 0-60.339844-49.078124-109.417968-109.417968-109.417968zm0 0" fill="#ce4e61"/><path d="m226.027344 57.738281c-3.519532 0-6.960938.300781-10.320313.921875 27.679688 4.898438 48.777344 29.140625 48.777344 58.21875 0 29.082032-21.097656 53.320313-48.777344 58.199219 3.359375.621094 6.800781.921875 10.320313.921875 32.597656 0 59.117187-26.519531 59.117187-59.121094 0-32.597656-26.519531-59.140625-59.117187-59.140625zm0 0" fill="#b9bc39"/></svg>