<svg id="Layer_1" enable-background="new 0 0 256 256" height="512" viewBox="0 0 256 256" width="512" xmlns="http://www.w3.org/2000/svg"><path d="m195.117 119.67h-2.701c-1.583-6.921-4.343-13.394-8.06-19.196l1.988-1.987c2.29-2.29 2.29-6.003 0-8.293l-10.558-10.558c-2.29-2.29-6.003-2.29-8.293 0l-2.062 2.062c-5.79-3.647-12.235-6.347-19.121-7.882v-2.954c0-3.238-2.625-5.864-5.864-5.864h-14.931c-3.239 0-5.864 2.626-5.864 5.864v2.954c-3.649.983-13.331 4.235-19.121 7.882l-2.062-2.062c-2.29-2.29-6.003-2.29-8.293 0l-10.559 10.559c-2.29 2.29-2.29 6.003 0 8.293l1.988 1.987c-3.717 5.802-6.477 12.274-8.061 19.196h-2.701c-3.239 0-5.864 2.625-5.864 5.864v14.931c0 3.239 2.625 5.864 5.864 5.864h2.561c1.523 7.007 4.249 13.563 7.953 19.443l-1.739 1.739c-2.29 2.29-2.29 6.003 0 8.293l10.558 10.558c2.29 2.29 6.003 2.29 8.293 0l1.664-1.664c5.891 3.774 12.476 6.56 19.518 8.13v2.308c0 3.238 2.625 5.864 5.864 5.864h14.931c3.238 0 5.864-2.625 5.864-5.864v-2.308c7.043-1.571 13.627-4.356 19.518-8.13l1.665 1.664c2.29 2.29 6.003 2.29 8.293 0l10.558-10.558c2.29-2.29 2.29-6.003 0-8.293l-1.739-1.739c3.704-5.88 6.43-12.437 7.953-19.443h2.561c3.239 0 5.864-2.625 5.864-5.864v-14.931c-.001-3.239-2.626-5.865-5.865-5.865zm-62.137 43.816c-16.837 0-30.486-13.649-30.486-30.486s13.649-30.486 30.486-30.486 30.486 13.649 30.486 30.486-13.649 30.486-30.486 30.486z" fill="#ef6d7a"/><path d="m140.445 202.501h-14.931c-4.061 0-7.364-3.303-7.364-7.364v-1.118c-6.297-1.532-12.276-4.022-17.803-7.415l-.819.819c-1.391 1.391-3.24 2.157-5.207 2.157s-3.816-.766-5.207-2.157l-10.558-10.558c-2.871-2.872-2.871-7.543 0-10.414l.9-.901c-3.329-5.515-5.763-11.466-7.25-17.722h-1.364c-4.06 0-7.364-3.303-7.364-7.364v-14.932c0-4.061 3.303-7.364 7.364-7.364h1.518c1.538-6.176 4.002-12.046 7.338-17.48l-1.142-1.142c-1.391-1.391-2.157-3.241-2.157-5.207 0-1.967.766-3.816 2.157-5.207l10.558-10.558c1.391-1.391 3.24-2.157 5.207-2.157s3.816.766 5.207 2.157l1.231 1.231c5.394-3.133 13.283-5.914 17.391-7.126v-1.82c0-4.06 3.304-7.364 7.364-7.364h14.931c4.061 0 7.364 3.303 7.364 7.364v1.764c6.138 1.494 11.98 3.902 17.399 7.173l1.224-1.223c2.871-2.871 7.543-2.871 10.414 0l10.558 10.558c2.872 2.871 2.872 7.543 0 10.414l-1.143 1.142c3.336 5.434 5.801 11.304 7.338 17.48h1.518c4.061 0 7.364 3.303 7.364 7.364v14.932c0 4.061-3.304 7.364-7.364 7.364h-1.364c-1.487 6.256-3.921 12.207-7.25 17.722l.9.901c2.871 2.871 2.871 7.542 0 10.414l-10.558 10.558c-1.391 1.391-3.24 2.157-5.207 2.157s-3.816-.766-5.207-2.157l-.819-.819c-5.527 3.393-11.505 5.883-17.803 7.415v1.118c0 4.062-3.303 7.365-7.364 7.365zm-40.313-19.302c.279 0 .56.078.809.237 5.853 3.75 12.257 6.417 19.036 7.93.686.153 1.173.761 1.173 1.464v2.308c0 2.406 1.958 4.364 4.364 4.364h14.931c2.406 0 4.364-1.958 4.364-4.364v-2.308c0-.703.488-1.311 1.173-1.464 6.779-1.512 13.184-4.18 19.036-7.93.592-.38 1.371-.296 1.87.202l1.665 1.664c.825.825 1.92 1.279 3.086 1.279 1.165 0 2.261-.454 3.086-1.278l10.558-10.558c1.701-1.702 1.701-4.47 0-6.172l-1.739-1.739c-.496-.495-.582-1.268-.208-1.86 3.682-5.846 6.291-12.226 7.756-18.963.15-.69.76-1.182 1.466-1.182h2.561c2.406 0 4.364-1.958 4.364-4.364v-14.932c0-2.406-1.958-4.364-4.364-4.364h-2.701c-.7 0-1.306-.483-1.462-1.166-1.523-6.658-4.168-12.957-7.861-18.721-.38-.593-.296-1.372.203-1.87l1.988-1.987c1.702-1.701 1.702-4.47 0-6.171l-10.558-10.558c-1.702-1.701-4.47-1.701-6.172 0l-2.062 2.062c-.495.495-1.268.582-1.86.208-5.753-3.624-12.027-6.211-18.648-7.688-.686-.153-1.173-.761-1.173-1.464v-2.954c0-2.406-1.958-4.364-4.364-4.364h-14.931c-2.406 0-4.364 1.958-4.364 4.364v2.954c0 .678-.455 1.272-1.11 1.448-3.694.995-13.127 4.186-18.711 7.703-.592.374-1.364.287-1.86-.208l-2.062-2.062c-1.702-1.701-4.47-1.701-6.172 0l-10.562 10.56c-1.701 1.702-1.701 4.47 0 6.172l1.988 1.986c.499.499.583 1.277.203 1.87-3.693 5.764-6.338 12.063-7.861 18.721-.156.682-.763 1.166-1.462 1.166h-2.702c-2.406 0-4.364 1.957-4.364 4.364v14.932c0 2.406 1.957 4.364 4.364 4.364h2.561c.706 0 1.316.492 1.466 1.182 1.464 6.737 4.074 13.117 7.756 18.963.374.592.287 1.365-.208 1.86l-1.739 1.739c-1.701 1.702-1.701 4.47 0 6.172l10.558 10.558c.824.824 1.92 1.278 3.086 1.278 1.165 0 2.261-.454 3.086-1.278l1.665-1.665c.287-.29.671-.44 1.058-.44zm32.847-18.213c-17.637 0-31.986-14.349-31.986-31.986s14.349-31.986 31.986-31.986 31.986 14.349 31.986 31.986-14.348 31.986-31.986 31.986zm0-60.972c-15.983 0-28.986 13.003-28.986 28.986s13.003 28.986 28.986 28.986 28.986-13.003 28.986-28.986-13.003-28.986-28.986-28.986z" fill="#3a312a"/><path d="m183.503 119.989h7.447c-1.522-6.646-4.163-12.935-7.849-18.692-.384-.599-.309-1.38.194-1.883l1.865-1.865c.717-.717 1.238-1.633 1.364-2.638.173-1.373-.285-2.698-1.243-3.655l-10.437-10.437c-.717-.717-1.633-1.238-2.638-1.364-1.373-.173-2.697.285-3.655 1.243l-2.062 2.062c-.5.5-1.275.577-1.874.2-5.654-3.56-11.813-6.112-18.307-7.599v7.223c0 1.286.816 2.443 2.04 2.838 15.347 4.954 27.448 17.122 32.309 32.509.391 1.232 1.552 2.058 2.846 2.058z" fill="#d34e5c"/><path d="m183.543 166.834c-.5-.5-.577-1.275-.2-1.873 3.543-5.628 6.08-11.753 7.57-18.211h-7.681c-1.277 0-2.427.805-2.83 2.017-5.002 15.051-16.943 26.931-32.05 31.81-1.225.396-2.042 1.551-2.042 2.838v7.869c6.652-1.524 12.941-4.156 18.695-7.841.599-.384 1.38-.309 1.883.194l1.545 1.544c.717.716 1.633 1.237 2.639 1.363 1.373.172 2.696-.286 3.652-1.243l10.437-10.436c.717-.717 1.238-1.634 1.364-2.64.172-1.373-.286-2.696-1.243-3.654z" fill="#d34e5c"/><path d="m47.946 26.248s3.408 12.659 13.222 13.246c0 0-13.1 4.525-13.321 14.202 0 0-2.579-13.572-12.925-14.059 0 .001 12.05-1.825 13.024-13.389z" fill="#d6df58"/><path d="m47.846 55.196c-.713 0-1.336-.506-1.472-1.217-.024-.124-2.495-12.417-11.522-12.842-.771-.037-1.388-.651-1.428-1.421-.04-.771.511-1.445 1.273-1.561.441-.069 10.894-1.817 11.754-12.033.061-.725.634-1.301 1.359-1.367.733-.059 1.393.399 1.584 1.101.032.116 3.259 11.626 11.864 12.141.714.043 1.297.584 1.396 1.292.098.708-.319 1.388-.994 1.623-.121.042-12.119 4.311-12.313 12.819-.018.767-.61 1.396-1.375 1.459-.042.004-.084.006-.126.006zm-7.741-15.73c3.878 1.969 6.23 5.746 7.587 8.876 2.027-4.021 5.941-6.787 8.949-8.427-4.134-1.842-6.783-5.651-8.334-8.722-1.793 4.36-5.271 6.869-8.202 8.273z" fill="#3a312a"/><path d="m26.248 43.229s2.411 8.954 9.352 9.369c0 0-9.266 3.201-9.422 10.045 0 0-1.824-9.6-9.142-9.944-.001 0 8.523-1.291 9.212-9.47z" fill="#d6df58"/><path d="m26.176 64.144c-.713 0-1.337-.507-1.472-1.22-.016-.082-1.704-8.442-7.739-8.726-.771-.037-1.388-.651-1.428-1.421-.04-.771.511-1.445 1.273-1.561.296-.047 7.364-1.243 7.942-8.114.061-.726.635-1.303 1.36-1.368.731-.062 1.392.399 1.582 1.101.021.079 2.228 7.92 7.994 8.265.714.043 1.299.584 1.396 1.293.098.709-.32 1.388-.996 1.622-.081.028-8.282 2.952-8.413 8.662-.018.767-.611 1.398-1.376 1.461-.04.004-.082.006-.123.006zm-4.519-11.528c2.107 1.333 3.524 3.395 4.447 5.28 1.376-2.232 3.515-3.872 5.365-4.972-2.287-1.27-3.884-3.35-4.941-5.224-1.174 2.286-3.015 3.875-4.871 4.916z" fill="#3a312a"/><path d="m26.21 16.571s2.446 8.945 9.388 9.333c0 0-9.253 3.237-9.383 10.082 0 0-1.862-9.593-9.181-9.908 0 0 8.519-1.325 9.176-9.507z" fill="#d6df58"/><path d="m26.214 37.487c-.711 0-1.333-.504-1.471-1.214-.016-.082-1.737-8.435-7.773-8.696-.771-.033-1.391-.645-1.433-1.415-.043-.77.505-1.447 1.267-1.566.295-.048 7.359-1.271 7.911-8.144.058-.726.63-1.306 1.355-1.374.722-.069 1.393.394 1.586 1.096.022.079 2.258 7.911 8.025 8.233.715.04 1.302.579 1.402 1.288s-.314 1.39-.99 1.626c-.081.028-8.27 2.985-8.378 8.695-.014.767-.605 1.4-1.37 1.466-.044.003-.088.005-.131.005zm-4.558-11.51c2.112 1.325 3.536 3.381 4.468 5.263 1.367-2.238 3.5-3.886 5.345-4.994-2.292-1.26-3.897-3.335-4.961-5.205-1.165 2.292-3 3.887-4.852 4.936z" fill="#3a312a"/><path d="m62.318 191.296c-12.896-15.748-20.646-35.865-20.646-57.76 0-50.347 40.96-91.307 91.307-91.307 14.317 0 28.115 3.272 40.647 9.529l-3.582.846c-3.949.933-6.394 4.89-5.461 8.839.841 3.56 4.14 5.898 7.674 5.64.386-.028.776-.087 1.164-.178l20.985-4.957c1.896-.448 3.537-1.631 4.561-3.289s1.348-3.654.9-5.55l-4.957-20.986c-.932-3.948-4.891-6.389-8.839-5.461-3.949.933-6.394 4.89-5.461 8.838l.889 3.765c-14.902-7.706-31.396-11.729-48.522-11.729-58.448 0-106 47.552-106 106 0 58.449 47.552 106 106 106s106-47.551 106-106c0-20.041-5.627-39.559-16.271-56.443-2.164-3.433-6.701-4.461-10.133-2.296-3.432 2.164-4.46 6.701-2.296 10.133 9.164 14.535 14.007 31.343 14.007 48.607 0 50.347-40.96 91.307-91.307 91.307-23.707 0-45.33-9.083-61.578-23.95z" fill="#8ac6dd"/><path d="m132.979 241.036c-59.276 0-107.5-48.224-107.5-107.5s48.224-107.5 107.5-107.5c16.298 0 31.868 3.518 46.327 10.459l-.154-.65c-.543-2.299-.158-4.673 1.084-6.683s3.193-3.416 5.493-3.959c4.752-1.114 9.522 1.834 10.643 6.576l4.958 20.985c.543 2.3.158 4.673-1.085 6.684s-3.193 3.417-5.493 3.96l-20.985 4.957c-.461.108-.932.181-1.399.215-4.345.312-8.24-2.539-9.245-6.791-1.075-4.554 1.596-9.132 6.005-10.489-11.367-5.025-23.506-7.57-36.149-7.57-49.519 0-89.807 40.287-89.807 89.807 0 20.645 7.211 40.82 20.306 56.81.525.641.431 1.586-.21 2.111-.642.524-1.586.43-2.111-.21-13.532-16.524-20.985-37.374-20.985-58.71 0-51.174 41.633-92.807 92.807-92.807 14.543 0 28.443 3.259 41.317 9.687.565.282.893.888.82 1.515s-.53 1.142-1.145 1.287l-3.582.846c-3.137.741-5.087 3.897-4.346 7.034.664 2.811 3.237 4.704 6.106 4.489.31-.022.623-.071.93-.143l20.984-4.957c1.519-.358 2.808-1.288 3.63-2.617.821-1.329 1.075-2.897.716-4.417l-4.958-20.985c-.74-3.134-3.897-5.08-7.035-4.346-1.519.359-2.808 1.288-3.629 2.617-.821 1.328-1.075 2.897-.716 4.417l.889 3.766c.135.57-.075 1.167-.537 1.527s-1.091.419-1.612.15c-14.835-7.672-30.929-11.562-47.833-11.562-57.622 0-104.5 46.879-104.5 104.5 0 57.622 46.878 104.5 104.5 104.5s104.5-46.878 104.5-104.5c0-19.758-5.546-38.999-16.04-55.644-.833-1.321-2.13-2.239-3.654-2.584-1.522-.347-3.089-.077-4.41.756-2.728 1.72-3.547 5.337-1.828 8.064 9.315 14.775 14.238 31.859 14.238 49.407 0 51.174-41.633 92.807-92.807 92.807-23.206 0-45.434-8.646-62.591-24.344-.611-.559-.653-1.508-.094-2.119s1.508-.653 2.119-.094c16.602 15.191 38.111 23.557 60.565 23.557 49.52 0 89.807-40.287 89.807-89.807 0-16.98-4.764-33.512-13.776-47.807-1.26-1.998-1.666-4.369-1.144-6.673.522-2.305 1.911-4.268 3.91-5.528 1.997-1.26 4.366-1.668 6.673-1.145 2.305.522 4.268 1.912 5.528 3.911 10.795 17.124 16.502 36.918 16.502 57.243.003 59.272-48.221 107.497-107.497 107.497z" fill="#3a312a"/></svg>