<svg id="Layer_1" enable-background="new 0 0 256 256" height="512" viewBox="0 0 256 256" width="512" xmlns="http://www.w3.org/2000/svg"><path d="m176.757 36.883c-.109-11.327-9.318-20.453-20.645-20.459l-118.883-.062c-11.413-.006-20.668 9.245-20.668 20.657v158.966c0 11.409 9.248 20.657 20.657 20.657h119.186c11.408 0 20.657-9.249 20.657-20.657v-127.498z" fill="#f16c7a"/><path d="m178.257 36.869c-.116-12.094-10.05-21.938-22.143-21.945l-118.885-.062h-.012c-5.916 0-11.479 2.303-15.663 6.486-4.188 4.186-6.494 9.751-6.494 15.671v38.958c0 .829.671 1.5 1.5 1.5s1.5-.671 1.5-1.5v-38.957c0-5.119 1.994-9.931 5.614-13.55 3.619-3.616 8.427-5.607 13.542-5.607h.01l118.884.062c10.457.005 19.046 8.517 19.146 18.974l.304 31.589v127.498c0 10.563-8.594 19.157-19.156 19.157h-119.186c-10.563 0-19.157-8.594-19.157-19.157v-106.76c0-.829-.671-1.5-1.5-1.5s-1.5.671-1.5 1.5v106.759c0 12.218 9.94 22.157 22.157 22.157h119.187c12.217 0 22.156-9.939 22.156-22.157v-127.512z" fill="#3a312a"/><path d="m147.925 39.352h-87.51c-11.525 0-20.854 9.328-20.854 20.854v158.583c0 11.526 9.328 20.854 20.854 20.854h118.792c11.526 0 20.854-9.329 20.854-20.854v-127.302z" fill="#f7e3c7"/><path d="m201.121 90.427-52.135-52.135c-.281-.281-.663-.439-1.06-.439h-87.511c-12.326 0-22.354 10.028-22.354 22.354v158.583c0 12.326 10.028 22.354 22.354 22.354h55.774c.829 0 1.5-.672 1.5-1.5s-.671-1.5-1.5-1.5h-55.774c-10.672 0-19.354-8.682-19.354-19.354v-158.584c0-10.672 8.682-19.354 19.354-19.354h86.89l51.256 51.256v126.681c0 10.672-8.682 19.354-19.354 19.354h-50.275c-.829 0-1.5.672-1.5 1.5s.671 1.5 1.5 1.5h50.275c12.326 0 22.354-10.027 22.354-22.354v-127.302c-.001-.398-.159-.779-.44-1.06z" fill="#3a312a"/><path d="m148.033 39.459v33.797c0 10.14 8.22 18.36 18.36 18.36h33.668v-.129z" fill="#f7e3c7"/><path d="m201.121 90.427-52.027-52.028c-.43-.429-1.074-.557-1.635-.325s-.926.779-.926 1.386v33.797c0 10.951 8.909 19.86 19.86 19.86h33.667c.828 0 1.5-.671 1.5-1.5v-.129c0-.399-.158-.78-.439-1.061zm-34.727-.31c-9.297 0-16.86-7.563-16.86-16.86v-30.176l47.035 47.036z" fill="#3a312a"/><path d="m175.261 36.895c-.1-10.45-8.69-18.96-19.15-18.97h-15c10.46.01 19.05 8.52 19.15 18.97l.12 12.79 15.14 15.15z" fill="#d34e5c"/><path d="m226.339 26.134c-.974 11.564-13.024 13.389-13.024 13.389 10.347.487 12.925 14.059 12.925 14.059.221-9.677 13.321-14.202 13.321-14.202-9.814-.587-13.222-13.246-13.222-13.246z" fill="#d7e057"/><path d="m239.65 37.882c-8.604-.514-11.832-12.024-11.863-12.14-.19-.702-.849-1.164-1.584-1.102-.725.066-1.298.642-1.359 1.367-.859 10.215-11.312 11.963-11.754 12.032-.763.115-1.313.79-1.273 1.561.04.77.657 1.384 1.428 1.421 9.027.425 11.498 12.719 11.521 12.843.138.711.76 1.217 1.473 1.217.042 0 .084-.001.126-.005.764-.064 1.357-.693 1.375-1.459.194-8.509 12.191-12.777 12.313-12.819.676-.235 1.092-.915.994-1.623-.1-.709-.683-1.25-1.397-1.293zm-13.566 10.347c-1.357-3.13-3.709-6.907-7.587-8.876 2.931-1.405 6.409-3.913 8.202-8.273 1.551 3.071 4.2 6.88 8.334 8.722-3.007 1.639-6.923 4.406-8.949 8.427z" fill="#3a312a"/><path d="m204.64 43.114c-.689 8.179-9.212 9.47-9.212 9.47 7.318.344 9.142 9.944 9.142 9.944.156-6.844 9.422-10.045 9.422-10.045-6.941-.415-9.352-9.369-9.352-9.369z" fill="#d7e057"/><path d="m214.082 50.986c-5.767-.345-7.972-8.185-7.993-8.264-.19-.702-.866-1.158-1.582-1.102-.725.065-1.3.642-1.361 1.368-.579 6.871-7.646 8.066-7.942 8.113-.763.115-1.313.79-1.273 1.561.04.77.657 1.384 1.428 1.421 6.035.284 7.724 8.644 7.739 8.726.136.712.759 1.22 1.473 1.22.041 0 .083-.001.125-.005.765-.063 1.358-.694 1.376-1.461.13-5.709 8.331-8.634 8.412-8.662.676-.234 1.093-.913.996-1.622-.099-.709-.684-1.25-1.398-1.293zm-9.585 6.795c-.924-1.886-2.34-3.947-4.447-5.28 1.855-1.042 3.697-2.63 4.871-4.917 1.057 1.874 2.654 3.955 4.941 5.224-1.85 1.102-3.989 2.741-5.365 4.973z" fill="#3a312a"/><path d="m204.64 16.457c-.689 8.179-9.212 9.471-9.212 9.471 7.318.344 9.142 9.944 9.142 9.944.156-6.845 9.422-10.045 9.422-10.045-6.941-.416-9.352-9.37-9.352-9.37z" fill="#d7e057"/><path d="m214.082 24.329c-5.767-.345-7.972-8.186-7.993-8.265-.19-.702-.866-1.165-1.582-1.102-.725.065-1.3.642-1.361 1.368-.579 6.871-7.646 8.067-7.942 8.114-.763.115-1.313.79-1.273 1.561.04.77.657 1.384 1.428 1.421 6.035.284 7.724 8.644 7.739 8.726.136.713.759 1.22 1.473 1.22.041 0 .083-.001.125-.005.765-.063 1.358-.694 1.376-1.461.13-5.709 8.331-8.634 8.412-8.662.676-.234 1.093-.913.996-1.622-.099-.709-.684-1.25-1.398-1.293zm-9.585 6.795c-.924-1.885-2.34-3.947-4.447-5.28 1.855-1.041 3.697-2.63 4.871-4.917 1.057 1.874 2.654 3.955 4.941 5.224-1.849 1.101-3.989 2.74-5.365 4.973z" fill="#3a312a"/><path d="m87.418 132.833-.01.02-13.37-23.08c-3.46 6.91-5.41 14.72-5.41 22.98 0 10.49 3.14 20.24 8.53 28.37l26.6-.01z" fill="#d6df58"/><path d="m105.057 160.362-16.34-28.279c-.039-.068-.083-.132-.132-.191l-13.249-22.871c-.276-.477-.78-.762-1.343-.748-.551.017-1.049.335-1.296.828-3.695 7.38-5.569 15.337-5.569 23.652 0 10.438 3.036 20.534 8.78 29.199.278.419.747.671 1.25.671l26.6-.011c.536 0 1.031-.286 1.299-.751.268-.464.268-1.035 0-1.499zm-27.086-.739c-5.134-8.02-7.843-17.293-7.843-26.87 0-6.888 1.362-13.515 4.054-19.74l11.929 20.592c.038.066.082.13.13.188l14.919 25.82z" fill="#3a312a"/><path d="m77.158 161.123c9.21 13.94 25.02 23.13 42.97 23.13 1.01 0 2.02-.03 3.02-.09l13.35-23.04z" fill="#d6df58"/><path d="m137.798 160.374c-.268-.465-.764-.751-1.3-.751h-59.34c-.552 0-1.06.304-1.321.789-.262.486-.235 1.077.069 1.538 9.848 14.904 26.379 23.803 44.221 23.803 1.033 0 2.08-.031 3.11-.093.502-.029.956-.31 1.208-.745l13.35-23.04c.269-.464.27-1.036.003-1.501zm-15.539 22.333c-16.655.709-32.374-6.864-42.216-20.084h53.853z" fill="#3a312a"/><path d="m152.868 132.853-29.72 51.31c18.81-1.09 34.91-12.27 42.96-28.22z" fill="#d6df58"/><path d="m167.409 155.196-13.24-23.09c-.267-.465-.761-.753-1.298-.754h-.003c-.535 0-1.029.285-1.298.748l-29.72 51.311c-.277.478-.269 1.068.021 1.538.274.445.758.714 1.277.714.029 0 .058-.001.088-.003 18.779-1.089 35.721-12.217 44.212-29.042.227-.45.212-.984-.039-1.422zm-41.517 27.224 26.97-46.563 11.54 20.125c-7.684 14.631-22.2 24.547-38.51 26.438z" fill="#3a312a"/><path d="m163.178 104.503h-26.57l29.5 51.44c3.53-6.97 5.52-14.85 5.52-23.19 0-10.43-3.11-20.14-8.45-28.25z" fill="#d6df58"/><path d="m164.431 103.677c-.277-.421-.748-.675-1.253-.675h-26.569c-.535 0-1.029.285-1.298.748-.268.463-.269 1.034-.003 1.498l29.5 51.44c.268.467.765.754 1.301.754.013 0 .026 0 .039-.001.551-.014 1.05-.329 1.299-.821 3.771-7.445 5.682-15.475 5.682-23.867-.001-10.381-3.009-20.435-8.698-29.076zm1.548 49.025-26.781-46.7h23.163c5.084 7.996 7.767 17.227 7.767 26.75 0 6.964-1.395 13.661-4.149 19.95z" fill="#3a312a"/><path d="m120.128 81.253c-1.07 0-2.13.03-3.18.1l-13.28 23.15h59.51c-9.2-14.01-25.04-23.25-43.05-23.25z" fill="#d6df58"/><path d="m164.432 103.679c-9.838-14.982-26.399-23.927-44.304-23.927-1.161 0-2.233.034-3.279.104-.501.033-.952.315-1.202.75l-13.28 23.15c-.266.464-.265 1.035.003 1.499.268.463.763.748 1.298.748h59.51c.552 0 1.059-.302 1.32-.788.262-.486.236-1.075-.066-1.536zm-58.174-.677 11.587-20.199c.731-.034 1.484-.051 2.283-.051 15.942 0 30.759 7.52 40.176 20.25z" fill="#3a312a"/><path d="m74.038 109.773 13.37 23.08 29.54-51.5c-18.82 1.14-34.92 12.4-42.91 28.42z" fill="#d6df58"/><path d="m118.223 80.562c-.291-.469-.819-.743-1.365-.707-18.81 1.139-35.732 12.346-44.162 29.248-.225.451-.208.985.044 1.421l13.37 23.08c.268.463.763.748 1.298.748h.003c.536-.001 1.031-.288 1.298-.754l29.54-51.5c.275-.477.265-1.068-.026-1.536zm-30.821 49.287-11.657-20.123c7.632-14.704 22.134-24.689 38.471-26.624z" fill="#3a312a"/><path d="m136.503 104.39h-32.75l-16.375 28.363 16.375 28.362h32.75l16.375-28.362z" fill="#ef6d7a"/><path d="m154.177 132.003-16.375-28.363c-.268-.464-.763-.75-1.299-.75h-32.75c-.536 0-1.031.286-1.299.75l-16.375 28.363c-.268.464-.268 1.036 0 1.5l16.375 28.362c.268.464.763.75 1.299.75h32.75c.536 0 1.031-.286 1.299-.75l16.375-28.362c.268-.464.268-1.036 0-1.5zm-18.54 27.612h-31.018l-15.509-26.862 15.509-26.863h31.018l15.509 26.863z" fill="#3a312a"/><path d="m230.889 171.503h-110.988c-4.974 0-9.006 4.032-9.006 9.006v35.988c0 4.974 4.032 9.006 9.006 9.006h110.988c4.974 0 9.006-4.032 9.006-9.006v-35.988c0-4.974-4.032-9.006-9.006-9.006z" fill="#8ac6dd"/><path d="m230.889 170.003h-110.988c-5.793 0-10.506 4.713-10.506 10.506v35.988c0 5.793 4.713 10.506 10.506 10.506h110.988c5.793 0 10.506-4.713 10.506-10.506v-35.988c-.001-5.793-4.713-10.506-10.506-10.506zm7.505 46.494c0 4.139-3.367 7.506-7.506 7.506h-110.987c-4.139 0-7.506-3.367-7.506-7.506v-35.988c0-4.139 3.367-7.506 7.506-7.506h110.988c4.139 0 7.506 3.367 7.506 7.506v35.988z" fill="#3a312a"/><path d="m147.672 205.118c-.216-.43-.642-1.043-1.28-1.836-.638-.795-1.125-1.313-1.461-1.555-.497-.363-1.29-.727-2.378-1.09 1.358-.309 2.428-.699 3.208-1.17 1.224-.738 2.187-1.703 2.886-2.894.699-1.189 1.049-2.604 1.049-4.245 0-1.881-.457-3.479-1.371-4.789-.914-1.311-2.117-2.208-3.609-2.691-1.492-.484-3.65-.727-6.474-.727h-15.225v29.563h9.176v-11.998h.807c.833 0 1.579.229 2.238.686.483.35 1.035 1.109 1.653 2.278l4.883 9.034h10.321zm-7.726-10.349c-.383.497-.877.807-1.481.928-1.197.269-2.004.403-2.42.403h-3.852v-6.01h4.013c1.667 0 2.803.256 3.408.767.604.511.907 1.243.907 2.198 0 .645-.192 1.217-.575 1.714z" fill="#f7e3c7"/><path d="m142.021 193.056c0-1.759-.782-2.789-1.44-3.345-.905-.765-2.296-1.12-4.375-1.12h-4.013c-.828 0-1.5.672-1.5 1.5v6.01c0 .828.672 1.5 1.5 1.5h3.852c.367 0 1.011-.05 2.715-.433.953-.191 1.774-.704 2.374-1.481.588-.764.887-1.649.887-2.631zm-3.264.798c-.162.211-.338.322-.621.379-1.518.341-1.985.367-2.092.367h-2.352v-3.01h2.513c1.896 0 2.391.371 2.44.412.175.147.375.401.375 1.053.001.312-.082.566-.263.799zm14.671 19.142-4.415-8.551c-.27-.537-.745-1.226-1.451-2.102-.506-.631-.927-1.103-1.286-1.441.089-.049.176-.1.26-.15 1.436-.866 2.581-2.016 3.404-3.418.833-1.417 1.256-3.101 1.256-5.005 0-2.187-.552-4.086-1.641-5.647-1.102-1.579-2.574-2.676-4.377-3.26-1.658-.538-3.927-.8-6.936-.8h-15.224c-.829 0-1.5.672-1.5 1.5v29.563c0 .828.671 1.5 1.5 1.5h9.175c.828 0 1.5-.672 1.5-1.5v-10.408c.242.067.464.171.666.312.074.053.479.39 1.213 1.775l4.883 9.034c.262.485.769.787 1.319.787h10.321c.523 0 1.009-.272 1.281-.72.272-.447.292-1.003.052-1.469zm-10.76-.811-4.451-8.235c-.744-1.407-1.411-2.294-2.125-2.81-.912-.633-1.952-.953-3.093-.953h-.807c-.828 0-1.5.672-1.5 1.5v10.498h-6.175v-26.563h13.724c2.653 0 4.675.22 6.012.653 1.183.384 2.112 1.078 2.841 2.123.741 1.063 1.102 2.348 1.102 3.931 0 1.362-.283 2.534-.842 3.485-.576.98-1.351 1.755-2.367 2.369-.642.387-1.572.72-2.766.991-.656.149-1.133.717-1.166 1.389s.385 1.284 1.022 1.497c1.167.39 1.715.692 1.977.884.08.058.401.32 1.17 1.278.74.92 1.012 1.378 1.115 1.584l3.293 6.378h-6.964z" fill="#3a312a"/><path d="m175.196 184.122h-9.964l-11.111 29.563h9.327l1.44-4.88h10.371l1.479 4.88h9.565zm-8.324 18.29 3.229-10.627 3.264 10.627z" fill="#f7e3c7"/><path d="m170.101 190.285c-.001 0-.002 0-.002 0-.66.001-1.241.433-1.434 1.064l-3.229 10.627c-.138.454-.053.947.231 1.329s.73.606 1.205.606h6.492c.476 0 .924-.226 1.206-.608.283-.383.367-.877.228-1.332l-3.264-10.627c-.193-.629-.774-1.059-1.433-1.059zm-1.205 10.627 1.213-3.992 1.226 3.992zm18.812 12.245-11.108-29.562c-.22-.585-.779-.973-1.404-.973h-9.964c-.625 0-1.185.388-1.404.973l-11.111 29.563c-.173.46-.109.977.171 1.381.28.405.741.646 1.233.646h9.327c.665 0 1.25-.438 1.438-1.075l1.123-3.805h8.138l1.156 3.815c.191.632.774 1.064 1.436 1.064h9.565c.492 0 .953-.241 1.233-.646.28-.404.344-.921.171-1.381zm-9.857-.972-1.156-3.815c-.191-.632-.774-1.064-1.435-1.064h-10.371c-.665 0-1.25.438-1.439 1.075l-1.123 3.805h-6.04l9.984-26.563h7.886l9.981 26.563h-6.287z" fill="#3a312a"/><path d="m221.278 184.122-3.127 16.527-4.583-16.527h-8.646l-4.571 16.55-3.124-16.55h-8.677l6.577 29.562h8.958l5.165-18.612 5.185 18.612h8.958l6.516-29.562z" fill="#f7e3c7"/><path d="m231.078 183.183c-.284-.354-.715-.561-1.169-.561h-8.632c-.721 0-1.34.513-1.474 1.221l-1.93 10.197-2.861-10.318c-.18-.65-.771-1.1-1.445-1.1h-8.646c-.675 0-1.267.45-1.446 1.101l-2.85 10.319-1.926-10.198c-.134-.709-.753-1.222-1.474-1.222h-8.677c-.455 0-.886.207-1.17.562-.285.355-.394.82-.294 1.265l6.577 29.563c.152.686.761 1.174 1.464 1.174h8.958c.674 0 1.266-.449 1.445-1.099l3.723-13.414 3.736 13.415c.181.648.771 1.098 1.445 1.098h8.958c.704 0 1.313-.489 1.465-1.177l6.517-29.563c.1-.445-.009-.909-.294-1.263zm-8.89 29.002h-6.613l-4.879-17.515c-.181-.648-.771-1.098-1.445-1.098 0 0 0 0-.001 0-.674 0-1.265.45-1.444 1.099l-4.86 17.514h-6.614l-5.91-26.563h5.564l2.894 15.328c.129.686.714 1.191 1.411 1.221.69.035 1.322-.427 1.509-1.1l4.267-15.449h6.363l4.278 15.428c.187.674.847 1.128 1.508 1.099.697-.029 1.281-.535 1.411-1.22l2.896-15.307h5.523z" fill="#3a312a"/><g fill="#decaad"><path d="m181.705 227.003c-3.1 6.57-9.77 11.14-17.5 11.14h15c7.73 0 14.4-4.57 17.5-11.14z"/><path d="m183.565 93.113h15v76.89h-15z"/></g></svg>