<svg height="453pt" viewBox="0 0 453 453.07784" width="453pt" xmlns="http://www.w3.org/2000/svg"><path d="m64.859375 22.351562c-1.949219 23.125-26.050781 26.777344-26.050781 26.777344 20.691406.976563 25.851562 28.117188 25.851562 28.117188.441406-19.351563 26.640625-28.402344 26.640625-28.402344-19.625-1.175781-26.441406-26.492188-26.441406-26.492188zm0 0" fill="#d7e057"/><path d="m91.480469 45.847656c-17.207031-1.03125-23.664063-24.046875-23.726563-24.28125-.378906-1.40625-1.691406-2.335937-3.167968-2.203125-1.449219.128907-2.59375 1.28125-2.71875 2.734375-1.71875 20.429688-22.625 23.929688-23.507813 24.066406-1.527344.230469-2.625 1.582032-2.546875 3.121094.082031 1.542969 1.316406 2.769532 2.855469 2.84375 18.058593.851563 23 25.4375 23.046875 25.683594.273437 1.421875 1.519531 2.433594 2.945312 2.433594.082032 0 .167969-.003906.25-.007813 1.53125-.128906 2.714844-1.386719 2.75-2.921875.386719-17.015625 24.382813-25.550781 24.625-25.636718 1.351563-.46875 2.183594-1.828126 1.988282-3.242188-.199219-1.421875-1.363282-2.503906-2.792969-2.589844zm-27.128907 20.691406c-2.714843-6.261718-7.421874-13.8125-15.175781-17.75 5.859375-2.8125 12.816407-7.828124 16.402344-16.546874 3.101563 6.140624 8.402344 13.757812 16.667969 17.445312-6.011719 3.277344-13.84375 8.808594-17.894532 16.851562zm0 0" fill="#3a312a"/><path d="m21.460938 56.3125c-1.378907 16.355469-18.425782 18.941406-18.425782 18.941406 14.636719.6875 18.285156 19.886719 18.285156 19.886719.3125-13.6875 18.84375-20.089844 18.84375-20.089844-13.882812-.832031-18.703124-18.738281-18.703124-18.738281zm0 0" fill="#d7e057"/><path d="m40.34375 72.054688c-11.53125-.6875-15.941406-16.371094-15.984375-16.527344-.378906-1.40625-1.726563-2.308594-3.164063-2.207032-1.453124.132813-2.601562 1.289063-2.722656 2.738282-1.15625 13.742187-15.292968 16.132812-15.882812 16.226562-1.527344.230469-2.6250002 1.582032-2.5468752 3.121094.0781252 1.542969 1.3125002 2.769531 2.8554692 2.839844 12.070312.570312 15.449218 17.292968 15.480468 17.457031.269532 1.425781 1.515625 2.4375 2.945313 2.4375.082031 0 .164062-.003906.25-.007813 1.527343-.128906 2.714843-1.386718 2.75-2.921874.261719-11.417969 16.664062-17.269532 16.824219-17.324219 1.351562-.46875 2.1875-1.828125 1.992187-3.246094-.199219-1.417969-1.371094-2.5-2.796875-2.585937zm-19.167969 13.589843c-1.847656-3.769531-4.679687-7.894531-8.894531-10.558593 3.710938-2.082032 7.394531-5.257813 9.742188-9.832032 2.113281 3.746094 5.308593 7.910156 9.882812 10.449219-3.703125 2.199219-7.980469 5.476563-10.730469 9.941406zm0 0" fill="#3a312a"/><path d="m21.460938 2.996094c-1.378907 16.359375-18.425782 18.941406-18.425782 18.941406 14.636719.6875 18.285156 19.886719 18.285156 19.886719.3125-13.6875 18.84375-20.089844 18.84375-20.089844-13.882812-.832031-18.703124-18.738281-18.703124-18.738281zm0 0" fill="#d7e057"/><path d="m40.34375 18.742188c-11.53125-.691407-15.941406-16.371094-15.984375-16.53125-.378906-1.402344-1.726563-2.304688-3.164063-2.2031255-1.453124.1289065-2.601562 1.2851565-2.722656 2.7343755-1.15625 13.742187-15.292968 16.132812-15.882812 16.226562-1.527344.234375-2.6250002 1.582031-2.5468752 3.125.0781252 1.539062 1.3125002 2.769531 2.8554692 2.839844 12.070312.566406 15.449218 17.289062 15.480468 17.453125.269532 1.425781 1.515625 2.441406 2.945313 2.441406.082031 0 .164062-.003906.25-.011719 1.527343-.125 2.714843-1.382812 2.75-2.921875.261719-11.417969 16.664062-17.265625 16.824219-17.324219 1.351562-.464843 2.1875-1.824218 1.992187-3.242187-.199219-1.417969-1.371094-2.503906-2.796875-2.585937zm-19.167969 13.585937c-1.847656-3.769531-4.679687-7.890625-8.894531-10.558594 3.710938-2.082031 7.394531-5.257812 9.742188-9.832031 2.113281 3.75 5.308593 7.910156 9.882812 10.449219-3.703125 2.199219-7.980469 5.480469-10.730469 9.941406zm0 0" fill="#3a312a"/><path d="m437.449219 238.695312c0 116.742188-94.640625 211.382813-211.386719 211.382813s-211.386719-94.640625-211.386719-211.382813c0-116.746093 94.640625-211.386718 211.386719-211.386718s211.386719 94.640625 211.386719 211.386718zm0 0" fill="#d7e057"/><path d="m226.0625 24.308594c-118.210938 0-214.382812 96.171875-214.382812 214.382812 0 118.210938 96.171874 214.386719 214.382812 214.386719s214.386719-96.171875 214.386719-214.386719-96.175781-214.382812-214.386719-214.382812zm0 422.769531c-114.902344 0-208.382812-93.480469-208.382812-208.382813 0-114.90625 93.480468-208.386718 208.382812-208.386718 114.90625 0 208.386719 93.480468 208.386719 208.382812 0 114.90625-93.480469 208.386719-208.386719 208.386719zm0 0" fill="#3a312a"/><path d="m382.742188 213.265625c-14.042969-86.527344-95.570313-145.289063-182.097657-131.246094-86.527343 14.042969-145.289062 95.570313-131.246093 182.101563 14.042968 86.527344 95.570312 145.285156 182.101562 131.242187 86.527344-14.042969 145.285156-95.570312 131.242188-182.097656zm0 0" fill="#87796f"/><path d="m226.0625 76.972656c-89.171875 0-161.71875 72.546875-161.71875 161.71875 0 89.175782 72.546875 161.71875 161.71875 161.71875s161.71875-72.542968 161.71875-161.71875c0-89.171875-72.546875-161.71875-161.71875-161.71875zm0 317.441406c-85.863281 0-155.71875-69.855468-155.71875-155.71875 0-85.867187 69.855469-155.71875 155.71875-155.71875s155.71875 69.855469 155.71875 155.71875c0 85.863282-69.855469 155.71875-155.71875 155.71875zm0 0" fill="#3a312a"/><path d="m329.742188 221.867188c-9.292969-57.253907-63.242188-96.136719-120.496094-86.84375-57.253906 9.292968-96.136719 63.238281-86.84375 120.492187 9.292968 57.257813 63.238281 96.136719 120.492187 86.847656 57.257813-9.292969 96.136719-63.242187 86.847657-120.496093zm0 0" fill="#d7e057"/><path d="m226.0625 130.667969c-59.5625 0-108.023438 48.457031-108.023438 108.023437s48.457032 108.023438 108.023438 108.023438 108.023438-48.457032 108.023438-108.023438-48.457032-108.023437-108.023438-108.023437zm0 210.046875c-56.253906 0-102.023438-45.765625-102.023438-102.023438 0-56.253906 45.769532-102.023437 102.023438-102.023437 56.257812 0 102.023438 45.769531 102.023438 102.023437 0 56.257813-45.765626 102.023438-102.023438 102.023438zm0 0" fill="#3a312a"/><path d="m245.71875 191.269531c-26.191406-10.847656-56.21875 1.589844-67.066406 27.78125-10.847656 26.1875 1.585937 56.214844 27.777344 67.0625 26.191406 10.851563 56.21875-1.585937 67.066406-27.777343 10.847656-26.191407-1.589844-56.214844-27.777344-67.066407zm0 0" fill="#87796f"/><path d="m226.0625 184.367188c-29.957031 0-54.324219 24.371093-54.324219 54.324218 0 29.957032 24.371094 54.328125 54.324219 54.328125 29.957031 0 54.328125-24.371093 54.328125-54.328125 0-29.953125-24.371094-54.324218-54.328125-54.324218zm0 102.652343c-26.644531 0-48.324219-21.679687-48.324219-48.328125 0-26.644531 21.679688-48.324218 48.324219-48.324218 26.648438 0 48.328125 21.679687 48.328125 48.324218 0 26.648438-21.679687 48.328125-48.328125 48.328125zm0 0" fill="#3a312a"/><path d="m348.644531 116.285156-2.320312-13.238281-63.667969 63.664063-20.972656 20.976562-43.121094 43.117188c-4.300781 4.28125-4.300781 11.261718 0 15.542968 4.300781 4.296875 11.261719 4.296875 15.558594 0l127.742187-127.742187zm0 0" fill="#8ac6dd"/><path d="m364.726562 117.703125c-.339843-1.066406-1.242187-1.859375-2.34375-2.050781l-11.148437-1.957032-1.957031-11.167968c-.195313-1.101563-.984375-2.003906-2.050782-2.34375-1.0625-.332032-2.234374-.050782-3.027343.742187l-63.664063 63.667969c-1.171875 1.171875-1.171875 3.066406 0 4.238281s3.070313 1.171875 4.242188 0l59.585937-59.585937 1.324219 7.554687c.21875 1.246094 1.191406 2.21875 2.433594 2.4375l7.542968 1.324219-123.660156 123.660156c-3.121094 3.121094-8.199218 3.125-11.324218-.003906-1.507813-1.503906-2.339844-3.507812-2.339844-5.644531 0-2.132813.832031-4.136719 2.34375-5.644531l43.121094-43.121094c1.171874-1.171875 1.171874-3.070313 0-4.242188-1.171876-1.171875-3.070313-1.171875-4.242188 0l-43.117188 43.113282c-2.644531 2.636718-4.105468 6.152343-4.105468 9.894531 0 3.746093 1.457031 7.261719 4.101562 9.890625 2.730469 2.730468 6.316406 4.097656 9.902344 4.097656s7.171875-1.367188 9.902344-4.097656l127.738281-127.738282c.789063-.789062 1.078125-1.957031.742187-3.023437zm0 0" fill="#3a312a"/><path d="m410.976562 53.609375-6.597656-38.269531-18.496094 18.492187-44.003906 44.007813 6.769532 38.4375 38.433593 6.765625 62.5-62.496094zm0 0" fill="#f16c7a"/><path d="m452.445312 59.648438c-.335937-1.066407-1.234374-1.859376-2.332031-2.054688l-36.539062-6.5625-6.242188-36.199219c-.191406-1.105469-.980469-2.011719-2.046875-2.351562-1.070312-.335938-2.234375-.050781-3.03125.738281l-18.492187 18.496094c-1.171875 1.171875-1.171875 3.070312 0 4.242187s3.070312 1.171875 4.242187 0l14.398438-14.402343 5.617187 32.566406c.214844 1.242187 1.183594 2.21875 2.425781 2.441406l32.957032 5.921875-57.335938 57.335937-34.828125-6.132812-6.132812-34.828125 21.703125-21.707031c1.171875-1.171875 1.171875-3.070313 0-4.242188s-3.070313-1.171875-4.242188 0l-22.808594 22.808594c-.691406.691406-1.003906 1.675781-.832031 2.640625l6.765625 38.4375c.21875 1.242187 1.195313 2.214844 2.4375 2.433594l38.4375 6.769531c.171875.03125.347656.042969.519532.042969.792968 0 1.554687-.308594 2.125-.878907l62.496093-62.496093c.785157-.789063 1.070313-1.953125.738281-3.019531zm0 0" fill="#3a312a"/><g fill="#b9bc39"><path d="m346.644531 68.824219c-31.863281-22.679688-70.339843-36.636719-111.921875-38.339844 39.898438 6.960937 75.941406 25.121094 104.78125 51.140625l-.582031-3.257812c-.179687-.980469.140625-1.960938.839844-2.640626zm0 0"/><path d="m396.0625 118.304688-6.859375 6.859374c-.558594.5625-1.339844.882813-2.121094.882813-.179687 0-.339843-.019531-.519531-.042969l-10.859375-1.917968c21.339844 33.019531 33.738281 72.359374 33.738281 114.601562 0 104.199219-75.378906 190.777344-174.558594 208.199219 110.820313-4.621094 199.558594-96.242188 199.558594-208.199219 0-44.800781-14.21875-86.363281-38.378906-120.382812zm0 0"/></g></svg>