<svg id="Layer_1" height="512" viewBox="0 0 256 256" width="512" xmlns="http://www.w3.org/2000/svg"><g><path d="m53.469 26.22s3.408 12.659 13.222 13.246c0 0-13.1 4.525-13.321 14.202 0 0-2.578-13.572-12.925-14.059 0 0 12.051-1.825 13.024-13.389z" fill="#d7e057"/><path d="m53.369 55.167c-.713 0-1.335-.506-1.472-1.217-.024-.124-2.495-12.417-11.522-12.842-.771-.037-1.388-.651-1.428-1.421-.04-.771.511-1.445 1.273-1.561.441-.069 10.894-1.817 11.754-12.033.061-.725.634-1.301 1.359-1.367.723-.068 1.393.398 1.583 1.101.032.116 3.259 11.626 11.864 12.141.714.043 1.297.584 1.396 1.292.098.708-.319 1.388-.994 1.623-.121.042-12.118 4.311-12.313 12.819-.017.767-.61 1.396-1.375 1.46-.041.004-.083.005-.125.005zm-7.741-15.729c3.878 1.969 6.23 5.746 7.587 8.877 2.027-4.021 5.942-6.787 8.949-8.427-4.135-1.842-6.783-5.651-8.334-8.723-1.793 4.36-5.271 6.868-8.202 8.273z" fill="#3a312a"/><path d="m31.771 43.2s2.411 8.954 9.352 9.369c0 0-9.266 3.201-9.422 10.045 0 0-1.824-9.6-9.142-9.944-.001.001 8.523-1.29 9.212-9.47z" fill="#d7e057"/><path d="m31.7 64.115c-.714 0-1.337-.507-1.473-1.22-.016-.082-1.704-8.442-7.739-8.726-.771-.037-1.388-.651-1.428-1.421-.04-.771.511-1.445 1.273-1.561.296-.047 7.364-1.243 7.943-8.114.061-.726.635-1.303 1.36-1.368.727-.063 1.392.399 1.582 1.101.021.079 2.228 7.92 7.994 8.265.714.043 1.299.584 1.396 1.293.098.709-.32 1.388-.996 1.622-.081.028-8.282 2.952-8.412 8.662-.018.767-.611 1.397-1.376 1.461-.042.005-.083.006-.124.006zm-4.519-11.528c2.107 1.333 3.523 3.395 4.447 5.28 1.376-2.232 3.515-3.872 5.365-4.972-2.287-1.27-3.884-3.35-4.941-5.224-1.174 2.287-3.016 3.875-4.871 4.916z" fill="#3a312a"/><path d="m31.771 16.543s2.411 8.954 9.352 9.37c0 0-9.266 3.201-9.422 10.045 0 0-1.824-9.6-9.142-9.944-.001 0 8.523-1.292 9.212-9.471z" fill="#d7e057"/><g fill="#3a312a"><path d="m31.7 37.458c-.714 0-1.337-.507-1.473-1.22-.016-.082-1.704-8.442-7.739-8.726-.771-.037-1.388-.651-1.428-1.421s.511-1.445 1.273-1.56c.296-.047 7.364-1.243 7.943-8.114.061-.726.635-1.303 1.36-1.368.727-.064 1.392.4 1.582 1.102.021.079 2.228 7.92 7.994 8.265.714.043 1.299.584 1.396 1.293.098.709-.32 1.388-.996 1.622-.081.028-8.282 2.952-8.412 8.662-.018.767-.611 1.397-1.376 1.461-.042.003-.083.004-.124.004zm-4.519-11.528c2.107 1.332 3.523 3.394 4.447 5.28 1.376-2.232 3.515-3.872 5.365-4.972-2.287-1.27-3.884-3.35-4.941-5.224-1.174 2.286-3.016 3.875-4.871 4.916z"/><path d="m133.558 241.5c-13.328 0-25.747-11.975-34.968-33.718-9.049-21.335-14.032-49.669-14.032-79.782s4.983-58.447 14.032-79.782c9.222-21.744 21.64-33.718 34.968-33.718s25.747 11.975 34.969 33.718c9.048 21.335 14.031 49.669 14.031 79.782 0 14.49-1.153 28.606-3.427 41.957-.139.817-.913 1.368-1.73 1.227-.816-.139-1.366-.914-1.227-1.73 2.245-13.185 3.384-27.132 3.384-41.453 0-60.93-20.636-110.5-46-110.5s-46 49.57-46 110.5 20.636 110.5 46 110.5c16.47 0 31.813-21.585 40.04-56.332.19-.807 1.001-1.306 1.805-1.114.806.191 1.305.999 1.114 1.805-8.564 36.17-25.025 58.64-42.959 58.64z"/><path d="m197.803 198.996c-3.949 0-8.167-.272-12.636-.822-23.001-2.831-50.03-12.683-76.109-27.739s-48.124-33.539-62.077-52.042c-14.22-18.858-18.38-35.601-11.716-47.143 13.102-22.694 64.927-17.596 117.983 11.604.726.399.99 1.312.591 2.037-.398.727-1.311.991-2.037.591-25.022-13.771-50.638-22.613-72.132-24.898-21.131-2.249-35.981 2.073-41.808 12.166-6.023 10.433-1.935 26.002 11.514 43.836 13.716 18.19 35.444 36.391 61.182 51.251 52.767 30.465 106.014 37.38 118.696 15.413 12.049-20.871-17.045-60.944-66.237-91.231-.705-.435-.925-1.358-.491-2.064.435-.705 1.357-.925 2.064-.491 24.272 14.945 44.571 32.82 57.156 50.334 12.894 17.943 16.482 33.907 10.106 44.952-5.394 9.342-17.283 14.246-34.049 14.246z"/><path d="m69.314 198.996c-16.768 0-28.655-4.903-34.049-14.246-6.664-11.542-2.503-28.285 11.716-47.143 13.953-18.503 35.999-36.986 62.077-52.042 26.079-15.057 53.108-24.908 76.109-27.739 23.443-2.885 40.021 1.883 46.685 13.424 6.664 11.543 2.503 28.285-11.717 47.143-13.953 18.503-35.999 36.986-62.077 52.042-26.079 15.057-53.108 24.908-76.108 27.739-4.467.55-8.689.822-12.636.822zm128.492-139.086c-23.189 0-55.306 9.812-87.248 28.253-25.738 14.86-47.466 33.061-61.182 51.251-13.449 17.835-17.538 33.403-11.514 43.836 12.683 21.965 65.929 15.052 118.696-15.413 25.738-14.86 47.466-33.061 61.182-51.251 13.448-17.835 17.538-33.403 11.514-43.836-5.005-8.669-16.33-12.84-31.448-12.84z"/></g><circle cx="133.558" cy="128" fill="#fce8cb" r="27"/><path d="m133.558 156.5c-15.715 0-28.5-12.785-28.5-28.5s12.785-28.5 28.5-28.5 28.5 12.785 28.5 28.5-12.785 28.5-28.5 28.5zm0-54c-14.061 0-25.5 11.439-25.5 25.5s11.439 25.5 25.5 25.5 25.5-11.439 25.5-25.5-11.439-25.5-25.5-25.5z" fill="#3a312a"/><circle cx="204.058" cy="58.5" fill="#8ac6dd" r="12"/><path d="m204.058 72c-7.444 0-13.5-6.056-13.5-13.5s6.056-13.5 13.5-13.5 13.5 6.056 13.5 13.5-6.056 13.5-13.5 13.5zm0-24c-5.79 0-10.5 4.71-10.5 10.5s4.71 10.5 10.5 10.5 10.5-4.71 10.5-10.5-4.71-10.5-10.5-10.5z" fill="#3a312a"/><circle cx="198.058" cy="198.5" fill="#f16c7a" r="12"/><path d="m198.058 212c-7.444 0-13.5-6.056-13.5-13.5s6.056-13.5 13.5-13.5 13.5 6.056 13.5 13.5-6.056 13.5-13.5 13.5zm0-24c-5.79 0-10.5 4.71-10.5 10.5s4.71 10.5 10.5 10.5 10.5-4.71 10.5-10.5-4.71-10.5-10.5-10.5z" fill="#3a312a"/><circle cx="107.058" cy="219.5" fill="#d7e057" r="12"/><path d="m107.058 233c-7.444 0-13.5-6.056-13.5-13.5s6.056-13.5 13.5-13.5 13.5 6.056 13.5 13.5-6.056 13.5-13.5 13.5zm0-24c-5.789 0-10.5 4.71-10.5 10.5s4.711 10.5 10.5 10.5c5.79 0 10.5-4.71 10.5-10.5s-4.71-10.5-10.5-10.5z" fill="#3a312a"/><path d="m159.058 128c0 14.06-11.44 25.5-25.5 25.5-2.61 0-5.13-.39-7.5-1.13 10.41-3.21 18-12.92 18-24.37s-7.59-21.16-18-24.37c2.37-.74 4.89-1.13 7.5-1.13 14.06 0 25.5 11.44 25.5 25.5z" fill="#decaad"/></g></svg>