<svg height="452pt" viewBox="0 0 452 452" width="452pt" xmlns="http://www.w3.org/2000/svg"><path d="m3 134.667969v282.5c0 17.21875 13.960938 31.160156 31.160156 31.160156h383.679688c17.199218 0 31.160156-13.941406 31.160156-31.160156v-282.5zm0 0" fill="#fce8cb"/><path d="m449 131.664062h-446c-1.65625 0-3 1.34375-3 3v115c0 1.660157 1.34375 3 3 3s3-1.339843 3-3v-112h440v279.5c0 15.53125-12.632812 28.160157-28.160156 28.160157h-383.679688c-15.527344 0-28.160156-12.628907-28.160156-28.160157v-137.5c0-1.65625-1.34375-3-3-3s-3 1.34375-3 3v137.5c0 18.839844 15.324219 34.160157 34.160156 34.160157h383.679688c18.835937 0 34.160156-15.320313 34.160156-34.160157v-282.5c0-1.652343-1.34375-3-3-3zm0 0" fill="#3a312a"/><path d="m416.5 51h-381c-17.949219 0-32.5 14.550781-32.5 32.5v51.164062h446v-51.164062c0-17.949219-14.550781-32.5-32.5-32.5zm0 0" fill="#87796f"/><path d="m416.5 48h-150.039062c-1.65625 0-3 1.34375-3 3s1.34375 3 3 3h150.039062c16.265625 0 29.5 13.234375 29.5 29.5v48.164062h-440v-48.164062c0-16.265625 13.234375-29.5 29.5-29.5h202.035156c1.660156 0 3-1.34375 3-3s-1.339844-3-3-3h-202.035156c-19.574219 0-35.5 15.925781-35.5 35.5v51.164062c0 1.660157 1.34375 3 3 3h446c1.65625 0 3-1.339843 3-3v-51.164062c0-19.574219-15.925781-35.5-35.5-35.5zm0 0" fill="#3a312a"/><path d="m355.792969 3c-12.496094 0-22.628907 10.128906-22.628907 22.625v49.085938c0 12.496093 10.132813 22.628906 22.628907 22.628906 12.496093 0 22.625-10.132813 22.625-22.628906v-49.085938c-.003907-12.496094-10.132813-22.625-22.625-22.625zm0 0" fill="#8ac6dd"/><path d="m355.792969 0c-14.132813 0-25.628907 11.496094-25.628907 25.625v49.085938c0 14.132812 11.496094 25.628906 25.628907 25.628906 14.128906 0 25.625-11.496094 25.625-25.628906v-49.085938c-.003907-14.128906-11.496094-25.625-25.625-25.625zm19.621093 74.710938c0 10.824218-8.800781 19.628906-19.625 19.628906-10.820312 0-19.625-8.804688-19.625-19.628906v-49.085938c0-10.820312 8.804688-19.625 19.625-19.625 10.824219 0 19.625 8.804688 19.625 19.625zm0 0" fill="#3a312a"/><path d="m96.207031 3c-12.496093 0-22.625 10.128906-22.625 22.625v49.085938c0 12.496093 10.128907 22.628906 22.625 22.628906 12.496094 0 22.628907-10.132813 22.628907-22.628906v-49.085938c0-12.496094-10.132813-22.625-22.628907-22.625zm0 0" fill="#8ac6dd"/><path d="m96.207031 0c-14.128906 0-25.625 11.496094-25.625 25.625v49.085938c0 14.132812 11.496094 25.628906 25.625 25.628906 14.132813 0 25.628907-11.496094 25.628907-25.628906v-49.085938c0-14.128906-11.496094-25.625-25.628907-25.625zm19.628907 74.710938c0 10.824218-8.804688 19.628906-19.628907 19.628906-10.820312 0-19.625-8.804688-19.625-19.628906v-49.085938c0-10.820312 8.804688-19.625 19.625-19.625 10.824219 0 19.628907 8.804688 19.628907 19.625zm0 0" fill="#3a312a"/><path d="m83.257812 170.664062h-37.726562c-5.96875 0-10.808594 4.839844-10.808594 10.804688v37.726562c0 5.96875 4.839844 10.808594 10.808594 10.808594h37.726562c5.964844 0 10.804688-4.839844 10.804688-10.808594v-37.726562c0-5.964844-4.839844-10.804688-10.804688-10.804688zm0 0" fill="#d7e057"/><path d="m83.257812 167.664062h-37.726562c-7.617188 0-13.808594 6.195313-13.808594 13.804688v37.726562c0 7.613282 6.195313 13.808594 13.808594 13.808594h37.726562c7.613282 0 13.804688-6.195312 13.804688-13.808594v-37.726562c0-7.609375-6.191406-13.804688-13.804688-13.804688zm7.804688 51.535157c0 4.304687-3.5 7.804687-7.804688 7.804687h-37.726562c-4.304688 0-7.808594-3.5-7.808594-7.804687v-37.726563c0-4.304687 3.503906-7.808594 7.808594-7.808594h37.726562c4.300782 0 7.804688 3.503907 7.804688 7.808594zm0 0" fill="#3a312a"/><path d="m164.058594 170.664062h-37.722656c-5.96875 0-10.808594 4.839844-10.808594 10.804688v37.726562c0 5.96875 4.839844 10.808594 10.808594 10.808594h37.722656c5.96875 0 10.808594-4.839844 10.808594-10.808594v-37.726562c0-5.964844-4.839844-10.804688-10.808594-10.804688zm0 0" fill="#d7e057"/><path d="m164.058594 167.664062h-37.722656c-7.617188 0-13.808594 6.195313-13.808594 13.804688v37.726562c0 7.613282 6.195312 13.808594 13.808594 13.808594h37.722656c7.617187 0 13.808594-6.195312 13.808594-13.808594v-37.726562c0-7.609375-6.195313-13.804688-13.808594-13.804688zm7.808594 51.535157c0 4.304687-3.503907 7.804687-7.808594 7.804687h-37.722656c-4.304688 0-7.808594-3.5-7.808594-7.804687v-37.726563c0-4.304687 3.503906-7.808594 7.808594-7.808594h37.722656c4.304687 0 7.808594 3.503907 7.808594 7.808594zm0 0" fill="#3a312a"/><path d="m244.863281 170.664062h-37.726562c-5.964844 0-10.804688 4.839844-10.804688 10.804688v37.726562c0 5.96875 4.839844 10.808594 10.804688 10.808594h37.726562c5.96875 0 10.808594-4.839844 10.808594-10.808594v-37.726562c0-5.964844-4.839844-10.804688-10.808594-10.804688zm0 0" fill="#d7e057"/><path d="m244.863281 167.664062h-37.726562c-7.613281 0-13.804688 6.195313-13.804688 13.804688v37.726562c0 7.613282 6.195313 13.808594 13.804688 13.808594h37.726562c7.613281 0 13.808594-6.195312 13.808594-13.808594v-37.726562c0-7.609375-6.195313-13.804688-13.808594-13.804688zm7.808594 51.535157c0 4.304687-3.503906 7.804687-7.808594 7.804687h-37.726562c-4.300781 0-7.804688-3.5-7.804688-7.804687v-37.726563c0-4.304687 3.503907-7.808594 7.804688-7.808594h37.726562c4.304688 0 7.808594 3.503907 7.808594 7.808594zm0 0" fill="#3a312a"/><path d="m325.664062 170.664062h-37.722656c-5.96875 0-10.808594 4.839844-10.808594 10.804688v37.726562c0 5.96875 4.839844 10.808594 10.808594 10.808594h37.722656c5.96875 0 10.808594-4.839844 10.808594-10.808594v-37.726562c0-5.964844-4.835937-10.804688-10.808594-10.804688zm0 0" fill="#d7e057"/><path d="m325.664062 167.664062h-37.722656c-7.617187 0-13.808594 6.195313-13.808594 13.804688v37.726562c0 7.613282 6.195313 13.808594 13.808594 13.808594h37.722656c7.617188 0 13.808594-6.195312 13.808594-13.808594v-37.726562c0-7.609375-6.191406-13.804688-13.808594-13.804688zm7.808594 51.535157c0 4.304687-3.5 7.804687-7.804687 7.804687h-37.726563c-4.304687 0-7.808594-3.5-7.808594-7.804687v-37.726563c0-4.304687 3.503907-7.808594 7.808594-7.808594h37.722656c4.304688 0 7.808594 3.503907 7.808594 7.808594zm0 0" fill="#3a312a"/><path d="m406.46875 170.664062h-37.726562c-5.964844 0-10.804688 4.839844-10.804688 10.804688v37.726562c0 5.96875 4.839844 10.808594 10.804688 10.808594h37.726562c5.96875 0 10.808594-4.839844 10.808594-10.808594v-37.726562c0-5.964844-4.839844-10.804688-10.808594-10.804688zm0 0" fill="#d7e057"/><path d="m406.46875 167.664062h-37.726562c-7.613282 0-13.804688 6.195313-13.804688 13.804688v37.726562c0 7.613282 6.195312 13.808594 13.804688 13.808594h37.726562c7.617188 0 13.808594-6.195312 13.808594-13.808594v-37.726562c0-7.609375-6.191406-13.804688-13.808594-13.804688zm7.808594 51.535157c0 4.304687-3.503906 7.804687-7.808594 7.804687h-37.726562c-4.300782 0-7.804688-3.5-7.804688-7.804687v-37.726563c0-4.304687 3.503906-7.808594 7.804688-7.808594h37.726562c4.304688 0 7.808594 3.503907 7.808594 7.808594zm0 0" fill="#3a312a"/><path d="m83.257812 261.996094h-37.726562c-5.96875 0-10.808594 4.839844-10.808594 10.808594v37.726562c0 5.964844 4.839844 10.804688 10.808594 10.804688h37.726562c5.964844 0 10.804688-4.839844 10.804688-10.804688v-37.726562c0-5.96875-4.839844-10.808594-10.804688-10.808594zm0 0" fill="#d7e057"/><path d="m83.257812 258.996094h-37.726562c-7.617188 0-13.808594 6.195312-13.808594 13.808594v37.726562c0 7.613281 6.195313 13.808594 13.808594 13.808594h37.726562c7.613282 0 13.804688-6.195313 13.804688-13.808594v-37.726562c0-7.613282-6.191406-13.808594-13.804688-13.808594zm7.804688 51.535156c0 4.304688-3.5 7.808594-7.804688 7.808594h-37.726562c-4.304688 0-7.808594-3.503906-7.808594-7.808594v-37.726562c0-4.304688 3.503906-7.808594 7.808594-7.808594h37.726562c4.300782 0 7.804688 3.503906 7.804688 7.808594zm0 0" fill="#3a312a"/><path d="m164.058594 261.996094h-37.722656c-5.96875 0-10.808594 4.839844-10.808594 10.808594v37.726562c0 5.964844 4.839844 10.804688 10.808594 10.804688h37.722656c5.96875 0 10.808594-4.839844 10.808594-10.804688v-37.726562c0-5.96875-4.839844-10.808594-10.808594-10.808594zm0 0" fill="#d7e057"/><path d="m164.058594 258.996094h-37.722656c-7.617188 0-13.808594 6.195312-13.808594 13.808594v37.726562c0 7.613281 6.195312 13.808594 13.808594 13.808594h37.722656c7.617187 0 13.808594-6.195313 13.808594-13.808594v-37.726562c0-7.613282-6.195313-13.808594-13.808594-13.808594zm7.808594 51.535156c0 4.304688-3.503907 7.808594-7.808594 7.808594h-37.722656c-4.304688 0-7.808594-3.503906-7.808594-7.808594v-37.726562c0-4.304688 3.503906-7.808594 7.808594-7.808594h37.722656c4.304687 0 7.808594 3.503906 7.808594 7.808594zm0 0" fill="#3a312a"/><path d="m244.863281 261.996094h-37.726562c-5.964844 0-10.804688 4.839844-10.804688 10.808594v37.726562c0 5.964844 4.839844 10.804688 10.804688 10.804688h37.726562c5.96875 0 10.808594-4.839844 10.808594-10.804688v-37.726562c0-5.96875-4.839844-10.808594-10.808594-10.808594zm0 0" fill="#d7e057"/><path d="m244.863281 258.996094h-37.726562c-7.613281 0-13.804688 6.195312-13.804688 13.808594v37.726562c0 7.613281 6.195313 13.808594 13.804688 13.808594h37.726562c7.613281 0 13.808594-6.195313 13.808594-13.808594v-37.726562c0-7.613282-6.195313-13.808594-13.808594-13.808594zm7.808594 51.535156c0 4.304688-3.503906 7.808594-7.808594 7.808594h-37.726562c-4.300781 0-7.804688-3.503906-7.804688-7.808594v-37.726562c0-4.304688 3.503907-7.808594 7.804688-7.808594h37.726562c4.304688 0 7.808594 3.503906 7.808594 7.808594zm0 0" fill="#3a312a"/><path d="m325.664062 261.996094h-37.722656c-5.96875 0-10.808594 4.839844-10.808594 10.808594v37.726562c0 5.964844 4.839844 10.804688 10.808594 10.804688h37.722656c5.96875 0 10.808594-4.839844 10.808594-10.804688v-37.726562c0-5.96875-4.835937-10.808594-10.808594-10.808594zm0 0" fill="#d7e057"/><path d="m325.664062 258.996094h-37.722656c-7.617187 0-13.808594 6.195312-13.808594 13.808594v37.726562c0 7.613281 6.195313 13.808594 13.808594 13.808594h37.722656c7.617188 0 13.808594-6.195313 13.808594-13.808594v-37.726562c0-7.613282-6.191406-13.808594-13.808594-13.808594zm7.808594 51.535156c0 4.304688-3.5 7.808594-7.804687 7.808594h-37.726563c-4.304687 0-7.808594-3.503906-7.808594-7.808594v-37.726562c0-4.304688 3.503907-7.808594 7.808594-7.808594h37.722656c4.304688 0 7.808594 3.503906 7.808594 7.808594zm0 0" fill="#3a312a"/><path d="m406.46875 261.996094h-37.726562c-5.964844 0-10.804688 4.839844-10.804688 10.808594v37.726562c0 5.964844 4.839844 10.804688 10.804688 10.804688h37.726562c5.96875 0 10.808594-4.839844 10.808594-10.804688v-37.726562c0-5.96875-4.839844-10.808594-10.808594-10.808594zm0 0" fill="#d7e057"/><path d="m406.46875 258.996094h-37.726562c-7.613282 0-13.804688 6.195312-13.804688 13.808594v37.726562c0 7.613281 6.195312 13.808594 13.804688 13.808594h37.726562c7.617188 0 13.808594-6.195313 13.808594-13.808594v-37.726562c0-7.613282-6.191406-13.808594-13.808594-13.808594zm7.808594 51.535156c0 4.304688-3.503906 7.808594-7.808594 7.808594h-37.726562c-4.300782 0-7.804688-3.503906-7.804688-7.808594v-37.726562c0-4.304688 3.503906-7.808594 7.804688-7.808594h37.726562c4.304688 0 7.808594 3.503906 7.808594 7.808594zm0 0" fill="#3a312a"/><path d="m83.257812 353.328125h-37.726562c-5.96875 0-10.808594 4.839844-10.808594 10.808594v37.726562c0 5.96875 4.839844 10.808594 10.808594 10.808594h37.726562c5.964844 0 10.804688-4.835937 10.804688-10.808594v-37.726562c0-5.96875-4.839844-10.808594-10.804688-10.808594zm0 0" fill="#d7e057"/><path d="m83.257812 350.328125h-37.726562c-7.617188 0-13.808594 6.195313-13.808594 13.808594v37.726562c0 7.613281 6.195313 13.808594 13.808594 13.808594h37.726562c7.613282 0 13.804688-6.195313 13.804688-13.808594v-37.726562c0-7.613281-6.191406-13.808594-13.804688-13.808594zm7.804688 51.535156c0 4.304688-3.5 7.808594-7.804688 7.808594h-37.726562c-4.304688 0-7.808594-3.503906-7.808594-7.808594v-37.726562c0-4.300781 3.503906-7.804688 7.808594-7.804688h37.726562c4.300782 0 7.804688 3.503907 7.804688 7.804688zm0 0" fill="#3a312a"/><path d="m164.058594 353.328125h-37.722656c-5.96875 0-10.808594 4.839844-10.808594 10.808594v37.726562c0 5.96875 4.839844 10.808594 10.808594 10.808594h37.722656c5.96875 0 10.808594-4.835937 10.808594-10.808594v-37.726562c0-5.96875-4.839844-10.808594-10.808594-10.808594zm0 0" fill="#d7e057"/><path d="m164.058594 350.328125h-37.722656c-7.617188 0-13.808594 6.195313-13.808594 13.808594v37.726562c0 7.613281 6.195312 13.808594 13.808594 13.808594h37.722656c7.617187 0 13.808594-6.195313 13.808594-13.808594v-37.726562c0-7.613281-6.195313-13.808594-13.808594-13.808594zm7.808594 51.535156c0 4.304688-3.503907 7.808594-7.808594 7.808594h-37.722656c-4.304688 0-7.808594-3.503906-7.808594-7.808594v-37.726562c0-4.300781 3.503906-7.804688 7.808594-7.804688h37.722656c4.304687 0 7.808594 3.503907 7.808594 7.804688zm0 0" fill="#3a312a"/><path d="m244.863281 353.328125h-37.726562c-5.964844 0-10.804688 4.839844-10.804688 10.808594v37.726562c0 5.96875 4.839844 10.808594 10.804688 10.808594h37.726562c5.96875 0 10.808594-4.835937 10.808594-10.808594v-37.726562c0-5.96875-4.839844-10.808594-10.808594-10.808594zm0 0" fill="#d7e057"/><path d="m244.863281 350.328125h-37.726562c-7.613281 0-13.804688 6.195313-13.804688 13.808594v37.726562c0 7.613281 6.195313 13.808594 13.804688 13.808594h37.726562c7.613281 0 13.808594-6.195313 13.808594-13.808594v-37.726562c0-7.613281-6.195313-13.808594-13.808594-13.808594zm7.808594 51.535156c0 4.304688-3.503906 7.808594-7.808594 7.808594h-37.726562c-4.300781 0-7.804688-3.503906-7.804688-7.808594v-37.726562c0-4.300781 3.503907-7.804688 7.804688-7.804688h37.726562c4.304688 0 7.808594 3.503907 7.808594 7.804688zm0 0" fill="#3a312a"/><path d="m325.664062 353.328125h-37.722656c-5.96875 0-10.808594 4.839844-10.808594 10.808594v37.726562c0 5.96875 4.839844 10.808594 10.808594 10.808594h37.722656c5.96875 0 10.808594-4.835937 10.808594-10.808594v-37.726562c0-5.96875-4.835937-10.808594-10.808594-10.808594zm0 0" fill="#d7e057"/><path d="m325.664062 350.328125h-37.722656c-7.617187 0-13.808594 6.195313-13.808594 13.808594v37.726562c0 7.613281 6.195313 13.808594 13.808594 13.808594h37.722656c7.617188 0 13.808594-6.195313 13.808594-13.808594v-37.726562c0-7.613281-6.191406-13.808594-13.808594-13.808594zm7.808594 51.535156c0 4.304688-3.5 7.808594-7.804687 7.808594h-37.726563c-4.304687 0-7.808594-3.503906-7.808594-7.808594v-37.726562c0-4.300781 3.503907-7.804688 7.808594-7.804688h37.722656c4.304688 0 7.808594 3.503907 7.808594 7.804688zm0 0" fill="#3a312a"/><path d="m406.46875 353.328125h-37.726562c-5.964844 0-10.804688 4.839844-10.804688 10.808594v37.726562c0 5.96875 4.839844 10.808594 10.804688 10.808594h37.726562c5.96875 0 10.808594-4.835937 10.808594-10.808594v-37.726562c0-5.96875-4.839844-10.808594-10.808594-10.808594zm0 0" fill="#d7e057"/><path d="m406.46875 350.328125h-37.726562c-7.613282 0-13.804688 6.195313-13.804688 13.808594v37.726562c0 7.613281 6.195312 13.808594 13.804688 13.808594h37.726562c7.617188 0 13.808594-6.195313 13.808594-13.808594v-37.726562c0-7.613281-6.191406-13.808594-13.808594-13.808594zm7.808594 51.535156c0 4.304688-3.503906 7.808594-7.808594 7.808594h-37.726562c-4.300782 0-7.804688-3.503906-7.804688-7.808594v-37.726562c0-4.300781 3.503906-7.804688 7.804688-7.804688h37.726562c4.304688 0 7.808594 3.503907 7.808594 7.804688zm0 0" fill="#3a312a"/><path d="m414 137.667969v32.261719c3.78125 2.457031 6.28125 6.71875 6.28125 11.539062v37.738281c0 4.820313-2.5 9.082031-6.28125 11.5625v30.476563c3.78125 2.460937 6.28125 6.722656 6.28125 11.5625v37.71875c0 4.839844-2.5 9.101562-6.28125 11.5625v30.476562c3.78125 2.480469 6.28125 6.742188 6.28125 11.5625v37.738282c0 4.820312-2.5 9.082031-6.28125 11.539062v3.761719c0 15.519531-12.640625 28.160156-28.160156 28.160156h32c15.519531 0 28.160156-12.640625 28.160156-28.160156v-279.5zm0 0" fill="#ccae8b"/><path d="m416.5 54.007812h-32c16.261719 0 29.5 13.21875 29.5 29.5v48.160157h32v-48.160157c0-16.28125-13.238281-29.5-29.5-29.5zm0 0" fill="#6b5b51"/></svg>