<svg height="431pt" viewBox="0 0 431 431.85328" width="431pt" xmlns="http://www.w3.org/2000/svg"><path d="m65.246094 22.351562c-1.949219 23.128907-26.050782 26.777344-26.050782 26.777344 20.695313.972656 25.847657 28.117188 25.847657 28.117188.445312-19.351563 26.644531-28.402344 26.644531-28.402344-19.625-1.175781-26.441406-26.492188-26.441406-26.492188zm0 0" fill="#d7e057"/><path d="m91.867188 45.847656c-17.207032-1.027344-23.664063-24.046875-23.722657-24.28125-.382812-1.402344-1.703125-2.328125-3.167969-2.203125-1.453124.132813-2.597656 1.285157-2.71875 2.734375-1.722656 20.429688-22.628906 23.925782-23.507812 24.066406-1.527344.230469-2.628906 1.578126-2.546875 3.121094.078125 1.539063 1.3125 2.769532 2.855469 2.84375 18.054687.847656 22.996094 25.4375 23.042968 25.683594.273438 1.421875 1.519532 2.433594 2.945313 2.433594.082031 0 .167969 0 .25-.007813 1.53125-.128906 2.714844-1.386719 2.75-2.917969.386719-17.019531 24.382813-25.554687 24.628906-25.640624 1.351563-.46875 2.183594-1.828126 1.988281-3.246094-.203124-1.417969-1.367187-2.5-2.796874-2.585938zm-27.128907 20.695313c-2.714843-6.265625-7.417969-13.816407-15.175781-17.753907 5.863281-2.808593 12.816406-7.824218 16.402344-16.546874 3.105468 6.144531 8.402344 13.761718 16.667968 17.445312-6.015624 3.28125-13.84375 8.808594-17.894531 16.855469zm0 0" fill="#3a312a"/><path d="m21.847656 56.3125c-1.375 16.355469-18.425781 18.941406-18.425781 18.941406 14.636719.6875 18.285156 19.886719 18.285156 19.886719.3125-13.6875 18.84375-20.089844 18.84375-20.089844-13.882812-.832031-18.703125-18.738281-18.703125-18.738281zm0 0" fill="#d7e057"/><path d="m40.730469 72.054688c-11.53125-.6875-15.945313-16.371094-15.988281-16.527344-.378907-1.402344-1.714844-2.316406-3.160157-2.203125-1.453125.128906-2.601562 1.285156-2.722656 2.734375-1.15625 13.742187-15.292969 16.132812-15.882813 16.230468-1.527343.226563-2.625 1.578126-2.546874 3.117188.082031 1.542969 1.316406 2.769531 2.855468 2.84375 12.070313.566406 15.449219 17.289062 15.476563 17.453125.273437 1.425781 1.519531 2.4375 2.945312 2.4375.082031 0 .167969-.003906.25-.007813 1.53125-.128906 2.71875-1.390624 2.753907-2.921874.261718-11.417969 16.660156-17.269532 16.824218-17.324219 1.351563-.46875 2.1875-1.828125 1.992188-3.246094-.199219-1.417969-1.367188-2.5-2.796875-2.585937zm-19.167969 13.589843c-1.851562-3.769531-4.683594-7.894531-8.894531-10.558593 3.710937-2.082032 7.394531-5.257813 9.742187-9.832032 2.113282 3.746094 5.304688 7.90625 9.878906 10.445313-3.699218 2.203125-7.976562 5.480469-10.726562 9.945312zm0 0" fill="#3a312a"/><path d="m21.847656 2.996094c-1.375 16.359375-18.425781 18.941406-18.425781 18.941406 14.636719.6875 18.285156 19.886719 18.285156 19.886719.3125-13.6875 18.84375-20.089844 18.84375-20.089844-13.882812-.828125-18.703125-18.738281-18.703125-18.738281zm0 0" fill="#d7e057"/><path d="m40.730469 18.742188c-11.53125-.691407-15.945313-16.371094-15.988281-16.527344-.378907-1.40625-1.714844-2.316406-3.160157-2.2070315-1.453125.1328125-2.601562 1.2890625-2.722656 2.7382815-1.15625 13.738281-15.292969 16.132812-15.882813 16.226562-1.527343.230469-2.625 1.578125-2.546874 3.121094.082031 1.539062 1.316406 2.765625 2.855468 2.839844 12.070313.570312 15.449219 17.289062 15.476563 17.453125.273437 1.425781 1.519531 2.441406 2.945312 2.441406.082031 0 .167969-.003906.25-.011719 1.53125-.128906 2.71875-1.386718 2.753907-2.921875.261718-11.417969 16.660156-17.265625 16.824218-17.324219 1.351563-.46875 2.1875-1.824218 1.992188-3.242187-.199219-1.417969-1.367188-2.5-2.796875-2.585937zm-19.167969 13.589843c-1.851562-3.769531-4.683594-7.894531-8.894531-10.558593 3.710937-2.085938 7.394531-5.261719 9.742187-9.835938 2.113282 3.75 5.304688 7.910156 9.878906 10.449219-3.699218 2.199219-7.976562 5.480469-10.726562 9.945312zm0 0" fill="#3a312a"/><path d="m226.710938 24.285156c-106.707032 0-194.109376 82.625-201.734376 187.386719l-.167968 27.136719c6.324218 106.015625 94.296875 190.046875 201.902344 190.046875 111.71875 0 202.285156-90.566407 202.285156-202.285157.003906-111.722656-90.5625-202.285156-202.285156-202.285156zm0 0" fill="#87796f"/><path d="m226.710938 21.285156c-52.195313 0-101.941407 19.609375-140.070313 55.214844-37.9375 35.429688-60.898437 83.355469-64.65625 134.957031-.121094 1.648438 1.121094 3.089844 2.777344 3.207031 1.570312.121094 3.085937-1.117187 3.207031-2.773437 7.535156-103.515625 94.835938-184.605469 198.742188-184.605469 109.886718 0 199.289062 89.398438 199.289062 199.285156 0 109.886719-89.398438 199.28125-199.289062 199.28125-105.269532 0-192.640626-82.238281-198.910157-187.222656-.09375-1.59375-1.417969-2.824218-2.992187-2.824218-.058594 0-.121094.003906-.183594.007812-1.648438.097656-2.914062 1.519531-2.8125 3.171875 6.457031 108.152344 96.460938 192.867187 204.898438 192.867187 113.199218 0 205.289062-92.089843 205.289062-205.28125 0-113.195312-92.089844-205.285156-205.289062-205.285156zm0 0" fill="#3a312a"/><path d="m305.667969 74.898438-24.417969-10.394532c-17.132812-5.761718-35.460938-8.933594-54.539062-8.933594-94.4375 0-171 76.558594-171 171 0 94.4375 76.5625 171 171 171 94.441406 0 171-76.5625 171-171 0-65.953124-37.355469-123.144531-92.042969-151.671874zm0 0" fill="#d7e057"/><g fill="#3a312a"><path d="m307.054688 72.238281c-1.464844-.761719-3.28125-.199219-4.046876 1.269531-.765624 1.46875-.195312 3.285157 1.273438 4.050782 55.78125 29.097656 90.433594 86.195312 90.433594 149.007812 0 92.636719-75.367188 168-168 168-92.632813 0-168-75.363281-168-168 0-92.636718 75.367187-168 168-168 18.238281 0 36.269531 2.953125 53.582031 8.78125 1.582031.53125 3.273437-.316406 3.800781-1.886718.527344-1.570313-.316406-3.273438-1.886718-3.800782-17.933594-6.03125-36.605469-9.089844-55.496094-9.089844-95.945313 0-174 78.054688-174 174 0 95.941407 78.054687 174 174 174 95.945312 0 174-78.058593 174-174-.003906-65.0625-35.886719-124.195312-93.660156-154.332031zm0 0"/><path d="m226.710938 72.953125c-1.832032 0-3.320313 1.484375-3.320313 3.320313v6.75c0 1.832031 1.488281 3.320312 3.320313 3.320312 1.835937 0 3.324218-1.488281 3.324218-3.320312v-6.75c0-1.835938-1.488281-3.320313-3.324218-3.320313zm0 0"/><path d="m226.710938 366.792969c-1.832032 0-3.320313 1.484375-3.320313 3.320312v6.75c0 1.835938 1.488281 3.320313 3.320313 3.320313 1.835937 0 3.324218-1.484375 3.324218-3.320313v-6.75c0-1.835937-1.488281-3.320312-3.324218-3.320312zm0 0"/><path d="m377.007812 223.246094h-6.75c-1.835937 0-3.320312 1.488281-3.320312 3.320312 0 1.835938 1.488281 3.324219 3.320312 3.324219h6.75c1.835938 0 3.324219-1.488281 3.324219-3.324219 0-1.832031-1.488281-3.320312-3.324219-3.320312zm0 0"/><path d="m83.167969 223.246094h-6.75c-1.835938 0-3.320313 1.488281-3.320313 3.320312 0 1.835938 1.488282 3.324219 3.320313 3.324219h6.75c1.835937 0 3.324219-1.488281 3.324219-3.324219 0-1.832031-1.488282-3.320312-3.324219-3.320312zm0 0"/><path d="m335.335938 117.945312c-1.296876-1.296874-3.402344-1.296874-4.695313 0l-4.773437 4.773438c-1.296876 1.296875-1.296876 3.402344 0 4.695312 1.296874 1.300782 3.398437 1.300782 4.699218 0l4.769532-4.769531c1.296874-1.300781 1.296874-3.402343 0-4.699219zm0 0"/><path d="m127.5625 325.722656c-1.300781-1.300781-3.402344-1.300781-4.699219 0l-4.773437 4.769532c-1.296875 1.300781-1.296875 3.402343 0 4.699218 1.300781 1.296875 3.402344 1.296875 4.699218 0l4.773438-4.773437c1.296875-1.296875 1.296875-3.398438 0-4.695313zm0 0"/><path d="m335.335938 330.492188-4.769532-4.769532c-1.300781-1.300781-3.402344-1.300781-4.699218 0-1.296876 1.296875-1.296876 3.398438 0 4.695313l4.773437 4.773437c1.292969 1.296875 3.398437 1.296875 4.695313 0 1.296874-1.296875 1.296874-3.398437 0-4.699218zm0 0"/><path d="m127.5625 122.71875-4.773438-4.773438c-1.296874-1.296874-3.402343-1.296874-4.699218 0-1.296875 1.296876-1.296875 3.402344 0 4.699219l4.773437 4.769531c1.296875 1.300782 3.398438 1.300782 4.699219 0 1.296875-1.296874 1.296875-3.398437 0-4.695312zm0 0"/><path d="m335.332031 330.488281-4.757812-4.761719c-1.300781-1.300781-3.402344-1.300781-4.703125 0-1.296875 1.300782-1.296875 3.402344 0 4.699219l4.761718 4.761719c1.300782 1.300781 3.398438 1.300781 4.699219 0 1.300781-1.296875 1.300781-3.398438 0-4.699219zm0 0"/><path d="m327.207031 141.359375c-1.058593-1.277344-2.949219-1.453125-4.222656-.390625l-98.46875 81.761719-67.085937-64.125c-1.195313-1.144531-3.097657-1.101563-4.242188.097656-1.144531 1.195313-1.101562 3.09375.097656 4.238281l69.015625 65.972656c.574219.550782 1.324219.832032 2.070313.832032.683594 0 1.363281-.230469 1.917968-.691406l100.527344-83.472657c1.273438-1.058593 1.449219-2.949219.390625-4.222656zm0 0"/></g><path d="m231.855469 213.316406c-6.578125-4.804687-15.789063-3.359375-20.582031 3.210938-4.789063 6.574218-3.359376 15.785156 3.21875 20.582031 6.570312 4.796875 15.789062 3.351563 20.574218-3.214844 4.800782-6.574219 3.363282-15.789062-3.210937-20.578125zm0 0" fill="#f16c7a" fill-rule="evenodd"/><path d="m240.6875 222.472656c-.730469-4.679687-3.242188-8.792968-7.066406-11.578125-3.828125-2.796875-8.511719-3.925781-13.191406-3.203125-4.679688.734375-8.789063 3.242188-11.582032 7.070313-5.757812 7.902343-4.019531 19.011719 3.875 24.773437 3.066406 2.238282 6.683594 3.410156 10.410156 3.410156.921876 0 1.851563-.070312 2.78125-.21875 4.679688-.730468 8.789063-3.242187 11.574219-7.0625 2.796875-3.828124 3.929688-8.511718 3.199219-13.191406zm-8.042969 9.65625c-1.847656 2.527344-4.5625 4.1875-7.660156 4.671875-3.09375.488281-6.195313-.265625-8.726563-2.113281-5.21875-3.808594-6.367187-11.164062-2.5625-16.390625 1.847657-2.53125 4.566407-4.195313 7.664063-4.675781 3.09375-.484375 6.195313.269531 8.726563 2.121094 2.53125 1.84375 4.191406 4.5625 4.675781 7.65625s-.269531 6.191406-2.117188 8.730468zm0 0" fill="#3a312a"/><path d="m333.621094 96.96875c24.261718 29.5 38.101562 66.902344 38.101562 106.601562 0 6.660157-.378906 13.21875-1.160156 19.679688h6.441406c1.839844 0 3.320313 1.480469 3.320313 3.320312 0 1.839844-1.480469 3.320313-3.320313 3.320313h-6.742187c-.199219 0-.398438-.019531-.597657-.0625-11.28125 71.640625-68.042968 128.402344-139.679687 139.679687.039063.203126.058594.402344.058594.601563v6.761719c0 1.816406-1.5 3.316406-3.320313 3.316406-1.839844 0-3.339844-1.5-3.339844-3.316406v-6.460938c-6.441406.777344-13 1.160156-19.660156 1.160156-40.480468 0-77.660156-14.382812-106.679687-38.320312 30.820312 37.417969 77.519531 61.320312 129.679687 61.320312 92.621094 0 168-75.359374 168-168 0-50.921874-22.761718-98.082031-61.101562-129.601562zm1.722656 238.21875c-1.140625 1.140625-2.902344 1.28125-4.179688.421875-.203124-.121094-.359374-.261719-.519531-.421875l-4.761719-4.757812c-.019531 0-.019531 0-.019531 0-.640625-.660157-.980469-1.5-.980469-2.339844 0-.859375.339844-1.71875.980469-2.359375 1.140625-1.140625 2.898438-1.28125 4.179688-.421875.140625.082031.28125.199218.398437.320312.042969.019532.082032.058594.121094.101563h.019531l4.761719 4.757812c.160156.160157.300781.339844.417969.519531.082031.140626.160156.28125.222656.421876.019531.058593.058594.097656.078125.160156.5 1.199218.242188 2.617187-.71875 3.597656zm0 0" fill="#b9bc39"/></svg>