<?xml version="1.0" standalone="no"?>
<!DOCTYPE svg PUBLIC "-//W3C//DTD SVG 1.1//EN" "http://www.w3.org/Graphics/SVG/1.1/DTD/svg11.dtd">
<svg width="100%" height="100%" viewBox="0 0 627 122" version="1.1" xmlns="http://www.w3.org/2000/svg" xmlns:xlink="http://www.w3.org/1999/xlink" xml:space="preserve" style="fill-rule:evenodd;clip-rule:evenodd;stroke-linejoin:round;stroke-miterlimit:10;">
    <path d="M129.506,83.391C140.236,54.01 150.966,24.63 164.424,24.448C177.883,24.266 210.256,82.299 210.256,82.299" style="fill:none;stroke-width:1px;stroke:black;"/>
    <path d="M297.631,82.891L379.506,29.391" style="fill:rgb(79,129,189);stroke-width:1px;stroke:black;"/>
    <path d="M517.04,88.891C525.258,67.416 533.475,45.942 548.225,36.479C562.975,27.016 605.54,32.111 605.54,32.111" style="fill:none;stroke-width:1px;stroke:black;"/>
    <path d="M117.506,25.641L117.505,97.641" style="fill:none;stroke-width:1px;stroke:black;"/>
    <path d="M117.506,97.641L219.506,97.641" style="fill:none;stroke-width:1px;stroke:black;"/>
    <path d="M287.506,25.641L287.505,97.641" style="fill:none;stroke-width:1px;stroke:black;"/>
    <path d="M287.506,97.641L389.506,97.641" style="fill:none;stroke-width:1px;stroke:black;"/>
    <path d="M503.539,27.266L503.539,99.266" style="fill:none;stroke-width:1px;stroke:black;"/>
    <path d="M503.539,99.266L605.54,99.266" style="fill:none;stroke-width:1px;stroke:black;"/>
    <path d="M236.717,59.838L236.717,55.127L232.041,55.127L232.041,53.159L236.717,53.159L236.717,48.483L238.709,48.483L238.709,53.159L243.385,53.159L243.385,55.127L238.709,55.127L238.709,59.838L236.717,59.838Z" style="fill:black;fill-rule:nonzero;"/>
    <g>
        <path d="M422.717,60.213L422.717,55.502L418.041,55.502L418.041,53.534L422.717,53.534L422.717,48.858L424.709,48.858L424.709,53.534L429.385,53.534L429.385,55.502L424.709,55.502L424.709,60.213L422.717,60.213Z" style="fill:black;fill-rule:nonzero;"/>
        <path d="M439.256,55.791L439.256,54.189L440.858,54.189L440.858,55.791L439.256,55.791ZM444.592,55.791L444.592,54.189L446.194,54.189L446.194,55.791L444.592,55.791ZM449.92,55.791L449.92,54.189L451.53,54.189L451.53,55.791L449.92,55.791Z" style="fill:black;fill-rule:nonzero;"/>
        <path d="M465.901,60.213L465.901,55.502L461.225,55.502L461.225,53.534L465.901,53.534L465.901,48.858L467.893,48.858L467.893,53.534L472.569,53.534L472.569,55.502L467.893,55.502L467.893,60.213L465.901,60.213Z" style="fill:black;fill-rule:nonzero;"/>
    </g>
    <g>
        <path d="M222.786,107.938C222.977,108.141 223.122,108.344 223.219,108.547C223.289,108.688 223.405,109.057 223.565,109.655L224.08,108.881C224.217,108.694 224.383,108.515 224.579,108.345C224.774,108.175 224.946,108.059 225.094,107.997C225.188,107.958 225.291,107.938 225.405,107.938C225.573,107.938 225.706,107.983 225.806,108.073C225.906,108.163 225.955,108.272 225.955,108.401C225.955,108.549 225.926,108.651 225.868,108.706C225.758,108.803 225.633,108.852 225.493,108.852C225.411,108.852 225.323,108.835 225.229,108.799C225.045,108.737 224.922,108.706 224.86,108.706C224.766,108.706 224.655,108.76 224.526,108.87C224.284,109.073 223.995,109.465 223.659,110.047L224.139,112.063C224.213,112.372 224.276,112.556 224.327,112.617C224.377,112.677 224.428,112.708 224.479,112.708C224.561,112.708 224.657,112.663 224.766,112.573C224.981,112.393 225.164,112.159 225.317,111.87L225.522,111.975C225.276,112.436 224.963,112.819 224.584,113.124C224.37,113.295 224.188,113.381 224.039,113.381C223.821,113.381 223.647,113.258 223.518,113.012C223.436,112.86 223.266,112.204 223.008,111.044C222.399,112.102 221.911,112.784 221.543,113.088C221.305,113.284 221.075,113.381 220.852,113.381C220.696,113.381 220.553,113.325 220.424,113.211C220.33,113.126 220.284,113.01 220.284,112.866C220.284,112.737 220.327,112.629 220.413,112.544C220.498,112.458 220.604,112.415 220.729,112.415C220.854,112.415 220.987,112.477 221.127,112.602C221.229,112.692 221.307,112.737 221.362,112.737C221.409,112.737 221.469,112.706 221.543,112.643C221.727,112.495 221.977,112.174 222.293,111.682C222.61,111.19 222.817,110.835 222.914,110.616C222.672,109.667 222.541,109.165 222.522,109.11C222.432,108.856 222.315,108.676 222.17,108.571C222.026,108.465 221.813,108.413 221.532,108.413C221.442,108.413 221.338,108.417 221.221,108.424L221.221,108.213L222.786,107.938Z" style="fill:black;fill-rule:nonzero;"/>
        <path d="M226.969,111.463L228.258,110.835L228.387,110.835L228.387,115.307C228.387,115.604 228.4,115.789 228.424,115.862C228.449,115.935 228.5,115.991 228.579,116.03C228.657,116.069 228.816,116.091 229.055,116.096L229.055,116.241L227.063,116.241L227.063,116.096C227.313,116.091 227.474,116.07 227.547,116.032C227.62,115.994 227.671,115.943 227.7,115.879C227.728,115.816 227.743,115.625 227.743,115.307L227.743,112.448C227.743,112.062 227.73,111.815 227.704,111.706C227.685,111.622 227.652,111.561 227.604,111.522C227.556,111.483 227.498,111.463 227.43,111.463C227.334,111.463 227.2,111.504 227.028,111.585L226.969,111.463Z" style="fill:black;fill-rule:nonzero;"/>
    </g>
    <g>
        <path d="M392.786,107.938C392.977,108.141 393.122,108.344 393.219,108.547C393.289,108.688 393.405,109.057 393.565,109.655L394.081,108.881C394.217,108.694 394.383,108.515 394.579,108.345C394.774,108.175 394.946,108.059 395.094,107.997C395.188,107.958 395.291,107.938 395.405,107.938C395.573,107.938 395.706,107.983 395.806,108.073C395.906,108.163 395.956,108.272 395.956,108.401C395.956,108.549 395.926,108.651 395.868,108.706C395.758,108.803 395.633,108.852 395.493,108.852C395.411,108.852 395.323,108.835 395.229,108.799C395.045,108.737 394.922,108.706 394.86,108.706C394.766,108.706 394.655,108.76 394.526,108.87C394.284,109.073 393.995,109.465 393.659,110.047L394.139,112.063C394.213,112.372 394.276,112.556 394.327,112.617C394.377,112.677 394.428,112.708 394.479,112.708C394.561,112.708 394.657,112.663 394.766,112.573C394.981,112.393 395.164,112.159 395.317,111.87L395.522,111.975C395.276,112.436 394.963,112.819 394.584,113.124C394.37,113.295 394.188,113.381 394.039,113.381C393.821,113.381 393.647,113.258 393.518,113.012C393.436,112.86 393.266,112.204 393.008,111.044C392.399,112.102 391.911,112.784 391.543,113.088C391.305,113.284 391.075,113.381 390.852,113.381C390.696,113.381 390.553,113.325 390.424,113.211C390.331,113.126 390.284,113.01 390.284,112.866C390.284,112.737 390.327,112.629 390.413,112.544C390.498,112.458 390.604,112.415 390.729,112.415C390.854,112.415 390.987,112.477 391.127,112.602C391.229,112.692 391.307,112.737 391.362,112.737C391.409,112.737 391.469,112.706 391.543,112.643C391.727,112.495 391.977,112.174 392.293,111.682C392.61,111.19 392.817,110.835 392.914,110.616C392.672,109.667 392.541,109.165 392.522,109.11C392.432,108.856 392.315,108.676 392.17,108.571C392.026,108.465 391.813,108.413 391.532,108.413C391.442,108.413 391.338,108.417 391.221,108.424L391.221,108.213L392.786,107.938Z" style="fill:black;fill-rule:nonzero;"/>
        <path d="M399.7,115.221L399.329,116.241L396.204,116.241L396.204,116.096C397.123,115.258 397.77,114.573 398.145,114.042C398.52,113.51 398.707,113.025 398.707,112.585C398.707,112.249 398.605,111.973 398.399,111.756C398.193,111.54 397.947,111.432 397.661,111.432C397.4,111.432 397.166,111.508 396.959,111.661C396.752,111.813 396.599,112.036 396.5,112.331L396.356,112.331C396.421,111.849 396.588,111.479 396.858,111.221C397.127,110.963 397.464,110.835 397.868,110.835C398.297,110.835 398.656,110.973 398.944,111.249C399.232,111.525 399.375,111.85 399.375,112.225C399.375,112.493 399.313,112.762 399.188,113.03C398.995,113.452 398.683,113.898 398.25,114.37C397.602,115.078 397.197,115.505 397.036,115.651L398.418,115.651C398.7,115.651 398.897,115.641 399.01,115.62C399.123,115.599 399.226,115.557 399.317,115.493C399.408,115.429 399.487,115.338 399.555,115.221L399.7,115.221Z" style="fill:black;fill-rule:nonzero;"/>
    </g>
    <g>
        <path d="M608.82,109.563C609.011,109.766 609.156,109.969 609.253,110.172C609.323,110.313 609.439,110.682 609.599,111.28L610.115,110.506C610.251,110.319 610.417,110.14 610.613,109.97C610.808,109.8 610.98,109.684 611.128,109.622C611.222,109.583 611.325,109.563 611.439,109.563C611.607,109.563 611.74,109.608 611.84,109.698C611.94,109.788 611.99,109.897 611.99,110.026C611.99,110.174 611.96,110.276 611.902,110.331C611.792,110.428 611.667,110.477 611.527,110.477C611.445,110.477 611.357,110.459 611.263,110.424C611.079,110.362 610.956,110.331 610.894,110.331C610.8,110.331 610.689,110.385 610.56,110.495C610.318,110.698 610.029,111.09 609.693,111.672L610.173,113.688C610.247,113.997 610.31,114.181 610.361,114.242C610.411,114.302 610.462,114.333 610.513,114.333C610.595,114.333 610.691,114.288 610.8,114.198C611.015,114.018 611.198,113.784 611.351,113.495L611.556,113.6C611.31,114.061 610.997,114.444 610.618,114.749C610.404,114.92 610.222,115.006 610.073,115.006C609.855,115.006 609.681,114.883 609.552,114.637C609.47,114.485 609.3,113.829 609.042,112.668C608.433,113.727 607.945,114.409 607.577,114.713C607.339,114.909 607.109,115.006 606.886,115.006C606.73,115.006 606.587,114.95 606.458,114.836C606.365,114.751 606.318,114.635 606.318,114.491C606.318,114.362 606.361,114.254 606.447,114.168C606.532,114.083 606.638,114.04 606.763,114.04C606.888,114.04 607.021,114.102 607.161,114.227C607.263,114.317 607.341,114.362 607.396,114.362C607.443,114.362 607.503,114.331 607.577,114.268C607.761,114.12 608.011,113.799 608.327,113.307C608.644,112.815 608.851,112.459 608.948,112.241C608.706,111.292 608.575,110.79 608.556,110.735C608.466,110.481 608.349,110.301 608.204,110.196C608.06,110.09 607.847,110.038 607.566,110.038C607.476,110.038 607.372,110.042 607.255,110.049L607.255,109.838L608.82,109.563Z" style="fill:black;fill-rule:nonzero;"/>
        <path d="M613.835,114.331L613.566,115.229C613.85,114.896 614.103,114.663 614.325,114.53C614.548,114.397 614.775,114.331 615.007,114.331C615.239,114.331 615.437,114.422 615.601,114.606C615.765,114.79 615.847,115.029 615.847,115.323C615.847,115.896 615.614,116.478 615.148,117.071C614.682,117.663 614.139,117.959 613.519,117.959C613.389,117.959 613.273,117.945 613.173,117.917C613.073,117.888 612.96,117.837 612.835,117.764L612.55,118.772C612.493,118.97 612.464,119.099 612.464,119.159C612.464,119.216 612.479,119.265 612.509,119.305C612.539,119.346 612.588,119.377 612.656,119.399C612.723,119.421 612.857,119.432 613.058,119.432L613.023,119.577L611.183,119.577L611.222,119.432C611.464,119.422 611.628,119.38 611.712,119.307C611.797,119.234 611.886,119.032 611.98,118.702L612.968,115.28C613.028,115.064 613.058,114.93 613.058,114.877C613.058,114.807 613.038,114.752 612.997,114.713C612.957,114.674 612.895,114.655 612.812,114.655C612.736,114.655 612.631,114.664 612.495,114.682L612.495,114.53L613.835,114.331ZM612.925,117.456C613.087,117.648 613.304,117.745 613.577,117.745C613.713,117.745 613.851,117.707 613.991,117.631C614.132,117.556 614.269,117.444 614.404,117.295C614.538,117.147 614.658,116.976 614.765,116.782C614.872,116.588 614.967,116.359 615.052,116.096C615.137,115.833 615.179,115.573 615.179,115.315C615.179,115.107 615.131,114.947 615.036,114.836C614.941,114.726 614.83,114.67 614.702,114.67C614.421,114.67 614.143,114.832 613.868,115.155C613.594,115.478 613.392,115.855 613.265,116.288L612.925,117.456Z" style="fill:black;fill-rule:nonzero;"/>
    </g>
    <g>
        <path d="M104.51,12.897L104.034,15.295L103.745,15.295C103.719,14.598 103.57,14.09 103.299,13.772C103.028,13.454 102.692,13.295 102.291,13.295C101.969,13.295 101.712,13.384 101.522,13.561C101.332,13.738 101.237,13.952 101.237,14.202C101.237,14.374 101.275,14.538 101.35,14.694C101.426,14.85 101.591,15.069 101.846,15.35C102.523,16.09 102.961,16.647 103.159,17.022C103.357,17.397 103.456,17.751 103.456,18.084C103.456,18.626 103.23,19.107 102.78,19.526C102.329,19.945 101.76,20.155 101.073,20.155C100.698,20.155 100.265,20.066 99.776,19.889C99.604,19.827 99.471,19.795 99.377,19.795C99.143,19.795 98.966,19.915 98.846,20.155L98.557,20.155L99.034,17.624L99.323,17.624C99.354,18.415 99.518,18.975 99.815,19.303C100.112,19.631 100.518,19.795 101.034,19.795C101.429,19.795 101.743,19.685 101.975,19.463C102.207,19.242 102.323,18.97 102.323,18.647C102.323,18.439 102.281,18.246 102.198,18.069C102.052,17.756 101.746,17.324 101.28,16.772C100.814,16.22 100.514,15.806 100.381,15.53C100.248,15.254 100.182,14.978 100.182,14.702C100.182,14.196 100.366,13.769 100.733,13.42C101.1,13.071 101.573,12.897 102.151,12.897C102.317,12.897 102.469,12.91 102.604,12.936C102.677,12.952 102.847,13.01 103.116,13.112C103.384,13.213 103.562,13.264 103.651,13.264C103.875,13.264 104.062,13.142 104.213,12.897L104.51,12.897Z" style="fill:black;fill-rule:nonzero;"/>
        <path d="M106.182,17.598L107.901,16.759L108.073,16.759L108.073,22.723C108.073,23.118 108.089,23.365 108.122,23.462C108.155,23.559 108.224,23.634 108.328,23.686C108.432,23.738 108.644,23.768 108.963,23.775L108.963,23.967L106.307,23.967L106.307,23.775C106.64,23.768 106.856,23.739 106.953,23.689C107.05,23.638 107.118,23.571 107.156,23.486C107.194,23.4 107.213,23.146 107.213,22.723L107.213,18.91C107.213,18.396 107.196,18.066 107.161,17.92C107.137,17.809 107.093,17.728 107.028,17.676C106.964,17.624 106.887,17.598 106.797,17.598C106.668,17.598 106.489,17.651 106.26,17.759L106.182,17.598Z" style="fill:black;fill-rule:nonzero;"/>
        <path d="M115.234,23.1L115.234,23.389C114.448,22.993 113.791,22.53 113.265,21.999C112.515,21.243 111.937,20.353 111.531,19.327C111.125,18.301 110.922,17.236 110.922,16.131C110.922,14.517 111.32,13.044 112.117,11.713C112.914,10.383 113.953,9.431 115.234,8.858L115.234,9.186C114.594,9.54 114.067,10.025 113.656,10.639C113.245,11.254 112.937,12.032 112.734,12.975C112.531,13.918 112.429,14.902 112.429,15.928C112.429,17.043 112.515,18.056 112.687,18.967C112.823,19.686 112.987,20.263 113.179,20.698C113.372,21.133 113.631,21.551 113.957,21.952C114.282,22.353 114.708,22.736 115.234,23.1Z" style="fill:black;fill-rule:nonzero;"/>
        <path d="M118.367,12.897C118.622,13.168 118.815,13.439 118.945,13.709C119.039,13.897 119.192,14.389 119.406,15.186L120.094,14.155C120.276,13.905 120.497,13.667 120.758,13.44C121.018,13.213 121.247,13.058 121.445,12.975C121.57,12.923 121.708,12.897 121.859,12.897C122.083,12.897 122.261,12.957 122.394,13.077C122.527,13.196 122.594,13.342 122.594,13.514C122.594,13.712 122.554,13.848 122.476,13.92C122.331,14.051 122.164,14.116 121.976,14.116C121.867,14.116 121.75,14.092 121.625,14.045C121.38,13.962 121.216,13.92 121.133,13.92C121.008,13.92 120.859,13.993 120.687,14.139C120.364,14.41 119.979,14.933 119.531,15.709L120.172,18.397C120.271,18.808 120.354,19.055 120.422,19.135C120.489,19.216 120.557,19.256 120.625,19.256C120.734,19.256 120.862,19.196 121.008,19.077C121.294,18.837 121.539,18.525 121.742,18.139L122.015,18.28C121.687,18.894 121.271,19.405 120.765,19.811C120.479,20.04 120.237,20.155 120.039,20.155C119.747,20.155 119.515,19.991 119.344,19.663C119.234,19.459 119.008,18.584 118.664,17.038C117.851,18.449 117.2,19.358 116.711,19.764C116.393,20.025 116.086,20.155 115.789,20.155C115.581,20.155 115.39,20.079 115.219,19.928C115.094,19.814 115.031,19.66 115.031,19.467C115.031,19.295 115.088,19.152 115.203,19.038C115.317,18.923 115.458,18.866 115.625,18.866C115.791,18.866 115.969,18.949 116.156,19.116C116.291,19.236 116.396,19.295 116.469,19.295C116.531,19.295 116.612,19.254 116.711,19.17C116.956,18.973 117.289,18.545 117.711,17.889C118.133,17.233 118.409,16.759 118.539,16.467C118.216,15.202 118.041,14.532 118.015,14.459C117.896,14.121 117.739,13.881 117.547,13.741C117.354,13.6 117.07,13.53 116.695,13.53C116.575,13.53 116.437,13.535 116.281,13.545L116.281,13.264L118.367,12.897Z" style="fill:black;fill-rule:nonzero;"/>
        <path d="M123.945,17.598L125.664,16.759L125.836,16.759L125.836,22.723C125.836,23.118 125.852,23.365 125.885,23.462C125.918,23.559 125.987,23.634 126.091,23.686C126.195,23.738 126.407,23.768 126.726,23.775L126.726,23.967L124.07,23.967L124.07,23.775C124.403,23.768 124.619,23.739 124.716,23.689C124.813,23.638 124.881,23.571 124.919,23.486C124.957,23.4 124.976,23.146 124.976,22.723L124.976,18.91C124.976,18.396 124.959,18.066 124.924,17.92C124.9,17.809 124.856,17.728 124.791,17.676C124.727,17.624 124.65,17.598 124.56,17.598C124.431,17.598 124.252,17.651 124.023,17.759L123.945,17.598Z" style="fill:black;fill-rule:nonzero;"/>
        <path d="M128.298,11.881L128.298,11.635C128.892,11.928 129.386,12.274 129.78,12.672C130.339,13.243 130.771,13.912 131.075,14.679C131.38,15.447 131.532,16.247 131.532,17.079C131.532,18.29 131.234,19.394 130.639,20.392C130.043,21.39 129.263,22.104 128.298,22.534L128.298,22.317C128.778,22.047 129.174,21.683 129.484,21.224C129.795,20.765 130.025,20.181 130.176,19.472C130.326,18.763 130.401,18.024 130.401,17.254C130.401,16.422 130.337,15.663 130.208,14.975C130.11,14.436 129.988,14.004 129.842,13.68C129.695,13.356 129.501,13.043 129.259,12.743C129.017,12.442 128.696,12.155 128.298,11.881Z" style="fill:black;fill-rule:nonzero;"/>
    </g>
    <g>
        <path d="M271.059,14.665L270.702,16.463L270.485,16.463C270.465,15.94 270.354,15.559 270.151,15.321C269.948,15.083 269.696,14.963 269.395,14.963C269.153,14.963 268.96,15.03 268.818,15.163C268.675,15.295 268.604,15.456 268.604,15.643C268.604,15.772 268.632,15.895 268.689,16.012C268.746,16.129 268.87,16.293 269.061,16.504C269.569,17.059 269.897,17.477 270.045,17.758C270.194,18.04 270.268,18.305 270.268,18.555C270.268,18.961 270.099,19.322 269.761,19.636C269.423,19.951 268.997,20.108 268.481,20.108C268.2,20.108 267.875,20.042 267.508,19.909C267.379,19.862 267.28,19.838 267.209,19.838C267.034,19.838 266.901,19.928 266.811,20.108L266.594,20.108L266.952,18.209L267.168,18.209C267.192,18.803 267.315,19.223 267.538,19.469C267.76,19.715 268.065,19.838 268.452,19.838C268.748,19.838 268.984,19.755 269.158,19.589C269.331,19.423 269.418,19.219 269.418,18.977C269.418,18.821 269.387,18.676 269.325,18.543C269.215,18.309 268.986,17.985 268.636,17.571C268.287,17.157 268.062,16.846 267.962,16.639C267.863,16.432 267.813,16.225 267.813,16.018C267.813,15.639 267.951,15.319 268.226,15.057C268.501,14.795 268.856,14.665 269.289,14.665C269.414,14.665 269.528,14.674 269.629,14.694C269.684,14.706 269.812,14.75 270.013,14.826C270.214,14.902 270.348,14.94 270.414,14.94C270.582,14.94 270.723,14.848 270.836,14.665L271.059,14.665Z" style="fill:black;fill-rule:nonzero;"/>
        <path d="M276.266,22.608L275.771,23.967L271.605,23.967L271.605,23.775C272.83,22.657 273.693,21.743 274.193,21.035C274.693,20.327 274.943,19.679 274.943,19.092C274.943,18.644 274.806,18.276 274.532,17.988C274.257,17.7 273.929,17.556 273.547,17.556C273.2,17.556 272.888,17.657 272.612,17.861C272.336,18.064 272.132,18.361 272,18.754L271.808,18.754C271.895,18.111 272.118,17.618 272.477,17.275C272.836,16.931 273.285,16.759 273.823,16.759C274.396,16.759 274.875,16.943 275.258,17.311C275.642,17.679 275.834,18.113 275.834,18.613C275.834,18.971 275.75,19.328 275.584,19.686C275.327,20.249 274.91,20.844 274.334,21.473C273.469,22.417 272.929,22.986 272.714,23.181L274.558,23.181C274.933,23.181 275.196,23.167 275.347,23.139C275.498,23.111 275.634,23.055 275.756,22.97C275.877,22.885 275.983,22.764 276.073,22.608L276.266,22.608Z" style="fill:black;fill-rule:nonzero;"/>
        <path d="M281.678,23.1L281.678,23.389C280.891,22.993 280.235,22.53 279.709,21.999C278.959,21.243 278.381,20.353 277.974,19.327C277.568,18.301 277.365,17.236 277.365,16.131C277.365,14.517 277.763,13.044 278.56,11.713C279.357,10.383 280.396,9.431 281.678,8.858L281.678,9.186C281.037,9.54 280.511,10.025 280.099,10.639C279.688,11.254 279.381,12.032 279.178,12.975C278.974,13.918 278.873,14.902 278.873,15.928C278.873,17.043 278.959,18.056 279.131,18.967C279.266,19.686 279.43,20.263 279.623,20.698C279.816,21.133 280.075,21.551 280.4,21.952C280.726,22.353 281.151,22.736 281.678,23.1Z" style="fill:black;fill-rule:nonzero;"/>
        <path d="M284.81,12.897C285.066,13.168 285.258,13.439 285.388,13.709C285.482,13.897 285.636,14.389 285.849,15.186L286.537,14.155C286.719,13.905 286.941,13.667 287.201,13.44C287.461,13.213 287.691,13.058 287.888,12.975C288.013,12.923 288.151,12.897 288.303,12.897C288.526,12.897 288.705,12.957 288.838,13.077C288.97,13.196 289.037,13.342 289.037,13.514C289.037,13.712 288.998,13.848 288.92,13.92C288.774,14.051 288.607,14.116 288.42,14.116C288.31,14.116 288.193,14.092 288.068,14.045C287.823,13.962 287.659,13.92 287.576,13.92C287.451,13.92 287.303,13.993 287.131,14.139C286.808,14.41 286.422,14.933 285.974,15.709L286.615,18.397C286.714,18.808 286.797,19.055 286.865,19.135C286.933,19.216 287,19.256 287.068,19.256C287.178,19.256 287.305,19.196 287.451,19.077C287.737,18.837 287.982,18.525 288.185,18.139L288.459,18.28C288.131,18.894 287.714,19.405 287.209,19.811C286.922,20.04 286.68,20.155 286.482,20.155C286.191,20.155 285.959,19.991 285.787,19.663C285.678,19.459 285.451,18.584 285.107,17.038C284.295,18.449 283.644,19.358 283.154,19.764C282.836,20.025 282.529,20.155 282.232,20.155C282.024,20.155 281.834,20.079 281.662,19.928C281.537,19.814 281.474,19.66 281.474,19.467C281.474,19.295 281.532,19.152 281.646,19.038C281.761,18.923 281.901,18.866 282.068,18.866C282.235,18.866 282.412,18.949 282.599,19.116C282.735,19.236 282.839,19.295 282.912,19.295C282.974,19.295 283.055,19.254 283.154,19.17C283.399,18.973 283.732,18.545 284.154,17.889C284.576,17.233 284.852,16.759 284.982,16.467C284.659,15.202 284.485,14.532 284.459,14.459C284.339,14.121 284.183,13.881 283.99,13.741C283.797,13.6 283.513,13.53 283.138,13.53C283.019,13.53 282.881,13.535 282.724,13.545L282.724,13.264L284.81,12.897Z" style="fill:black;fill-rule:nonzero;"/>
        <path d="M294.029,22.608L293.534,23.967L289.368,23.967L289.368,23.775C290.593,22.657 291.456,21.743 291.956,21.035C292.456,20.327 292.706,19.679 292.706,19.092C292.706,18.644 292.569,18.276 292.295,17.988C292.02,17.7 291.692,17.556 291.31,17.556C290.963,17.556 290.651,17.657 290.375,17.861C290.099,18.064 289.895,18.361 289.763,18.754L289.571,18.754C289.658,18.111 289.881,17.618 290.24,17.275C290.599,16.931 291.048,16.759 291.586,16.759C292.159,16.759 292.638,16.943 293.021,17.311C293.405,17.679 293.597,18.113 293.597,18.613C293.597,18.971 293.513,19.328 293.347,19.686C293.09,20.249 292.673,20.844 292.097,21.473C291.232,22.417 290.692,22.986 290.477,23.181L292.321,23.181C292.696,23.181 292.959,23.167 293.11,23.139C293.261,23.111 293.397,23.055 293.519,22.97C293.64,22.885 293.746,22.764 293.836,22.608L294.029,22.608Z" style="fill:black;fill-rule:nonzero;"/>
        <path d="M294.831,9.186L294.831,8.858C295.623,9.249 296.282,9.709 296.808,10.241C297.552,11.001 298.128,11.893 298.534,12.917C298.941,13.94 299.144,15.006 299.144,16.116C299.144,17.73 298.747,19.203 297.952,20.534C297.158,21.864 296.118,22.816 294.831,23.389L294.831,23.1C295.472,22.741 295.999,22.255 296.413,21.643C296.827,21.031 297.135,20.252 297.335,19.307C297.536,18.362 297.636,17.376 297.636,16.35C297.636,15.241 297.55,14.228 297.378,13.311C297.248,12.592 297.085,12.017 296.89,11.584C296.694,11.152 296.435,10.736 296.112,10.334C295.789,9.933 295.362,9.551 294.831,9.186Z" style="fill:black;fill-rule:nonzero;"/>
    </g>
    <g>
        <path d="M488.544,12.897L488.068,15.295L487.779,15.295C487.753,14.598 487.604,14.09 487.333,13.772C487.062,13.454 486.726,13.295 486.325,13.295C486.003,13.295 485.746,13.384 485.556,13.561C485.366,13.738 485.271,13.952 485.271,14.202C485.271,14.374 485.309,14.538 485.384,14.694C485.46,14.85 485.625,15.069 485.88,15.35C486.557,16.09 486.995,16.647 487.193,17.022C487.391,17.397 487.489,17.751 487.489,18.084C487.489,18.626 487.264,19.107 486.814,19.526C486.363,19.945 485.794,20.155 485.107,20.155C484.732,20.155 484.299,20.066 483.81,19.889C483.638,19.827 483.505,19.795 483.411,19.795C483.177,19.795 483,19.915 482.88,20.155L482.591,20.155L483.068,17.624L483.357,17.624C483.388,18.415 483.552,18.975 483.849,19.303C484.146,19.631 484.552,19.795 485.068,19.795C485.463,19.795 485.777,19.685 486.009,19.463C486.241,19.242 486.357,18.97 486.357,18.647C486.357,18.439 486.315,18.246 486.232,18.069C486.086,17.756 485.78,17.324 485.314,16.772C484.848,16.22 484.548,15.806 484.415,15.53C484.282,15.254 484.216,14.978 484.216,14.702C484.216,14.196 484.4,13.769 484.767,13.42C485.134,13.071 485.607,12.897 486.185,12.897C486.351,12.897 486.503,12.91 486.638,12.936C486.711,12.952 486.881,13.01 487.15,13.112C487.418,13.213 487.596,13.264 487.685,13.264C487.909,13.264 488.096,13.142 488.247,12.897L488.544,12.897Z" style="fill:black;fill-rule:nonzero;"/>
        <path d="M491.325,19.254L490.966,20.452C491.345,20.007 491.682,19.696 491.979,19.519C492.276,19.342 492.579,19.254 492.888,19.254C493.197,19.254 493.461,19.376 493.68,19.621C493.898,19.866 494.008,20.184 494.008,20.577C494.008,21.341 493.697,22.117 493.075,22.907C492.454,23.697 491.73,24.092 490.904,24.092C490.73,24.092 490.576,24.073 490.443,24.035C490.309,23.997 490.159,23.929 489.992,23.832L489.612,25.176C489.536,25.44 489.497,25.611 489.497,25.691C489.497,25.768 489.517,25.833 489.557,25.887C489.597,25.94 489.662,25.982 489.753,26.012C489.843,26.041 490.022,26.056 490.289,26.056L490.242,26.249L487.789,26.249L487.841,26.056C488.164,26.042 488.382,25.986 488.495,25.889C488.608,25.792 488.726,25.523 488.851,25.082L490.169,20.519C490.249,20.231 490.289,20.052 490.289,19.983C490.289,19.889 490.262,19.816 490.208,19.764C490.154,19.712 490.072,19.686 489.961,19.686C489.86,19.686 489.72,19.698 489.539,19.723L489.539,19.519L491.325,19.254ZM490.112,23.42C490.327,23.677 490.617,23.806 490.982,23.806C491.162,23.806 491.346,23.755 491.534,23.655C491.721,23.554 491.904,23.405 492.083,23.207C492.262,23.009 492.423,22.781 492.565,22.522C492.707,22.263 492.835,21.959 492.948,21.608C493.061,21.257 493.117,20.91 493.117,20.566C493.117,20.288 493.054,20.076 492.927,19.928C492.8,19.781 492.652,19.707 492.482,19.707C492.107,19.707 491.736,19.922 491.37,20.353C491.003,20.783 490.735,21.287 490.565,21.863L490.112,23.42Z" style="fill:black;fill-rule:nonzero;"/>
        <path d="M499.268,23.1L499.268,23.389C498.482,22.993 497.825,22.53 497.299,21.999C496.549,21.243 495.971,20.353 495.565,19.327C495.159,18.301 494.956,17.236 494.956,16.131C494.956,14.517 495.354,13.044 496.151,11.713C496.948,10.383 497.987,9.431 499.268,8.858L499.268,9.186C498.628,9.54 498.101,10.025 497.69,10.639C497.279,11.254 496.971,12.032 496.768,12.975C496.565,13.918 496.463,14.902 496.463,15.928C496.463,17.043 496.549,18.056 496.721,18.967C496.857,19.686 497.021,20.263 497.213,20.698C497.406,21.133 497.665,21.551 497.991,21.952C498.316,22.353 498.742,22.736 499.268,23.1Z" style="fill:black;fill-rule:nonzero;"/>
        <path d="M502.401,12.897C502.656,13.168 502.849,13.439 502.979,13.709C503.073,13.897 503.226,14.389 503.44,15.186L504.128,14.155C504.31,13.905 504.531,13.667 504.792,13.44C505.052,13.213 505.281,13.058 505.479,12.975C505.604,12.923 505.742,12.897 505.893,12.897C506.117,12.897 506.295,12.957 506.428,13.077C506.561,13.196 506.628,13.342 506.628,13.514C506.628,13.712 506.588,13.848 506.51,13.92C506.364,14.051 506.198,14.116 506.01,14.116C505.901,14.116 505.784,14.092 505.659,14.045C505.414,13.962 505.25,13.92 505.167,13.92C505.042,13.92 504.893,13.993 504.721,14.139C504.398,14.41 504.013,14.933 503.565,15.709L504.206,18.397C504.305,18.808 504.388,19.055 504.456,19.135C504.523,19.216 504.591,19.256 504.659,19.256C504.768,19.256 504.896,19.196 505.042,19.077C505.328,18.837 505.573,18.525 505.776,18.139L506.049,18.28C505.721,18.894 505.305,19.405 504.799,19.811C504.513,20.04 504.271,20.155 504.073,20.155C503.781,20.155 503.549,19.991 503.378,19.663C503.268,19.459 503.042,18.584 502.698,17.038C501.885,18.449 501.234,19.358 500.745,19.764C500.427,20.025 500.12,20.155 499.823,20.155C499.614,20.155 499.424,20.079 499.253,19.928C499.128,19.814 499.065,19.66 499.065,19.467C499.065,19.295 499.122,19.152 499.237,19.038C499.351,18.923 499.492,18.866 499.659,18.866C499.825,18.866 500.003,18.949 500.19,19.116C500.325,19.236 500.43,19.295 500.503,19.295C500.565,19.295 500.646,19.254 500.745,19.17C500.989,18.973 501.323,18.545 501.745,17.889C502.167,17.233 502.443,16.759 502.573,16.467C502.25,15.202 502.075,14.532 502.049,14.459C501.93,14.121 501.773,13.881 501.581,13.741C501.388,13.6 501.104,13.53 500.729,13.53C500.609,13.53 500.471,13.535 500.315,13.545L500.315,13.264L502.401,12.897Z" style="fill:black;fill-rule:nonzero;"/>
        <path d="M509.088,19.254L508.729,20.452C509.108,20.007 509.445,19.696 509.742,19.519C510.039,19.342 510.342,19.254 510.651,19.254C510.96,19.254 511.224,19.376 511.443,19.621C511.661,19.866 511.771,20.184 511.771,20.577C511.771,21.341 511.46,22.117 510.838,22.907C510.217,23.697 509.493,24.092 508.667,24.092C508.493,24.092 508.339,24.073 508.206,24.035C508.072,23.997 507.922,23.929 507.755,23.832L507.375,25.176C507.299,25.44 507.26,25.611 507.26,25.691C507.26,25.768 507.28,25.833 507.32,25.887C507.36,25.94 507.425,25.982 507.516,26.012C507.606,26.041 507.785,26.056 508.052,26.056L508.005,26.249L505.552,26.249L505.604,26.056C505.927,26.042 506.145,25.986 506.258,25.889C506.371,25.792 506.489,25.523 506.614,25.082L507.932,20.519C508.012,20.231 508.052,20.052 508.052,19.983C508.052,19.889 508.025,19.816 507.971,19.764C507.917,19.712 507.835,19.686 507.724,19.686C507.623,19.686 507.483,19.698 507.302,19.723L507.302,19.519L509.088,19.254ZM507.875,23.42C508.09,23.677 508.38,23.806 508.745,23.806C508.925,23.806 509.109,23.755 509.297,23.655C509.484,23.554 509.667,23.405 509.846,23.207C510.025,23.009 510.186,22.781 510.328,22.522C510.47,22.263 510.598,21.959 510.711,21.608C510.824,21.257 510.88,20.91 510.88,20.566C510.88,20.288 510.817,20.076 510.69,19.928C510.563,19.781 510.415,19.707 510.245,19.707C509.87,19.707 509.499,19.922 509.133,20.353C508.766,20.783 508.498,21.287 508.328,21.863L507.875,23.42Z" style="fill:black;fill-rule:nonzero;"/>
        <path d="M512.422,9.186L512.422,8.858C513.213,9.249 513.872,9.709 514.398,10.241C515.143,11.001 515.719,11.893 516.125,12.917C516.531,13.94 516.734,15.006 516.734,16.116C516.734,17.73 516.337,19.203 515.543,20.534C514.749,21.864 513.708,22.816 512.422,23.389L512.422,23.1C513.062,22.741 513.59,22.255 514.004,21.643C514.418,21.031 514.725,20.252 514.926,19.307C515.126,18.362 515.226,17.376 515.226,16.35C515.226,15.241 515.141,14.228 514.969,13.311C514.838,12.592 514.676,12.017 514.48,11.584C514.285,11.152 514.026,10.736 513.703,10.334C513.38,9.933 512.953,9.551 512.422,9.186Z" style="fill:black;fill-rule:nonzero;"/>
    </g>
    <g>
        <path d="M18.206,58.319L17.922,59.334L16.292,59.334C16.415,59.686 16.477,60.014 16.477,60.32C16.477,61.18 16.113,61.945 15.383,62.615C14.648,63.286 13.639,63.657 12.356,63.729C11.666,63.937 11.148,64.184 10.803,64.471C10.673,64.575 10.608,64.682 10.608,64.793C10.608,64.923 10.667,65.042 10.784,65.15C10.901,65.257 11.197,65.366 11.672,65.477L13.567,65.916C14.615,66.164 15.309,66.457 15.647,66.795C15.979,67.14 16.145,67.537 16.145,67.986C16.145,68.52 15.948,69.009 15.554,69.451C15.16,69.894 14.584,70.241 13.826,70.491C13.067,70.742 12.229,70.867 11.311,70.867C10.504,70.867 9.768,70.771 9.104,70.579C8.44,70.387 7.965,70.128 7.678,69.803C7.392,69.477 7.249,69.142 7.249,68.797C7.249,68.517 7.341,68.226 7.527,67.923C7.713,67.62 7.945,67.371 8.225,67.176C8.401,67.052 8.899,66.759 9.719,66.297C9.42,66.063 9.27,65.806 9.27,65.526C9.27,65.265 9.402,64.988 9.666,64.695C9.929,64.403 10.488,64.08 11.34,63.729C10.624,63.592 10.056,63.292 9.636,62.83C9.216,62.368 9.006,61.854 9.006,61.287C9.006,60.363 9.412,59.536 10.222,58.807C11.033,58.078 12.112,57.713 13.46,57.713C13.948,57.713 14.348,57.762 14.661,57.86C14.973,57.957 15.276,58.11 15.569,58.319L18.206,58.319ZM14.817,59.852C14.817,59.331 14.672,58.921 14.382,58.621C14.093,58.322 13.713,58.172 13.245,58.172C12.509,58.172 11.902,58.542 11.423,59.28C10.945,60.019 10.706,60.789 10.706,61.59C10.706,62.091 10.859,62.501 11.165,62.82C11.471,63.139 11.842,63.299 12.278,63.299C12.623,63.299 12.957,63.205 13.279,63.016C13.601,62.827 13.873,62.567 14.094,62.235C14.316,61.903 14.491,61.479 14.622,60.965C14.752,60.451 14.817,60.08 14.817,59.852ZM10.139,66.551C9.612,66.792 9.213,67.101 8.943,67.479C8.673,67.856 8.538,68.227 8.538,68.592C8.538,69.022 8.733,69.376 9.124,69.656C9.684,70.06 10.504,70.262 11.585,70.262C12.516,70.262 13.311,70.104 13.972,69.788C14.633,69.472 14.963,69.064 14.963,68.563C14.963,68.309 14.841,68.068 14.597,67.84C14.353,67.612 13.879,67.427 13.176,67.283C12.792,67.205 11.78,66.961 10.139,66.551Z" style="fill:black;fill-rule:nonzero;"/>
        <path d="M23.997,70.467L23.997,70.828C23.014,70.334 22.193,69.754 21.536,69.09C20.598,68.146 19.876,67.033 19.368,65.75C18.86,64.468 18.606,63.136 18.606,61.756C18.606,59.738 19.104,57.897 20.1,56.234C21.096,54.57 22.395,53.38 23.997,52.664L23.997,53.074C23.196,53.517 22.538,54.123 22.024,54.891C21.51,55.659 21.126,56.632 20.872,57.811C20.618,58.989 20.491,60.22 20.491,61.502C20.491,62.895 20.598,64.162 20.813,65.301C20.982,66.199 21.187,66.92 21.428,67.464C21.669,68.008 21.993,68.53 22.4,69.031C22.807,69.533 23.339,70.011 23.997,70.467Z" style="fill:black;fill-rule:nonzero;"/>
        <path d="M30.921,54.022L29.407,59.256L30.647,59.256C31.532,59.256 32.174,59.121 32.571,58.851C32.968,58.581 33.31,58.081 33.596,57.352L33.958,57.352L32.6,62.156L32.21,62.156C32.327,61.753 32.385,61.408 32.385,61.121C32.385,60.841 32.328,60.617 32.214,60.447C32.101,60.278 31.944,60.153 31.746,60.071C31.547,59.99 31.129,59.949 30.491,59.949L29.231,59.949L27.952,64.334C27.828,64.757 27.766,65.08 27.766,65.301C27.766,65.47 27.848,65.62 28.01,65.75C28.121,65.841 28.398,65.887 28.84,65.887L30.012,65.887C31.282,65.887 32.299,65.662 33.064,65.213C33.829,64.764 34.514,63.983 35.12,62.869L35.481,62.869L34.231,66.551L23.997,66.551L24.124,66.19C24.631,66.177 24.973,66.131 25.149,66.053C25.409,65.936 25.598,65.786 25.715,65.604C25.891,65.337 26.1,64.777 26.34,63.924L28.665,55.936C28.847,55.291 28.938,54.8 28.938,54.461C28.938,54.214 28.852,54.02 28.679,53.88C28.507,53.74 28.17,53.67 27.669,53.67L27.463,53.67L27.581,53.309L37.092,53.309L36.272,56.502L35.911,56.502C35.956,56.203 35.979,55.952 35.979,55.75C35.979,55.405 35.894,55.115 35.725,54.881C35.504,54.582 35.182,54.354 34.758,54.197C34.446,54.08 33.727,54.022 32.6,54.022L30.921,54.022Z" style="fill:black;fill-rule:nonzero;"/>
        <path d="M42.874,70.467L42.874,70.828C41.891,70.334 41.07,69.754 40.413,69.09C39.475,68.146 38.753,67.033 38.245,65.75C37.737,64.468 37.483,63.136 37.483,61.756C37.483,59.738 37.981,57.897 38.977,56.234C39.973,54.57 41.272,53.38 42.874,52.664L42.874,53.074C42.073,53.517 41.415,54.123 40.901,54.891C40.387,55.659 40.003,56.632 39.749,57.811C39.495,58.989 39.368,60.22 39.368,61.502C39.368,62.895 39.475,64.162 39.69,65.301C39.859,66.199 40.064,66.92 40.305,67.464C40.546,68.008 40.87,68.53 41.277,69.031C41.684,69.533 42.216,70.011 42.874,70.467Z" style="fill:black;fill-rule:nonzero;"/>
        <path d="M50.315,59.51L52.835,55.985C53.486,55.067 53.811,54.481 53.811,54.227C53.811,54.084 53.741,53.965 53.601,53.87C53.461,53.776 53.062,53.709 52.405,53.67L52.503,53.309L56.663,53.309L56.585,53.67C56.181,53.722 55.904,53.778 55.754,53.836C55.52,53.934 55.289,54.087 55.061,54.295C54.755,54.569 54.312,55.106 53.733,55.906L50.491,60.379L49.514,63.651C49.273,64.471 49.153,65.037 49.153,65.35C49.153,65.552 49.19,65.705 49.265,65.809C49.34,65.913 49.472,65.998 49.661,66.063C49.908,66.141 50.286,66.183 50.794,66.19L50.696,66.551L45.12,66.551L45.237,66.19C45.79,66.177 46.158,66.131 46.34,66.053C46.633,65.936 46.852,65.779 46.995,65.584C47.216,65.285 47.444,64.748 47.678,63.973L48.84,60.106L47.424,55.535C47.171,54.728 46.938,54.227 46.726,54.031C46.515,53.836 46.145,53.716 45.618,53.67L45.715,53.309L50.608,53.309L50.491,53.67C49.879,53.716 49.531,53.755 49.446,53.787C49.303,53.833 49.185,53.924 49.094,54.061C49.003,54.197 48.958,54.357 48.958,54.539C48.958,54.806 49.052,55.262 49.241,55.906L50.315,59.51Z" style="fill:black;fill-rule:nonzero;"/>
        <path d="M54.895,53.074L54.895,52.664C55.885,53.153 56.708,53.729 57.366,54.393C58.297,55.343 59.016,56.458 59.524,57.737C60.032,59.017 60.286,60.35 60.286,61.736C60.286,63.755 59.789,65.596 58.796,67.259C57.804,68.922 56.503,70.112 54.895,70.828L54.895,70.467C55.696,70.018 56.355,69.411 56.873,68.646C57.39,67.881 57.774,66.907 58.025,65.726C58.276,64.544 58.401,63.312 58.401,62.029C58.401,60.643 58.294,59.376 58.079,58.231C57.916,57.332 57.713,56.613 57.468,56.072C57.224,55.532 56.9,55.011 56.497,54.51C56.093,54.009 55.559,53.53 54.895,53.074Z" style="fill:black;fill-rule:nonzero;"/>
        <path d="M61.555,53.074L61.555,52.664C62.545,53.153 63.368,53.729 64.026,54.393C64.957,55.343 65.676,56.458 66.184,57.737C66.692,59.017 66.946,60.35 66.946,61.736C66.946,63.755 66.449,65.596 65.457,67.259C64.464,68.922 63.163,70.112 61.555,70.828L61.555,70.467C62.356,70.018 63.015,69.411 63.533,68.646C64.05,67.881 64.435,66.907 64.685,65.726C64.936,64.544 65.061,63.312 65.061,62.029C65.061,60.643 64.954,59.376 64.739,58.231C64.576,57.332 64.373,56.613 64.129,56.072C63.884,55.532 63.56,55.011 63.157,54.51C62.753,54.009 62.219,53.53 61.555,53.074Z" style="fill:black;fill-rule:nonzero;"/>
        <path d="M73.128,57.928L83.665,57.928L83.665,58.729L73.128,58.729L73.128,57.928ZM73.128,61.111L83.665,61.111L83.665,61.912L73.128,61.912L73.128,61.111Z" style="fill:black;fill-rule:nonzero;"/>
    </g>
</svg>
