<?xml version="1.0" encoding="UTF-8"?>
<svg xmlns="http://www.w3.org/2000/svg" xmlns:xlink="http://www.w3.org/1999/xlink" width="434pt" height="186pt" viewBox="0 0 434 186" version="1.1">
<g id="surface1">
<path style="fill:none;stroke-width:1;stroke-linecap:round;stroke-linejoin:round;stroke:rgb(0%,0%,0%);stroke-opacity:1;stroke-miterlimit:10;" d="M 944.85 162 L 962.85 162 L 962.85 180 L 944.85 180 Z M 944.85 162 " transform="matrix(1.25,0,0,1.25,-1027.5,-145)"/>
<path style=" stroke:none;fill-rule:nonzero;fill:rgb(0%,0%,0%);fill-opacity:1;" d="M 162.152344 70.1875 L 163.148438 70.050781 C 163.265625 70.613281 163.453125 71.015625 163.714844 71.261719 C 163.988281 71.511719 164.324219 71.632812 164.730469 71.632812 C 165.183594 71.632812 165.570312 71.476562 165.882812 71.164062 C 166.207031 70.839844 166.371094 70.4375 166.371094 69.953125 C 166.371094 69.5 166.21875 69.128906 165.921875 68.839844 C 165.632812 68.542969 165.261719 68.390625 164.808594 68.390625 C 164.613281 68.390625 164.378906 68.429688 164.105469 68.507812 L 164.222656 67.628906 C 164.285156 67.644531 164.339844 67.648438 164.378906 67.648438 C 164.792969 67.648438 165.171875 67.539062 165.511719 67.316406 C 165.847656 67.097656 166.019531 66.757812 166.019531 66.300781 C 166.019531 65.9375 165.894531 65.636719 165.648438 65.402344 C 165.398438 65.167969 165.082031 65.050781 164.691406 65.050781 C 164.3125 65.050781 163.992188 65.175781 163.734375 65.421875 C 163.484375 65.65625 163.324219 66.015625 163.246094 66.496094 L 162.25 66.320312 C 162.378906 65.65625 162.652344 65.144531 163.070312 64.777344 C 163.5 64.414062 164.03125 64.230469 164.671875 64.230469 C 165.113281 64.230469 165.515625 64.328125 165.882812 64.523438 C 166.257812 64.707031 166.546875 64.960938 166.742188 65.285156 C 166.9375 65.613281 167.035156 65.957031 167.035156 66.320312 C 167.035156 66.671875 166.9375 66.992188 166.742188 67.277344 C 166.558594 67.566406 166.285156 67.792969 165.921875 67.960938 C 166.402344 68.066406 166.773438 68.292969 167.035156 68.644531 C 167.292969 68.984375 167.425781 69.414062 167.425781 69.933594 C 167.425781 70.636719 167.164062 71.238281 166.644531 71.730469 C 166.136719 72.214844 165.492188 72.453125 164.710938 72.453125 C 164.007812 72.453125 163.421875 72.246094 162.953125 71.828125 C 162.484375 71.414062 162.214844 70.867188 162.152344 70.1875 Z M 162.152344 70.1875 "/>
<path style="fill:none;stroke-width:1;stroke-linecap:round;stroke-linejoin:round;stroke:rgb(0%,0%,0%);stroke-opacity:1;stroke-miterlimit:10;" d="M 926.85 162 L 944.85 162 L 944.85 180 L 926.85 180 Z M 926.85 162 " transform="matrix(1.25,0,0,1.25,-1027.5,-145)"/>
<path style=" stroke:none;fill-rule:nonzero;fill:rgb(0%,0%,0%);fill-opacity:1;" d="M 144.847656 71.359375 L 144.847656 72.316406 L 139.515625 72.316406 C 139.515625 72.082031 139.554688 71.855469 139.632812 71.632812 C 139.773438 71.269531 139.996094 70.910156 140.296875 70.558594 C 140.59375 70.207031 141.023438 69.804688 141.585938 69.347656 C 142.457031 68.621094 143.042969 68.046875 143.34375 67.628906 C 143.65625 67.214844 143.8125 66.816406 143.8125 66.4375 C 143.8125 66.046875 143.667969 65.722656 143.382812 65.460938 C 143.109375 65.1875 142.75 65.050781 142.308594 65.050781 C 141.824219 65.050781 141.441406 65.195312 141.15625 65.480469 C 140.867188 65.769531 140.726562 66.164062 140.726562 66.671875 L 139.710938 66.554688 C 139.773438 65.800781 140.035156 65.226562 140.492188 64.835938 C 140.945312 64.433594 141.558594 64.230469 142.328125 64.230469 C 143.09375 64.230469 143.699219 64.445312 144.144531 64.875 C 144.597656 65.304688 144.828125 65.832031 144.828125 66.457031 C 144.828125 66.785156 144.761719 67.101562 144.632812 67.414062 C 144.5 67.726562 144.28125 68.058594 143.96875 68.410156 C 143.667969 68.75 143.167969 69.21875 142.464844 69.816406 C 141.863281 70.3125 141.480469 70.652344 141.3125 70.832031 C 141.140625 71.015625 141.003906 71.191406 140.902344 71.359375 Z M 144.847656 71.359375 "/>
<path style="fill:none;stroke-width:1;stroke-linecap:round;stroke-linejoin:round;stroke:rgb(0%,0%,0%);stroke-opacity:1;stroke-miterlimit:10;" d="M 944.85 144 L 962.85 144 L 962.85 162 L 944.85 162 Z M 944.85 144 " transform="matrix(1.25,0,0,1.25,-1027.5,-145)"/>
<path style=" stroke:none;fill-rule:nonzero;fill:rgb(0%,0%,0%);fill-opacity:1;" d="M 165.882812 49.816406 L 164.886719 49.816406 L 164.886719 43.507812 C 164.652344 43.742188 164.339844 43.976562 163.949219 44.210938 C 163.558594 44.433594 163.210938 44.597656 162.914062 44.699219 L 162.914062 43.742188 C 163.460938 43.496094 163.941406 43.191406 164.359375 42.824219 C 164.773438 42.449219 165.066406 42.082031 165.238281 41.730469 L 165.882812 41.730469 Z M 165.882812 49.816406 "/>
<path style="fill-rule:nonzero;fill:rgb(69.803922%,85.098039%,100%);fill-opacity:1;stroke-width:1;stroke-linecap:round;stroke-linejoin:round;stroke:rgb(0%,0%,0%);stroke-opacity:1;stroke-miterlimit:10;" d="M 926.85 144 L 944.85 144 L 944.85 162 L 926.85 162 Z M 926.85 144 " transform="matrix(1.25,0,0,1.25,-1027.5,-145)"/>
<path style=" stroke:none;fill-rule:nonzero;fill:rgb(0%,0%,0%);fill-opacity:1;" d="M 139.652344 45.851562 C 139.652344 44.902344 139.75 44.132812 139.945312 43.546875 C 140.140625 42.960938 140.425781 42.511719 140.804688 42.199219 C 141.195312 41.886719 141.683594 41.730469 142.269531 41.730469 C 142.710938 41.730469 143.09375 41.824219 143.421875 42.003906 C 143.746094 42.175781 144.011719 42.421875 144.222656 42.746094 C 144.429688 43.074219 144.59375 43.46875 144.710938 43.9375 C 144.839844 44.40625 144.90625 45.046875 144.90625 45.851562 C 144.90625 46.789062 144.808594 47.550781 144.613281 48.136719 C 144.417969 48.710938 144.125 49.160156 143.734375 49.484375 C 143.355469 49.796875 142.867188 49.953125 142.269531 49.953125 C 141.5 49.953125 140.894531 49.675781 140.453125 49.113281 C 139.917969 48.449219 139.652344 47.363281 139.652344 45.851562 Z M 140.667969 45.851562 C 140.667969 47.167969 140.816406 48.046875 141.117188 48.488281 C 141.429688 48.917969 141.8125 49.132812 142.269531 49.132812 C 142.722656 49.132812 143.109375 48.917969 143.421875 48.488281 C 143.734375 48.046875 143.890625 47.167969 143.890625 45.851562 C 143.890625 44.523438 143.734375 43.644531 143.421875 43.214844 C 143.109375 42.773438 142.722656 42.550781 142.269531 42.550781 C 141.8125 42.550781 141.449219 42.742188 141.175781 43.117188 C 140.835938 43.613281 140.667969 44.523438 140.667969 45.851562 Z M 140.667969 45.851562 "/>
<path style="fill:none;stroke-width:1;stroke-linecap:round;stroke-linejoin:round;stroke:rgb(0%,0%,0%);stroke-opacity:1;stroke-miterlimit:10;" d="M 857.4 245.8 L 875.4 245.8 L 875.4 263.8 L 857.4 263.8 Z M 857.4 245.8 " transform="matrix(1.25,0,0,1.25,-1027.5,-145)"/>
<path style="fill-rule:nonzero;fill:rgb(69.803922%,85.098039%,100%);fill-opacity:1;stroke-width:1;stroke-linecap:round;stroke-linejoin:round;stroke:rgb(0%,0%,0%);stroke-opacity:1;stroke-miterlimit:10;" d="M 857.4 209.8 L 875.4 209.8 L 875.4 227.8 L 857.4 227.8 Z M 857.4 209.8 " transform="matrix(1.25,0,0,1.25,-1027.5,-145)"/>
<path style=" stroke:none;fill-rule:nonzero;fill:rgb(0%,0%,0%);fill-opacity:1;" d="M 52.839844 128.101562 C 52.839844 127.152344 52.9375 126.382812 53.132812 125.796875 C 53.328125 125.210938 53.613281 124.761719 53.992188 124.449219 C 54.382812 124.136719 54.871094 123.980469 55.457031 123.980469 C 55.898438 123.980469 56.28125 124.074219 56.609375 124.253906 C 56.933594 124.425781 57.199219 124.671875 57.410156 124.996094 C 57.617188 125.324219 57.78125 125.71875 57.898438 126.1875 C 58.027344 126.65625 58.09375 127.296875 58.09375 128.101562 C 58.09375 129.039062 57.996094 129.800781 57.800781 130.386719 C 57.605469 130.960938 57.3125 131.410156 56.921875 131.734375 C 56.542969 132.046875 56.054688 132.203125 55.457031 132.203125 C 54.6875 132.203125 54.082031 131.925781 53.640625 131.363281 C 53.105469 130.699219 52.839844 129.613281 52.839844 128.101562 Z M 53.855469 128.101562 C 53.855469 129.417969 54.003906 130.296875 54.304688 130.738281 C 54.617188 131.167969 55 131.382812 55.457031 131.382812 C 55.910156 131.382812 56.296875 131.167969 56.609375 130.738281 C 56.921875 130.296875 57.078125 129.417969 57.078125 128.101562 C 57.078125 126.773438 56.921875 125.894531 56.609375 125.464844 C 56.296875 125.023438 55.910156 124.800781 55.457031 124.800781 C 55 124.800781 54.636719 124.992188 54.363281 125.367188 C 54.023438 125.863281 53.855469 126.773438 53.855469 128.101562 Z M 53.855469 128.101562 "/>
<path style="fill-rule:nonzero;fill:rgb(69.803922%,85.098039%,100%);fill-opacity:1;stroke-width:1;stroke-linecap:round;stroke-linejoin:round;stroke:rgb(0%,0%,0%);stroke-opacity:1;stroke-miterlimit:10;" d="M 857.4 227.8 L 875.4 227.8 L 875.4 245.8 L 857.4 245.8 Z M 857.4 227.8 " transform="matrix(1.25,0,0,1.25,-1027.5,-145)"/>
<path style=" stroke:none;fill-rule:nonzero;fill:rgb(0%,0%,0%);fill-opacity:1;" d="M 52.839844 150.601562 C 52.839844 149.652344 52.9375 148.882812 53.132812 148.296875 C 53.328125 147.710938 53.613281 147.261719 53.992188 146.949219 C 54.382812 146.636719 54.871094 146.480469 55.457031 146.480469 C 55.898438 146.480469 56.28125 146.574219 56.609375 146.753906 C 56.933594 146.925781 57.199219 147.171875 57.410156 147.496094 C 57.617188 147.824219 57.78125 148.21875 57.898438 148.6875 C 58.027344 149.15625 58.09375 149.796875 58.09375 150.601562 C 58.09375 151.539062 57.996094 152.300781 57.800781 152.886719 C 57.605469 153.460938 57.3125 153.910156 56.921875 154.234375 C 56.542969 154.546875 56.054688 154.703125 55.457031 154.703125 C 54.6875 154.703125 54.082031 154.425781 53.640625 153.863281 C 53.105469 153.199219 52.839844 152.113281 52.839844 150.601562 Z M 53.855469 150.601562 C 53.855469 151.917969 54.003906 152.796875 54.304688 153.238281 C 54.617188 153.667969 55 153.882812 55.457031 153.882812 C 55.910156 153.882812 56.296875 153.667969 56.609375 153.238281 C 56.921875 152.796875 57.078125 151.917969 57.078125 150.601562 C 57.078125 149.273438 56.921875 148.394531 56.609375 147.964844 C 56.296875 147.523438 55.910156 147.300781 55.457031 147.300781 C 55 147.300781 54.636719 147.492188 54.363281 147.867188 C 54.023438 148.363281 53.855469 149.273438 53.855469 150.601562 Z M 53.855469 150.601562 "/>
<path style="fill:none;stroke-width:1;stroke-linecap:round;stroke-linejoin:round;stroke:rgb(0%,0%,0%);stroke-opacity:1;stroke-miterlimit:10;" d="M 839.4 245.8 L 857.4 245.8 L 857.4 263.8 L 839.4 263.8 Z M 839.4 245.8 " transform="matrix(1.25,0,0,1.25,-1027.5,-145)"/>
<path style="fill:none;stroke-width:1;stroke-linecap:round;stroke-linejoin:round;stroke:rgb(0%,0%,0%);stroke-opacity:1;stroke-miterlimit:10;" d="M 875.4 227.8 L 893.4 227.8 L 893.4 245.8 L 875.4 245.8 Z M 875.4 227.8 " transform="matrix(1.25,0,0,1.25,-1027.5,-145)"/>
<path style="fill-rule:nonzero;fill:rgb(69.803922%,85.098039%,100%);fill-opacity:1;stroke-width:1;stroke-linecap:round;stroke-linejoin:round;stroke:rgb(0%,0%,0%);stroke-opacity:1;stroke-miterlimit:10;" d="M 839.4 227.8 L 857.4 227.8 L 857.4 245.8 L 839.4 245.8 Z M 839.4 227.8 " transform="matrix(1.25,0,0,1.25,-1027.5,-145)"/>
<path style=" stroke:none;fill-rule:nonzero;fill:rgb(0%,0%,0%);fill-opacity:1;" d="M 30.339844 150.601562 C 30.339844 149.652344 30.4375 148.882812 30.632812 148.296875 C 30.828125 147.710938 31.113281 147.261719 31.492188 146.949219 C 31.882812 146.636719 32.371094 146.480469 32.957031 146.480469 C 33.398438 146.480469 33.78125 146.574219 34.109375 146.753906 C 34.433594 146.925781 34.699219 147.171875 34.910156 147.496094 C 35.117188 147.824219 35.28125 148.21875 35.398438 148.6875 C 35.527344 149.15625 35.59375 149.796875 35.59375 150.601562 C 35.59375 151.539062 35.496094 152.300781 35.300781 152.886719 C 35.105469 153.460938 34.8125 153.910156 34.421875 154.234375 C 34.042969 154.546875 33.554688 154.703125 32.957031 154.703125 C 32.1875 154.703125 31.582031 154.425781 31.140625 153.863281 C 30.605469 153.199219 30.339844 152.113281 30.339844 150.601562 Z M 31.355469 150.601562 C 31.355469 151.917969 31.503906 152.796875 31.804688 153.238281 C 32.117188 153.667969 32.5 153.882812 32.957031 153.882812 C 33.410156 153.882812 33.796875 153.667969 34.109375 153.238281 C 34.421875 152.796875 34.578125 151.917969 34.578125 150.601562 C 34.578125 149.273438 34.421875 148.394531 34.109375 147.964844 C 33.796875 147.523438 33.410156 147.300781 32.957031 147.300781 C 32.5 147.300781 32.136719 147.492188 31.863281 147.867188 C 31.523438 148.363281 31.355469 149.273438 31.355469 150.601562 Z M 31.355469 150.601562 "/>
<path style="fill:none;stroke-width:1;stroke-linecap:round;stroke-linejoin:round;stroke:rgb(0%,0%,0%);stroke-opacity:1;stroke-miterlimit:10;" d="M 875.4 245.8 L 893.4 245.8 L 893.4 263.8 L 875.4 263.8 Z M 875.4 245.8 " transform="matrix(1.25,0,0,1.25,-1027.5,-145)"/>
<path style="fill:none;stroke-width:1;stroke-linecap:round;stroke-linejoin:round;stroke:rgb(0%,0%,0%);stroke-opacity:1;stroke-miterlimit:10;" d="M 875.4 209.8 L 893.4 209.8 L 893.4 227.8 L 875.4 227.8 Z M 875.4 209.8 " transform="matrix(1.25,0,0,1.25,-1027.5,-145)"/>
<path style="fill-rule:nonzero;fill:rgb(69.803922%,85.098039%,100%);fill-opacity:1;stroke-width:1;stroke-linecap:round;stroke-linejoin:round;stroke:rgb(0%,0%,0%);stroke-opacity:1;stroke-miterlimit:10;" d="M 839.4 209.8 L 857.4 209.8 L 857.4 227.8 L 839.4 227.8 Z M 839.4 209.8 " transform="matrix(1.25,0,0,1.25,-1027.5,-145)"/>
<path style=" stroke:none;fill-rule:nonzero;fill:rgb(0%,0%,0%);fill-opacity:1;" d="M 30.339844 128.101562 C 30.339844 127.152344 30.4375 126.382812 30.632812 125.796875 C 30.828125 125.210938 31.113281 124.761719 31.492188 124.449219 C 31.882812 124.136719 32.371094 123.980469 32.957031 123.980469 C 33.398438 123.980469 33.78125 124.074219 34.109375 124.253906 C 34.433594 124.425781 34.699219 124.671875 34.910156 124.996094 C 35.117188 125.324219 35.28125 125.71875 35.398438 126.1875 C 35.527344 126.65625 35.59375 127.296875 35.59375 128.101562 C 35.59375 129.039062 35.496094 129.800781 35.300781 130.386719 C 35.105469 130.960938 34.8125 131.410156 34.421875 131.734375 C 34.042969 132.046875 33.554688 132.203125 32.957031 132.203125 C 32.1875 132.203125 31.582031 131.925781 31.140625 131.363281 C 30.605469 130.699219 30.339844 129.613281 30.339844 128.101562 Z M 31.355469 128.101562 C 31.355469 129.417969 31.503906 130.296875 31.804688 130.738281 C 32.117188 131.167969 32.5 131.382812 32.957031 131.382812 C 33.410156 131.382812 33.796875 131.167969 34.109375 130.738281 C 34.421875 130.296875 34.578125 129.417969 34.578125 128.101562 C 34.578125 126.773438 34.421875 125.894531 34.109375 125.464844 C 33.796875 125.023438 33.410156 124.800781 32.957031 124.800781 C 32.5 124.800781 32.136719 124.992188 31.863281 125.367188 C 31.523438 125.863281 31.355469 126.773438 31.355469 128.101562 Z M 31.355469 128.101562 "/>
<path style="fill-rule:nonzero;fill:rgb(69.803922%,85.098039%,100%);fill-opacity:1;stroke-width:1;stroke-linecap:round;stroke-linejoin:round;stroke:rgb(0%,0%,0%);stroke-opacity:1;stroke-miterlimit:10;" d="M 1043.85 163 L 1061.85 163 L 1061.85 181 L 1043.85 181 Z M 1043.85 163 " transform="matrix(1.25,0,0,1.25,-1027.5,-145)"/>
<path style=" stroke:none;fill-rule:nonzero;fill:rgb(0%,0%,0%);fill-opacity:1;" d="M 291.097656 72.609375 L 291.097656 73.566406 L 285.765625 73.566406 C 285.765625 73.332031 285.804688 73.105469 285.882812 72.882812 C 286.023438 72.519531 286.246094 72.160156 286.546875 71.808594 C 286.84375 71.457031 287.273438 71.054688 287.835938 70.597656 C 288.707031 69.871094 289.292969 69.296875 289.59375 68.878906 C 289.90625 68.464844 290.0625 68.066406 290.0625 67.6875 C 290.0625 67.296875 289.917969 66.972656 289.632812 66.710938 C 289.359375 66.4375 289 66.300781 288.558594 66.300781 C 288.074219 66.300781 287.691406 66.445312 287.40625 66.730469 C 287.117188 67.019531 286.976562 67.414062 286.976562 67.921875 L 285.960938 67.804688 C 286.023438 67.050781 286.285156 66.476562 286.742188 66.085938 C 287.195312 65.683594 287.808594 65.480469 288.578125 65.480469 C 289.34375 65.480469 289.949219 65.695312 290.394531 66.125 C 290.847656 66.554688 291.078125 67.082031 291.078125 67.707031 C 291.078125 68.035156 291.011719 68.351562 290.882812 68.664062 C 290.75 68.976562 290.53125 69.308594 290.21875 69.660156 C 289.917969 70 289.417969 70.46875 288.714844 71.066406 C 288.113281 71.5625 287.730469 71.902344 287.5625 72.082031 C 287.390625 72.265625 287.253906 72.441406 287.152344 72.609375 Z M 291.097656 72.609375 "/>
<path style="fill-rule:nonzero;fill:rgb(69.803922%,85.098039%,100%);fill-opacity:1;stroke-width:1;stroke-linecap:round;stroke-linejoin:round;stroke:rgb(0%,0%,0%);stroke-opacity:1;stroke-miterlimit:10;" d="M 1061.85 163 L 1079.85 163 L 1079.85 181 L 1061.85 181 Z M 1061.85 163 " transform="matrix(1.25,0,0,1.25,-1027.5,-145)"/>
<path style=" stroke:none;fill-rule:nonzero;fill:rgb(0%,0%,0%);fill-opacity:1;" d="M 308.402344 71.4375 L 309.398438 71.300781 C 309.515625 71.863281 309.703125 72.265625 309.964844 72.511719 C 310.238281 72.761719 310.574219 72.882812 310.980469 72.882812 C 311.433594 72.882812 311.820312 72.726562 312.132812 72.414062 C 312.457031 72.089844 312.621094 71.6875 312.621094 71.203125 C 312.621094 70.75 312.46875 70.378906 312.171875 70.089844 C 311.882812 69.792969 311.511719 69.640625 311.058594 69.640625 C 310.863281 69.640625 310.628906 69.679688 310.355469 69.757812 L 310.472656 68.878906 C 310.535156 68.894531 310.589844 68.898438 310.628906 68.898438 C 311.042969 68.898438 311.421875 68.789062 311.761719 68.566406 C 312.097656 68.347656 312.269531 68.007812 312.269531 67.550781 C 312.269531 67.1875 312.144531 66.886719 311.898438 66.652344 C 311.648438 66.417969 311.332031 66.300781 310.941406 66.300781 C 310.5625 66.300781 310.242188 66.425781 309.984375 66.671875 C 309.734375 66.90625 309.574219 67.265625 309.496094 67.746094 L 308.5 67.570312 C 308.628906 66.90625 308.902344 66.394531 309.320312 66.027344 C 309.75 65.664062 310.28125 65.480469 310.921875 65.480469 C 311.363281 65.480469 311.765625 65.578125 312.132812 65.773438 C 312.507812 65.957031 312.796875 66.210938 312.992188 66.535156 C 313.1875 66.863281 313.285156 67.207031 313.285156 67.570312 C 313.285156 67.921875 313.1875 68.242188 312.992188 68.527344 C 312.808594 68.816406 312.535156 69.042969 312.171875 69.210938 C 312.652344 69.316406 313.023438 69.542969 313.285156 69.894531 C 313.542969 70.234375 313.675781 70.664062 313.675781 71.183594 C 313.675781 71.886719 313.414062 72.488281 312.894531 72.980469 C 312.386719 73.464844 311.742188 73.703125 310.960938 73.703125 C 310.257812 73.703125 309.671875 73.496094 309.203125 73.078125 C 308.734375 72.664062 308.464844 72.117188 308.402344 71.4375 Z M 308.402344 71.4375 "/>
<path style="fill-rule:nonzero;fill:rgb(69.803922%,85.098039%,100%);fill-opacity:1;stroke-width:1;stroke-linecap:round;stroke-linejoin:round;stroke:rgb(0%,0%,0%);stroke-opacity:1;stroke-miterlimit:10;" d="M 1061.85 145 L 1079.85 145 L 1079.85 163 L 1061.85 163 Z M 1061.85 145 " transform="matrix(1.25,0,0,1.25,-1027.5,-145)"/>
<path style=" stroke:none;fill-rule:nonzero;fill:rgb(0%,0%,0%);fill-opacity:1;" d="M 312.132812 51.066406 L 311.136719 51.066406 L 311.136719 44.757812 C 310.902344 44.992188 310.589844 45.226562 310.199219 45.460938 C 309.808594 45.683594 309.460938 45.847656 309.164062 45.949219 L 309.164062 44.992188 C 309.710938 44.746094 310.191406 44.441406 310.609375 44.074219 C 311.023438 43.699219 311.316406 43.332031 311.488281 42.980469 L 312.132812 42.980469 Z M 312.132812 51.066406 "/>
<path style="fill-rule:nonzero;fill:rgb(69.803922%,85.098039%,100%);fill-opacity:1;stroke-width:1;stroke-linecap:round;stroke-linejoin:round;stroke:rgb(0%,0%,0%);stroke-opacity:1;stroke-miterlimit:10;" d="M 1043.85 145 L 1061.85 145 L 1061.85 163 L 1043.85 163 Z M 1043.85 145 " transform="matrix(1.25,0,0,1.25,-1027.5,-145)"/>
<path style=" stroke:none;fill-rule:nonzero;fill:rgb(0%,0%,0%);fill-opacity:1;" d="M 285.902344 47.101562 C 285.902344 46.152344 286 45.382812 286.195312 44.796875 C 286.390625 44.210938 286.675781 43.761719 287.054688 43.449219 C 287.445312 43.136719 287.933594 42.980469 288.519531 42.980469 C 288.960938 42.980469 289.34375 43.074219 289.671875 43.253906 C 289.996094 43.425781 290.261719 43.671875 290.472656 43.996094 C 290.679688 44.324219 290.84375 44.71875 290.960938 45.1875 C 291.089844 45.65625 291.15625 46.296875 291.15625 47.101562 C 291.15625 48.039062 291.058594 48.800781 290.863281 49.386719 C 290.667969 49.960938 290.375 50.410156 289.984375 50.734375 C 289.605469 51.046875 289.117188 51.203125 288.519531 51.203125 C 287.75 51.203125 287.144531 50.925781 286.703125 50.363281 C 286.167969 49.699219 285.902344 48.613281 285.902344 47.101562 Z M 286.917969 47.101562 C 286.917969 48.417969 287.066406 49.296875 287.367188 49.738281 C 287.679688 50.167969 288.0625 50.382812 288.519531 50.382812 C 288.972656 50.382812 289.359375 50.167969 289.671875 49.738281 C 289.984375 49.296875 290.140625 48.417969 290.140625 47.101562 C 290.140625 45.773438 289.984375 44.894531 289.671875 44.464844 C 289.359375 44.023438 288.972656 43.800781 288.519531 43.800781 C 288.0625 43.800781 287.699219 43.992188 287.425781 44.367188 C 287.085938 44.863281 286.917969 45.773438 286.917969 47.101562 Z M 286.917969 47.101562 "/>
<path style=" stroke:none;fill-rule:nonzero;fill:rgb(0%,0%,0%);fill-opacity:1;" d="M 382.160156 96.90625 C 382.160156 95.578125 382.515625 94.539062 383.234375 93.78125 C 383.949219 93.015625 384.875 92.628906 386.007812 92.628906 C 386.75 92.628906 387.417969 92.816406 388.019531 93.175781 C 388.617188 93.527344 389.074219 94.027344 389.386719 94.660156 C 389.699219 95.300781 389.855469 96.019531 389.855469 96.808594 C 389.855469 97.628906 389.691406 98.367188 389.367188 99.015625 C 389.039062 99.65625 388.570312 100.144531 387.960938 100.480469 C 387.359375 100.808594 386.710938 100.96875 386.007812 100.96875 C 385.25 100.96875 384.574219 100.789062 383.976562 100.421875 C 383.375 100.0625 382.921875 99.558594 382.609375 98.917969 C 382.308594 98.285156 382.160156 97.609375 382.160156 96.90625 Z M 383.253906 96.925781 C 383.253906 97.902344 383.511719 98.675781 384.035156 99.230469 C 384.554688 99.777344 385.210938 100.050781 386.007812 100.050781 C 386.800781 100.050781 387.457031 99.773438 387.980469 99.210938 C 388.5 98.65625 388.761719 97.855469 388.761719 96.808594 C 388.761719 96.160156 388.648438 95.59375 388.429688 95.109375 C 388.207031 94.617188 387.882812 94.230469 387.453125 93.957031 C 387.023438 93.683594 386.546875 93.546875 386.027344 93.546875 C 385.269531 93.546875 384.621094 93.8125 384.074219 94.328125 C 383.527344 94.851562 383.253906 95.714844 383.253906 96.925781 Z M 383.253906 96.925781 "/>
<path style=" stroke:none;fill-rule:nonzero;fill:rgb(0%,0%,0%);fill-opacity:1;" d="M 394.933594 100.832031 L 394.933594 99.972656 C 394.476562 100.636719 393.859375 100.96875 393.078125 100.96875 C 392.738281 100.96875 392.417969 100.902344 392.121094 100.773438 C 391.820312 100.632812 391.59375 100.460938 391.4375 100.265625 C 391.292969 100.070312 391.195312 99.832031 391.144531 99.542969 C 391.105469 99.347656 391.085938 99.035156 391.085938 98.605469 L 391.085938 94.992188 L 392.0625 94.992188 L 392.0625 98.234375 C 392.0625 98.757812 392.085938 99.105469 392.140625 99.269531 C 392.191406 99.535156 392.316406 99.738281 392.511719 99.894531 C 392.71875 100.042969 392.972656 100.109375 393.273438 100.109375 C 393.570312 100.109375 393.851562 100.042969 394.113281 99.894531 C 394.371094 99.738281 394.554688 99.535156 394.660156 99.269531 C 394.761719 99.011719 394.816406 98.625 394.816406 98.117188 L 394.816406 94.992188 L 395.8125 94.992188 L 395.8125 100.832031 Z M 394.933594 100.832031 "/>
<path style=" stroke:none;fill-rule:nonzero;fill:rgb(0%,0%,0%);fill-opacity:1;" d="M 399.527344 99.953125 L 399.664062 100.8125 C 399.375 100.878906 399.125 100.910156 398.921875 100.910156 C 398.554688 100.910156 398.277344 100.851562 398.082031 100.734375 C 397.886719 100.617188 397.738281 100.472656 397.652344 100.285156 C 397.574219 100.105469 397.535156 99.71875 397.535156 99.132812 L 397.535156 95.773438 L 396.8125 95.773438 L 396.8125 94.992188 L 397.535156 94.992188 L 397.535156 93.546875 L 398.53125 92.960938 L 398.53125 94.992188 L 399.527344 94.992188 L 399.527344 95.773438 L 398.53125 95.773438 L 398.53125 99.171875 C 398.53125 99.460938 398.539062 99.640625 398.570312 99.71875 C 398.609375 99.796875 398.667969 99.867188 398.746094 99.914062 C 398.824219 99.96875 398.929688 99.992188 399.078125 99.992188 C 399.195312 99.992188 399.339844 99.984375 399.527344 99.953125 Z M 399.527344 99.953125 "/>
<path style=" stroke:none;fill-rule:nonzero;fill:rgb(0%,0%,0%);fill-opacity:1;" d="M 400.484375 103.058594 L 400.484375 94.992188 L 401.382812 94.992188 L 401.382812 95.753906 C 401.585938 95.457031 401.820312 95.238281 402.085938 95.089844 C 402.359375 94.949219 402.691406 94.875 403.082031 94.875 C 403.574219 94.875 404.007812 95.007812 404.390625 95.265625 C 404.765625 95.515625 405.054688 95.871094 405.25 96.339844 C 405.445312 96.808594 405.542969 97.316406 405.542969 97.863281 C 405.542969 98.464844 405.429688 99.007812 405.210938 99.484375 C 405 99.96875 404.691406 100.339844 404.292969 100.597656 C 403.886719 100.84375 403.457031 100.96875 403.003906 100.96875 C 402.675781 100.96875 402.382812 100.898438 402.125 100.753906 C 401.859375 100.613281 401.644531 100.4375 401.480469 100.226562 L 401.480469 103.058594 Z M 401.382812 97.941406 C 401.382812 98.699219 401.527344 99.261719 401.832031 99.621094 C 402.144531 99.972656 402.515625 100.148438 402.945312 100.148438 C 403.375 100.148438 403.746094 99.96875 404.058594 99.601562 C 404.378906 99.226562 404.546875 98.644531 404.546875 97.863281 C 404.546875 97.121094 404.390625 96.570312 404.078125 96.203125 C 403.773438 95.828125 403.414062 95.636719 402.984375 95.636719 C 402.5625 95.636719 402.191406 95.84375 401.871094 96.242188 C 401.542969 96.632812 401.382812 97.199219 401.382812 97.941406 Z M 401.382812 97.941406 "/>
<path style=" stroke:none;fill-rule:nonzero;fill:rgb(0%,0%,0%);fill-opacity:1;" d="M 410.566406 100.832031 L 410.566406 99.972656 C 410.105469 100.636719 409.492188 100.96875 408.710938 100.96875 C 408.367188 100.96875 408.050781 100.902344 407.753906 100.773438 C 407.449219 100.632812 407.226562 100.460938 407.070312 100.265625 C 406.921875 100.070312 406.824219 99.832031 406.777344 99.542969 C 406.738281 99.347656 406.71875 99.035156 406.71875 98.605469 L 406.71875 94.992188 L 407.695312 94.992188 L 407.695312 98.234375 C 407.695312 98.757812 407.71875 99.105469 407.773438 99.269531 C 407.820312 99.535156 407.949219 99.738281 408.144531 99.894531 C 408.347656 100.042969 408.601562 100.109375 408.90625 100.109375 C 409.203125 100.109375 409.480469 100.042969 409.746094 99.894531 C 410.003906 99.738281 410.183594 99.535156 410.292969 99.269531 C 410.394531 99.011719 410.449219 98.625 410.449219 98.117188 L 410.449219 94.992188 L 411.445312 94.992188 L 411.445312 100.832031 Z M 410.566406 100.832031 "/>
<path style=" stroke:none;fill-rule:nonzero;fill:rgb(0%,0%,0%);fill-opacity:1;" d="M 415.15625 99.953125 L 415.292969 100.8125 C 415.007812 100.878906 414.757812 100.910156 414.550781 100.910156 C 414.1875 100.910156 413.90625 100.851562 413.710938 100.734375 C 413.515625 100.617188 413.371094 100.472656 413.28125 100.285156 C 413.203125 100.105469 413.164062 99.71875 413.164062 99.132812 L 413.164062 95.773438 L 412.441406 95.773438 L 412.441406 94.992188 L 413.164062 94.992188 L 413.164062 93.546875 L 414.160156 92.960938 L 414.160156 94.992188 L 415.15625 94.992188 L 415.15625 95.773438 L 414.160156 95.773438 L 414.160156 99.171875 C 414.160156 99.460938 414.171875 99.640625 414.199219 99.71875 C 414.238281 99.796875 414.296875 99.867188 414.375 99.914062 C 414.453125 99.96875 414.5625 99.992188 414.707031 99.992188 C 414.824219 99.992188 414.972656 99.984375 415.15625 99.953125 Z M 415.15625 99.953125 "/>
<path style=" stroke:none;fill-rule:nonzero;fill:rgb(0%,0%,0%);fill-opacity:1;" d="M 284.371094 16.25 L 284.371094 8.203125 L 285.445312 8.203125 L 285.445312 12.1875 L 289.449219 8.203125 L 290.875 8.203125 L 287.515625 11.464844 L 291.03125 16.25 L 289.625 16.25 L 286.753906 12.167969 L 285.445312 13.457031 L 285.445312 16.25 Z M 284.371094 16.25 "/>
<path style=" stroke:none;fill-rule:nonzero;fill:rgb(0%,0%,0%);fill-opacity:1;" d="M 295.78125 14.375 L 296.816406 14.492188 C 296.648438 15.09375 296.339844 15.5625 295.898438 15.898438 C 295.46875 16.226562 294.914062 16.386719 294.238281 16.386719 C 293.390625 16.386719 292.714844 16.128906 292.207031 15.605469 C 291.710938 15.074219 291.464844 14.332031 291.464844 13.378906 C 291.464844 12.402344 291.71875 11.648438 292.226562 11.113281 C 292.734375 10.566406 293.390625 10.292969 294.199219 10.292969 C 294.980469 10.292969 295.613281 10.5625 296.09375 11.09375 C 296.589844 11.617188 296.835938 12.359375 296.835938 13.320312 C 296.835938 13.390625 296.835938 13.476562 296.835938 13.59375 L 292.480469 13.59375 C 292.519531 14.234375 292.703125 14.722656 293.027344 15.058594 C 293.351562 15.398438 293.761719 15.566406 294.257812 15.566406 C 294.621094 15.566406 294.929688 15.476562 295.175781 15.292969 C 295.4375 15.097656 295.636719 14.796875 295.78125 14.375 Z M 292.539062 12.773438 L 295.800781 12.773438 C 295.761719 12.28125 295.636719 11.910156 295.429688 11.660156 C 295.117188 11.285156 294.707031 11.09375 294.199219 11.09375 C 293.742188 11.09375 293.359375 11.25 293.046875 11.5625 C 292.746094 11.867188 292.578125 12.265625 292.539062 12.773438 Z M 292.539062 12.773438 "/>
<path style=" stroke:none;fill-rule:nonzero;fill:rgb(0%,0%,0%);fill-opacity:1;" d="M 298.035156 16.25 L 298.035156 10.410156 L 298.933594 10.410156 L 298.933594 11.308594 C 299.15625 10.894531 299.363281 10.621094 299.558594 10.488281 C 299.753906 10.359375 299.96875 10.292969 300.203125 10.292969 C 300.527344 10.292969 300.867188 10.398438 301.21875 10.605469 L 300.867188 11.523438 C 300.632812 11.382812 300.390625 11.308594 300.144531 11.308594 C 299.9375 11.308594 299.742188 11.375 299.558594 11.503906 C 299.390625 11.636719 299.265625 11.816406 299.1875 12.050781 C 299.082031 12.402344 299.03125 12.789062 299.03125 13.203125 L 299.03125 16.25 Z M 298.035156 16.25 "/>
<path style=" stroke:none;fill-rule:nonzero;fill:rgb(0%,0%,0%);fill-opacity:1;" d="M 301.800781 16.25 L 301.800781 10.410156 L 302.699219 10.410156 L 302.699219 11.25 C 303.117188 10.617188 303.734375 10.292969 304.554688 10.292969 C 304.90625 10.292969 305.226562 10.359375 305.511719 10.488281 C 305.8125 10.605469 306.03125 10.773438 306.175781 10.976562 C 306.320312 11.171875 306.421875 11.414062 306.488281 11.699219 C 306.527344 11.882812 306.546875 12.203125 306.546875 12.65625 L 306.546875 16.25 L 305.550781 16.25 L 305.550781 12.695312 C 305.550781 12.296875 305.511719 11.992188 305.433594 11.796875 C 305.355469 11.601562 305.21875 11.445312 305.023438 11.328125 C 304.828125 11.203125 304.601562 11.132812 304.339844 11.132812 C 303.921875 11.132812 303.558594 11.269531 303.246094 11.542969 C 302.945312 11.804688 302.796875 12.3125 302.796875 13.066406 L 302.796875 16.25 Z M 301.800781 16.25 "/>
<path style=" stroke:none;fill-rule:nonzero;fill:rgb(0%,0%,0%);fill-opacity:1;" d="M 312.042969 14.375 L 313.078125 14.492188 C 312.90625 15.09375 312.601562 15.5625 312.160156 15.898438 C 311.730469 16.226562 311.175781 16.386719 310.5 16.386719 C 309.652344 16.386719 308.976562 16.128906 308.46875 15.605469 C 307.972656 15.074219 307.726562 14.332031 307.726562 13.378906 C 307.726562 12.402344 307.980469 11.648438 308.488281 11.113281 C 308.996094 10.566406 309.652344 10.292969 310.460938 10.292969 C 311.242188 10.292969 311.871094 10.5625 312.355469 11.09375 C 312.847656 11.617188 313.097656 12.359375 313.097656 13.320312 C 313.097656 13.390625 313.097656 13.476562 313.097656 13.59375 L 308.742188 13.59375 C 308.78125 14.234375 308.960938 14.722656 309.289062 15.058594 C 309.613281 15.398438 310.023438 15.566406 310.519531 15.566406 C 310.882812 15.566406 311.1875 15.476562 311.4375 15.292969 C 311.695312 15.097656 311.898438 14.796875 312.042969 14.375 Z M 308.800781 12.773438 L 312.0625 12.773438 C 312.023438 12.28125 311.898438 11.910156 311.691406 11.660156 C 311.378906 11.285156 310.96875 11.09375 310.460938 11.09375 C 310.003906 11.09375 309.621094 11.25 309.308594 11.5625 C 309.007812 11.867188 308.839844 12.265625 308.800781 12.773438 Z M 308.800781 12.773438 "/>
<path style=" stroke:none;fill-rule:nonzero;fill:rgb(0%,0%,0%);fill-opacity:1;" d="M 314.296875 16.25 L 314.296875 8.203125 L 315.273438 8.203125 L 315.273438 16.25 Z M 314.296875 16.25 "/>
<path style=" stroke:none;fill-rule:nonzero;fill:rgb(0%,0%,0%);fill-opacity:1;" d="M 142.105469 16.25 L 142.105469 8.203125 L 143.160156 8.203125 L 143.160156 16.25 Z M 142.105469 16.25 "/>
<path style=" stroke:none;fill-rule:nonzero;fill:rgb(0%,0%,0%);fill-opacity:1;" d="M 144.917969 16.25 L 144.917969 10.410156 L 145.816406 10.410156 L 145.816406 11.25 C 146.234375 10.617188 146.851562 10.292969 147.671875 10.292969 C 148.023438 10.292969 148.34375 10.359375 148.628906 10.488281 C 148.929688 10.605469 149.148438 10.773438 149.292969 10.976562 C 149.4375 11.171875 149.539062 11.414062 149.605469 11.699219 C 149.644531 11.882812 149.664062 12.203125 149.664062 12.65625 L 149.664062 16.25 L 148.667969 16.25 L 148.667969 12.695312 C 148.667969 12.296875 148.628906 11.992188 148.550781 11.796875 C 148.472656 11.601562 148.335938 11.445312 148.140625 11.328125 C 147.945312 11.203125 147.71875 11.132812 147.457031 11.132812 C 147.039062 11.132812 146.675781 11.269531 146.363281 11.542969 C 146.0625 11.804688 145.914062 12.3125 145.914062 13.066406 L 145.914062 16.25 Z M 144.917969 16.25 "/>
<path style=" stroke:none;fill-rule:nonzero;fill:rgb(0%,0%,0%);fill-opacity:1;" d="M 151.171875 18.476562 L 151.171875 10.410156 L 152.070312 10.410156 L 152.070312 11.171875 C 152.277344 10.875 152.511719 10.65625 152.773438 10.507812 C 153.046875 10.367188 153.378906 10.292969 153.769531 10.292969 C 154.261719 10.292969 154.699219 10.425781 155.078125 10.683594 C 155.453125 10.933594 155.742188 11.289062 155.9375 11.757812 C 156.132812 12.226562 156.230469 12.734375 156.230469 13.28125 C 156.230469 13.882812 156.117188 14.421875 155.898438 14.902344 C 155.6875 15.386719 155.382812 15.757812 154.980469 16.015625 C 154.574219 16.261719 154.144531 16.386719 153.691406 16.386719 C 153.363281 16.386719 153.070312 16.3125 152.8125 16.171875 C 152.550781 16.03125 152.335938 15.855469 152.167969 15.644531 L 152.167969 18.476562 Z M 152.070312 13.359375 C 152.070312 14.117188 152.21875 14.679688 152.519531 15.039062 C 152.832031 15.390625 153.203125 15.566406 153.632812 15.566406 C 154.0625 15.566406 154.433594 15.386719 154.746094 15.019531 C 155.070312 14.644531 155.234375 14.0625 155.234375 13.28125 C 155.234375 12.539062 155.078125 11.988281 154.765625 11.621094 C 154.464844 11.246094 154.101562 11.054688 153.671875 11.054688 C 153.253906 11.054688 152.882812 11.257812 152.558594 11.660156 C 152.230469 12.050781 152.070312 12.617188 152.070312 13.359375 Z M 152.070312 13.359375 "/>
<path style=" stroke:none;fill-rule:nonzero;fill:rgb(0%,0%,0%);fill-opacity:1;" d="M 161.253906 16.25 L 161.253906 15.390625 C 160.792969 16.054688 160.179688 16.386719 159.398438 16.386719 C 159.054688 16.386719 158.738281 16.320312 158.441406 16.191406 C 158.136719 16.050781 157.914062 15.878906 157.757812 15.683594 C 157.609375 15.488281 157.511719 15.25 157.464844 14.960938 C 157.425781 14.765625 157.40625 14.453125 157.40625 14.023438 L 157.40625 10.410156 L 158.382812 10.410156 L 158.382812 13.652344 C 158.382812 14.175781 158.40625 14.523438 158.460938 14.6875 C 158.507812 14.953125 158.636719 15.15625 158.832031 15.3125 C 159.035156 15.460938 159.289062 15.527344 159.59375 15.527344 C 159.890625 15.527344 160.167969 15.460938 160.433594 15.3125 C 160.691406 15.15625 160.871094 14.953125 160.980469 14.6875 C 161.082031 14.429688 161.136719 14.042969 161.136719 13.535156 L 161.136719 10.410156 L 162.132812 10.410156 L 162.132812 16.25 Z M 161.253906 16.25 "/>
<path style=" stroke:none;fill-rule:nonzero;fill:rgb(0%,0%,0%);fill-opacity:1;" d="M 165.84375 15.371094 L 165.980469 16.230469 C 165.695312 16.292969 165.445312 16.328125 165.238281 16.328125 C 164.875 16.328125 164.59375 16.269531 164.398438 16.152344 C 164.203125 16.035156 164.058594 15.890625 163.96875 15.703125 C 163.890625 15.523438 163.851562 15.136719 163.851562 14.550781 L 163.851562 11.191406 L 163.128906 11.191406 L 163.128906 10.410156 L 163.851562 10.410156 L 163.851562 8.964844 L 164.847656 8.378906 L 164.847656 10.410156 L 165.84375 10.410156 L 165.84375 11.191406 L 164.847656 11.191406 L 164.847656 14.589844 C 164.847656 14.878906 164.859375 15.058594 164.886719 15.136719 C 164.925781 15.214844 164.984375 15.28125 165.0625 15.332031 C 165.140625 15.386719 165.25 15.410156 165.394531 15.410156 C 165.511719 15.410156 165.660156 15.398438 165.84375 15.371094 Z M 165.84375 15.371094 "/>
<path style=" stroke:none;fill-rule:nonzero;fill:rgb(0%,0%,0%);fill-opacity:1;" d="M 12.847656 150.960938 L 7.535156 150.960938 L 7.535156 150.023438 L 12.847656 150.023438 Z M 12.847656 153.402344 L 7.535156 153.402344 L 7.535156 152.464844 L 12.847656 152.464844 Z M 12.847656 153.402344 "/>
<path style="fill:none;stroke-width:1;stroke-linecap:round;stroke-linejoin:round;stroke:rgb(0%,0%,0%);stroke-opacity:1;stroke-miterlimit:10;" d="M 926 245.8 L 944 245.8 L 944 263.8 L 926 263.8 Z M 926 245.8 " transform="matrix(1.25,0,0,1.25,-1027.5,-145)"/>
<path style="fill:none;stroke-width:1;stroke-linecap:round;stroke-linejoin:round;stroke:rgb(0%,0%,0%);stroke-opacity:1;stroke-miterlimit:10;" d="M 926 209.8 L 944 209.8 L 944 227.8 L 926 227.8 Z M 926 209.8 " transform="matrix(1.25,0,0,1.25,-1027.5,-145)"/>
<path style=" stroke:none;fill-rule:nonzero;fill:rgb(0%,0%,0%);fill-opacity:1;" d="M 138.589844 128.101562 C 138.589844 127.152344 138.6875 126.382812 138.882812 125.796875 C 139.078125 125.210938 139.363281 124.761719 139.742188 124.449219 C 140.132812 124.136719 140.621094 123.980469 141.207031 123.980469 C 141.648438 123.980469 142.03125 124.074219 142.359375 124.253906 C 142.683594 124.425781 142.949219 124.671875 143.160156 124.996094 C 143.367188 125.324219 143.53125 125.71875 143.648438 126.1875 C 143.777344 126.65625 143.84375 127.296875 143.84375 128.101562 C 143.84375 129.039062 143.746094 129.800781 143.550781 130.386719 C 143.355469 130.960938 143.0625 131.410156 142.671875 131.734375 C 142.292969 132.046875 141.804688 132.203125 141.207031 132.203125 C 140.4375 132.203125 139.832031 131.925781 139.390625 131.363281 C 138.855469 130.699219 138.589844 129.613281 138.589844 128.101562 Z M 139.605469 128.101562 C 139.605469 129.417969 139.753906 130.296875 140.054688 130.738281 C 140.367188 131.167969 140.75 131.382812 141.207031 131.382812 C 141.660156 131.382812 142.046875 131.167969 142.359375 130.738281 C 142.671875 130.296875 142.828125 129.417969 142.828125 128.101562 C 142.828125 126.773438 142.671875 125.894531 142.359375 125.464844 C 142.046875 125.023438 141.660156 124.800781 141.207031 124.800781 C 140.75 124.800781 140.386719 124.992188 140.113281 125.367188 C 139.773438 125.863281 139.605469 126.773438 139.605469 128.101562 Z M 139.605469 128.101562 "/>
<path style="fill:none;stroke-width:1;stroke-linecap:round;stroke-linejoin:round;stroke:rgb(0%,0%,0%);stroke-opacity:1;stroke-miterlimit:10;" d="M 926 227.8 L 944 227.8 L 944 245.8 L 926 245.8 Z M 926 227.8 " transform="matrix(1.25,0,0,1.25,-1027.5,-145)"/>
<path style=" stroke:none;fill-rule:nonzero;fill:rgb(0%,0%,0%);fill-opacity:1;" d="M 143.785156 153.609375 L 143.785156 154.566406 L 138.453125 154.566406 C 138.453125 154.332031 138.492188 154.105469 138.570312 153.882812 C 138.710938 153.519531 138.933594 153.160156 139.234375 152.808594 C 139.53125 152.457031 139.960938 152.054688 140.523438 151.597656 C 141.394531 150.871094 141.980469 150.296875 142.28125 149.878906 C 142.59375 149.464844 142.75 149.066406 142.75 148.6875 C 142.75 148.296875 142.605469 147.972656 142.320312 147.710938 C 142.046875 147.4375 141.6875 147.300781 141.246094 147.300781 C 140.761719 147.300781 140.378906 147.445312 140.09375 147.730469 C 139.804688 148.019531 139.664062 148.414062 139.664062 148.921875 L 138.648438 148.804688 C 138.710938 148.050781 138.972656 147.476562 139.429688 147.085938 C 139.882812 146.683594 140.496094 146.480469 141.265625 146.480469 C 142.03125 146.480469 142.636719 146.695312 143.082031 147.125 C 143.535156 147.554688 143.765625 148.082031 143.765625 148.707031 C 143.765625 149.035156 143.699219 149.351562 143.570312 149.664062 C 143.4375 149.976562 143.21875 150.308594 142.90625 150.660156 C 142.605469 151 142.105469 151.46875 141.402344 152.066406 C 140.800781 152.5625 140.417969 152.902344 140.25 153.082031 C 140.078125 153.265625 139.941406 153.441406 139.839844 153.609375 Z M 143.785156 153.609375 "/>
<path style="fill:none;stroke-width:1;stroke-linecap:round;stroke-linejoin:round;stroke:rgb(0%,0%,0%);stroke-opacity:1;stroke-miterlimit:10;" d="M 908 245.8 L 926 245.8 L 926 263.8 L 908 263.8 Z M 908 245.8 " transform="matrix(1.25,0,0,1.25,-1027.5,-145)"/>
<path style="fill:none;stroke-width:1;stroke-linecap:round;stroke-linejoin:round;stroke:rgb(0%,0%,0%);stroke-opacity:1;stroke-miterlimit:10;" d="M 944 227.8 L 962 227.8 L 962 245.8 L 944 245.8 Z M 944 227.8 " transform="matrix(1.25,0,0,1.25,-1027.5,-145)"/>
<path style=" stroke:none;fill-rule:nonzero;fill:rgb(0%,0%,0%);fill-opacity:1;" d="M 161.089844 152.4375 L 162.085938 152.300781 C 162.203125 152.863281 162.390625 153.265625 162.652344 153.511719 C 162.925781 153.761719 163.261719 153.882812 163.667969 153.882812 C 164.121094 153.882812 164.507812 153.726562 164.820312 153.414062 C 165.144531 153.089844 165.308594 152.6875 165.308594 152.203125 C 165.308594 151.75 165.15625 151.378906 164.859375 151.089844 C 164.570312 150.792969 164.199219 150.640625 163.746094 150.640625 C 163.550781 150.640625 163.316406 150.679688 163.042969 150.757812 L 163.160156 149.878906 C 163.222656 149.894531 163.277344 149.898438 163.316406 149.898438 C 163.730469 149.898438 164.109375 149.789062 164.449219 149.566406 C 164.785156 149.347656 164.957031 149.007812 164.957031 148.550781 C 164.957031 148.1875 164.832031 147.886719 164.585938 147.652344 C 164.335938 147.417969 164.019531 147.300781 163.628906 147.300781 C 163.25 147.300781 162.929688 147.425781 162.671875 147.671875 C 162.421875 147.90625 162.261719 148.265625 162.183594 148.746094 L 161.1875 148.570312 C 161.316406 147.90625 161.589844 147.394531 162.007812 147.027344 C 162.4375 146.664062 162.96875 146.480469 163.609375 146.480469 C 164.050781 146.480469 164.453125 146.578125 164.820312 146.773438 C 165.195312 146.957031 165.484375 147.210938 165.679688 147.535156 C 165.875 147.863281 165.972656 148.207031 165.972656 148.570312 C 165.972656 148.921875 165.875 149.242188 165.679688 149.527344 C 165.496094 149.816406 165.222656 150.042969 164.859375 150.210938 C 165.339844 150.316406 165.710938 150.542969 165.972656 150.894531 C 166.230469 151.234375 166.363281 151.664062 166.363281 152.183594 C 166.363281 152.886719 166.101562 153.488281 165.582031 153.980469 C 165.074219 154.464844 164.429688 154.703125 163.648438 154.703125 C 162.945312 154.703125 162.359375 154.496094 161.890625 154.078125 C 161.421875 153.664062 161.152344 153.117188 161.089844 152.4375 Z M 161.089844 152.4375 "/>
<path style="fill:none;stroke-width:1;stroke-linecap:round;stroke-linejoin:round;stroke:rgb(0%,0%,0%);stroke-opacity:1;stroke-miterlimit:10;" d="M 908 227.8 L 926 227.8 L 926 245.8 L 908 245.8 Z M 908 227.8 " transform="matrix(1.25,0,0,1.25,-1027.5,-145)"/>
<path style="fill:none;stroke-width:1;stroke-linecap:round;stroke-linejoin:round;stroke:rgb(0%,0%,0%);stroke-opacity:1;stroke-miterlimit:10;" d="M 944 245.8 L 962 245.8 L 962 263.8 L 944 263.8 Z M 944 245.8 " transform="matrix(1.25,0,0,1.25,-1027.5,-145)"/>
<path style="fill:none;stroke-width:1;stroke-linecap:round;stroke-linejoin:round;stroke:rgb(0%,0%,0%);stroke-opacity:1;stroke-miterlimit:10;" d="M 944 209.8 L 962 209.8 L 962 227.8 L 944 227.8 Z M 944 209.8 " transform="matrix(1.25,0,0,1.25,-1027.5,-145)"/>
<path style=" stroke:none;fill-rule:nonzero;fill:rgb(0%,0%,0%);fill-opacity:1;" d="M 164.820312 132.066406 L 163.824219 132.066406 L 163.824219 125.757812 C 163.589844 125.992188 163.277344 126.226562 162.886719 126.460938 C 162.496094 126.683594 162.148438 126.847656 161.851562 126.949219 L 161.851562 125.992188 C 162.398438 125.746094 162.878906 125.441406 163.296875 125.074219 C 163.710938 124.699219 164.003906 124.332031 164.175781 123.980469 L 164.820312 123.980469 Z M 164.820312 132.066406 "/>
<path style="fill:none;stroke-width:1;stroke-linecap:round;stroke-linejoin:round;stroke:rgb(0%,0%,0%);stroke-opacity:1;stroke-miterlimit:10;" d="M 908 209.8 L 926 209.8 L 926 227.8 L 908 227.8 Z M 908 209.8 " transform="matrix(1.25,0,0,1.25,-1027.5,-145)"/>
<path style="fill:none;stroke-width:1;stroke-linecap:round;stroke-linejoin:round;stroke:rgb(0%,0%,0%);stroke-opacity:1;stroke-miterlimit:10;" d="M 994.6 245.8 L 1012.6 245.8 L 1012.6 263.8 L 994.6 263.8 Z M 994.6 245.8 " transform="matrix(1.25,0,0,1.25,-1027.5,-145)"/>
<path style=" stroke:none;fill-rule:nonzero;fill:rgb(0%,0%,0%);fill-opacity:1;" d="M 229.476562 170.992188 L 228.480469 171.070312 C 228.402344 170.679688 228.277344 170.394531 228.109375 170.210938 C 227.847656 169.9375 227.523438 169.800781 227.132812 169.800781 C 226.804688 169.800781 226.527344 169.886719 226.292969 170.054688 C 225.980469 170.289062 225.730469 170.621094 225.550781 171.050781 C 225.378906 171.480469 225.289062 172.101562 225.277344 172.90625 C 225.511719 172.554688 225.796875 172.296875 226.136719 172.125 C 226.488281 171.945312 226.851562 171.851562 227.230469 171.851562 C 227.894531 171.851562 228.453125 172.09375 228.910156 172.574219 C 229.378906 173.058594 229.613281 173.683594 229.613281 174.449219 C 229.613281 174.957031 229.5 175.433594 229.28125 175.875 C 229.058594 176.304688 228.757812 176.636719 228.382812 176.871094 C 228.003906 177.089844 227.574219 177.203125 227.09375 177.203125 C 226.273438 177.203125 225.601562 176.90625 225.082031 176.304688 C 224.558594 175.695312 224.300781 174.691406 224.300781 173.296875 C 224.300781 171.75 224.585938 170.617188 225.160156 169.898438 C 225.652344 169.289062 226.332031 168.980469 227.191406 168.980469 C 227.816406 168.980469 228.328125 169.164062 228.734375 169.527344 C 229.136719 169.878906 229.382812 170.367188 229.476562 170.992188 Z M 225.433594 174.449219 C 225.433594 174.800781 225.503906 175.132812 225.648438 175.445312 C 225.789062 175.746094 225.992188 175.980469 226.253906 176.148438 C 226.511719 176.304688 226.785156 176.382812 227.074219 176.382812 C 227.488281 176.382812 227.847656 176.222656 228.148438 175.894531 C 228.445312 175.558594 228.597656 175.09375 228.597656 174.507812 C 228.597656 173.949219 228.445312 173.511719 228.148438 173.199219 C 227.859375 172.875 227.488281 172.710938 227.035156 172.710938 C 226.589844 172.710938 226.214844 172.875 225.902344 173.199219 C 225.589844 173.511719 225.433594 173.929688 225.433594 174.449219 Z M 225.433594 174.449219 "/>
<path style="fill:none;stroke-width:1;stroke-linecap:round;stroke-linejoin:round;stroke:rgb(0%,0%,0%);stroke-opacity:1;stroke-miterlimit:10;" d="M 994.6 209.8 L 1012.6 209.8 L 1012.6 227.8 L 994.6 227.8 Z M 994.6 209.8 " transform="matrix(1.25,0,0,1.25,-1027.5,-145)"/>
<path style="fill:none;stroke-width:1;stroke-linecap:round;stroke-linejoin:round;stroke:rgb(0%,0%,0%);stroke-opacity:1;stroke-miterlimit:10;" d="M 994.6 227.8 L 1012.6 227.8 L 1012.6 245.8 L 994.6 245.8 Z M 994.6 227.8 " transform="matrix(1.25,0,0,1.25,-1027.5,-145)"/>
<path style=" stroke:none;fill-rule:nonzero;fill:rgb(0%,0%,0%);fill-opacity:1;" d="M 229.535156 153.609375 L 229.535156 154.566406 L 224.203125 154.566406 C 224.203125 154.332031 224.242188 154.105469 224.320312 153.882812 C 224.460938 153.519531 224.683594 153.160156 224.984375 152.808594 C 225.28125 152.457031 225.710938 152.054688 226.273438 151.597656 C 227.144531 150.871094 227.730469 150.296875 228.03125 149.878906 C 228.34375 149.464844 228.5 149.066406 228.5 148.6875 C 228.5 148.296875 228.355469 147.972656 228.070312 147.710938 C 227.796875 147.4375 227.4375 147.300781 226.996094 147.300781 C 226.511719 147.300781 226.128906 147.445312 225.84375 147.730469 C 225.554688 148.019531 225.414062 148.414062 225.414062 148.921875 L 224.398438 148.804688 C 224.460938 148.050781 224.722656 147.476562 225.179688 147.085938 C 225.632812 146.683594 226.246094 146.480469 227.015625 146.480469 C 227.78125 146.480469 228.386719 146.695312 228.832031 147.125 C 229.285156 147.554688 229.515625 148.082031 229.515625 148.707031 C 229.515625 149.035156 229.449219 149.351562 229.320312 149.664062 C 229.1875 149.976562 228.96875 150.308594 228.65625 150.660156 C 228.355469 151 227.855469 151.46875 227.152344 152.066406 C 226.550781 152.5625 226.167969 152.902344 226 153.082031 C 225.828125 153.265625 225.691406 153.441406 225.589844 153.609375 Z M 229.535156 153.609375 "/>
<path style="fill:none;stroke-width:1;stroke-linecap:round;stroke-linejoin:round;stroke:rgb(0%,0%,0%);stroke-opacity:1;stroke-miterlimit:10;" d="M 976.6 245.8 L 994.6 245.8 L 994.6 263.8 L 976.6 263.8 Z M 976.6 245.8 " transform="matrix(1.25,0,0,1.25,-1027.5,-145)"/>
<path style=" stroke:none;fill-rule:nonzero;fill:rgb(0%,0%,0%);fill-opacity:1;" d="M 205.003906 177.066406 L 205.003906 175.132812 L 201.507812 175.132812 L 201.507812 174.234375 L 205.179688 169.019531 L 206 169.019531 L 206 174.234375 L 207.09375 174.234375 L 207.09375 175.132812 L 206 175.132812 L 206 177.066406 Z M 205.003906 174.234375 L 205.003906 170.601562 L 202.484375 174.234375 Z M 205.003906 174.234375 "/>
<path style="fill:none;stroke-width:1;stroke-linecap:round;stroke-linejoin:round;stroke:rgb(0%,0%,0%);stroke-opacity:1;stroke-miterlimit:10;" d="M 1012.6 227.8 L 1030.6 227.8 L 1030.6 245.8 L 1012.6 245.8 Z M 1012.6 227.8 " transform="matrix(1.25,0,0,1.25,-1027.5,-145)"/>
<path style="fill:none;stroke-width:1;stroke-linecap:round;stroke-linejoin:round;stroke:rgb(0%,0%,0%);stroke-opacity:1;stroke-miterlimit:10;" d="M 976.6 227.8 L 994.6 227.8 L 994.6 245.8 L 976.6 245.8 Z M 976.6 227.8 " transform="matrix(1.25,0,0,1.25,-1027.5,-145)"/>
<path style=" stroke:none;fill-rule:nonzero;fill:rgb(0%,0%,0%);fill-opacity:1;" d="M 201.839844 150.601562 C 201.839844 149.652344 201.9375 148.882812 202.132812 148.296875 C 202.328125 147.710938 202.613281 147.261719 202.992188 146.949219 C 203.382812 146.636719 203.871094 146.480469 204.457031 146.480469 C 204.898438 146.480469 205.28125 146.574219 205.609375 146.753906 C 205.933594 146.925781 206.199219 147.171875 206.410156 147.496094 C 206.617188 147.824219 206.78125 148.21875 206.898438 148.6875 C 207.027344 149.15625 207.09375 149.796875 207.09375 150.601562 C 207.09375 151.539062 206.996094 152.300781 206.800781 152.886719 C 206.605469 153.460938 206.3125 153.910156 205.921875 154.234375 C 205.542969 154.546875 205.054688 154.703125 204.457031 154.703125 C 203.6875 154.703125 203.082031 154.425781 202.640625 153.863281 C 202.105469 153.199219 201.839844 152.113281 201.839844 150.601562 Z M 202.855469 150.601562 C 202.855469 151.917969 203.003906 152.796875 203.304688 153.238281 C 203.617188 153.667969 204 153.882812 204.457031 153.882812 C 204.910156 153.882812 205.296875 153.667969 205.609375 153.238281 C 205.921875 152.796875 206.078125 151.917969 206.078125 150.601562 C 206.078125 149.273438 205.921875 148.394531 205.609375 147.964844 C 205.296875 147.523438 204.910156 147.300781 204.457031 147.300781 C 204 147.300781 203.636719 147.492188 203.363281 147.867188 C 203.023438 148.363281 202.855469 149.273438 202.855469 150.601562 Z M 202.855469 150.601562 "/>
<path style="fill:none;stroke-width:1;stroke-linecap:round;stroke-linejoin:round;stroke:rgb(0%,0%,0%);stroke-opacity:1;stroke-miterlimit:10;" d="M 1012.6 245.8 L 1030.6 245.8 L 1030.6 263.8 L 1012.6 263.8 Z M 1012.6 245.8 " transform="matrix(1.25,0,0,1.25,-1027.5,-145)"/>
<path style="fill:none;stroke-width:1;stroke-linecap:round;stroke-linejoin:round;stroke:rgb(0%,0%,0%);stroke-opacity:1;stroke-miterlimit:10;" d="M 1012.6 209.8 L 1030.6 209.8 L 1030.6 227.8 L 1012.6 227.8 Z M 1012.6 209.8 " transform="matrix(1.25,0,0,1.25,-1027.5,-145)"/>
<path style="fill:none;stroke-width:1;stroke-linecap:round;stroke-linejoin:round;stroke:rgb(0%,0%,0%);stroke-opacity:1;stroke-miterlimit:10;" d="M 976.6 209.8 L 994.6 209.8 L 994.6 227.8 L 976.6 227.8 Z M 976.6 209.8 " transform="matrix(1.25,0,0,1.25,-1027.5,-145)"/>
<path style="fill:none;stroke-width:1;stroke-linecap:round;stroke-linejoin:round;stroke:rgb(0%,0%,0%);stroke-opacity:1;stroke-miterlimit:10;" d="M 1063.35625 246.465625 L 1081.35625 246.465625 L 1081.35625 264.465625 L 1063.35625 264.465625 Z M 1063.35625 246.465625 " transform="matrix(1.25,0,0,1.25,-1027.5,-145)"/>
<path style=" stroke:none;fill-rule:nonzero;fill:rgb(0%,0%,0%);fill-opacity:1;" d="M 315.421875 171.824219 L 314.425781 171.902344 C 314.347656 171.511719 314.21875 171.230469 314.054688 171.042969 C 313.789062 170.769531 313.46875 170.632812 313.078125 170.632812 C 312.75 170.632812 312.472656 170.722656 312.238281 170.886719 C 311.925781 171.121094 311.675781 171.453125 311.496094 171.882812 C 311.324219 172.3125 311.230469 172.933594 311.222656 173.738281 C 311.457031 173.386719 311.738281 173.128906 312.082031 172.957031 C 312.433594 172.777344 312.792969 172.683594 313.175781 172.683594 C 313.839844 172.683594 314.394531 172.929688 314.855469 173.40625 C 315.324219 173.890625 315.558594 174.515625 315.558594 175.28125 C 315.558594 175.789062 315.445312 176.269531 315.226562 176.707031 C 315 177.136719 314.703125 177.46875 314.328125 177.703125 C 313.945312 177.921875 313.515625 178.035156 313.039062 178.035156 C 312.21875 178.035156 311.542969 177.738281 311.027344 177.136719 C 310.503906 176.527344 310.246094 175.527344 310.246094 174.128906 C 310.246094 172.582031 310.527344 171.449219 311.105469 170.730469 C 311.597656 170.121094 312.277344 169.8125 313.136719 169.8125 C 313.761719 169.8125 314.273438 170 314.679688 170.359375 C 315.078125 170.710938 315.328125 171.199219 315.421875 171.824219 Z M 311.378906 175.28125 C 311.378906 175.632812 311.445312 175.964844 311.59375 176.277344 C 311.734375 176.582031 311.933594 176.816406 312.199219 176.980469 C 312.457031 177.136719 312.730469 177.214844 313.019531 177.214844 C 313.433594 177.214844 313.789062 177.054688 314.09375 176.726562 C 314.390625 176.390625 314.542969 175.925781 314.542969 175.339844 C 314.542969 174.785156 314.390625 174.34375 314.09375 174.03125 C 313.804688 173.710938 313.433594 173.542969 312.980469 173.542969 C 312.535156 173.542969 312.160156 173.710938 311.847656 174.03125 C 311.535156 174.34375 311.378906 174.765625 311.378906 175.28125 Z M 311.378906 175.28125 "/>
<path style="fill:none;stroke-width:1;stroke-linecap:round;stroke-linejoin:round;stroke:rgb(0%,0%,0%);stroke-opacity:1;stroke-miterlimit:10;" d="M 1063.35625 210.465625 L 1081.35625 210.465625 L 1081.35625 228.465625 L 1063.35625 228.465625 Z M 1063.35625 210.465625 " transform="matrix(1.25,0,0,1.25,-1027.5,-145)"/>
<path style="fill:none;stroke-width:1;stroke-linecap:round;stroke-linejoin:round;stroke:rgb(0%,0%,0%);stroke-opacity:1;stroke-miterlimit:10;" d="M 1063.35625 228.465625 L 1081.35625 228.465625 L 1081.35625 246.465625 L 1063.35625 246.465625 Z M 1063.35625 228.465625 " transform="matrix(1.25,0,0,1.25,-1027.5,-145)"/>
<path style=" stroke:none;fill-rule:nonzero;fill:rgb(0%,0%,0%);fill-opacity:1;" d="M 310.285156 151.433594 C 310.285156 150.488281 310.382812 149.714844 310.578125 149.128906 C 310.773438 148.542969 311.054688 148.09375 311.4375 147.78125 C 311.828125 147.46875 312.316406 147.3125 312.902344 147.3125 C 313.339844 147.3125 313.726562 147.40625 314.054688 147.585938 C 314.375 147.757812 314.644531 148.007812 314.855469 148.328125 C 315.058594 148.65625 315.226562 149.050781 315.34375 149.519531 C 315.46875 149.988281 315.539062 150.628906 315.539062 151.433594 C 315.539062 152.371094 315.441406 153.132812 315.246094 153.71875 C 315.050781 154.296875 314.757812 154.746094 314.367188 155.066406 C 313.984375 155.378906 313.496094 155.535156 312.902344 155.535156 C 312.128906 155.535156 311.523438 155.257812 311.085938 154.695312 C 310.546875 154.03125 310.285156 152.949219 310.285156 151.433594 Z M 311.300781 151.433594 C 311.300781 152.753906 311.445312 153.632812 311.75 154.070312 C 312.0625 154.5 312.441406 154.714844 312.902344 154.714844 C 313.355469 154.714844 313.742188 154.5 314.054688 154.070312 C 314.367188 153.632812 314.523438 152.753906 314.523438 151.433594 C 314.523438 150.105469 314.367188 149.226562 314.054688 148.796875 C 313.742188 148.359375 313.355469 148.132812 312.902344 148.132812 C 312.441406 148.132812 312.082031 148.324219 311.808594 148.699219 C 311.464844 149.199219 311.300781 150.105469 311.300781 151.433594 Z M 311.300781 151.433594 "/>
<path style="fill:none;stroke-width:1;stroke-linecap:round;stroke-linejoin:round;stroke:rgb(0%,0%,0%);stroke-opacity:1;stroke-miterlimit:10;" d="M 1045.35625 246.465625 L 1063.35625 246.465625 L 1063.35625 264.465625 L 1045.35625 264.465625 Z M 1045.35625 246.465625 " transform="matrix(1.25,0,0,1.25,-1027.5,-145)"/>
<path style="fill:none;stroke-width:1;stroke-linecap:round;stroke-linejoin:round;stroke:rgb(0%,0%,0%);stroke-opacity:1;stroke-miterlimit:10;" d="M 1081.35625 228.465625 L 1099.35625 228.465625 L 1099.35625 246.465625 L 1081.35625 246.465625 Z M 1081.35625 228.465625 " transform="matrix(1.25,0,0,1.25,-1027.5,-145)"/>
<path style=" stroke:none;fill-rule:nonzero;fill:rgb(0%,0%,0%);fill-opacity:1;" d="M 332.785156 153.269531 L 333.78125 153.132812 C 333.898438 153.695312 334.082031 154.101562 334.347656 154.34375 C 334.621094 154.59375 334.957031 154.714844 335.363281 154.714844 C 335.816406 154.714844 336.203125 154.558594 336.515625 154.246094 C 336.835938 153.925781 337.003906 153.519531 337.003906 153.035156 C 337.003906 152.582031 336.851562 152.210938 336.554688 151.921875 C 336.265625 151.625 335.894531 151.472656 335.441406 151.472656 C 335.246094 151.472656 335.011719 151.511719 334.738281 151.589844 L 334.855469 150.710938 C 334.917969 150.726562 334.972656 150.730469 335.011719 150.730469 C 335.425781 150.730469 335.800781 150.625 336.144531 150.398438 C 336.480469 150.179688 336.652344 149.84375 336.652344 149.382812 C 336.652344 149.023438 336.523438 148.71875 336.28125 148.484375 C 336.03125 148.25 335.714844 148.132812 335.324219 148.132812 C 334.941406 148.132812 334.625 148.261719 334.367188 148.503906 C 334.117188 148.738281 333.957031 149.101562 333.878906 149.578125 L 332.882812 149.402344 C 333.007812 148.738281 333.28125 148.226562 333.703125 147.859375 C 334.132812 147.5 334.664062 147.3125 335.304688 147.3125 C 335.742188 147.3125 336.148438 147.410156 336.515625 147.605469 C 336.890625 147.792969 337.179688 148.046875 337.375 148.367188 C 337.570312 148.695312 337.667969 149.042969 337.667969 149.402344 C 337.667969 149.753906 337.570312 150.078125 337.375 150.359375 C 337.1875 150.648438 336.914062 150.878906 336.554688 151.042969 C 337.03125 151.152344 337.402344 151.375 337.667969 151.726562 C 337.925781 152.070312 338.058594 152.5 338.058594 153.015625 C 338.058594 153.71875 337.792969 154.320312 337.277344 154.8125 C 336.769531 155.296875 336.125 155.535156 335.34375 155.535156 C 334.640625 155.535156 334.054688 155.332031 333.585938 154.910156 C 333.117188 154.496094 332.847656 153.949219 332.785156 153.269531 Z M 332.785156 153.269531 "/>
<path style="fill:none;stroke-width:1;stroke-linecap:round;stroke-linejoin:round;stroke:rgb(0%,0%,0%);stroke-opacity:1;stroke-miterlimit:10;" d="M 1045.35625 228.465625 L 1063.35625 228.465625 L 1063.35625 246.465625 L 1045.35625 246.465625 Z M 1045.35625 228.465625 " transform="matrix(1.25,0,0,1.25,-1027.5,-145)"/>
<path style="fill:none;stroke-width:1;stroke-linecap:round;stroke-linejoin:round;stroke:rgb(0%,0%,0%);stroke-opacity:1;stroke-miterlimit:10;" d="M 1081.35625 246.465625 L 1099.35625 246.465625 L 1099.35625 264.465625 L 1081.35625 264.465625 Z M 1081.35625 246.465625 " transform="matrix(1.25,0,0,1.25,-1027.5,-145)"/>
<path style=" stroke:none;fill-rule:nonzero;fill:rgb(0%,0%,0%);fill-opacity:1;" d="M 332.941406 176.042969 L 333.878906 175.945312 C 333.957031 176.390625 334.101562 176.71875 334.328125 176.921875 C 334.5625 177.117188 334.859375 177.214844 335.226562 177.214844 C 335.523438 177.214844 335.78125 177.152344 336.007812 177.019531 C 336.242188 176.878906 336.425781 176.6875 336.574219 176.453125 C 336.730469 176.21875 336.851562 175.90625 336.945312 175.515625 C 337.046875 175.125 337.101562 174.726562 337.101562 174.304688 C 337.101562 174.265625 337.089844 174.203125 337.082031 174.109375 C 336.886719 174.421875 336.617188 174.675781 336.28125 174.871094 C 335.9375 175.066406 335.566406 175.164062 335.167969 175.164062 C 334.503906 175.164062 333.9375 174.925781 333.46875 174.441406 C 333.007812 173.964844 332.785156 173.324219 332.785156 172.527344 C 332.785156 171.707031 333.023438 171.054688 333.507812 170.554688 C 333.984375 170.0625 334.589844 169.8125 335.324219 169.8125 C 335.839844 169.8125 336.320312 169.960938 336.75 170.242188 C 337.179688 170.515625 337.5 170.917969 337.726562 171.433594 C 337.960938 171.957031 338.078125 172.714844 338.078125 173.699219 C 338.078125 174.730469 337.964844 175.550781 337.746094 176.160156 C 337.519531 176.777344 337.1875 177.246094 336.75 177.566406 C 336.304688 177.878906 335.78125 178.035156 335.1875 178.035156 C 334.5625 178.035156 334.042969 177.859375 333.644531 177.507812 C 333.253906 177.15625 333.019531 176.667969 332.941406 176.042969 Z M 336.984375 172.488281 C 336.984375 171.917969 336.828125 171.46875 336.515625 171.140625 C 336.210938 170.804688 335.855469 170.632812 335.441406 170.632812 C 334.996094 170.632812 334.609375 170.820312 334.289062 171.179688 C 333.960938 171.53125 333.800781 171.996094 333.800781 172.566406 C 333.800781 173.074219 333.945312 173.496094 334.25 173.816406 C 334.5625 174.128906 334.941406 174.285156 335.402344 174.285156 C 335.871094 174.285156 336.246094 174.128906 336.535156 173.816406 C 336.832031 173.496094 336.984375 173.050781 336.984375 172.488281 Z M 336.984375 172.488281 "/>
<path style="fill:none;stroke-width:1;stroke-linecap:round;stroke-linejoin:round;stroke:rgb(0%,0%,0%);stroke-opacity:1;stroke-miterlimit:10;" d="M 1081.35625 210.465625 L 1099.35625 210.465625 L 1099.35625 228.465625 L 1081.35625 228.465625 Z M 1081.35625 210.465625 " transform="matrix(1.25,0,0,1.25,-1027.5,-145)"/>
<path style="fill:none;stroke-width:1;stroke-linecap:round;stroke-linejoin:round;stroke:rgb(0%,0%,0%);stroke-opacity:1;stroke-miterlimit:10;" d="M 1045.35625 210.465625 L 1063.35625 210.465625 L 1063.35625 228.465625 L 1045.35625 228.465625 Z M 1045.35625 210.465625 " transform="matrix(1.25,0,0,1.25,-1027.5,-145)"/>
<path style="fill:none;stroke-width:1;stroke-linecap:round;stroke-linejoin:round;stroke:rgb(0%,0%,0%);stroke-opacity:1;stroke-miterlimit:10;" d="M 1131.8 245.8 L 1149.8 245.8 L 1149.8 263.8 L 1131.8 263.8 Z M 1131.8 245.8 " transform="matrix(1.25,0,0,1.25,-1027.5,-145)"/>
<path style=" stroke:none;fill-rule:nonzero;fill:rgb(0%,0%,0%);fill-opacity:1;" d="M 396.441406 177.066406 L 395.445312 177.066406 L 395.445312 170.757812 C 395.210938 170.992188 394.898438 171.226562 394.507812 171.460938 C 394.117188 171.683594 393.773438 171.847656 393.472656 171.949219 L 393.472656 170.992188 C 394.019531 170.746094 394.5 170.441406 394.917969 170.074219 C 395.335938 169.699219 395.628906 169.332031 395.796875 168.980469 L 396.441406 168.980469 Z M 396.441406 177.066406 "/>
<path style=" stroke:none;fill-rule:nonzero;fill:rgb(0%,0%,0%);fill-opacity:1;" d="M 404.164062 176.109375 L 404.164062 177.066406 L 398.832031 177.066406 C 398.832031 176.832031 398.871094 176.605469 398.949219 176.382812 C 399.09375 176.019531 399.3125 175.660156 399.613281 175.308594 C 399.914062 174.957031 400.34375 174.554688 400.902344 174.097656 C 401.773438 173.371094 402.359375 172.796875 402.660156 172.378906 C 402.972656 171.964844 403.128906 171.566406 403.128906 171.1875 C 403.128906 170.796875 402.984375 170.472656 402.699219 170.210938 C 402.425781 169.9375 402.066406 169.800781 401.625 169.800781 C 401.144531 169.800781 400.757812 169.945312 400.472656 170.230469 C 400.1875 170.519531 400.042969 170.914062 400.042969 171.421875 L 399.027344 171.304688 C 399.09375 170.550781 399.351562 169.976562 399.808594 169.585938 C 400.265625 169.183594 400.875 168.980469 401.644531 168.980469 C 402.414062 168.980469 403.019531 169.195312 403.460938 169.625 C 403.917969 170.054688 404.144531 170.582031 404.144531 171.207031 C 404.144531 171.535156 404.078125 171.851562 403.949219 172.164062 C 403.820312 172.476562 403.597656 172.808594 403.285156 173.160156 C 402.984375 173.5 402.484375 173.96875 401.78125 174.566406 C 401.183594 175.0625 400.796875 175.402344 400.628906 175.582031 C 400.460938 175.765625 400.324219 175.941406 400.21875 176.109375 Z M 404.164062 176.109375 "/>
<path style="fill:none;stroke-width:1;stroke-linecap:round;stroke-linejoin:round;stroke:rgb(0%,0%,0%);stroke-opacity:1;stroke-miterlimit:10;" d="M 1131.8 209.8 L 1149.8 209.8 L 1149.8 227.8 L 1131.8 227.8 Z M 1131.8 209.8 " transform="matrix(1.25,0,0,1.25,-1027.5,-145)"/>
<path style=" stroke:none;fill-rule:nonzero;fill:rgb(0%,0%,0%);fill-opacity:1;" d="M 395.839844 128.101562 C 395.839844 127.152344 395.9375 126.382812 396.132812 125.796875 C 396.328125 125.210938 396.613281 124.761719 396.992188 124.449219 C 397.382812 124.136719 397.871094 123.980469 398.457031 123.980469 C 398.898438 123.980469 399.28125 124.074219 399.609375 124.253906 C 399.933594 124.425781 400.199219 124.671875 400.410156 124.996094 C 400.617188 125.324219 400.78125 125.71875 400.898438 126.1875 C 401.027344 126.65625 401.09375 127.296875 401.09375 128.101562 C 401.09375 129.039062 400.996094 129.800781 400.800781 130.386719 C 400.605469 130.960938 400.3125 131.410156 399.921875 131.734375 C 399.542969 132.046875 399.054688 132.203125 398.457031 132.203125 C 397.6875 132.203125 397.082031 131.925781 396.640625 131.363281 C 396.105469 130.699219 395.839844 129.613281 395.839844 128.101562 Z M 396.855469 128.101562 C 396.855469 129.417969 397.003906 130.296875 397.304688 130.738281 C 397.617188 131.167969 398 131.382812 398.457031 131.382812 C 398.910156 131.382812 399.296875 131.167969 399.609375 130.738281 C 399.921875 130.296875 400.078125 129.417969 400.078125 128.101562 C 400.078125 126.773438 399.921875 125.894531 399.609375 125.464844 C 399.296875 125.023438 398.910156 124.800781 398.457031 124.800781 C 398 124.800781 397.636719 124.992188 397.363281 125.367188 C 397.023438 125.863281 396.855469 126.773438 396.855469 128.101562 Z M 396.855469 128.101562 "/>
<path style="fill:none;stroke-width:1;stroke-linecap:round;stroke-linejoin:round;stroke:rgb(0%,0%,0%);stroke-opacity:1;stroke-miterlimit:10;" d="M 1131.8 227.8 L 1149.8 227.8 L 1149.8 245.8 L 1131.8 245.8 Z M 1131.8 227.8 " transform="matrix(1.25,0,0,1.25,-1027.5,-145)"/>
<path style=" stroke:none;fill-rule:nonzero;fill:rgb(0%,0%,0%);fill-opacity:1;" d="M 399.003906 154.566406 L 399.003906 152.632812 L 395.507812 152.632812 L 395.507812 151.734375 L 399.179688 146.519531 L 400 146.519531 L 400 151.734375 L 401.09375 151.734375 L 401.09375 152.632812 L 400 152.632812 L 400 154.566406 Z M 399.003906 151.734375 L 399.003906 148.101562 L 396.484375 151.734375 Z M 399.003906 151.734375 "/>
<path style="fill:none;stroke-width:1;stroke-linecap:round;stroke-linejoin:round;stroke:rgb(0%,0%,0%);stroke-opacity:1;stroke-miterlimit:10;" d="M 1113.8 245.8 L 1131.8 245.8 L 1131.8 263.8 L 1113.8 263.8 Z M 1113.8 245.8 " transform="matrix(1.25,0,0,1.25,-1027.5,-145)"/>
<path style=" stroke:none;fill-rule:nonzero;fill:rgb(0%,0%,0%);fill-opacity:1;" d="M 376.503906 177.066406 L 376.503906 175.132812 L 373.007812 175.132812 L 373.007812 174.234375 L 376.679688 169.019531 L 377.5 169.019531 L 377.5 174.234375 L 378.59375 174.234375 L 378.59375 175.132812 L 377.5 175.132812 L 377.5 177.066406 Z M 376.503906 174.234375 L 376.503906 170.601562 L 373.984375 174.234375 Z M 376.503906 174.234375 "/>
<path style="fill:none;stroke-width:1;stroke-linecap:round;stroke-linejoin:round;stroke:rgb(0%,0%,0%);stroke-opacity:1;stroke-miterlimit:10;" d="M 1149.8 227.8 L 1167.8 227.8 L 1167.8 245.8 L 1149.8 245.8 Z M 1149.8 227.8 " transform="matrix(1.25,0,0,1.25,-1027.5,-145)"/>
<path style=" stroke:none;fill-rule:nonzero;fill:rgb(0%,0%,0%);fill-opacity:1;" d="M 423.476562 148.492188 L 422.480469 148.570312 C 422.402344 148.179688 422.277344 147.894531 422.109375 147.710938 C 421.847656 147.4375 421.523438 147.300781 421.132812 147.300781 C 420.804688 147.300781 420.527344 147.386719 420.292969 147.554688 C 419.980469 147.789062 419.730469 148.121094 419.550781 148.550781 C 419.378906 148.980469 419.289062 149.601562 419.277344 150.40625 C 419.511719 150.054688 419.796875 149.796875 420.136719 149.625 C 420.488281 149.445312 420.851562 149.351562 421.230469 149.351562 C 421.894531 149.351562 422.453125 149.59375 422.910156 150.074219 C 423.378906 150.558594 423.613281 151.183594 423.613281 151.949219 C 423.613281 152.457031 423.5 152.933594 423.28125 153.375 C 423.058594 153.804688 422.757812 154.136719 422.382812 154.371094 C 422.003906 154.589844 421.574219 154.703125 421.09375 154.703125 C 420.273438 154.703125 419.601562 154.40625 419.082031 153.804688 C 418.558594 153.195312 418.300781 152.191406 418.300781 150.796875 C 418.300781 149.25 418.585938 148.117188 419.160156 147.398438 C 419.652344 146.789062 420.332031 146.480469 421.191406 146.480469 C 421.816406 146.480469 422.328125 146.664062 422.734375 147.027344 C 423.136719 147.378906 423.382812 147.867188 423.476562 148.492188 Z M 419.433594 151.949219 C 419.433594 152.300781 419.503906 152.632812 419.648438 152.945312 C 419.789062 153.246094 419.992188 153.480469 420.253906 153.648438 C 420.511719 153.804688 420.785156 153.882812 421.074219 153.882812 C 421.488281 153.882812 421.847656 153.722656 422.148438 153.394531 C 422.445312 153.058594 422.597656 152.59375 422.597656 152.007812 C 422.597656 151.449219 422.445312 151.011719 422.148438 150.699219 C 421.859375 150.375 421.488281 150.210938 421.035156 150.210938 C 420.589844 150.210938 420.214844 150.375 419.902344 150.699219 C 419.589844 151.011719 419.433594 151.429688 419.433594 151.949219 Z M 419.433594 151.949219 "/>
<path style="fill:none;stroke-width:1;stroke-linecap:round;stroke-linejoin:round;stroke:rgb(0%,0%,0%);stroke-opacity:1;stroke-miterlimit:10;" d="M 1113.8 227.8 L 1131.8 227.8 L 1131.8 245.8 L 1113.8 245.8 Z M 1113.8 227.8 " transform="matrix(1.25,0,0,1.25,-1027.5,-145)"/>
<path style=" stroke:none;fill-rule:nonzero;fill:rgb(0%,0%,0%);fill-opacity:1;" d="M 373.339844 150.601562 C 373.339844 149.652344 373.4375 148.882812 373.632812 148.296875 C 373.828125 147.710938 374.113281 147.261719 374.492188 146.949219 C 374.882812 146.636719 375.371094 146.480469 375.957031 146.480469 C 376.398438 146.480469 376.78125 146.574219 377.109375 146.753906 C 377.433594 146.925781 377.699219 147.171875 377.910156 147.496094 C 378.117188 147.824219 378.28125 148.21875 378.398438 148.6875 C 378.527344 149.15625 378.59375 149.796875 378.59375 150.601562 C 378.59375 151.539062 378.496094 152.300781 378.300781 152.886719 C 378.105469 153.460938 377.8125 153.910156 377.421875 154.234375 C 377.042969 154.546875 376.554688 154.703125 375.957031 154.703125 C 375.1875 154.703125 374.582031 154.425781 374.140625 153.863281 C 373.605469 153.199219 373.339844 152.113281 373.339844 150.601562 Z M 374.355469 150.601562 C 374.355469 151.917969 374.503906 152.796875 374.804688 153.238281 C 375.117188 153.667969 375.5 153.882812 375.957031 153.882812 C 376.410156 153.882812 376.796875 153.667969 377.109375 153.238281 C 377.421875 152.796875 377.578125 151.917969 377.578125 150.601562 C 377.578125 149.273438 377.421875 148.394531 377.109375 147.964844 C 376.796875 147.523438 376.410156 147.300781 375.957031 147.300781 C 375.5 147.300781 375.136719 147.492188 374.863281 147.867188 C 374.523438 148.363281 374.355469 149.273438 374.355469 150.601562 Z M 374.355469 150.601562 "/>
<path style="fill:none;stroke-width:1;stroke-linecap:round;stroke-linejoin:round;stroke:rgb(0%,0%,0%);stroke-opacity:1;stroke-miterlimit:10;" d="M 1149.8 245.8 L 1167.8 245.8 L 1167.8 263.8 L 1149.8 263.8 Z M 1149.8 245.8 " transform="matrix(1.25,0,0,1.25,-1027.5,-145)"/>
<path style=" stroke:none;fill-rule:nonzero;fill:rgb(0%,0%,0%);fill-opacity:1;" d="M 418.496094 175.210938 L 419.433594 175.113281 C 419.511719 175.558594 419.660156 175.882812 419.882812 176.089844 C 420.117188 176.285156 420.414062 176.382812 420.78125 176.382812 C 421.078125 176.382812 421.339844 176.320312 421.5625 176.1875 C 421.796875 176.046875 421.984375 175.855469 422.128906 175.621094 C 422.285156 175.386719 422.40625 175.074219 422.5 174.683594 C 422.601562 174.292969 422.65625 173.890625 422.65625 173.472656 C 422.65625 173.433594 422.648438 173.371094 422.636719 173.277344 C 422.441406 173.589844 422.171875 173.84375 421.835938 174.039062 C 421.496094 174.234375 421.125 174.332031 420.722656 174.332031 C 420.058594 174.332031 419.492188 174.09375 419.023438 173.609375 C 418.566406 173.128906 418.339844 172.492188 418.339844 171.695312 C 418.339844 170.875 418.578125 170.21875 419.0625 169.722656 C 419.542969 169.230469 420.148438 168.980469 420.878906 168.980469 C 421.398438 168.980469 421.875 169.125 422.304688 169.410156 C 422.734375 169.683594 423.058594 170.082031 423.28125 170.601562 C 423.515625 171.125 423.632812 171.878906 423.632812 172.867188 C 423.632812 173.898438 423.519531 174.71875 423.300781 175.328125 C 423.078125 175.941406 422.746094 176.410156 422.304688 176.734375 C 421.859375 177.046875 421.339844 177.203125 420.742188 177.203125 C 420.117188 177.203125 419.601562 177.027344 419.199219 176.675781 C 418.808594 176.324219 418.574219 175.835938 418.496094 175.210938 Z M 422.539062 171.65625 C 422.539062 171.085938 422.382812 170.636719 422.070312 170.308594 C 421.769531 169.972656 421.410156 169.800781 420.996094 169.800781 C 420.550781 169.800781 420.167969 169.984375 419.84375 170.347656 C 419.515625 170.699219 419.355469 171.164062 419.355469 171.734375 C 419.355469 172.242188 419.503906 172.660156 419.804688 172.984375 C 420.117188 173.296875 420.5 173.453125 420.957031 173.453125 C 421.425781 173.453125 421.800781 173.296875 422.089844 172.984375 C 422.386719 172.660156 422.539062 172.21875 422.539062 171.65625 Z M 422.539062 171.65625 "/>
<path style="fill:none;stroke-width:1;stroke-linecap:round;stroke-linejoin:round;stroke:rgb(0%,0%,0%);stroke-opacity:1;stroke-miterlimit:10;" d="M 1149.8 209.8 L 1167.8 209.8 L 1167.8 227.8 L 1149.8 227.8 Z M 1149.8 209.8 " transform="matrix(1.25,0,0,1.25,-1027.5,-145)"/>
<path style=" stroke:none;fill-rule:nonzero;fill:rgb(0%,0%,0%);fill-opacity:1;" d="M 422.070312 132.066406 L 421.074219 132.066406 L 421.074219 125.757812 C 420.839844 125.992188 420.527344 126.226562 420.136719 126.460938 C 419.746094 126.683594 419.398438 126.847656 419.101562 126.949219 L 419.101562 125.992188 C 419.648438 125.746094 420.128906 125.441406 420.546875 125.074219 C 420.960938 124.699219 421.253906 124.332031 421.425781 123.980469 L 422.070312 123.980469 Z M 422.070312 132.066406 "/>
<path style="fill:none;stroke-width:1;stroke-linecap:round;stroke-linejoin:round;stroke:rgb(0%,0%,0%);stroke-opacity:1;stroke-miterlimit:10;" d="M 1113.8 209.8 L 1131.8 209.8 L 1131.8 227.8 L 1113.8 227.8 Z M 1113.8 209.8 " transform="matrix(1.25,0,0,1.25,-1027.5,-145)"/>
<path style=" stroke:none;fill-rule:nonzero;fill:rgb(0%,0%,0%);fill-opacity:1;" d="M 373.339844 128.101562 C 373.339844 127.152344 373.4375 126.382812 373.632812 125.796875 C 373.828125 125.210938 374.113281 124.761719 374.492188 124.449219 C 374.882812 124.136719 375.371094 123.980469 375.957031 123.980469 C 376.398438 123.980469 376.78125 124.074219 377.109375 124.253906 C 377.433594 124.425781 377.699219 124.671875 377.910156 124.996094 C 378.117188 125.324219 378.28125 125.71875 378.398438 126.1875 C 378.527344 126.65625 378.59375 127.296875 378.59375 128.101562 C 378.59375 129.039062 378.496094 129.800781 378.300781 130.386719 C 378.105469 130.960938 377.8125 131.410156 377.421875 131.734375 C 377.042969 132.046875 376.554688 132.203125 375.957031 132.203125 C 375.1875 132.203125 374.582031 131.925781 374.140625 131.363281 C 373.605469 130.699219 373.339844 129.613281 373.339844 128.101562 Z M 374.355469 128.101562 C 374.355469 129.417969 374.503906 130.296875 374.804688 130.738281 C 375.117188 131.167969 375.5 131.382812 375.957031 131.382812 C 376.410156 131.382812 376.796875 131.167969 377.109375 130.738281 C 377.421875 130.296875 377.578125 129.417969 377.578125 128.101562 C 377.578125 126.773438 377.421875 125.894531 377.109375 125.464844 C 376.796875 125.023438 376.410156 124.800781 375.957031 124.800781 C 375.5 124.800781 375.136719 124.992188 374.863281 125.367188 C 374.523438 125.863281 374.355469 126.773438 374.355469 128.101562 Z M 374.355469 128.101562 "/>
<path style=" stroke:none;fill-rule:nonzero;fill:rgb(0%,0%,0%);fill-opacity:1;" d="M 97.703125 153.648438 L 97.703125 151.441406 L 95.515625 151.441406 L 95.515625 150.523438 L 97.703125 150.523438 L 97.703125 148.335938 L 98.640625 148.335938 L 98.640625 150.523438 L 100.828125 150.523438 L 100.828125 151.441406 L 98.640625 151.441406 L 98.640625 153.648438 Z M 97.703125 153.648438 "/>
<path style=" stroke:none;fill-rule:nonzero;fill:rgb(0%,0%,0%);fill-opacity:1;" d="M 183.652344 152.816406 L 183.652344 150.609375 L 181.464844 150.609375 L 181.464844 149.691406 L 183.652344 149.691406 L 183.652344 147.503906 L 184.589844 147.503906 L 184.589844 149.691406 L 186.777344 149.691406 L 186.777344 150.609375 L 184.589844 150.609375 L 184.589844 152.816406 Z M 183.652344 152.816406 "/>
<path style=" stroke:none;fill-rule:nonzero;fill:rgb(0%,0%,0%);fill-opacity:1;" d="M 269.1875 152.816406 L 269.1875 150.609375 L 267 150.609375 L 267 149.691406 L 269.1875 149.691406 L 269.1875 147.503906 L 270.125 147.503906 L 270.125 149.691406 L 272.3125 149.691406 L 272.3125 150.609375 L 270.125 150.609375 L 270.125 152.816406 Z M 269.1875 152.816406 "/>
<path style=" stroke:none;fill-rule:nonzero;fill:rgb(0%,0%,0%);fill-opacity:1;" d="M 358.6875 149.085938 L 353.375 149.085938 L 353.375 148.148438 L 358.6875 148.148438 Z M 358.6875 151.527344 L 353.375 151.527344 L 353.375 150.589844 L 358.6875 150.589844 Z M 358.6875 151.527344 "/>
<path style="fill:none;stroke-width:1;stroke-linecap:round;stroke-linejoin:round;stroke:rgb(0%,0%,0%);stroke-opacity:1;stroke-miterlimit:10;" d="M 973.35 145 L 1033.35 145 L 1033.35 180 L 973.35 180 Z M 973.35 145 " transform="matrix(1.25,0,0,1.25,-1027.5,-145)"/>
<path style=" stroke:none;fill-rule:nonzero;fill:rgb(0%,0%,0%);fill-opacity:1;" d="M 200.101562 55.257812 L 200.101562 48.148438 L 197.464844 48.148438 L 197.464844 47.210938 L 203.832031 47.210938 L 203.832031 48.148438 L 201.175781 48.148438 L 201.175781 55.257812 Z M 200.101562 55.257812 "/>
<path style=" stroke:none;fill-rule:nonzero;fill:rgb(0%,0%,0%);fill-opacity:1;" d="M 204.367188 55.257812 L 204.367188 49.417969 L 205.265625 49.417969 L 205.265625 50.316406 C 205.488281 49.902344 205.695312 49.628906 205.890625 49.496094 C 206.085938 49.367188 206.300781 49.300781 206.535156 49.300781 C 206.859375 49.300781 207.199219 49.40625 207.550781 49.613281 L 207.199219 50.53125 C 206.964844 50.390625 206.722656 50.316406 206.476562 50.316406 C 206.269531 50.316406 206.074219 50.382812 205.890625 50.511719 C 205.722656 50.644531 205.597656 50.824219 205.519531 51.058594 C 205.414062 51.410156 205.363281 51.796875 205.363281 52.210938 L 205.363281 55.257812 Z M 204.367188 55.257812 "/>
<path style=" stroke:none;fill-rule:nonzero;fill:rgb(0%,0%,0%);fill-opacity:1;" d="M 211.941406 54.535156 C 211.578125 54.847656 211.226562 55.070312 210.886719 55.199219 C 210.546875 55.324219 210.183594 55.394531 209.792969 55.394531 C 209.15625 55.394531 208.660156 55.238281 208.308594 54.925781 C 207.96875 54.613281 207.800781 54.210938 207.800781 53.714844 C 207.800781 53.429688 207.867188 53.167969 207.996094 52.933594 C 208.125 52.699219 208.296875 52.511719 208.503906 52.367188 C 208.710938 52.226562 208.945312 52.113281 209.207031 52.035156 C 209.402344 51.996094 209.695312 51.953125 210.085938 51.898438 C 210.894531 51.808594 211.484375 51.691406 211.863281 51.546875 C 211.863281 51.417969 211.863281 51.332031 211.863281 51.292969 C 211.863281 50.890625 211.773438 50.609375 211.589844 50.453125 C 211.328125 50.21875 210.953125 50.101562 210.457031 50.101562 C 209.988281 50.101562 209.644531 50.1875 209.421875 50.355469 C 209.199219 50.511719 209.039062 50.800781 208.933594 51.214844 L 207.976562 51.097656 C 208.054688 50.683594 208.191406 50.351562 208.386719 50.101562 C 208.59375 49.84375 208.886719 49.648438 209.265625 49.515625 C 209.65625 49.375 210.097656 49.300781 210.59375 49.300781 C 211.101562 49.300781 211.503906 49.359375 211.804688 49.476562 C 212.117188 49.59375 212.34375 49.746094 212.488281 49.925781 C 212.644531 50.097656 212.75 50.316406 212.800781 50.589844 C 212.839844 50.761719 212.859375 51.058594 212.859375 51.488281 L 212.859375 52.816406 C 212.859375 53.730469 212.878906 54.308594 212.917969 54.554688 C 212.957031 54.804688 213.042969 55.039062 213.171875 55.257812 L 212.136719 55.257812 C 212.03125 55.050781 211.96875 54.808594 211.941406 54.535156 Z M 211.863281 52.328125 C 211.5 52.472656 210.957031 52.597656 210.242188 52.699219 C 209.839844 52.765625 209.550781 52.835938 209.382812 52.914062 C 209.214844 52.980469 209.082031 53.085938 208.992188 53.226562 C 208.902344 53.371094 208.855469 53.527344 208.855469 53.695312 C 208.855469 53.957031 208.953125 54.179688 209.148438 54.359375 C 209.34375 54.53125 209.636719 54.613281 210.027344 54.613281 C 210.40625 54.613281 210.742188 54.53125 211.042969 54.359375 C 211.34375 54.191406 211.5625 53.964844 211.707031 53.675781 C 211.8125 53.457031 211.863281 53.128906 211.863281 52.699219 Z M 211.863281 52.328125 "/>
<path style=" stroke:none;fill-rule:nonzero;fill:rgb(0%,0%,0%);fill-opacity:1;" d="M 214.390625 55.257812 L 214.390625 49.417969 L 215.289062 49.417969 L 215.289062 50.257812 C 215.707031 49.621094 216.324219 49.300781 217.144531 49.300781 C 217.496094 49.300781 217.816406 49.367188 218.101562 49.496094 C 218.402344 49.613281 218.621094 49.777344 218.765625 49.984375 C 218.910156 50.179688 219.011719 50.421875 219.078125 50.707031 C 219.117188 50.890625 219.136719 51.210938 219.136719 51.664062 L 219.136719 55.257812 L 218.140625 55.257812 L 218.140625 51.703125 C 218.140625 51.300781 218.101562 51 218.023438 50.804688 C 217.945312 50.609375 217.808594 50.453125 217.613281 50.335938 C 217.417969 50.207031 217.191406 50.140625 216.929688 50.140625 C 216.511719 50.140625 216.148438 50.277344 215.835938 50.550781 C 215.535156 50.8125 215.386719 51.320312 215.386719 52.074219 L 215.386719 55.257812 Z M 214.390625 55.257812 "/>
<path style=" stroke:none;fill-rule:nonzero;fill:rgb(0%,0%,0%);fill-opacity:1;" d="M 220.257812 53.519531 L 221.234375 53.363281 C 221.285156 53.753906 221.433594 54.054688 221.683594 54.261719 C 221.941406 54.472656 222.292969 54.574219 222.738281 54.574219 C 223.191406 54.574219 223.53125 54.484375 223.753906 54.300781 C 223.972656 54.121094 224.085938 53.90625 224.085938 53.65625 C 224.085938 53.421875 223.988281 53.246094 223.792969 53.128906 C 223.648438 53.039062 223.308594 52.921875 222.777344 52.777344 C 222.046875 52.597656 221.539062 52.441406 221.253906 52.308594 C 220.980469 52.179688 220.769531 51.996094 220.628906 51.761719 C 220.484375 51.527344 220.414062 51.269531 220.414062 50.980469 C 220.414062 50.722656 220.472656 50.480469 220.589844 50.257812 C 220.707031 50.039062 220.867188 49.847656 221.078125 49.691406 C 221.234375 49.589844 221.441406 49.496094 221.703125 49.417969 C 221.976562 49.339844 222.261719 49.300781 222.5625 49.300781 C 223.015625 49.300781 223.414062 49.367188 223.753906 49.496094 C 224.105469 49.628906 224.363281 49.804688 224.535156 50.023438 C 224.703125 50.246094 224.820312 50.546875 224.886719 50.921875 L 223.910156 51.058594 C 223.871094 50.761719 223.738281 50.527344 223.519531 50.355469 C 223.308594 50.1875 223.015625 50.101562 222.640625 50.101562 C 222.183594 50.101562 221.859375 50.179688 221.664062 50.335938 C 221.46875 50.480469 221.371094 50.65625 221.371094 50.863281 C 221.371094 50.996094 221.410156 51.105469 221.488281 51.195312 C 221.566406 51.3125 221.695312 51.40625 221.878906 51.46875 C 221.96875 51.507812 222.253906 51.59375 222.738281 51.722656 C 223.441406 51.90625 223.929688 52.054688 224.203125 52.171875 C 224.488281 52.289062 224.710938 52.464844 224.867188 52.699219 C 225.023438 52.921875 225.101562 53.203125 225.101562 53.539062 C 225.101562 53.878906 225.003906 54.191406 224.808594 54.476562 C 224.613281 54.765625 224.332031 54.992188 223.96875 55.160156 C 223.617188 55.316406 223.207031 55.394531 222.738281 55.394531 C 221.980469 55.394531 221.402344 55.238281 221 54.925781 C 220.609375 54.601562 220.359375 54.132812 220.257812 53.519531 Z M 220.257812 53.519531 "/>
<path style=" stroke:none;fill-rule:nonzero;fill:rgb(0%,0%,0%);fill-opacity:1;" d="M 226.273438 57.484375 L 226.273438 49.417969 L 227.171875 49.417969 L 227.171875 50.179688 C 227.378906 49.882812 227.613281 49.660156 227.875 49.515625 C 228.148438 49.375 228.480469 49.300781 228.871094 49.300781 C 229.363281 49.300781 229.800781 49.433594 230.179688 49.691406 C 230.554688 49.941406 230.84375 50.296875 231.039062 50.765625 C 231.234375 51.234375 231.332031 51.742188 231.332031 52.289062 C 231.332031 52.890625 231.21875 53.429688 231 53.910156 C 230.789062 54.394531 230.484375 54.765625 230.082031 55.023438 C 229.675781 55.265625 229.246094 55.394531 228.792969 55.394531 C 228.464844 55.394531 228.171875 55.320312 227.914062 55.179688 C 227.652344 55.039062 227.4375 54.863281 227.269531 54.652344 L 227.269531 57.484375 Z M 227.171875 52.367188 C 227.171875 53.125 227.320312 53.683594 227.621094 54.046875 C 227.933594 54.398438 228.304688 54.574219 228.734375 54.574219 C 229.164062 54.574219 229.535156 54.394531 229.847656 54.027344 C 230.171875 53.652344 230.335938 53.070312 230.335938 52.289062 C 230.335938 51.546875 230.179688 50.996094 229.867188 50.628906 C 229.566406 50.253906 229.203125 50.0625 228.773438 50.0625 C 228.355469 50.0625 227.984375 50.265625 227.660156 50.667969 C 227.332031 51.058594 227.171875 51.625 227.171875 52.367188 Z M 227.171875 52.367188 "/>
<path style=" stroke:none;fill-rule:nonzero;fill:rgb(0%,0%,0%);fill-opacity:1;" d="M 232.160156 52.347656 C 232.160156 51.269531 232.457031 50.46875 233.058594 49.945312 C 233.566406 49.515625 234.175781 49.300781 234.894531 49.300781 C 235.699219 49.300781 236.359375 49.5625 236.867188 50.082031 C 237.375 50.605469 237.628906 51.328125 237.628906 52.25 C 237.628906 53.007812 237.511719 53.597656 237.277344 54.027344 C 237.054688 54.457031 236.730469 54.796875 236.300781 55.042969 C 235.871094 55.277344 235.402344 55.394531 234.894531 55.394531 C 234.074219 55.394531 233.410156 55.136719 232.902344 54.613281 C 232.40625 54.082031 232.160156 53.324219 232.160156 52.347656 Z M 233.175781 52.347656 C 233.175781 53.089844 233.335938 53.652344 233.664062 54.027344 C 233.988281 54.394531 234.398438 54.574219 234.894531 54.574219 C 235.386719 54.574219 235.796875 54.394531 236.125 54.027344 C 236.449219 53.652344 236.613281 53.078125 236.613281 52.308594 C 236.613281 51.59375 236.449219 51.046875 236.125 50.667969 C 235.796875 50.292969 235.386719 50.101562 234.894531 50.101562 C 234.398438 50.101562 233.988281 50.292969 233.664062 50.667969 C 233.335938 51.035156 233.175781 51.59375 233.175781 52.347656 Z M 233.175781 52.347656 "/>
<path style=" stroke:none;fill-rule:nonzero;fill:rgb(0%,0%,0%);fill-opacity:1;" d="M 238.398438 53.519531 L 239.375 53.363281 C 239.421875 53.753906 239.574219 54.054688 239.824219 54.261719 C 240.082031 54.472656 240.433594 54.574219 240.878906 54.574219 C 241.332031 54.574219 241.667969 54.484375 241.894531 54.300781 C 242.113281 54.121094 242.226562 53.90625 242.226562 53.65625 C 242.226562 53.421875 242.128906 53.246094 241.933594 53.128906 C 241.785156 53.039062 241.449219 52.921875 240.917969 52.777344 C 240.183594 52.597656 239.675781 52.441406 239.394531 52.308594 C 239.121094 52.179688 238.910156 51.996094 238.769531 51.761719 C 238.621094 51.527344 238.554688 51.269531 238.554688 50.980469 C 238.554688 50.722656 238.613281 50.480469 238.730469 50.257812 C 238.847656 50.039062 239.007812 49.847656 239.21875 49.691406 C 239.375 49.589844 239.578125 49.496094 239.84375 49.417969 C 240.117188 49.339844 240.398438 49.300781 240.703125 49.300781 C 241.15625 49.300781 241.550781 49.367188 241.894531 49.496094 C 242.246094 49.628906 242.503906 49.804688 242.675781 50.023438 C 242.839844 50.246094 242.957031 50.546875 243.027344 50.921875 L 242.050781 51.058594 C 242.011719 50.761719 241.878906 50.527344 241.660156 50.355469 C 241.449219 50.1875 241.15625 50.101562 240.78125 50.101562 C 240.320312 50.101562 240 50.179688 239.804688 50.335938 C 239.609375 50.480469 239.511719 50.65625 239.511719 50.863281 C 239.511719 50.996094 239.550781 51.105469 239.628906 51.195312 C 239.707031 51.3125 239.832031 51.40625 240.019531 51.46875 C 240.105469 51.507812 240.394531 51.59375 240.878906 51.722656 C 241.582031 51.90625 242.070312 52.054688 242.34375 52.171875 C 242.625 52.289062 242.851562 52.464844 243.007812 52.699219 C 243.164062 52.921875 243.242188 53.203125 243.242188 53.539062 C 243.242188 53.878906 243.144531 54.191406 242.949219 54.476562 C 242.753906 54.765625 242.46875 54.992188 242.109375 55.160156 C 241.757812 55.316406 241.347656 55.394531 240.878906 55.394531 C 240.121094 55.394531 239.539062 55.238281 239.140625 54.925781 C 238.75 54.601562 238.5 54.132812 238.398438 53.519531 Z M 238.398438 53.519531 "/>
<path style=" stroke:none;fill-rule:nonzero;fill:rgb(0%,0%,0%);fill-opacity:1;" d="M 248.398438 53.382812 L 249.433594 53.5 C 249.261719 54.101562 248.953125 54.570312 248.515625 54.90625 C 248.085938 55.234375 247.527344 55.394531 246.855469 55.394531 C 246.003906 55.394531 245.332031 55.136719 244.824219 54.613281 C 244.324219 54.082031 244.082031 53.339844 244.082031 52.386719 C 244.082031 51.410156 244.335938 50.65625 244.84375 50.121094 C 245.351562 49.574219 246.003906 49.300781 246.816406 49.300781 C 247.597656 49.300781 248.226562 49.570312 248.710938 50.101562 C 249.203125 50.625 249.453125 51.367188 249.453125 52.328125 C 249.453125 52.394531 249.453125 52.484375 249.453125 52.601562 L 245.097656 52.601562 C 245.136719 53.242188 245.316406 53.730469 245.644531 54.066406 C 245.964844 54.40625 246.375 54.574219 246.875 54.574219 C 247.234375 54.574219 247.542969 54.484375 247.792969 54.300781 C 248.050781 54.105469 248.25 53.800781 248.398438 53.382812 Z M 245.15625 51.78125 L 248.417969 51.78125 C 248.378906 51.289062 248.25 50.917969 248.046875 50.667969 C 247.734375 50.292969 247.324219 50.101562 246.816406 50.101562 C 246.355469 50.101562 245.976562 50.257812 245.664062 50.570312 C 245.359375 50.871094 245.195312 51.273438 245.15625 51.78125 Z M 245.15625 51.78125 "/>
<path style=" stroke:none;fill-rule:nonzero;fill:rgb(0%,0%,0%);fill-opacity:1;" d="M 254.460938 55.257812 L 254.460938 54.515625 C 254.078125 55.101562 253.53125 55.394531 252.820312 55.394531 C 252.359375 55.394531 251.941406 55.261719 251.550781 55.003906 C 251.160156 54.746094 250.851562 54.386719 250.632812 53.929688 C 250.421875 53.476562 250.320312 52.949219 250.320312 52.347656 C 250.320312 51.761719 250.417969 51.234375 250.613281 50.765625 C 250.808594 50.285156 251.089844 49.921875 251.472656 49.671875 C 251.863281 49.425781 252.296875 49.300781 252.78125 49.300781 C 253.132812 49.300781 253.445312 49.375 253.71875 49.515625 C 253.992188 49.660156 254.210938 49.855469 254.382812 50.101562 L 254.382812 47.210938 L 255.378906 47.210938 L 255.378906 55.257812 Z M 251.335938 52.347656 C 251.335938 53.089844 251.492188 53.652344 251.804688 54.027344 C 252.117188 54.394531 252.488281 54.574219 252.917969 54.574219 C 253.347656 54.574219 253.707031 54.398438 254.011719 54.046875 C 254.324219 53.695312 254.480469 53.15625 254.480469 52.425781 C 254.480469 51.632812 254.324219 51.046875 254.011719 50.667969 C 253.699219 50.292969 253.316406 50.101562 252.878906 50.101562 C 252.433594 50.101562 252.0625 50.285156 251.765625 50.648438 C 251.476562 51.015625 251.335938 51.582031 251.335938 52.347656 Z M 251.335938 52.347656 "/>
<path style=" stroke:none;fill-rule:nonzero;fill:rgb(0%,0%,0%);fill-opacity:1;" d="M 220.175781 65.292969 L 221.230469 65.566406 C 221.007812 66.441406 220.605469 67.109375 220.019531 67.578125 C 219.445312 68.039062 218.738281 68.261719 217.890625 68.261719 C 217.03125 68.261719 216.328125 68.085938 215.78125 67.734375 C 215.234375 67.382812 214.816406 66.875 214.53125 66.210938 C 214.257812 65.539062 214.121094 64.8125 214.121094 64.042969 C 214.121094 63.199219 214.277344 62.460938 214.589844 61.835938 C 214.914062 61.210938 215.371094 60.742188 215.957031 60.429688 C 216.554688 60.109375 217.207031 59.941406 217.910156 59.941406 C 218.71875 59.941406 219.394531 60.152344 219.941406 60.566406 C 220.5 60.972656 220.886719 61.542969 221.09375 62.285156 L 220.039062 62.519531 C 219.855469 61.933594 219.589844 61.515625 219.238281 61.25 C 218.886719 60.976562 218.4375 60.839844 217.890625 60.839844 C 217.277344 60.839844 216.765625 60.992188 216.347656 61.289062 C 215.929688 61.59375 215.636719 61.992188 215.46875 62.5 C 215.300781 63 215.214844 63.507812 215.214844 64.023438 C 215.214844 64.71875 215.3125 65.320312 215.507812 65.839844 C 215.714844 66.347656 216.027344 66.726562 216.445312 66.972656 C 216.863281 67.222656 217.316406 67.34375 217.8125 67.34375 C 218.410156 67.34375 218.914062 67.179688 219.316406 66.835938 C 219.734375 66.484375 220.019531 65.972656 220.175781 65.292969 Z M 220.175781 65.292969 "/>
<path style=" stroke:none;fill-rule:nonzero;fill:rgb(0%,0%,0%);fill-opacity:1;" d="M 222.050781 65.214844 C 222.050781 64.136719 222.351562 63.335938 222.949219 62.8125 C 223.457031 62.382812 224.070312 62.167969 224.785156 62.167969 C 225.59375 62.167969 226.25 62.429688 226.757812 62.949219 C 227.265625 63.472656 227.519531 64.195312 227.519531 65.117188 C 227.519531 65.875 227.402344 66.464844 227.167969 66.894531 C 226.945312 67.324219 226.621094 67.664062 226.191406 67.910156 C 225.761719 68.144531 225.292969 68.261719 224.785156 68.261719 C 223.964844 68.261719 223.300781 68.003906 222.792969 67.480469 C 222.296875 66.949219 222.050781 66.191406 222.050781 65.214844 Z M 223.066406 65.214844 C 223.066406 65.957031 223.230469 66.519531 223.554688 66.894531 C 223.878906 67.261719 224.289062 67.441406 224.785156 67.441406 C 225.28125 67.441406 225.691406 67.261719 226.015625 66.894531 C 226.339844 66.519531 226.503906 65.945312 226.503906 65.175781 C 226.503906 64.460938 226.339844 63.914062 226.015625 63.535156 C 225.691406 63.160156 225.28125 62.96875 224.785156 62.96875 C 224.289062 62.96875 223.878906 63.160156 223.554688 63.535156 C 223.230469 63.902344 223.066406 64.460938 223.066406 65.214844 Z M 223.066406 65.214844 "/>
<path style=" stroke:none;fill-rule:nonzero;fill:rgb(0%,0%,0%);fill-opacity:1;" d="M 228.679688 68.125 L 228.679688 62.285156 L 229.578125 62.285156 L 229.578125 63.125 C 229.992188 62.492188 230.613281 62.167969 231.433594 62.167969 C 231.785156 62.167969 232.101562 62.234375 232.390625 62.363281 C 232.6875 62.480469 232.910156 62.648438 233.054688 62.851562 C 233.195312 63.046875 233.300781 63.289062 233.367188 63.574219 C 233.40625 63.757812 233.425781 64.078125 233.425781 64.53125 L 233.425781 68.125 L 232.429688 68.125 L 232.429688 64.570312 C 232.429688 64.171875 232.390625 63.867188 232.3125 63.671875 C 232.234375 63.476562 232.097656 63.320312 231.902344 63.203125 C 231.707031 63.078125 231.476562 63.007812 231.21875 63.007812 C 230.800781 63.007812 230.4375 63.144531 230.125 63.417969 C 229.824219 63.679688 229.675781 64.1875 229.675781 64.941406 L 229.675781 68.125 Z M 228.679688 68.125 "/>
<path style=" stroke:none;fill-rule:nonzero;fill:rgb(0%,0%,0%);fill-opacity:1;" d="M 236.558594 68.125 L 234.332031 62.285156 L 235.386719 62.285156 L 236.636719 65.78125 C 236.765625 66.164062 236.890625 66.554688 237.007812 66.953125 C 237.097656 66.65625 237.222656 66.289062 237.378906 65.859375 L 238.667969 62.285156 L 239.683594 62.285156 L 237.476562 68.125 Z M 236.558594 68.125 "/>
</g>
</svg>
