<?xml version="1.0" encoding="utf-8"?>
<svg width="1312" height="1018" viewBox="0 0 1312 1018" version="1.1" xmlns="http://www.w3.org/2000/svg" xmlns:xlink="http://www.w3.org/1999/xlink">
<title>Frame</title>
<desc>Created using Figma</desc>
<g id="Canvas" transform="matrix(2 0 0 2 1200 432)">
<clipPath id="clip-0" clip-rule="evenodd">
<path d="M -600 -216L 56 -216L 56 293L -600 293L -600 -216Z" fill="#FFFFFF"/>
</clipPath>
<g id="Frame" clip-path="url(#clip-0)">
<path d="M -600 -216L 56 -216L 56 293L -600 293L -600 -216Z" fill="#FFFFFF"/>
<g id="Group">
<g id="Rectangle">
<use xlink:href="#path0_fill" transform="translate(-572 -181)" fill="#F2B47E"/>
<mask id="mask0_outline_ins">
<use xlink:href="#path0_fill" fill="white" transform="translate(-572 -181)"/>
</mask>
<g mask="url(#mask0_outline_ins)">
<use xlink:href="#path1_stroke_2x" transform="translate(-572 -181)"/>
</g>
</g>
<g id="Line">
<use xlink:href="#path2_stroke" transform="matrix(-1.75521e-09 1 -1 -1.75521e-09 -464 -181)"/>
</g>
<g id="Line">
<use xlink:href="#path2_stroke" transform="matrix(-1.75521e-09 1 -1 -1.75521e-09 -428 -181)"/>
</g>
<g id="Line">
<use xlink:href="#path2_stroke" transform="matrix(-1.75521e-09 1 -1 -1.75521e-09 -392 -181)"/>
</g>
<g id="Line">
<use xlink:href="#path2_stroke" transform="matrix(-1.75521e-09 1 -1 -1.75521e-09 -356 -181)"/>
</g>
<g id="Line">
<use xlink:href="#path2_stroke" transform="matrix(-1.75521e-09 1 -1 -1.75521e-09 -320 -181)"/>
</g>
<g id="Line">
<use xlink:href="#path2_stroke" transform="matrix(-1.75521e-09 1 -1 -1.75521e-09 -284 -181)"/>
</g>
<g id="Line">
<use xlink:href="#path2_stroke" transform="matrix(-1.75521e-09 1 -1 -1.75521e-09 -248 -181)"/>
</g>
<g id="Line">
<use xlink:href="#path2_stroke" transform="matrix(-1.75521e-09 1 -1 -1.75521e-09 -212 -181)"/>
</g>
<g id="Line">
<use xlink:href="#path2_stroke" transform="matrix(-1.75521e-09 1 -1 -1.75521e-09 -536 -181)"/>
</g>
<g id="Line">
<use xlink:href="#path2_stroke" transform="matrix(-1.75521e-09 1 -1 -1.75521e-09 -500 -181)"/>
</g>
<g id="Rectangle 2">
<use xlink:href="#path3_fill" transform="translate(-212 -181)" fill="#56CCF2"/>
<mask id="mask1_outline_ins">
<use xlink:href="#path3_fill" fill="white" transform="translate(-212 -181)"/>
</mask>
<g mask="url(#mask1_outline_ins)">
<use xlink:href="#path4_stroke_2x" transform="translate(-212 -181)"/>
</g>
</g>
</g>
<g id="Group">
<g id="Rectangle">
<use xlink:href="#path5_fill" transform="translate(-572 107)" fill="#F2B47E"/>
<mask id="mask2_outline_ins">
<use xlink:href="#path5_fill" fill="white" transform="translate(-572 107)"/>
</mask>
<g mask="url(#mask2_outline_ins)">
<use xlink:href="#path6_stroke_2x" transform="translate(-572 107)"/>
</g>
</g>
<g id="Line">
<use xlink:href="#path7_stroke" transform="matrix(-1.75521e-09 1 -1 -1.75521e-09 -464 107)"/>
</g>
<g id="Line">
<use xlink:href="#path7_stroke" transform="matrix(-1.75521e-09 1 -1 -1.75521e-09 -428 107)"/>
</g>
<g id="Line">
<use xlink:href="#path7_stroke" transform="matrix(-1.75521e-09 1 -1 -1.75521e-09 -392 107)"/>
</g>
<g id="Line">
<use xlink:href="#path7_stroke" transform="matrix(-1.75521e-09 1 -1 -1.75521e-09 -356 107)"/>
</g>
<g id="Line">
<use xlink:href="#path7_stroke" transform="matrix(-1.75521e-09 1 -1 -1.75521e-09 -320 107)"/>
</g>
<g id="Line">
<use xlink:href="#path7_stroke" transform="matrix(-1.75521e-09 1 -1 -1.75521e-09 -284 107)"/>
</g>
<g id="Line">
<use xlink:href="#path7_stroke" transform="matrix(-1.75521e-09 1 -1 -1.75521e-09 -248 107)"/>
</g>
<g id="Line">
<use xlink:href="#path7_stroke" transform="matrix(-1.75521e-09 1 -1 -1.75521e-09 -536 107)"/>
</g>
<g id="Line">
<use xlink:href="#path7_stroke" transform="matrix(-1.75521e-09 1 -1 -1.75521e-09 -500 107)"/>
</g>
</g>
<g id="Training Set">
<use xlink:href="#path8_fill" transform="translate(-129 -101)"/>
</g>
<g id="Testing Set">
<use xlink:href="#path9_fill" transform="translate(-135 152)"/>
</g>
<g id="Rectangle 3">
<mask id="mask3_outline_ins">
<use xlink:href="#path10_fill" fill="white" transform="translate(-213 107)"/>
</mask>
<g mask="url(#mask3_outline_ins)">
<use xlink:href="#path11_stroke_2x" transform="translate(-213 107)"/>
</g>
</g>
<g id="Survival Data for each passenger">
<use xlink:href="#path12_fill" transform="translate(-115 8)" fill="#828282"/>
</g>
<g id="Arrow">
<use xlink:href="#path13_stroke" transform="matrix(-1 1.20712e-16 -1.17961e-16 -1 -118 31)" fill="#828282"/>
</g>
<g id="No Survival Data">
<use xlink:href="#path14_fill" transform="translate(-114 235)" fill="#828282"/>
</g>
<g id="Arrow">
<use xlink:href="#path13_stroke" transform="matrix(-1 1.20712e-16 -1.17961e-16 -1 -117 242)" fill="#828282"/>
</g>
<g id="Line 2">
<use xlink:href="#path15_stroke" transform="matrix(1 -2.44929e-16 2.44929e-16 1 -572 -171)"/>
</g>
<g id="Line 2">
<use xlink:href="#path15_stroke" transform="matrix(1 -2.44929e-16 2.44929e-16 1 -572 -162)"/>
</g>
<g id="Line 2">
<use xlink:href="#path15_stroke" transform="matrix(1 -2.44929e-16 2.44929e-16 1 -572 -153)"/>
</g>
<g id="Line 2">
<use xlink:href="#path15_stroke" transform="matrix(1 -2.44929e-16 2.44929e-16 1 -572 -144)"/>
</g>
<g id="Line 2">
<use xlink:href="#path15_stroke" transform="matrix(1 -2.44929e-16 2.44929e-16 1 -572 -135)"/>
</g>
<g id="Line 2">
<use xlink:href="#path15_stroke" transform="matrix(1 -2.44929e-16 2.44929e-16 1 -572 -126)"/>
</g>
<g id="Line 2">
<use xlink:href="#path15_stroke" transform="matrix(1 -2.44929e-16 2.44929e-16 1 -572 -117)"/>
</g>
<g id="Line 2">
<use xlink:href="#path15_stroke" transform="matrix(1 -2.44929e-16 2.44929e-16 1 -572 -108)"/>
</g>
<g id="Line 2">
<use xlink:href="#path15_stroke" transform="matrix(1 -2.44929e-16 2.44929e-16 1 -572 -99)"/>
</g>
<g id="Line 2">
<use xlink:href="#path15_stroke" transform="matrix(1 -2.44929e-16 2.44929e-16 1 -572 -90)"/>
</g>
<g id="Line 2">
<use xlink:href="#path15_stroke" transform="matrix(1 -2.44929e-16 2.44929e-16 1 -572 -81)"/>
</g>
<g id="Line 2">
<use xlink:href="#path15_stroke" transform="matrix(1 -2.44929e-16 2.44929e-16 1 -572 -72)"/>
</g>
<g id="Line 2">
<use xlink:href="#path15_stroke" transform="matrix(1 -2.44929e-16 2.44929e-16 1 -572 -63)"/>
</g>
<g id="Line 2">
<use xlink:href="#path15_stroke" transform="matrix(1 -2.44929e-16 2.44929e-16 1 -572 -54)"/>
</g>
<g id="Line 2">
<use xlink:href="#path15_stroke" transform="matrix(1 -2.44929e-16 2.44929e-16 1 -572 -45)"/>
</g>
<g id="Line 2">
<use xlink:href="#path15_stroke" transform="matrix(1 -2.44929e-16 2.44929e-16 1 -572 -36)"/>
</g>
<g id="Line 2">
<use xlink:href="#path15_stroke" transform="matrix(1 -2.44929e-16 2.44929e-16 1 -572 -27)"/>
</g>
<g id="Line 2">
<use xlink:href="#path15_stroke" transform="matrix(1 -2.44929e-16 2.44929e-16 1 -572 -18)"/>
</g>
<g id="Line 2">
<use xlink:href="#path15_stroke" transform="matrix(1 -2.44929e-16 2.44929e-16 1 -572 -9)"/>
</g>
<g id="Line 2">
<use xlink:href="#path15_stroke" transform="matrix(1 -2.44929e-16 2.44929e-16 1 -572 0)"/>
</g>
<g id="Line 2">
<use xlink:href="#path15_stroke" transform="matrix(1 -2.44929e-16 2.44929e-16 1 -572 9)"/>
</g>
<g id="Line 2">
<use xlink:href="#path15_stroke" transform="matrix(1 -2.44929e-16 2.44929e-16 1 -572 18)"/>
</g>
<g id="Line 2">
<use xlink:href="#path15_stroke" transform="matrix(1 -2.44929e-16 2.44929e-16 1 -572 27)"/>
</g>
<g id="Line 2">
<use xlink:href="#path15_stroke" transform="matrix(1 -2.44929e-16 2.44929e-16 1 -572 36)"/>
</g>
<g id="Line 2">
<use xlink:href="#path15_stroke" transform="matrix(1 -2.44929e-16 2.44929e-16 1 -572 45)"/>
</g>
<g id="Line 2">
<use xlink:href="#path16_stroke" transform="matrix(1 -2.44929e-16 2.44929e-16 1 -572 116)"/>
</g>
<g id="Line 2">
<use xlink:href="#path16_stroke" transform="matrix(1 -2.44929e-16 2.44929e-16 1 -572 125)"/>
</g>
<g id="Line 2">
<use xlink:href="#path16_stroke" transform="matrix(1 -2.44929e-16 2.44929e-16 1 -572 134)"/>
</g>
<g id="Line 2">
<use xlink:href="#path16_stroke" transform="matrix(1 -2.44929e-16 2.44929e-16 1 -572 143)"/>
</g>
<g id="Line 2">
<use xlink:href="#path16_stroke" transform="matrix(1 -2.44929e-16 2.44929e-16 1 -572 152)"/>
</g>
<g id="Line 2">
<use xlink:href="#path16_stroke" transform="matrix(1 -2.44929e-16 2.44929e-16 1 -572 161)"/>
</g>
<g id="Line 2">
<use xlink:href="#path17_stroke" transform="matrix(1 -2.44929e-16 2.44929e-16 1 -572 170)"/>
</g>
<g id="Line 2">
<use xlink:href="#path17_stroke" transform="matrix(1 -2.44929e-16 2.44929e-16 1 -572 179)"/>
</g>
<g id="Line 2">
<use xlink:href="#path17_stroke" transform="matrix(1 -2.44929e-16 2.44929e-16 1 -572 188)"/>
</g>
<g id="Line 2">
<use xlink:href="#path17_stroke" transform="matrix(1 -2.44929e-16 2.44929e-16 1 -572 197)"/>
</g>
<g id="Line 2">
<use xlink:href="#path17_stroke" transform="matrix(1 -2.44929e-16 2.44929e-16 1 -572 206)"/>
</g>
<g id="Line 2">
<use xlink:href="#path17_stroke" transform="matrix(1 -2.44929e-16 2.44929e-16 1 -572 215)"/>
</g>
<g id="Line 2">
<use xlink:href="#path17_stroke" transform="matrix(1 -2.44929e-16 2.44929e-16 1 -572 224)"/>
</g>
<g id="Line 2">
<use xlink:href="#path17_stroke" transform="matrix(1 -2.44929e-16 2.44929e-16 1 -572 233)"/>
</g>
<g id="Line 2">
<use xlink:href="#path17_stroke" transform="matrix(1 -2.44929e-16 2.44929e-16 1 -572 242)"/>
</g>
<g id="Line 2">
<use xlink:href="#path17_stroke" transform="matrix(1 -2.44929e-16 2.44929e-16 1 -572 251)"/>
</g>
</g>
</g>
<defs>
<path id="path0_fill" d="M 0 0L 396 0L 396 235L 0 235L 0 0Z"/>
<path id="path1_stroke_2x" d="M 0 0L 0 -1L -1 -1L -1 0L 0 0ZM 396 0L 397 0L 397 -1L 396 -1L 396 0ZM 396 235L 396 236L 397 236L 397 235L 396 235ZM 0 235L -1 235L -1 236L 0 236L 0 235ZM 0 1L 396 1L 396 -1L 0 -1L 0 1ZM 395 0L 395 235L 397 235L 397 0L 395 0ZM 396 234L 0 234L 0 236L 396 236L 396 234ZM 1 235L 1 0L -1 0L -1 235L 1 235Z"/>
<path id="path2_stroke" d="M 0 0L 235 0L 235 -1L 0 -1L 0 0Z"/>
<path id="path3_fill" d="M 0 0L 36 0L 36 235L 0 235L 0 0Z"/>
<path id="path4_stroke_2x" d="M 0 0L 0 -1L -1 -1L -1 0L 0 0ZM 36 0L 37 0L 37 -1L 36 -1L 36 0ZM 36 235L 36 236L 37 236L 37 235L 36 235ZM 0 235L -1 235L -1 236L 0 236L 0 235ZM 0 1L 36 1L 36 -1L 0 -1L 0 1ZM 35 0L 35 235L 37 235L 37 0L 35 0ZM 36 234L 0 234L 0 236L 36 236L 36 234ZM 1 235L 1 0L -1 0L -1 235L 1 235Z"/>
<path id="path5_fill" d="M 0 0L 360 0L 360 152L 0 152L 0 0Z"/>
<path id="path6_stroke_2x" d="M 0 0L 0 -1L -1 -1L -1 0L 0 0ZM 360 0L 361 0L 361 -1L 360 -1L 360 0ZM 360 152L 360 153L 361 153L 361 152L 360 152ZM 0 152L -1 152L -1 153L 0 153L 0 152ZM 0 1L 360 1L 360 -1L 0 -1L 0 1ZM 359 0L 359 152L 361 152L 361 0L 359 0ZM 360 151L 0 151L 0 153L 360 153L 360 151ZM 1 152L 1 0L -1 0L -1 152L 1 152Z"/>
<path id="path7_stroke" d="M 0 0L 152 0L 152 -1L 0 -1L 0 0Z"/>
<path id="path8_fill" d="M 10.7754 6.33887L 6.85547 6.33887L 6.85547 17L 4.21875 17L 4.21875 6.33887L 0.351562 6.33887L 0.351562 4.20312L 10.7754 4.20312L 10.7754 6.33887ZM 16.8838 9.87207C 16.5381 9.8252 16.2334 9.80176 15.9697 9.80176C 15.0088 9.80176 14.3789 10.127 14.0801 10.7773L 14.0801 17L 11.54 17L 11.54 7.49023L 13.9395 7.49023L 14.0098 8.62402C 14.5195 7.75098 15.2256 7.31445 16.1279 7.31445C 16.4092 7.31445 16.6729 7.35254 16.9189 7.42871L 16.8838 9.87207ZM 23.3613 17C 23.2441 16.7715 23.1592 16.4873 23.1064 16.1475C 22.4912 16.833 21.6914 17.1758 20.707 17.1758C 19.7754 17.1758 19.002 16.9062 18.3867 16.3672C 17.7773 15.8281 17.4727 15.1484 17.4727 14.3281C 17.4727 13.3203 17.8447 12.5469 18.5889 12.0078C 19.3389 11.4688 20.4199 11.1963 21.832 11.1904L 23.001 11.1904L 23.001 10.6455C 23.001 10.2061 22.8867 9.85449 22.6582 9.59082C 22.4355 9.32715 22.0811 9.19531 21.5947 9.19531C 21.167 9.19531 20.8301 9.29785 20.584 9.50293C 20.3437 9.70801 20.2236 9.98926 20.2236 10.3467L 17.6836 10.3467C 17.6836 9.7959 17.8535 9.28613 18.1934 8.81738C 18.5332 8.34863 19.0137 7.98242 19.6348 7.71875C 20.2559 7.44922 20.9531 7.31445 21.7266 7.31445C 22.8984 7.31445 23.8271 7.61035 24.5127 8.20215C 25.2041 8.78809 25.5498 9.61426 25.5498 10.6807L 25.5498 14.8027C 25.5557 15.7051 25.6816 16.3877 25.9277 16.8506L 25.9277 17L 23.3613 17ZM 21.2607 15.2334C 21.6357 15.2334 21.9814 15.1514 22.2979 14.9873C 22.6143 14.8174 22.8486 14.5918 23.001 14.3105L 23.001 12.6758L 22.0518 12.6758C 20.7803 12.6758 20.1035 13.1152 20.0215 13.9941L 20.0127 14.1436C 20.0127 14.46 20.124 14.7207 20.3467 14.9258C 20.5693 15.1309 20.874 15.2334 21.2607 15.2334ZM 30.1816 17L 27.6328 17L 27.6328 7.49023L 30.1816 7.49023L 30.1816 17ZM 27.4834 5.0293C 27.4834 4.64844 27.6094 4.33496 27.8613 4.08887C 28.1191 3.84277 28.4678 3.71973 28.9072 3.71973C 29.3408 3.71973 29.6865 3.84277 29.9443 4.08887C 30.2021 4.33496 30.3311 4.64844 30.3311 5.0293C 30.3311 5.41602 30.1992 5.73242 29.9355 5.97852C 29.6777 6.22461 29.335 6.34766 28.9072 6.34766C 28.4795 6.34766 28.1338 6.22461 27.8701 5.97852C 27.6123 5.73242 27.4834 5.41602 27.4834 5.0293ZM 34.6201 7.49023L 34.6992 8.58887C 35.3789 7.73926 36.29 7.31445 37.4326 7.31445C 38.4404 7.31445 39.1904 7.61035 39.6826 8.20215C 40.1748 8.79395 40.4268 9.67871 40.4385 10.8564L 40.4385 17L 37.8984 17L 37.8984 10.918C 37.8984 10.3789 37.7813 9.98926 37.5469 9.74902C 37.3125 9.50293 36.9229 9.37988 36.3779 9.37988C 35.6631 9.37988 35.127 9.68457 34.7695 10.2939L 34.7695 17L 32.2295 17L 32.2295 7.49023L 34.6201 7.49023ZM 45.0527 17L 42.5039 17L 42.5039 7.49023L 45.0527 7.49023L 45.0527 17ZM 42.3545 5.0293C 42.3545 4.64844 42.4805 4.33496 42.7324 4.08887C 42.9902 3.84277 43.3389 3.71973 43.7783 3.71973C 44.2119 3.71973 44.5576 3.84277 44.8154 4.08887C 45.0732 4.33496 45.2021 4.64844 45.2021 5.0293C 45.2021 5.41602 45.0703 5.73242 44.8066 5.97852C 44.5488 6.22461 44.2061 6.34766 43.7783 6.34766C 43.3506 6.34766 43.0049 6.22461 42.7412 5.97852C 42.4834 5.73242 42.3545 5.41602 42.3545 5.0293ZM 49.4912 7.49023L 49.5703 8.58887C 50.25 7.73926 51.1611 7.31445 52.3037 7.31445C 53.3115 7.31445 54.0615 7.61035 54.5537 8.20215C 55.0459 8.79395 55.2979 9.67871 55.3096 10.8564L 55.3096 17L 52.7695 17L 52.7695 10.918C 52.7695 10.3789 52.6523 9.98926 52.418 9.74902C 52.1836 9.50293 51.7939 9.37988 51.249 9.37988C 50.5342 9.37988 49.998 9.68457 49.6406 10.2939L 49.6406 17L 47.1006 17L 47.1006 7.49023L 49.4912 7.49023ZM 56.874 12.1748C 56.874 10.7158 57.2197 9.54102 57.9111 8.65039C 58.6084 7.75977 59.5459 7.31445 60.7236 7.31445C 61.7666 7.31445 62.5781 7.67187 63.1582 8.38672L 63.2637 7.49023L 65.5664 7.49023L 65.5664 16.6836C 65.5664 17.5156 65.376 18.2393 64.9951 18.8545C 64.6201 19.4697 64.0898 19.9385 63.4043 20.2607C 62.7188 20.583 61.916 20.7441 60.9961 20.7441C 60.2988 20.7441 59.6191 20.6035 58.957 20.3223C 58.2949 20.0469 57.7939 19.6895 57.4541 19.25L 58.5791 17.7031C 59.2119 18.4121 59.9795 18.7666 60.8818 18.7666C 61.5557 18.7666 62.0801 18.585 62.4551 18.2217C 62.8301 17.8643 63.0176 17.3545 63.0176 16.6924L 63.0176 16.1826C 62.4316 16.8447 61.6611 17.1758 60.7061 17.1758C 59.5635 17.1758 58.6377 16.7305 57.9287 15.8398C 57.2256 14.9434 56.874 13.7568 56.874 12.2803L 56.874 12.1748ZM 59.4141 12.3594C 59.4141 13.2207 59.5869 13.8975 59.9326 14.3896C 60.2783 14.876 60.7529 15.1191 61.3564 15.1191C 62.1299 15.1191 62.6836 14.8291 63.0176 14.249L 63.0176 10.25C 62.6777 9.66992 62.1299 9.37988 61.374 9.37988C 60.7646 9.37988 60.2842 9.62891 59.9326 10.127C 59.5869 10.625 59.4141 11.3691 59.4141 12.3594ZM 78.8115 13.6426C 78.8115 13.1445 78.6357 12.7637 78.2842 12.5C 77.9326 12.2305 77.2998 11.9492 76.3857 11.6562C 75.4717 11.3574 74.748 11.0645 74.2148 10.7773C 72.7617 9.99219 72.0352 8.93457 72.0352 7.60449C 72.0352 6.91309 72.2285 6.29785 72.6152 5.75879C 73.0078 5.21387 73.5674 4.78906 74.2939 4.48438C 75.0264 4.17969 75.8467 4.02734 76.7549 4.02734C 77.6689 4.02734 78.4834 4.19434 79.1982 4.52832C 79.9131 4.85645 80.4668 5.32227 80.8594 5.92578C 81.2578 6.5293 81.457 7.21484 81.457 7.98242L 78.8203 7.98242C 78.8203 7.39648 78.6357 6.94238 78.2666 6.62012C 77.8975 6.29199 77.3789 6.12793 76.7109 6.12793C 76.0664 6.12793 75.5654 6.26562 75.208 6.54102C 74.8506 6.81055 74.6719 7.16797 74.6719 7.61328C 74.6719 8.0293 74.8799 8.37793 75.2959 8.65918C 75.7178 8.94043 76.3359 9.2041 77.1504 9.4502C 78.6504 9.90137 79.7432 10.4609 80.4287 11.1289C 81.1143 11.7969 81.457 12.6289 81.457 13.625C 81.457 14.7324 81.0381 15.6025 80.2002 16.2354C 79.3623 16.8623 78.2344 17.1758 76.8164 17.1758C 75.832 17.1758 74.9355 16.9971 74.127 16.6396C 73.3184 16.2764 72.7002 15.7812 72.2725 15.1543C 71.8506 14.5273 71.6396 13.8008 71.6396 12.9746L 74.2852 12.9746C 74.2852 14.3867 75.1289 15.0928 76.8164 15.0928C 77.4434 15.0928 77.9326 14.9668 78.2842 14.7148C 78.6357 14.457 78.8115 14.0996 78.8115 13.6426ZM 87.46 17.1758C 86.0654 17.1758 84.9287 16.748 84.0498 15.8926C 83.1768 15.0371 82.7402 13.8975 82.7402 12.4736L 82.7402 12.2275C 82.7402 11.2725 82.9248 10.4199 83.2939 9.66992C 83.6631 8.91406 84.1846 8.33398 84.8584 7.92969C 85.5381 7.51953 86.3115 7.31445 87.1787 7.31445C 88.4795 7.31445 89.502 7.72461 90.2461 8.54492C 90.9961 9.36523 91.3711 10.5283 91.3711 12.0342L 91.3711 13.0713L 85.3154 13.0713C 85.3975 13.6924 85.6436 14.1904 86.0537 14.5654C 86.4697 14.9404 86.9941 15.1279 87.627 15.1279C 88.6055 15.1279 89.3701 14.7734 89.9209 14.0645L 91.1689 15.4619C 90.7881 16.001 90.2725 16.4229 89.6221 16.7275C 88.9717 17.0264 88.251 17.1758 87.46 17.1758ZM 87.1699 9.37109C 86.666 9.37109 86.2559 9.54102 85.9395 9.88086C 85.6289 10.2207 85.4297 10.707 85.3418 11.3398L 88.875 11.3398L 88.875 11.1377C 88.8633 10.5752 88.7109 10.1416 88.418 9.83691C 88.125 9.52637 87.709 9.37109 87.1699 9.37109ZM 95.8623 5.15234L 95.8623 7.49023L 97.4883 7.49023L 97.4883 9.35352L 95.8623 9.35352L 95.8623 14.0996C 95.8623 14.4512 95.9297 14.7031 96.0645 14.8555C 96.1992 15.0078 96.457 15.084 96.8379 15.084C 97.1191 15.084 97.3682 15.0635 97.585 15.0225L 97.585 16.9473C 97.0869 17.0996 96.5742 17.1758 96.0469 17.1758C 94.2656 17.1758 93.3574 16.2764 93.3223 14.4775L 93.3223 9.35352L 91.9336 9.35352L 91.9336 7.49023L 93.3223 7.49023L 93.3223 5.15234L 95.8623 5.15234Z"/>
<path id="path9_fill" d="M 10.7754 6.33887L 6.85547 6.33887L 6.85547 17L 4.21875 17L 4.21875 6.33887L 0.351562 6.33887L 0.351562 4.20312L 10.7754 4.20312L 10.7754 6.33887ZM 15.7061 17.1758C 14.3115 17.1758 13.1748 16.748 12.2959 15.8926C 11.4229 15.0371 10.9863 13.8975 10.9863 12.4736L 10.9863 12.2275C 10.9863 11.2725 11.1709 10.4199 11.54 9.66992C 11.9092 8.91406 12.4307 8.33398 13.1045 7.92969C 13.7842 7.51953 14.5576 7.31445 15.4248 7.31445C 16.7256 7.31445 17.748 7.72461 18.4922 8.54492C 19.2422 9.36523 19.6172 10.5283 19.6172 12.0342L 19.6172 13.0713L 13.5615 13.0713C 13.6436 13.6924 13.8896 14.1904 14.2998 14.5654C 14.7158 14.9404 15.2402 15.1279 15.873 15.1279C 16.8516 15.1279 17.6162 14.7734 18.167 14.0645L 19.415 15.4619C 19.0342 16.001 18.5186 16.4229 17.8682 16.7275C 17.2178 17.0264 16.4971 17.1758 15.7061 17.1758ZM 15.416 9.37109C 14.9121 9.37109 14.502 9.54102 14.1855 9.88086C 13.875 10.2207 13.6758 10.707 13.5879 11.3398L 17.1211 11.3398L 17.1211 11.1377C 17.1094 10.5752 16.957 10.1416 16.6641 9.83691C 16.3711 9.52637 15.9551 9.37109 15.416 9.37109ZM 26.2178 14.3721C 26.2178 14.0615 26.0625 13.8184 25.752 13.6426C 25.4473 13.4609 24.9551 13.2998 24.2754 13.1592C 22.0137 12.6846 20.8828 11.7236 20.8828 10.2764C 20.8828 9.43262 21.2314 8.72949 21.9287 8.16699C 22.6318 7.59863 23.5488 7.31445 24.6797 7.31445C 25.8867 7.31445 26.8506 7.59863 27.5713 8.16699C 28.2979 8.73535 28.6611 9.47363 28.6611 10.3818L 26.1211 10.3818C 26.1211 10.0186 26.0039 9.71973 25.7695 9.48535C 25.5352 9.24512 25.1689 9.125 24.6709 9.125C 24.2432 9.125 23.9121 9.22168 23.6777 9.41504C 23.4434 9.6084 23.3262 9.85449 23.3262 10.1533C 23.3262 10.4346 23.458 10.6631 23.7217 10.8389C 23.9912 11.0088 24.4424 11.1582 25.0752 11.2871C 25.708 11.4102 26.2412 11.5508 26.6748 11.709C 28.0166 12.2012 28.6875 13.0537 28.6875 14.2666C 28.6875 15.1338 28.3154 15.8369 27.5713 16.376C 26.8271 16.9092 25.8662 17.1758 24.6885 17.1758C 23.8916 17.1758 23.1826 17.0352 22.5615 16.7539C 21.9463 16.4668 21.4629 16.0771 21.1113 15.585C 20.7598 15.0869 20.584 14.5508 20.584 13.9766L 22.9922 13.9766C 23.0156 14.4277 23.1826 14.7734 23.4932 15.0137C 23.8037 15.2539 24.2197 15.374 24.7412 15.374C 25.2275 15.374 25.5938 15.2832 25.8398 15.1016C 26.0918 14.9141 26.2178 14.6709 26.2178 14.3721ZM 33.3721 5.15234L 33.3721 7.49023L 34.998 7.49023L 34.998 9.35352L 33.3721 9.35352L 33.3721 14.0996C 33.3721 14.4512 33.4395 14.7031 33.5742 14.8555C 33.709 15.0078 33.9668 15.084 34.3477 15.084C 34.6289 15.084 34.8779 15.0635 35.0947 15.0225L 35.0947 16.9473C 34.5967 17.0996 34.084 17.1758 33.5566 17.1758C 31.7754 17.1758 30.8672 16.2764 30.832 14.4775L 30.832 9.35352L 29.4434 9.35352L 29.4434 7.49023L 30.832 7.49023L 30.832 5.15234L 33.3721 5.15234ZM 39.0938 17L 36.5449 17L 36.5449 7.49023L 39.0938 7.49023L 39.0938 17ZM 36.3955 5.0293C 36.3955 4.64844 36.5215 4.33496 36.7734 4.08887C 37.0312 3.84277 37.3799 3.71973 37.8193 3.71973C 38.2529 3.71973 38.5986 3.84277 38.8564 4.08887C 39.1143 4.33496 39.2432 4.64844 39.2432 5.0293C 39.2432 5.41602 39.1113 5.73242 38.8477 5.97852C 38.5898 6.22461 38.2471 6.34766 37.8193 6.34766C 37.3916 6.34766 37.0459 6.22461 36.7822 5.97852C 36.5244 5.73242 36.3955 5.41602 36.3955 5.0293ZM 43.5322 7.49023L 43.6113 8.58887C 44.291 7.73926 45.2021 7.31445 46.3447 7.31445C 47.3525 7.31445 48.1025 7.61035 48.5947 8.20215C 49.0869 8.79395 49.3389 9.67871 49.3506 10.8564L 49.3506 17L 46.8105 17L 46.8105 10.918C 46.8105 10.3789 46.6934 9.98926 46.459 9.74902C 46.2246 9.50293 45.835 9.37988 45.29 9.37988C 44.5752 9.37988 44.0391 9.68457 43.6816 10.2939L 43.6816 17L 41.1416 17L 41.1416 7.49023L 43.5322 7.49023ZM 50.915 12.1748C 50.915 10.7158 51.2607 9.54102 51.9521 8.65039C 52.6494 7.75977 53.5869 7.31445 54.7646 7.31445C 55.8076 7.31445 56.6191 7.67187 57.1992 8.38672L 57.3047 7.49023L 59.6074 7.49023L 59.6074 16.6836C 59.6074 17.5156 59.417 18.2393 59.0361 18.8545C 58.6611 19.4697 58.1309 19.9385 57.4453 20.2607C 56.7598 20.583 55.957 20.7441 55.0371 20.7441C 54.3398 20.7441 53.6602 20.6035 52.998 20.3223C 52.3359 20.0469 51.835 19.6895 51.4951 19.25L 52.6201 17.7031C 53.2529 18.4121 54.0205 18.7666 54.9229 18.7666C 55.5967 18.7666 56.1211 18.585 56.4961 18.2217C 56.8711 17.8643 57.0586 17.3545 57.0586 16.6924L 57.0586 16.1826C 56.4727 16.8447 55.7021 17.1758 54.7471 17.1758C 53.6045 17.1758 52.6787 16.7305 51.9697 15.8398C 51.2666 14.9434 50.915 13.7568 50.915 12.2803L 50.915 12.1748ZM 53.4551 12.3594C 53.4551 13.2207 53.6279 13.8975 53.9736 14.3896C 54.3193 14.876 54.7939 15.1191 55.3975 15.1191C 56.1709 15.1191 56.7246 14.8291 57.0586 14.249L 57.0586 10.25C 56.7187 9.66992 56.1709 9.37988 55.415 9.37988C 54.8057 9.37988 54.3252 9.62891 53.9736 10.127C 53.6279 10.625 53.4551 11.3691 53.4551 12.3594ZM 72.8525 13.6426C 72.8525 13.1445 72.6768 12.7637 72.3252 12.5C 71.9736 12.2305 71.3408 11.9492 70.4268 11.6562C 69.5127 11.3574 68.7891 11.0645 68.2559 10.7773C 66.8027 9.99219 66.0762 8.93457 66.0762 7.60449C 66.0762 6.91309 66.2695 6.29785 66.6562 5.75879C 67.0488 5.21387 67.6084 4.78906 68.335 4.48438C 69.0674 4.17969 69.8877 4.02734 70.7959 4.02734C 71.71 4.02734 72.5244 4.19434 73.2393 4.52832C 73.9541 4.85645 74.5078 5.32227 74.9004 5.92578C 75.2988 6.5293 75.498 7.21484 75.498 7.98242L 72.8613 7.98242C 72.8613 7.39648 72.6768 6.94238 72.3076 6.62012C 71.9385 6.29199 71.4199 6.12793 70.752 6.12793C 70.1074 6.12793 69.6064 6.26562 69.249 6.54102C 68.8916 6.81055 68.7129 7.16797 68.7129 7.61328C 68.7129 8.0293 68.9209 8.37793 69.3369 8.65918C 69.7588 8.94043 70.377 9.2041 71.1914 9.4502C 72.6914 9.90137 73.7842 10.4609 74.4697 11.1289C 75.1553 11.7969 75.498 12.6289 75.498 13.625C 75.498 14.7324 75.0791 15.6025 74.2412 16.2354C 73.4033 16.8623 72.2754 17.1758 70.8574 17.1758C 69.873 17.1758 68.9766 16.9971 68.168 16.6396C 67.3594 16.2764 66.7412 15.7812 66.3135 15.1543C 65.8916 14.5273 65.6807 13.8008 65.6807 12.9746L 68.3262 12.9746C 68.3262 14.3867 69.1699 15.0928 70.8574 15.0928C 71.4844 15.0928 71.9736 14.9668 72.3252 14.7148C 72.6768 14.457 72.8525 14.0996 72.8525 13.6426ZM 81.501 17.1758C 80.1064 17.1758 78.9697 16.748 78.0908 15.8926C 77.2178 15.0371 76.7812 13.8975 76.7812 12.4736L 76.7812 12.2275C 76.7812 11.2725 76.9658 10.4199 77.335 9.66992C 77.7041 8.91406 78.2256 8.33398 78.8994 7.92969C 79.5791 7.51953 80.3525 7.31445 81.2197 7.31445C 82.5205 7.31445 83.543 7.72461 84.2871 8.54492C 85.0371 9.36523 85.4121 10.5283 85.4121 12.0342L 85.4121 13.0713L 79.3564 13.0713C 79.4385 13.6924 79.6846 14.1904 80.0947 14.5654C 80.5107 14.9404 81.0352 15.1279 81.668 15.1279C 82.6465 15.1279 83.4111 14.7734 83.9619 14.0645L 85.21 15.4619C 84.8291 16.001 84.3135 16.4229 83.6631 16.7275C 83.0127 17.0264 82.292 17.1758 81.501 17.1758ZM 81.2109 9.37109C 80.707 9.37109 80.2969 9.54102 79.9805 9.88086C 79.6699 10.2207 79.4707 10.707 79.3828 11.3398L 82.916 11.3398L 82.916 11.1377C 82.9043 10.5752 82.752 10.1416 82.459 9.83691C 82.166 9.52637 81.75 9.37109 81.2109 9.37109ZM 89.9033 5.15234L 89.9033 7.49023L 91.5293 7.49023L 91.5293 9.35352L 89.9033 9.35352L 89.9033 14.0996C 89.9033 14.4512 89.9707 14.7031 90.1055 14.8555C 90.2402 15.0078 90.498 15.084 90.8789 15.084C 91.1602 15.084 91.4092 15.0635 91.626 15.0225L 91.626 16.9473C 91.1279 17.0996 90.6152 17.1758 90.0879 17.1758C 88.3066 17.1758 87.3984 16.2764 87.3633 14.4775L 87.3633 9.35352L 85.9746 9.35352L 85.9746 7.49023L 87.3633 7.49023L 87.3633 5.15234L 89.9033 5.15234Z"/>
<path id="path10_fill" d="M 0 0L 37 0L 37 152L 0 152L 0 0Z"/>
<path id="path11_stroke_2x" d="M 0 0L 0 -0.5L -0.5 -0.5L -0.5 0L 0 0ZM 37 0L 37.5 0L 37.5 -0.5L 37 -0.5L 37 0ZM 37 152L 37 152.5L 37.5 152.5L 37.5 152L 37 152ZM 0 152L -0.5 152L -0.5 152.5L 0 152.5L 0 152ZM -0.5 0L -0.5 1L 0.5 1L 0.5 0L -0.5 0ZM -0.5 3L -0.5 5L 0.5 5L 0.5 3L -0.5 3ZM -0.5 7L -0.5 9L 0.5 9L 0.5 7L -0.5 7ZM -0.5 11L -0.5 13L 0.5 13L 0.5 11L -0.5 11ZM -0.5 15L -0.5 17L 0.5 17L 0.5 15L -0.5 15ZM -0.5 19L -0.5 21L 0.5 21L 0.5 19L -0.5 19ZM -0.5 23L -0.5 25L 0.5 25L 0.5 23L -0.5 23ZM -0.5 27L -0.5 29L 0.5 29L 0.5 27L -0.5 27ZM -0.5 31L -0.5 33L 0.5 33L 0.5 31L -0.5 31ZM -0.5 35L -0.5 37L 0.5 37L 0.5 35L -0.5 35ZM -0.5 39L -0.5 41L 0.5 41L 0.5 39L -0.5 39ZM -0.5 43L -0.5 45L 0.5 45L 0.5 43L -0.5 43ZM -0.5 47L -0.5 49L 0.5 49L 0.5 47L -0.5 47ZM -0.5 51L -0.5 53L 0.5 53L 0.5 51L -0.5 51ZM -0.5 55L -0.5 57L 0.5 57L 0.5 55L -0.5 55ZM -0.5 59L -0.5 61L 0.5 61L 0.5 59L -0.5 59ZM -0.5 63L -0.5 65L 0.5 65L 0.5 63L -0.5 63ZM -0.5 67L -0.5 69L 0.5 69L 0.5 67L -0.5 67ZM -0.5 71L -0.5 73L 0.5 73L 0.5 71L -0.5 71ZM -0.5 75L -0.5 77L 0.5 77L 0.5 75L -0.5 75ZM -0.5 79L -0.5 81L 0.5 81L 0.5 79L -0.5 79ZM -0.5 83L -0.5 85L 0.5 85L 0.5 83L -0.5 83ZM -0.5 87L -0.5 89L 0.5 89L 0.5 87L -0.5 87ZM -0.5 91L -0.5 93L 0.5 93L 0.5 91L -0.5 91ZM -0.5 95L -0.5 97L 0.5 97L 0.5 95L -0.5 95ZM -0.5 99L -0.5 101L 0.5 101L 0.5 99L -0.5 99ZM -0.5 103L -0.5 105L 0.5 105L 0.5 103L -0.5 103ZM -0.5 107L -0.5 109L 0.5 109L 0.5 107L -0.5 107ZM -0.5 111L -0.5 113L 0.5 113L 0.5 111L -0.5 111ZM -0.5 115L -0.5 117L 0.5 117L 0.5 115L -0.5 115ZM -0.5 119L -0.5 121L 0.5 121L 0.5 119L -0.5 119ZM -0.5 123L -0.5 125L 0.5 125L 0.5 123L -0.5 123ZM -0.5 127L -0.5 129L 0.5 129L 0.5 127L -0.5 127ZM -0.5 131L -0.5 133L 0.5 133L 0.5 131L -0.5 131ZM -0.5 135L -0.5 137L 0.5 137L 0.5 135L -0.5 135ZM -0.5 139L -0.5 141L 0.5 141L 0.5 139L -0.5 139ZM -0.5 143L -0.5 145L 0.5 145L 0.5 143L -0.5 143ZM -0.5 147L -0.5 149L 0.5 149L 0.5 147L -0.5 147ZM -0.5 151L -0.5 152L 0.5 152L 0.5 151L -0.5 151ZM 0 152.5L 1.02778 152.5L 1.02778 151.5L 0 151.5L 0 152.5ZM 3.08333 152.5L 5.13889 152.5L 5.13889 151.5L 3.08333 151.5L 3.08333 152.5ZM 7.19444 152.5L 9.25 152.5L 9.25 151.5L 7.19444 151.5L 7.19444 152.5ZM 11.3056 152.5L 13.3611 152.5L 13.3611 151.5L 11.3056 151.5L 11.3056 152.5ZM 15.4167 152.5L 17.4722 152.5L 17.4722 151.5L 15.4167 151.5L 15.4167 152.5ZM 19.5278 152.5L 21.5833 152.5L 21.5833 151.5L 19.5278 151.5L 19.5278 152.5ZM 23.6389 152.5L 25.6944 152.5L 25.6944 151.5L 23.6389 151.5L 23.6389 152.5ZM 27.75 152.5L 29.8056 152.5L 29.8056 151.5L 27.75 151.5L 27.75 152.5ZM 31.8611 152.5L 33.9167 152.5L 33.9167 151.5L 31.8611 151.5L 31.8611 152.5ZM 35.9722 152.5L 37 152.5L 37 151.5L 35.9722 151.5L 35.9722 152.5ZM 37.5 152L 37.5 151L 36.5 151L 36.5 152L 37.5 152ZM 37.5 149L 37.5 147L 36.5 147L 36.5 149L 37.5 149ZM 37.5 145L 37.5 143L 36.5 143L 36.5 145L 37.5 145ZM 37.5 141L 37.5 139L 36.5 139L 36.5 141L 37.5 141ZM 37.5 137L 37.5 135L 36.5 135L 36.5 137L 37.5 137ZM 37.5 133L 37.5 131L 36.5 131L 36.5 133L 37.5 133ZM 37.5 129L 37.5 127L 36.5 127L 36.5 129L 37.5 129ZM 37.5 125L 37.5 123L 36.5 123L 36.5 125L 37.5 125ZM 37.5 121L 37.5 119L 36.5 119L 36.5 121L 37.5 121ZM 37.5 117L 37.5 115L 36.5 115L 36.5 117L 37.5 117ZM 37.5 113L 37.5 111L 36.5 111L 36.5 113L 37.5 113ZM 37.5 109L 37.5 107L 36.5 107L 36.5 109L 37.5 109ZM 37.5 105L 37.5 103L 36.5 103L 36.5 105L 37.5 105ZM 37.5 101L 37.5 99L 36.5 99L 36.5 101L 37.5 101ZM 37.5 97L 37.5 95L 36.5 95L 36.5 97L 37.5 97ZM 37.5 93L 37.5 91L 36.5 91L 36.5 93L 37.5 93ZM 37.5 89L 37.5 87L 36.5 87L 36.5 89L 37.5 89ZM 37.5 85L 37.5 83L 36.5 83L 36.5 85L 37.5 85ZM 37.5 81L 37.5 79L 36.5 79L 36.5 81L 37.5 81ZM 37.5 77L 37.5 75L 36.5 75L 36.5 77L 37.5 77ZM 37.5 73L 37.5 71L 36.5 71L 36.5 73L 37.5 73ZM 37.5 69L 37.5 67L 36.5 67L 36.5 69L 37.5 69ZM 37.5 65L 37.5 63L 36.5 63L 36.5 65L 37.5 65ZM 37.5 61L 37.5 59L 36.5 59L 36.5 61L 37.5 61ZM 37.5 57L 37.5 55L 36.5 55L 36.5 57L 37.5 57ZM 37.5 53L 37.5 51L 36.5 51L 36.5 53L 37.5 53ZM 37.5 49L 37.5 47L 36.5 47L 36.5 49L 37.5 49ZM 37.5 45L 37.5 43L 36.5 43L 36.5 45L 37.5 45ZM 37.5 41L 37.5 39L 36.5 39L 36.5 41L 37.5 41ZM 37.5 37L 37.5 35L 36.5 35L 36.5 37L 37.5 37ZM 37.5 33L 37.5 31L 36.5 31L 36.5 33L 37.5 33ZM 37.5 29L 37.5 27L 36.5 27L 36.5 29L 37.5 29ZM 37.5 25L 37.5 23L 36.5 23L 36.5 25L 37.5 25ZM 37.5 21L 37.5 19L 36.5 19L 36.5 21L 37.5 21ZM 37.5 17L 37.5 15L 36.5 15L 36.5 17L 37.5 17ZM 37.5 13L 37.5 11L 36.5 11L 36.5 13L 37.5 13ZM 37.5 9L 37.5 7L 36.5 7L 36.5 9L 37.5 9ZM 37.5 5L 37.5 3L 36.5 3L 36.5 5L 37.5 5ZM 37.5 1L 37.5 0L 36.5 0L 36.5 1L 37.5 1ZM 37 -0.5L 35.9722 -0.5L 35.9722 0.5L 37 0.5L 37 -0.5ZM 33.9167 -0.5L 31.8611 -0.5L 31.8611 0.5L 33.9167 0.5L 33.9167 -0.5ZM 29.8056 -0.5L 27.75 -0.5L 27.75 0.5L 29.8056 0.5L 29.8056 -0.5ZM 25.6944 -0.5L 23.6389 -0.5L 23.6389 0.5L 25.6944 0.5L 25.6944 -0.5ZM 21.5833 -0.5L 19.5278 -0.5L 19.5278 0.5L 21.5833 0.5L 21.5833 -0.5ZM 17.4722 -0.5L 15.4167 -0.5L 15.4167 0.5L 17.4722 0.5L 17.4722 -0.5ZM 13.3611 -0.5L 11.3056 -0.5L 11.3056 0.5L 13.3611 0.5L 13.3611 -0.5ZM 9.25 -0.5L 7.19444 -0.5L 7.19444 0.5L 9.25 0.5L 9.25 -0.5ZM 5.13889 -0.5L 3.08333 -0.5L 3.08333 0.5L 5.13889 0.5L 5.13889 -0.5ZM 1.02778 -0.5L 0 -0.5L 0 0.5L 1.02778 0.5L 1.02778 -0.5ZM 0 0L 0 -1L -1 -1L -1 0L 0 0ZM 37 0L 38 0L 38 -1L 37 -1L 37 0ZM 37 152L 37 153L 38 153L 38 152L 37 152ZM 0 152L -1 152L -1 153L 0 153L 0 152ZM -1 0L -1 1L 1 1L 1 0L -1 0ZM -1 3L -1 5L 1 5L 1 3L -1 3ZM -1 7L -1 9L 1 9L 1 7L -1 7ZM -1 11L -1 13L 1 13L 1 11L -1 11ZM -1 15L -1 17L 1 17L 1 15L -1 15ZM -1 19L -1 21L 1 21L 1 19L -1 19ZM -1 23L -1 25L 1 25L 1 23L -1 23ZM -1 27L -1 29L 1 29L 1 27L -1 27ZM -1 31L -1 33L 1 33L 1 31L -1 31ZM -1 35L -1 37L 1 37L 1 35L -1 35ZM -1 39L -1 41L 1 41L 1 39L -1 39ZM -1 43L -1 45L 1 45L 1 43L -1 43ZM -1 47L -1 49L 1 49L 1 47L -1 47ZM -1 51L -1 53L 1 53L 1 51L -1 51ZM -1 55L -1 57L 1 57L 1 55L -1 55ZM -1 59L -1 61L 1 61L 1 59L -1 59ZM -1 63L -1 65L 1 65L 1 63L -1 63ZM -1 67L -1 69L 1 69L 1 67L -1 67ZM -1 71L -1 73L 1 73L 1 71L -1 71ZM -1 75L -1 77L 1 77L 1 75L -1 75ZM -1 79L -1 81L 1 81L 1 79L -1 79ZM -1 83L -1 85L 1 85L 1 83L -1 83ZM -1 87L -1 89L 1 89L 1 87L -1 87ZM -1 91L -1 93L 1 93L 1 91L -1 91ZM -1 95L -1 97L 1 97L 1 95L -1 95ZM -1 99L -1 101L 1 101L 1 99L -1 99ZM -1 103L -1 105L 1 105L 1 103L -1 103ZM -1 107L -1 109L 1 109L 1 107L -1 107ZM -1 111L -1 113L 1 113L 1 111L -1 111ZM -1 115L -1 117L 1 117L 1 115L -1 115ZM -1 119L -1 121L 1 121L 1 119L -1 119ZM -1 123L -1 125L 1 125L 1 123L -1 123ZM -1 127L -1 129L 1 129L 1 127L -1 127ZM -1 131L -1 133L 1 133L 1 131L -1 131ZM -1 135L -1 137L 1 137L 1 135L -1 135ZM -1 139L -1 141L 1 141L 1 139L -1 139ZM -1 143L -1 145L 1 145L 1 143L -1 143ZM -1 147L -1 149L 1 149L 1 147L -1 147ZM -1 151L -1 152L 1 152L 1 151L -1 151ZM 0 153L 1.02778 153L 1.02778 151L 0 151L 0 153ZM 3.08333 153L 5.13889 153L 5.13889 151L 3.08333 151L 3.08333 153ZM 7.19444 153L 9.25 153L 9.25 151L 7.19444 151L 7.19444 153ZM 11.3056 153L 13.3611 153L 13.3611 151L 11.3056 151L 11.3056 153ZM 15.4167 153L 17.4722 153L 17.4722 151L 15.4167 151L 15.4167 153ZM 19.5278 153L 21.5833 153L 21.5833 151L 19.5278 151L 19.5278 153ZM 23.6389 153L 25.6944 153L 25.6944 151L 23.6389 151L 23.6389 153ZM 27.75 153L 29.8056 153L 29.8056 151L 27.75 151L 27.75 153ZM 31.8611 153L 33.9167 153L 33.9167 151L 31.8611 151L 31.8611 153ZM 35.9722 153L 37 153L 37 151L 35.9722 151L 35.9722 153ZM 38 152L 38 151L 36 151L 36 152L 38 152ZM 38 149L 38 147L 36 147L 36 149L 38 149ZM 38 145L 38 143L 36 143L 36 145L 38 145ZM 38 141L 38 139L 36 139L 36 141L 38 141ZM 38 137L 38 135L 36 135L 36 137L 38 137ZM 38 133L 38 131L 36 131L 36 133L 38 133ZM 38 129L 38 127L 36 127L 36 129L 38 129ZM 38 125L 38 123L 36 123L 36 125L 38 125ZM 38 121L 38 119L 36 119L 36 121L 38 121ZM 38 117L 38 115L 36 115L 36 117L 38 117ZM 38 113L 38 111L 36 111L 36 113L 38 113ZM 38 109L 38 107L 36 107L 36 109L 38 109ZM 38 105L 38 103L 36 103L 36 105L 38 105ZM 38 101L 38 99L 36 99L 36 101L 38 101ZM 38 97L 38 95L 36 95L 36 97L 38 97ZM 38 93L 38 91L 36 91L 36 93L 38 93ZM 38 89L 38 87L 36 87L 36 89L 38 89ZM 38 85L 38 83L 36 83L 36 85L 38 85ZM 38 81L 38 79L 36 79L 36 81L 38 81ZM 38 77L 38 75L 36 75L 36 77L 38 77ZM 38 73L 38 71L 36 71L 36 73L 38 73ZM 38 69L 38 67L 36 67L 36 69L 38 69ZM 38 65L 38 63L 36 63L 36 65L 38 65ZM 38 61L 38 59L 36 59L 36 61L 38 61ZM 38 57L 38 55L 36 55L 36 57L 38 57ZM 38 53L 38 51L 36 51L 36 53L 38 53ZM 38 49L 38 47L 36 47L 36 49L 38 49ZM 38 45L 38 43L 36 43L 36 45L 38 45ZM 38 41L 38 39L 36 39L 36 41L 38 41ZM 38 37L 38 35L 36 35L 36 37L 38 37ZM 38 33L 38 31L 36 31L 36 33L 38 33ZM 38 29L 38 27L 36 27L 36 29L 38 29ZM 38 25L 38 23L 36 23L 36 25L 38 25ZM 38 21L 38 19L 36 19L 36 21L 38 21ZM 38 17L 38 15L 36 15L 36 17L 38 17ZM 38 13L 38 11L 36 11L 36 13L 38 13ZM 38 9L 38 7L 36 7L 36 9L 38 9ZM 38 5L 38 3L 36 3L 36 5L 38 5ZM 38 1L 38 0L 36 0L 36 1L 38 1ZM 37 -1L 35.9722 -1L 35.9722 1L 37 1L 37 -1ZM 33.9167 -1L 31.8611 -1L 31.8611 1L 33.9167 1L 33.9167 -1ZM 29.8056 -1L 27.75 -1L 27.75 1L 29.8056 1L 29.8056 -1ZM 25.6944 -1L 23.6389 -1L 23.6389 1L 25.6944 1L 25.6944 -1ZM 21.5833 -1L 19.5278 -1L 19.5278 1L 21.5833 1L 21.5833 -1ZM 17.4722 -1L 15.4167 -1L 15.4167 1L 17.4722 1L 17.4722 -1ZM 13.3611 -1L 11.3056 -1L 11.3056 1L 13.3611 1L 13.3611 -1ZM 9.25 -1L 7.19444 -1L 7.19444 1L 9.25 1L 9.25 -1ZM 5.13889 -1L 3.08333 -1L 3.08333 1L 5.13889 1L 5.13889 -1ZM 1.02778 -1L 0 -1L 0 1L 1.02778 1L 1.02778 -1Z"/>
<path id="path12_fill" d="M 3.7959 7.88037C 2.75065 7.57992 1.98893 7.21175 1.51074 6.77588C 1.03678 6.33577 0.799805 5.79411 0.799805 5.15088C 0.799805 4.42301 1.08968 3.8221 1.66943 3.34814C 2.25342 2.86995 3.0109 2.63086 3.94189 2.63086C 4.57666 2.63086 5.1416 2.75358 5.63672 2.99902C 6.13607 3.24447 6.52116 3.58301 6.79199 4.01465C 7.06706 4.44629 7.20459 4.91813 7.20459 5.43018L 5.97949 5.43018C 5.97949 4.87158 5.80176 4.43359 5.44629 4.11621C 5.09082 3.7946 4.58936 3.63379 3.94189 3.63379C 3.34098 3.63379 2.87126 3.76709 2.53271 4.03369C 2.1984 4.29606 2.03125 4.66211 2.03125 5.13184C 2.03125 5.50846 2.18994 5.82796 2.50732 6.09033C 2.82894 6.34847 3.37272 6.58545 4.13867 6.80127C 4.90885 7.01709 5.50977 7.25618 5.94141 7.51855C 6.37728 7.77669 6.69889 8.07926 6.90625 8.42627C 7.11784 8.77327 7.22363 9.18164 7.22363 9.65137C 7.22363 10.4004 6.93164 11.0013 6.34766 11.4541C 5.76367 11.9027 4.98291 12.127 4.00537 12.127C 3.37061 12.127 2.77816 12.0063 2.22803 11.7651C 1.6779 11.5197 1.2526 11.1854 0.952148 10.7622C 0.655924 10.339 0.507812 9.85872 0.507812 9.32129L 1.73291 9.32129C 1.73291 9.87988 1.93815 10.3221 2.34863 10.6479C 2.76335 10.9696 3.31559 11.1304 4.00537 11.1304C 4.6486 11.1304 5.1416 10.9992 5.48438 10.7368C 5.82715 10.4744 5.99854 10.1169 5.99854 9.66406C 5.99854 9.21126 5.83984 8.86214 5.52246 8.6167C 5.20508 8.36702 4.62956 8.12158 3.7959 7.88037ZM 12.8477 11.3208C 12.3906 11.8582 11.7199 12.127 10.8354 12.127C 10.1034 12.127 9.54476 11.9154 9.15967 11.4922C 8.77881 11.0648 8.58626 10.4342 8.58203 9.60059L 8.58203 5.13184L 9.75635 5.13184L 9.75635 9.56885C 9.75635 10.6099 10.1795 11.1304 11.0259 11.1304C 11.923 11.1304 12.5197 10.7961 12.8159 10.1274L 12.8159 5.13184L 13.9902 5.13184L 13.9902 12L 12.873 12L 12.8477 11.3208ZM 19.1001 6.18555C 18.9224 6.15592 18.7298 6.14111 18.5225 6.14111C 17.7523 6.14111 17.2297 6.46908 16.9546 7.125L 16.9546 12L 15.7803 12L 15.7803 5.13184L 16.9229 5.13184L 16.9419 5.92529C 17.327 5.31169 17.8729 5.00488 18.5796 5.00488C 18.8081 5.00488 18.9816 5.03451 19.1001 5.09375L 19.1001 6.18555ZM 22.5659 10.4067L 24.2671 5.13184L 25.4668 5.13184L 23.0039 12L 22.1089 12L 19.6206 5.13184L 20.8203 5.13184L 22.5659 10.4067ZM 27.8726 12L 26.6982 12L 26.6982 5.13184L 27.8726 5.13184L 27.8726 12ZM 26.603 3.31006C 26.603 3.11963 26.6602 2.95882 26.7744 2.82764C 26.8929 2.69645 27.0664 2.63086 27.2949 2.63086C 27.5234 2.63086 27.6969 2.69645 27.8154 2.82764C 27.9339 2.95882 27.9932 3.11963 27.9932 3.31006C 27.9932 3.50049 27.9339 3.65918 27.8154 3.78613C 27.6969 3.91309 27.5234 3.97656 27.2949 3.97656C 27.0664 3.97656 26.8929 3.91309 26.7744 3.78613C 26.6602 3.65918 26.603 3.50049 26.603 3.31006ZM 32.0239 10.4067L 33.7251 5.13184L 34.9248 5.13184L 32.4619 12L 31.5669 12L 29.0786 5.13184L 30.2783 5.13184L 32.0239 10.4067ZM 40.1934 12C 40.1257 11.8646 40.0706 11.6234 40.0283 11.2764C 39.4824 11.8434 38.8307 12.127 38.0732 12.127C 37.3962 12.127 36.8397 11.9365 36.4038 11.5557C 35.9722 11.1706 35.7563 10.6839 35.7563 10.0957C 35.7563 9.38053 36.0272 8.82617 36.5688 8.43262C 37.1147 8.03483 37.8807 7.83594 38.8667 7.83594L 40.0093 7.83594L 40.0093 7.29639C 40.0093 6.8859 39.8866 6.56006 39.6411 6.31885C 39.3957 6.0734 39.0339 5.95068 38.5557 5.95068C 38.1367 5.95068 37.7855 6.05648 37.502 6.26807C 37.2184 6.47965 37.0767 6.73568 37.0767 7.03613L 35.896 7.03613C 35.896 6.69336 36.0166 6.36328 36.2578 6.0459C 36.5033 5.72428 36.8333 5.47038 37.248 5.28418C 37.667 5.09798 38.1261 5.00488 38.6255 5.00488C 39.4168 5.00488 40.0368 5.20378 40.4854 5.60156C 40.9339 5.99512 41.1667 6.5389 41.1836 7.23291L 41.1836 10.394C 41.1836 11.0246 41.264 11.526 41.4248 11.8984L 41.4248 12L 40.1934 12ZM 38.2446 11.105C 38.6128 11.105 38.9619 11.0098 39.292 10.8193C 39.6221 10.6289 39.8612 10.3813 40.0093 10.0767L 40.0093 8.66748L 39.0889 8.66748C 37.6501 8.66748 36.9307 9.08854 36.9307 9.93066C 36.9307 10.2988 37.0534 10.5866 37.2988 10.7939C 37.5443 11.0013 37.8595 11.105 38.2446 11.105ZM 44.3003 12L 43.126 12L 43.126 2.25L 44.3003 2.25L 44.3003 12ZM 49.5942 12L 49.5942 2.75781L 52.2031 2.75781C 53.0072 2.75781 53.7181 2.93555 54.3359 3.29102C 54.9538 3.64648 55.4299 4.15218 55.7642 4.80811C 56.1027 5.46403 56.2741 6.21729 56.2783 7.06787L 56.2783 7.6582C 56.2783 8.52995 56.109 9.29378 55.7705 9.94971C 55.4362 10.6056 54.9559 11.1092 54.3296 11.4604C 53.7075 11.8117 52.9818 11.9915 52.1523 12L 49.5942 12ZM 50.813 3.76074L 50.813 11.0034L 52.0952 11.0034C 53.0347 11.0034 53.7646 10.7114 54.2852 10.1274C 54.8099 9.54346 55.0723 8.71191 55.0723 7.63281L 55.0723 7.09326C 55.0723 6.04378 54.8247 5.22917 54.3296 4.64941C 53.8387 4.06543 53.1405 3.76921 52.2349 3.76074L 50.813 3.76074ZM 62.1816 12C 62.1139 11.8646 62.0589 11.6234 62.0166 11.2764C 61.4707 11.8434 60.819 12.127 60.0615 12.127C 59.3844 12.127 58.828 11.9365 58.3921 11.5557C 57.9604 11.1706 57.7446 10.6839 57.7446 10.0957C 57.7446 9.38053 58.0155 8.82617 58.5571 8.43262C 59.103 8.03483 59.869 7.83594 60.855 7.83594L 61.9976 7.83594L 61.9976 7.29639C 61.9976 6.8859 61.8748 6.56006 61.6294 6.31885C 61.384 6.0734 61.0221 5.95068 60.5439 5.95068C 60.125 5.95068 59.7738 6.05648 59.4902 6.26807C 59.2067 6.47965 59.0649 6.73568 59.0649 7.03613L 57.8843 7.03613C 57.8843 6.69336 58.0049 6.36328 58.2461 6.0459C 58.4915 5.72428 58.8216 5.47038 59.2363 5.28418C 59.6553 5.09798 60.1144 5.00488 60.6138 5.00488C 61.4051 5.00488 62.0251 5.20378 62.4736 5.60156C 62.9222 5.99512 63.1549 6.5389 63.1719 7.23291L 63.1719 10.394C 63.1719 11.0246 63.2523 11.526 63.4131 11.8984L 63.4131 12L 62.1816 12ZM 60.2329 11.105C 60.6011 11.105 60.9502 11.0098 61.2803 10.8193C 61.6104 10.6289 61.8494 10.3813 61.9976 10.0767L 61.9976 8.66748L 61.0771 8.66748C 59.6383 8.66748 58.9189 9.08854 58.9189 9.93066C 58.9189 10.2988 59.0417 10.5866 59.2871 10.7939C 59.5326 11.0013 59.8478 11.105 60.2329 11.105ZM 66.606 3.46875L 66.606 5.13184L 67.8882 5.13184L 67.8882 6.03955L 66.606 6.03955L 66.606 10.2988C 66.606 10.5739 66.6631 10.7812 66.7773 10.9209C 66.8916 11.0563 67.0863 11.124 67.3613 11.124C 67.4967 11.124 67.6829 11.0986 67.9199 11.0479L 67.9199 12C 67.611 12.0846 67.3105 12.127 67.0186 12.127C 66.4938 12.127 66.0981 11.9683 65.8315 11.6509C 65.5649 11.3335 65.4316 10.8828 65.4316 10.2988L 65.4316 6.03955L 64.1812 6.03955L 64.1812 5.13184L 65.4316 5.13184L 65.4316 3.46875L 66.606 3.46875ZM 73.5059 12C 73.4382 11.8646 73.3831 11.6234 73.3408 11.2764C 72.7949 11.8434 72.1432 12.127 71.3857 12.127C 70.7087 12.127 70.1522 11.9365 69.7163 11.5557C 69.2847 11.1706 69.0688 10.6839 69.0688 10.0957C 69.0688 9.38053 69.3397 8.82617 69.8813 8.43262C 70.4272 8.03483 71.1932 7.83594 72.1792 7.83594L 73.3218 7.83594L 73.3218 7.29639C 73.3218 6.8859 73.1991 6.56006 72.9536 6.31885C 72.7082 6.0734 72.3464 5.95068 71.8682 5.95068C 71.4492 5.95068 71.098 6.05648 70.8145 6.26807C 70.5309 6.47965 70.3892 6.73568 70.3892 7.03613L 69.2085 7.03613C 69.2085 6.69336 69.3291 6.36328 69.5703 6.0459C 69.8158 5.72428 70.1458 5.47038 70.5605 5.28418C 70.9795 5.09798 71.4386 5.00488 71.938 5.00488C 72.7293 5.00488 73.3493 5.20378 73.7979 5.60156C 74.2464 5.99512 74.4792 6.5389 74.4961 7.23291L 74.4961 10.394C 74.4961 11.0246 74.5765 11.526 74.7373 11.8984L 74.7373 12L 73.5059 12ZM 71.5571 11.105C 71.9253 11.105 72.2744 11.0098 72.6045 10.8193C 72.9346 10.6289 73.1737 10.3813 73.3218 10.0767L 73.3218 8.66748L 72.4014 8.66748C 70.9626 8.66748 70.2432 9.08854 70.2432 9.93066C 70.2432 10.2988 70.3659 10.5866 70.6113 10.7939C 70.8568 11.0013 71.172 11.105 71.5571 11.105ZM 80.1392 12L 80.1392 6.03955L 79.0537 6.03955L 79.0537 5.13184L 80.1392 5.13184L 80.1392 4.42725C 80.1392 3.69092 80.3359 3.12174 80.7295 2.71973C 81.123 2.31771 81.6795 2.1167 82.3989 2.1167C 82.6698 2.1167 82.9385 2.15267 83.2051 2.22461L 83.1416 3.17676C 82.9427 3.13867 82.7311 3.11963 82.5068 3.11963C 82.126 3.11963 81.8319 3.23177 81.6245 3.45605C 81.4172 3.67611 81.3135 3.99349 81.3135 4.4082L 81.3135 5.13184L 82.7798 5.13184L 82.7798 6.03955L 81.3135 6.03955L 81.3135 12L 80.1392 12ZM 83.77 8.50244C 83.77 7.82959 83.9012 7.22445 84.1636 6.68701C 84.4302 6.14958 84.7983 5.73486 85.2681 5.44287C 85.742 5.15088 86.2816 5.00488 86.8867 5.00488C 87.8219 5.00488 88.5773 5.32861 89.1528 5.97607C 89.7326 6.62354 90.0225 7.4847 90.0225 8.55957L 90.0225 8.64209C 90.0225 9.31071 89.8934 9.91162 89.6353 10.4448C 89.3813 10.9738 89.0153 11.3864 88.5371 11.6826C 88.0632 11.9788 87.5173 12.127 86.8994 12.127C 85.9684 12.127 85.2131 11.8032 84.6333 11.1558C 84.0578 10.5083 83.77 9.65137 83.77 8.58496L 83.77 8.50244ZM 84.9507 8.64209C 84.9507 9.40381 85.1263 10.0153 85.4775 10.4766C 85.833 10.9378 86.307 11.1685 86.8994 11.1685C 87.4961 11.1685 87.9701 10.9357 88.3213 10.4702C 88.6725 10.0005 88.8481 9.34456 88.8481 8.50244C 88.8481 7.74919 88.6683 7.13981 88.3086 6.67432C 87.9531 6.20459 87.4792 5.96973 86.8867 5.96973C 86.307 5.96973 85.8394 6.20036 85.4839 6.66162C 85.1284 7.12288 84.9507 7.78304 84.9507 8.64209ZM 94.8149 6.18555C 94.6372 6.15592 94.4447 6.14111 94.2373 6.14111C 93.4671 6.14111 92.9445 6.46908 92.6694 7.125L 92.6694 12L 91.4951 12L 91.4951 5.13184L 92.6377 5.13184L 92.6567 5.92529C 93.0418 5.31169 93.5877 5.00488 94.2944 5.00488C 94.5229 5.00488 94.6965 5.03451 94.8149 5.09375L 94.8149 6.18555ZM 3.73877 27.127C 2.80778 27.127 2.05029 26.8223 1.46631 26.2129C 0.882324 25.5993 0.590332 24.7804 0.590332 23.7563L 0.590332 23.5405C 0.590332 22.8592 0.719401 22.252 0.977539 21.7188C 1.23991 21.1813 1.60384 20.7624 2.06934 20.4619C 2.53906 20.1572 3.04688 20.0049 3.59277 20.0049C 4.48568 20.0049 5.17969 20.299 5.6748 20.8872C 6.16992 21.4754 6.41748 22.3175 6.41748 23.4136L 6.41748 23.9023L 1.76465 23.9023C 1.78158 24.5794 1.97835 25.1274 2.35498 25.5464C 2.73584 25.9611 3.21826 26.1685 3.80225 26.1685C 4.21696 26.1685 4.5682 26.0838 4.85596 25.9146C 5.14372 25.7453 5.39551 25.521 5.61133 25.2417L 6.32861 25.8003C 5.75309 26.6847 4.88981 27.127 3.73877 27.127ZM 3.59277 20.9697C 3.11882 20.9697 2.72103 21.1432 2.39941 21.4902C 2.0778 21.833 1.87891 22.3154 1.80273 22.9375L 5.24316 22.9375L 5.24316 22.8486C 5.20931 22.252 5.0485 21.7907 4.76074 21.4648C 4.47298 21.1348 4.08366 20.9697 3.59277 20.9697ZM 12.0225 27C 11.9548 26.8646 11.8997 26.6234 11.8574 26.2764C 11.3115 26.8434 10.6598 27.127 9.90234 27.127C 9.22526 27.127 8.66878 26.9365 8.23291 26.5557C 7.80127 26.1706 7.58545 25.6839 7.58545 25.0957C 7.58545 24.3805 7.85628 23.8262 8.39795 23.4326C 8.94385 23.0348 9.7098 22.8359 10.6958 22.8359L 11.8384 22.8359L 11.8384 22.2964C 11.8384 21.8859 11.7157 21.5601 11.4702 21.3188C 11.2248 21.0734 10.863 20.9507 10.3848 20.9507C 9.96582 20.9507 9.61458 21.0565 9.33105 21.2681C 9.04753 21.4797 8.90576 21.7357 8.90576 22.0361L 7.7251 22.0361C 7.7251 21.6934 7.8457 21.3633 8.08691 21.0459C 8.33236 20.7243 8.66243 20.4704 9.07715 20.2842C 9.49609 20.098 9.95524 20.0049 10.4546 20.0049C 11.2459 20.0049 11.8659 20.2038 12.3145 20.6016C 12.763 20.9951 12.9958 21.5389 13.0127 22.2329L 13.0127 25.394C 13.0127 26.0246 13.0931 26.526 13.2539 26.8984L 13.2539 27L 12.0225 27ZM 10.0737 26.105C 10.4419 26.105 10.791 26.0098 11.1211 25.8193C 11.4512 25.6289 11.6903 25.3813 11.8384 25.0767L 11.8384 23.6675L 10.918 23.6675C 9.47917 23.6675 8.75977 24.0885 8.75977 24.9307C 8.75977 25.2988 8.88249 25.5866 9.12793 25.7939C 9.37337 26.0013 9.68864 26.105 10.0737 26.105ZM 17.6084 26.1685C 18.0273 26.1685 18.3934 26.0415 18.7065 25.7876C 19.0197 25.5337 19.1932 25.2163 19.2271 24.8354L 20.3379 24.8354C 20.3167 25.229 20.1813 25.6035 19.9316 25.959C 19.682 26.3145 19.3477 26.598 18.9287 26.8096C 18.514 27.0212 18.0739 27.127 17.6084 27.127C 16.6732 27.127 15.9284 26.8159 15.374 26.1938C 14.8239 25.5675 14.5488 24.7127 14.5488 23.6294L 14.5488 23.4326C 14.5488 22.764 14.6715 22.1694 14.917 21.6489C 15.1624 21.1284 15.5137 20.7243 15.9707 20.4365C 16.432 20.1488 16.9757 20.0049 17.6021 20.0049C 18.3722 20.0049 19.0112 20.2355 19.519 20.6968C 20.0311 21.158 20.304 21.7568 20.3379 22.4932L 19.2271 22.4932C 19.1932 22.0488 19.0239 21.6849 18.7192 21.4014C 18.4188 21.1136 18.0464 20.9697 17.6021 20.9697C 17.0054 20.9697 16.542 21.1855 16.2119 21.6172C 15.8861 22.0446 15.7231 22.6646 15.7231 23.4771L 15.7231 23.6992C 15.7231 24.4906 15.8861 25.0999 16.2119 25.5273C 16.5378 25.9548 17.0033 26.1685 17.6084 26.1685ZM 22.8325 20.9634C 23.353 20.3244 24.0301 20.0049 24.8638 20.0049C 26.3153 20.0049 27.0474 20.8237 27.0601 22.4614L 27.0601 27L 25.8857 27L 25.8857 22.4551C 25.8815 21.96 25.7673 21.5939 25.543 21.3569C 25.3229 21.12 24.978 21.0015 24.5083 21.0015C 24.1274 21.0015 23.7931 21.103 23.5054 21.3062C 23.2176 21.5093 22.9933 21.7759 22.8325 22.106L 22.8325 27L 21.6582 27L 21.6582 17.25L 22.8325 17.25L 22.8325 20.9634ZM 37.8447 23.6421C 37.8447 24.6873 37.6056 25.5295 37.1274 26.1685C 36.6493 26.8075 36.0018 27.127 35.1851 27.127C 34.3514 27.127 33.6955 26.8625 33.2173 26.3335L 33.2173 29.6406L 32.043 29.6406L 32.043 20.1318L 33.1157 20.1318L 33.1729 20.8936C 33.651 20.3011 34.3154 20.0049 35.166 20.0049C 35.9912 20.0049 36.6429 20.3159 37.1211 20.938C 37.6035 21.5601 37.8447 22.4255 37.8447 23.5342L 37.8447 23.6421ZM 36.6704 23.5088C 36.6704 22.7344 36.5054 22.1229 36.1753 21.6743C 35.8452 21.2257 35.3924 21.0015 34.8169 21.0015C 34.106 21.0015 33.5728 21.3167 33.2173 21.9473L 33.2173 25.229C 33.5685 25.8553 34.106 26.1685 34.8296 26.1685C 35.3924 26.1685 35.8389 25.9463 36.1689 25.502C 36.5033 25.0534 36.6704 24.389 36.6704 23.5088ZM 43.583 27C 43.5153 26.8646 43.4603 26.6234 43.418 26.2764C 42.8721 26.8434 42.2204 27.127 41.4629 27.127C 40.7858 27.127 40.2293 26.9365 39.7935 26.5557C 39.3618 26.1706 39.146 25.6839 39.146 25.0957C 39.146 24.3805 39.4168 23.8262 39.9585 23.4326C 40.5044 23.0348 41.2703 22.8359 42.2563 22.8359L 43.3989 22.8359L 43.3989 22.2964C 43.3989 21.8859 43.2762 21.5601 43.0308 21.3188C 42.7853 21.0734 42.4235 20.9507 41.9453 20.9507C 41.5264 20.9507 41.1751 21.0565 40.8916 21.2681C 40.6081 21.4797 40.4663 21.7357 40.4663 22.0361L 39.2856 22.0361C 39.2856 21.6934 39.4062 21.3633 39.6475 21.0459C 39.8929 20.7243 40.223 20.4704 40.6377 20.2842C 41.0566 20.098 41.5158 20.0049 42.0151 20.0049C 42.8065 20.0049 43.4264 20.2038 43.875 20.6016C 44.3236 20.9951 44.5563 21.5389 44.5732 22.2329L 44.5732 25.394C 44.5732 26.0246 44.6536 26.526 44.8145 26.8984L 44.8145 27L 43.583 27ZM 41.6343 26.105C 42.0024 26.105 42.3516 26.0098 42.6816 25.8193C 43.0117 25.6289 43.2508 25.3813 43.3989 25.0767L 43.3989 23.6675L 42.4785 23.6675C 41.0397 23.6675 40.3203 24.0885 40.3203 24.9307C 40.3203 25.2988 40.443 25.5866 40.6885 25.7939C 40.9339 26.0013 41.2492 26.105 41.6343 26.105ZM 50.4131 25.1782C 50.4131 24.8608 50.2925 24.6154 50.0513 24.4419C 49.8143 24.2642 49.3975 24.1118 48.8008 23.9849C 48.2083 23.8579 47.7365 23.7056 47.3853 23.5278C 47.0382 23.3501 46.7801 23.1385 46.6108 22.8931C 46.4458 22.6476 46.3633 22.3556 46.3633 22.0171C 46.3633 21.4543 46.6003 20.9782 47.0742 20.5889C 47.5524 20.1995 48.1618 20.0049 48.9023 20.0049C 49.681 20.0049 50.3115 20.2059 50.7939 20.6079C 51.2806 21.0099 51.5239 21.5241 51.5239 22.1504L 50.3433 22.1504C 50.3433 21.8288 50.2057 21.5516 49.9307 21.3188C 49.6598 21.0861 49.3171 20.9697 48.9023 20.9697C 48.4749 20.9697 48.1406 21.0628 47.8994 21.249C 47.6582 21.4352 47.5376 21.6785 47.5376 21.979C 47.5376 22.2625 47.6497 22.4762 47.874 22.6201C 48.0983 22.764 48.5024 22.9015 49.0864 23.0327C 49.6746 23.1639 50.1507 23.3205 50.5146 23.5024C 50.8786 23.6844 51.1473 23.9045 51.3208 24.1626C 51.4985 24.4165 51.5874 24.7275 51.5874 25.0957C 51.5874 25.7093 51.342 26.2023 50.8511 26.5747C 50.3602 26.9429 49.7233 27.127 48.9404 27.127C 48.3903 27.127 47.9036 27.0296 47.4805 26.835C 47.0573 26.6403 46.7251 26.3695 46.4839 26.0225C 46.2469 25.6712 46.1284 25.2925 46.1284 24.8862L 47.3027 24.8862C 47.3239 25.2798 47.4805 25.5929 47.7725 25.8257C 48.0687 26.0542 48.458 26.1685 48.9404 26.1685C 49.3848 26.1685 49.7402 26.0796 50.0068 25.9019C 50.2777 25.7199 50.4131 25.4787 50.4131 25.1782ZM 57.1162 25.1782C 57.1162 24.8608 56.9956 24.6154 56.7544 24.4419C 56.5174 24.2642 56.1006 24.1118 55.5039 23.9849C 54.9115 23.8579 54.4396 23.7056 54.0884 23.5278C 53.7414 23.3501 53.4832 23.1385 53.314 22.8931C 53.1489 22.6476 53.0664 22.3556 53.0664 22.0171C 53.0664 21.4543 53.3034 20.9782 53.7773 20.5889C 54.2555 20.1995 54.8649 20.0049 55.6055 20.0049C 56.3841 20.0049 57.0146 20.2059 57.4971 20.6079C 57.9837 21.0099 58.2271 21.5241 58.2271 22.1504L 57.0464 22.1504C 57.0464 21.8288 56.9089 21.5516 56.6338 21.3188C 56.363 21.0861 56.0202 20.9697 55.6055 20.9697C 55.1781 20.9697 54.8438 21.0628 54.6025 21.249C 54.3613 21.4352 54.2407 21.6785 54.2407 21.979C 54.2407 22.2625 54.3529 22.4762 54.5771 22.6201C 54.8014 22.764 55.2056 22.9015 55.7896 23.0327C 56.3778 23.1639 56.8538 23.3205 57.2178 23.5024C 57.5817 23.6844 57.8504 23.9045 58.0239 24.1626C 58.2017 24.4165 58.2905 24.7275 58.2905 25.0957C 58.2905 25.7093 58.0451 26.2023 57.5542 26.5747C 57.0633 26.9429 56.4264 27.127 55.6436 27.127C 55.0934 27.127 54.6068 27.0296 54.1836 26.835C 53.7604 26.6403 53.4282 26.3695 53.187 26.0225C 52.95 25.6712 52.8315 25.2925 52.8315 24.8862L 54.0059 24.8862C 54.027 25.2798 54.1836 25.5929 54.4756 25.8257C 54.7718 26.0542 55.1611 26.1685 55.6436 26.1685C 56.0879 26.1685 56.4434 26.0796 56.71 25.9019C 56.9808 25.7199 57.1162 25.4787 57.1162 25.1782ZM 62.6704 27.127C 61.7394 27.127 60.9819 26.8223 60.3979 26.2129C 59.814 25.5993 59.522 24.7804 59.522 23.7563L 59.522 23.5405C 59.522 22.8592 59.651 22.252 59.9092 21.7188C 60.1715 21.1813 60.5355 20.7624 61.001 20.4619C 61.4707 20.1572 61.9785 20.0049 62.5244 20.0049C 63.4173 20.0049 64.1113 20.299 64.6064 20.8872C 65.1016 21.4754 65.3491 22.3175 65.3491 23.4136L 65.3491 23.9023L 60.6963 23.9023C 60.7132 24.5794 60.91 25.1274 61.2866 25.5464C 61.6675 25.9611 62.1499 26.1685 62.7339 26.1685C 63.1486 26.1685 63.4998 26.0838 63.7876 25.9146C 64.0754 25.7453 64.3271 25.521 64.543 25.2417L 65.2603 25.8003C 64.6847 26.6847 63.8215 27.127 62.6704 27.127ZM 62.5244 20.9697C 62.0505 20.9697 61.6527 21.1432 61.3311 21.4902C 61.0094 21.833 60.8105 22.3154 60.7344 22.9375L 64.1748 22.9375L 64.1748 22.8486C 64.141 22.252 63.9801 21.7907 63.6924 21.4648C 63.4046 21.1348 63.0153 20.9697 62.5244 20.9697ZM 67.8247 20.1318L 67.8628 20.9951C 68.3875 20.335 69.0731 20.0049 69.9194 20.0049C 71.3709 20.0049 72.103 20.8237 72.1157 22.4614L 72.1157 27L 70.9414 27L 70.9414 22.4551C 70.9372 21.96 70.8229 21.5939 70.5986 21.3569C 70.3786 21.12 70.0337 21.0015 69.564 21.0015C 69.1831 21.0015 68.8488 21.103 68.561 21.3062C 68.2733 21.5093 68.049 21.7759 67.8882 22.106L 67.8882 27L 66.7139 27L 66.7139 20.1318L 67.8247 20.1318ZM 73.6074 23.5088C 73.6074 22.4382 73.855 21.5876 74.3501 20.957C 74.8452 20.3223 75.5011 20.0049 76.3179 20.0049C 77.1558 20.0049 77.8096 20.3011 78.2793 20.8936L 78.3364 20.1318L 79.4092 20.1318L 79.4092 26.835C 79.4092 27.7236 79.1447 28.424 78.6157 28.936C 78.091 29.4481 77.3843 29.7041 76.4956 29.7041C 76.0005 29.7041 75.516 29.5983 75.042 29.3867C 74.568 29.1751 74.2062 28.8853 73.9565 28.5171L 74.5659 27.8125C 75.0695 28.4346 75.6852 28.7456 76.4131 28.7456C 76.9844 28.7456 77.4287 28.5848 77.7461 28.2632C 78.0677 27.9416 78.2285 27.4888 78.2285 26.9048L 78.2285 26.3145C 77.7588 26.8561 77.1177 27.127 76.3052 27.127C 75.5011 27.127 74.8494 26.8032 74.3501 26.1558C 73.855 25.5083 73.6074 24.626 73.6074 23.5088ZM 74.7881 23.6421C 74.7881 24.4165 74.9468 25.0259 75.2642 25.4702C 75.5815 25.9103 76.0259 26.1304 76.5972 26.1304C 77.3377 26.1304 77.8815 25.7939 78.2285 25.1211L 78.2285 21.9854C 77.8688 21.3294 77.3293 21.0015 76.6099 21.0015C 76.0386 21.0015 75.5921 21.2236 75.2705 21.668C 74.9489 22.1123 74.7881 22.7703 74.7881 23.6421ZM 84.0366 27.127C 83.1056 27.127 82.3481 26.8223 81.7642 26.2129C 81.1802 25.5993 80.8882 24.7804 80.8882 23.7563L 80.8882 23.5405C 80.8882 22.8592 81.0173 22.252 81.2754 21.7188C 81.5378 21.1813 81.9017 20.7624 82.3672 20.4619C 82.8369 20.1572 83.3447 20.0049 83.8906 20.0049C 84.7835 20.0049 85.4775 20.299 85.9727 20.8872C 86.4678 21.4754 86.7153 22.3175 86.7153 23.4136L 86.7153 23.9023L 82.0625 23.9023C 82.0794 24.5794 82.2762 25.1274 82.6528 25.5464C 83.0337 25.9611 83.5161 26.1685 84.1001 26.1685C 84.5148 26.1685 84.866 26.0838 85.1538 25.9146C 85.4416 25.7453 85.6934 25.521 85.9092 25.2417L 86.6265 25.8003C 86.0509 26.6847 85.1877 27.127 84.0366 27.127ZM 83.8906 20.9697C 83.4167 20.9697 83.0189 21.1432 82.6973 21.4902C 82.3757 21.833 82.1768 22.3154 82.1006 22.9375L 85.541 22.9375L 85.541 22.8486C 85.5072 22.252 85.3464 21.7907 85.0586 21.4648C 84.7708 21.1348 84.3815 20.9697 83.8906 20.9697ZM 91.3999 21.1855C 91.2222 21.1559 91.0296 21.1411 90.8223 21.1411C 90.0521 21.1411 89.5295 21.4691 89.2544 22.125L 89.2544 27L 88.0801 27L 88.0801 20.1318L 89.2227 20.1318L 89.2417 20.9253C 89.6268 20.3117 90.1727 20.0049 90.8794 20.0049C 91.1079 20.0049 91.2814 20.0345 91.3999 20.0938L 91.3999 21.1855Z"/>
<path id="path13_stroke" d="M 77.3536 0.353553C 77.5488 0.158291 77.5488 -0.158291 77.3536 -0.353553L 74.1716 -3.53553C 73.9763 -3.7308 73.6597 -3.7308 73.4645 -3.53553C 73.2692 -3.34027 73.2692 -3.02369 73.4645 -2.82843L 76.2929 0L 73.4645 2.82843C 73.2692 3.02369 73.2692 3.34027 73.4645 3.53553C 73.6597 3.7308 73.9763 3.7308 74.1716 3.53553L 77.3536 0.353553ZM 0 0.5L 77 0.5L 77 -0.5L 0 -0.5L 0 0.5Z"/>
<path id="path14_fill" d="M 8.17578 12L 6.95068 12L 2.29785 4.87793L 2.29785 12L 1.07275 12L 1.07275 2.75781L 2.29785 2.75781L 6.96338 9.91162L 6.96338 2.75781L 8.17578 2.75781L 8.17578 12ZM 9.84521 8.50244C 9.84521 7.82959 9.9764 7.22445 10.2388 6.68701C 10.5054 6.14958 10.8735 5.73486 11.3433 5.44287C 11.8172 5.15088 12.3568 5.00488 12.9619 5.00488C 13.8971 5.00488 14.6525 5.32861 15.228 5.97607C 15.8078 6.62354 16.0977 7.4847 16.0977 8.55957L 16.0977 8.64209C 16.0977 9.31071 15.9686 9.91162 15.7104 10.4448C 15.4565 10.9738 15.0905 11.3864 14.6123 11.6826C 14.1383 11.9788 13.5924 12.127 12.9746 12.127C 12.0436 12.127 11.2882 11.8032 10.7085 11.1558C 10.133 10.5083 9.84521 9.65137 9.84521 8.58496L 9.84521 8.50244ZM 11.0259 8.64209C 11.0259 9.40381 11.2015 10.0153 11.5527 10.4766C 11.9082 10.9378 12.3822 11.1685 12.9746 11.1685C 13.5713 11.1685 14.0452 10.9357 14.3965 10.4702C 14.7477 10.0005 14.9233 9.34456 14.9233 8.50244C 14.9233 7.74919 14.7435 7.13981 14.3838 6.67432C 14.0283 6.20459 13.5544 5.96973 12.9619 5.96973C 12.3822 5.96973 11.9146 6.20036 11.5591 6.66162C 11.2036 7.12288 11.0259 7.78304 11.0259 8.64209ZM 23.7021 7.88037C 22.6569 7.57992 21.8952 7.21175 21.417 6.77588C 20.943 6.33577 20.7061 5.79411 20.7061 5.15088C 20.7061 4.42301 20.9959 3.8221 21.5757 3.34814C 22.1597 2.86995 22.9172 2.63086 23.8481 2.63086C 24.4829 2.63086 25.0479 2.75358 25.543 2.99902C 26.0423 3.24447 26.4274 3.58301 26.6982 4.01465C 26.9733 4.44629 27.1108 4.91813 27.1108 5.43018L 25.8857 5.43018C 25.8857 4.87158 25.708 4.43359 25.3525 4.11621C 24.9971 3.7946 24.4956 3.63379 23.8481 3.63379C 23.2472 3.63379 22.7775 3.76709 22.439 4.03369C 22.1047 4.29606 21.9375 4.66211 21.9375 5.13184C 21.9375 5.50846 22.0962 5.82796 22.4136 6.09033C 22.7352 6.34847 23.279 6.58545 24.0449 6.80127C 24.8151 7.01709 25.416 7.25618 25.8477 7.51855C 26.2835 7.77669 26.6051 8.07926 26.8125 8.42627C 27.0241 8.77327 27.1299 9.18164 27.1299 9.65137C 27.1299 10.4004 26.8379 11.0013 26.2539 11.4541C 25.6699 11.9027 24.8892 12.127 23.9116 12.127C 23.2769 12.127 22.6844 12.0063 22.1343 11.7651C 21.5841 11.5197 21.1589 11.1854 20.8584 10.7622C 20.5622 10.339 20.4141 9.85872 20.4141 9.32129L 21.6392 9.32129C 21.6392 9.87988 21.8444 10.3221 22.2549 10.6479C 22.6696 10.9696 23.2218 11.1304 23.9116 11.1304C 24.5549 11.1304 25.0479 10.9992 25.3906 10.7368C 25.7334 10.4744 25.9048 10.1169 25.9048 9.66406C 25.9048 9.21126 25.7461 8.86214 25.4287 8.6167C 25.1113 8.36702 24.5358 8.12158 23.7021 7.88037ZM 32.7539 11.3208C 32.2969 11.8582 31.6261 12.127 30.7417 12.127C 30.0096 12.127 29.451 11.9154 29.0659 11.4922C 28.6851 11.0648 28.4925 10.4342 28.4883 9.60059L 28.4883 5.13184L 29.6626 5.13184L 29.6626 9.56885C 29.6626 10.6099 30.0858 11.1304 30.9321 11.1304C 31.8293 11.1304 32.4259 10.7961 32.7222 10.1274L 32.7222 5.13184L 33.8965 5.13184L 33.8965 12L 32.7793 12L 32.7539 11.3208ZM 39.0063 6.18555C 38.8286 6.15592 38.6361 6.14111 38.4287 6.14111C 37.6585 6.14111 37.1359 6.46908 36.8608 7.125L 36.8608 12L 35.6865 12L 35.6865 5.13184L 36.8291 5.13184L 36.8481 5.92529C 37.2332 5.31169 37.7791 5.00488 38.4858 5.00488C 38.7144 5.00488 38.8879 5.03451 39.0063 5.09375L 39.0063 6.18555ZM 42.4722 10.4067L 44.1733 5.13184L 45.373 5.13184L 42.9102 12L 42.0151 12L 39.5269 5.13184L 40.7266 5.13184L 42.4722 10.4067ZM 47.7788 12L 46.6045 12L 46.6045 5.13184L 47.7788 5.13184L 47.7788 12ZM 46.5093 3.31006C 46.5093 3.11963 46.5664 2.95882 46.6807 2.82764C 46.7992 2.69645 46.9727 2.63086 47.2012 2.63086C 47.4297 2.63086 47.6032 2.69645 47.7217 2.82764C 47.8402 2.95882 47.8994 3.11963 47.8994 3.31006C 47.8994 3.50049 47.8402 3.65918 47.7217 3.78613C 47.6032 3.91309 47.4297 3.97656 47.2012 3.97656C 46.9727 3.97656 46.7992 3.91309 46.6807 3.78613C 46.5664 3.65918 46.5093 3.50049 46.5093 3.31006ZM 51.9302 10.4067L 53.6313 5.13184L 54.8311 5.13184L 52.3682 12L 51.4731 12L 48.9849 5.13184L 50.1846 5.13184L 51.9302 10.4067ZM 60.0996 12C 60.0319 11.8646 59.9769 11.6234 59.9346 11.2764C 59.3887 11.8434 58.737 12.127 57.9795 12.127C 57.3024 12.127 56.7459 11.9365 56.3101 11.5557C 55.8784 11.1706 55.6626 10.6839 55.6626 10.0957C 55.6626 9.38053 55.9334 8.82617 56.4751 8.43262C 57.021 8.03483 57.7869 7.83594 58.7729 7.83594L 59.9155 7.83594L 59.9155 7.29639C 59.9155 6.8859 59.7928 6.56006 59.5474 6.31885C 59.3019 6.0734 58.9401 5.95068 58.4619 5.95068C 58.043 5.95068 57.6917 6.05648 57.4082 6.26807C 57.1247 6.47965 56.9829 6.73568 56.9829 7.03613L 55.8022 7.03613C 55.8022 6.69336 55.9229 6.36328 56.1641 6.0459C 56.4095 5.72428 56.7396 5.47038 57.1543 5.28418C 57.5732 5.09798 58.0324 5.00488 58.5317 5.00488C 59.3231 5.00488 59.943 5.20378 60.3916 5.60156C 60.8402 5.99512 61.0729 6.5389 61.0898 7.23291L 61.0898 10.394C 61.0898 11.0246 61.1702 11.526 61.3311 11.8984L 61.3311 12L 60.0996 12ZM 58.1509 11.105C 58.519 11.105 58.8682 11.0098 59.1982 10.8193C 59.5283 10.6289 59.7674 10.3813 59.9155 10.0767L 59.9155 8.66748L 58.9951 8.66748C 57.5563 8.66748 56.8369 9.08854 56.8369 9.93066C 56.8369 10.2988 56.9596 10.5866 57.2051 10.7939C 57.4505 11.0013 57.7658 11.105 58.1509 11.105ZM 64.2065 12L 63.0322 12L 63.0322 2.25L 64.2065 2.25L 64.2065 12ZM 69.5005 12L 69.5005 2.75781L 72.1094 2.75781C 72.9134 2.75781 73.6243 2.93555 74.2422 3.29102C 74.86 3.64648 75.3361 4.15218 75.6704 4.80811C 76.009 5.46403 76.1803 6.21729 76.1846 7.06787L 76.1846 7.6582C 76.1846 8.52995 76.0153 9.29378 75.6768 9.94971C 75.3424 10.6056 74.8621 11.1092 74.2358 11.4604C 73.6138 11.8117 72.888 11.9915 72.0586 12L 69.5005 12ZM 70.7192 3.76074L 70.7192 11.0034L 72.0015 11.0034C 72.9409 11.0034 73.6709 10.7114 74.1914 10.1274C 74.7161 9.54346 74.9785 8.71191 74.9785 7.63281L 74.9785 7.09326C 74.9785 6.04378 74.731 5.22917 74.2358 4.64941C 73.745 4.06543 73.0467 3.76921 72.1411 3.76074L 70.7192 3.76074ZM 82.0879 12C 82.0202 11.8646 81.9652 11.6234 81.9229 11.2764C 81.377 11.8434 80.7253 12.127 79.9678 12.127C 79.2907 12.127 78.7342 11.9365 78.2983 11.5557C 77.8667 11.1706 77.6509 10.6839 77.6509 10.0957C 77.6509 9.38053 77.9217 8.82617 78.4634 8.43262C 79.0093 8.03483 79.7752 7.83594 80.7612 7.83594L 81.9038 7.83594L 81.9038 7.29639C 81.9038 6.8859 81.7811 6.56006 81.5356 6.31885C 81.2902 6.0734 80.9284 5.95068 80.4502 5.95068C 80.0312 5.95068 79.68 6.05648 79.3965 6.26807C 79.113 6.47965 78.9712 6.73568 78.9712 7.03613L 77.7905 7.03613C 77.7905 6.69336 77.9111 6.36328 78.1523 6.0459C 78.3978 5.72428 78.7279 5.47038 79.1426 5.28418C 79.5615 5.09798 80.0207 5.00488 80.52 5.00488C 81.3114 5.00488 81.9313 5.20378 82.3799 5.60156C 82.8285 5.99512 83.0612 6.5389 83.0781 7.23291L 83.0781 10.394C 83.0781 11.0246 83.1585 11.526 83.3193 11.8984L 83.3193 12L 82.0879 12ZM 80.1392 11.105C 80.5073 11.105 80.8564 11.0098 81.1865 10.8193C 81.5166 10.6289 81.7557 10.3813 81.9038 10.0767L 81.9038 8.66748L 80.9834 8.66748C 79.5446 8.66748 78.8252 9.08854 78.8252 9.93066C 78.8252 10.2988 78.9479 10.5866 79.1934 10.7939C 79.4388 11.0013 79.7541 11.105 80.1392 11.105ZM 86.5122 3.46875L 86.5122 5.13184L 87.7944 5.13184L 87.7944 6.03955L 86.5122 6.03955L 86.5122 10.2988C 86.5122 10.5739 86.5693 10.7812 86.6836 10.9209C 86.7979 11.0563 86.9925 11.124 87.2676 11.124C 87.403 11.124 87.5892 11.0986 87.8262 11.0479L 87.8262 12C 87.5173 12.0846 87.2168 12.127 86.9248 12.127C 86.4001 12.127 86.0044 11.9683 85.7378 11.6509C 85.4712 11.3335 85.3379 10.8828 85.3379 10.2988L 85.3379 6.03955L 84.0874 6.03955L 84.0874 5.13184L 85.3379 5.13184L 85.3379 3.46875L 86.5122 3.46875ZM 93.4121 12C 93.3444 11.8646 93.2894 11.6234 93.2471 11.2764C 92.7012 11.8434 92.0495 12.127 91.292 12.127C 90.6149 12.127 90.0584 11.9365 89.6226 11.5557C 89.1909 11.1706 88.9751 10.6839 88.9751 10.0957C 88.9751 9.38053 89.2459 8.82617 89.7876 8.43262C 90.3335 8.03483 91.0994 7.83594 92.0854 7.83594L 93.228 7.83594L 93.228 7.29639C 93.228 6.8859 93.1053 6.56006 92.8599 6.31885C 92.6144 6.0734 92.2526 5.95068 91.7744 5.95068C 91.3555 5.95068 91.0042 6.05648 90.7207 6.26807C 90.4372 6.47965 90.2954 6.73568 90.2954 7.03613L 89.1147 7.03613C 89.1147 6.69336 89.2354 6.36328 89.4766 6.0459C 89.722 5.72428 90.0521 5.47038 90.4668 5.28418C 90.8857 5.09798 91.3449 5.00488 91.8442 5.00488C 92.6356 5.00488 93.2555 5.20378 93.7041 5.60156C 94.1527 5.99512 94.3854 6.5389 94.4023 7.23291L 94.4023 10.394C 94.4023 11.0246 94.4827 11.526 94.6436 11.8984L 94.6436 12L 93.4121 12ZM 91.4634 11.105C 91.8315 11.105 92.1807 11.0098 92.5107 10.8193C 92.8408 10.6289 93.0799 10.3813 93.228 10.0767L 93.228 8.66748L 92.3076 8.66748C 90.8688 8.66748 90.1494 9.08854 90.1494 9.93066C 90.1494 10.2988 90.2721 10.5866 90.5176 10.7939C 90.763 11.0013 91.0783 11.105 91.4634 11.105Z"/>
<path id="path15_stroke" d="M 0 0L 396 0L 396 -1L 0 -1L 0 0Z"/>
<path id="path16_stroke" d="M 0 0L 360 0L 360 -1L 0 -1L 0 0Z"/>
<path id="path17_stroke" d="M 0 0L 359 0L 359 -1L 0 -1L 0 0Z"/>
</defs>
</svg>
