<svg id="Layer_1" enable-background="new 0 0 256 256" height="512" viewBox="0 0 256 256" width="512" xmlns="http://www.w3.org/2000/svg"><path d="m47.918 26.246c-.974 11.564-13.024 13.389-13.024 13.389 10.347.487 12.925 14.059 12.925 14.059.221-9.676 13.321-14.202 13.321-14.202-9.814-.587-13.222-13.246-13.222-13.246z" fill="#d7e057"/><path d="m61.229 37.995c-8.604-.514-11.832-12.024-11.864-12.14-.191-.703-.86-1.167-1.584-1.102-.725.066-1.298.642-1.359 1.367-.86 10.215-11.313 11.963-11.754 12.032-.763.115-1.313.79-1.273 1.561.04.77.657 1.384 1.427 1.421 9.028.425 11.499 12.719 11.523 12.843.137.711.759 1.217 1.472 1.217.042 0 .084-.001.126-.005.764-.064 1.357-.693 1.375-1.459.195-8.51 12.192-12.778 12.313-12.82.675-.235 1.092-.915.994-1.623s-.682-1.249-1.396-1.292zm-13.565 10.346c-1.357-3.13-3.709-6.907-7.587-8.876 2.931-1.405 6.409-3.913 8.202-8.273 1.551 3.071 4.199 6.88 8.334 8.722-3.008 1.64-6.923 4.406-8.949 8.427z" fill="#3a312a"/><path d="m26.22 43.226c-.689 8.179-9.213 9.471-9.213 9.471 7.318.344 9.142 9.944 9.142 9.944.156-6.844 9.422-10.045 9.422-10.045-6.941-.416-9.351-9.37-9.351-9.37z" fill="#d7e057"/><path d="m35.661 51.098c-5.766-.345-7.972-8.185-7.993-8.264-.19-.702-.854-1.167-1.582-1.102-.725.065-1.299.642-1.36 1.368-.579 6.871-7.647 8.066-7.943 8.113-.763.115-1.313.79-1.273 1.56s.657 1.384 1.427 1.421c6.036.284 7.724 8.644 7.74 8.726.135.712.759 1.22 1.473 1.22.041 0 .083-.001.125-.005.765-.063 1.358-.694 1.376-1.461.13-5.709 8.332-8.634 8.412-8.662.677-.234 1.094-.913.996-1.622-.099-.707-.684-1.249-1.398-1.292zm-9.584 6.796c-.924-1.886-2.34-3.947-4.447-5.28 1.856-1.041 3.697-2.63 4.871-4.916 1.057 1.873 2.654 3.955 4.941 5.224-1.851 1.099-3.989 2.739-5.365 4.972z" fill="#3a312a"/><path d="m26.22 16.569c-.689 8.179-9.213 9.471-9.213 9.471 7.318.344 9.142 9.944 9.142 9.944.156-6.845 9.422-10.045 9.422-10.045-6.941-.416-9.351-9.37-9.351-9.37z" fill="#d7e057"/><path d="m35.661 24.441c-5.766-.345-7.972-8.186-7.994-8.265-.19-.702-.854-1.167-1.582-1.102-.725.065-1.299.642-1.36 1.368-.579 6.871-7.647 8.067-7.943 8.114-.763.115-1.313.79-1.273 1.561.04.77.657 1.384 1.428 1.421 6.035.284 7.724 8.644 7.739 8.726.135.713.759 1.22 1.473 1.22.041 0 .083-.001.125-.005.765-.063 1.358-.694 1.376-1.461.13-5.71 8.331-8.634 8.412-8.662.676-.234 1.094-.913.996-1.622s-.683-1.25-1.397-1.293zm-9.584 6.795c-.924-1.885-2.34-3.947-4.447-5.28 1.856-1.041 3.697-2.63 4.871-4.917 1.057 1.874 2.654 3.954 4.941 5.224-1.851 1.101-3.989 2.74-5.365 4.973z" fill="#3a312a"/><path d="m16.507 137.047h74.5v34h-74.5z" fill="#fce8cb"/><path d="m91.007 135.547h-74.5c-.829 0-1.5.671-1.5 1.5v10.376c0 .829.671 1.5 1.5 1.5s1.5-.671 1.5-1.5v-8.876h71.5v31h-71.5v-8.875c0-.829-.671-1.5-1.5-1.5s-1.5.671-1.5 1.5v10.375c0 .829.671 1.5 1.5 1.5h74.5c.829 0 1.5-.671 1.5-1.5v-34c0-.828-.672-1.5-1.5-1.5z" fill="#3a312a"/><path d="m16.507 103.047h74.5v34h-74.5z" fill="#fce8cb"/><path d="m91.007 101.547h-74.5c-.829 0-1.5.671-1.5 1.5v34c0 .829.671 1.5 1.5 1.5h74.5c.829 0 1.5-.671 1.5-1.5v-34c0-.828-.672-1.5-1.5-1.5zm-1.5 34h-71.5v-31h71.5z" fill="#3a312a"/><path d="m16.507 171.047h74.5v34h-74.5z" fill="#fce8cb"/><path d="m91.007 169.547h-74.5c-.829 0-1.5.671-1.5 1.5v34c0 .829.671 1.5 1.5 1.5h74.5c.829 0 1.5-.671 1.5-1.5v-34c0-.828-.672-1.5-1.5-1.5zm-1.5 34h-71.5v-31h71.5z" fill="#3a312a"/><path d="m91.007 171.047h74v34h-74z" fill="#fce8cb"/><path d="m165.007 169.547h-74c-.829 0-1.5.671-1.5 1.5v34c0 .829.671 1.5 1.5 1.5h74c.829 0 1.5-.671 1.5-1.5v-34c0-.828-.672-1.5-1.5-1.5zm-1.5 34h-71v-31h71z" fill="#3a312a"/><path d="m91.007 103.047h74v34h-74z" fill="#fce8cb"/><path d="m165.007 101.547h-74c-.829 0-1.5.671-1.5 1.5v34c0 .829.671 1.5 1.5 1.5h74c.829 0 1.5-.671 1.5-1.5v-34c0-.828-.672-1.5-1.5-1.5zm-1.5 34h-71v-31h71z" fill="#3a312a"/><path d="m91.007 137.047h74v34h-74z" fill="#fce8cb"/><path d="m165.007 135.547h-74c-.829 0-1.5.671-1.5 1.5v34c0 .829.671 1.5 1.5 1.5h74c.829 0 1.5-.671 1.5-1.5v-34c0-.828-.672-1.5-1.5-1.5zm-1.5 34h-71v-31h71z" fill="#3a312a"/><path d="m165.007 137.047h74.5v34h-74.5z" fill="#fce8cb"/><path d="m239.507 135.547h-74.5c-.829 0-1.5.671-1.5 1.5v34c0 .829.671 1.5 1.5 1.5h74.5c.829 0 1.5-.671 1.5-1.5v-34c0-.828-.672-1.5-1.5-1.5zm-1.5 34h-71.5v-31h71.5z" fill="#3a312a"/><path d="m165.007 171.047h74.5v34h-74.5z" fill="#fce8cb"/><path d="m239.507 169.547h-74.5c-.829 0-1.5.671-1.5 1.5v34c0 .829.671 1.5 1.5 1.5h74.5c.829 0 1.5-.671 1.5-1.5v-34c0-.828-.672-1.5-1.5-1.5zm-1.5 34h-71.5v-31h71.5z" fill="#3a312a"/><path d="m165.007 205.047v34.22h63.498c6.076 0 11.002-4.926 11.002-11.002v-23.218z" fill="#fce8cb"/><path d="m239.507 203.547h-74.5c-.829 0-1.5.671-1.5 1.5v34.22c0 .829.671 1.5 1.5 1.5h63.499c6.893 0 12.501-5.608 12.501-12.502v-23.218c0-.828-.672-1.5-1.5-1.5zm-1.5 24.719c0 5.239-4.262 9.502-9.501 9.502h-61.999v-31.22h71.5z" fill="#3a312a"/><path d="m165.007 103.047h74.5v34h-74.5z" fill="#fce8cb"/><path d="m239.507 101.547h-74.5c-.829 0-1.5.671-1.5 1.5v34c0 .829.671 1.5 1.5 1.5h74.5c.829 0 1.5-.671 1.5-1.5v-34c0-.828-.672-1.5-1.5-1.5zm-1.5 34h-71.5v-31h71.5z" fill="#3a312a"/><path d="m16.507 205.047v23.218c0 6.076 4.926 11.002 11.002 11.002h63.498v-34.22z" fill="#fce8cb"/><path d="m91.007 203.547h-74.5c-.829 0-1.5.671-1.5 1.5v23.218c0 6.894 5.608 12.502 12.502 12.502h63.498c.829 0 1.5-.671 1.5-1.5v-34.22c0-.828-.672-1.5-1.5-1.5zm-1.5 34.221h-61.998c-5.239 0-9.502-4.263-9.502-9.502v-21.718h71.5z" fill="#3a312a"/><path d="m91.007 205.047h74v34.22h-74z" fill="#fce8cb"/><path d="m165.007 203.547h-74c-.829 0-1.5.671-1.5 1.5v34.22c0 .829.671 1.5 1.5 1.5h74c.829 0 1.5-.671 1.5-1.5v-34.22c0-.828-.672-1.5-1.5-1.5zm-1.5 34.221h-71v-31.22h71z" fill="#3a312a"/><path d="m27.509 68.827c-.538 0-1.063.052-1.58.126-4.805.694-8.602 4.491-9.296 9.296-.075.517-.126 1.042-.126 1.58v23.218h74.5v-34.22z" fill="#f16c7a"/><path d="m91.007 67.328h-63.498c-.556 0-1.126.045-1.794.142-5.436.785-9.781 5.13-10.566 10.566-.097.67-.142 1.24-.142 1.794v23.218c0 .829.671 1.5 1.5 1.5h74.5c.829 0 1.5-.671 1.5-1.5v-34.22c0-.829-.672-1.5-1.5-1.5zm-1.5 34.219h-71.5v-21.718c0-.407.035-.841.111-1.365.597-4.129 3.897-7.429 8.026-8.026.522-.075.956-.11 1.365-.11h61.998z" fill="#3a312a"/><path d="m239.381 78.25c-.694-4.805-4.491-8.602-9.296-9.296-.517-.075-1.042-.126-1.58-.126h-63.498v34.22h74.5v-23.219c0-.538-.051-1.062-.126-1.579z" fill="#8ac6dd"/><path d="m240.865 78.035c-.785-5.436-5.13-9.781-10.566-10.566-.668-.097-1.238-.142-1.794-.142h-63.499c-.829 0-1.5.671-1.5 1.5v34.22c0 .829.671 1.5 1.5 1.5h74.5c.829 0 1.5-.671 1.5-1.5v-23.218c.001-.556-.044-1.126-.141-1.794zm-2.858 23.512h-71.5v-31.22h61.999c.409 0 .843.035 1.365.11 4.129.597 7.429 3.897 8.026 8.026.075.522.11.956.11 1.365z" fill="#3a312a"/><path d="m91.007 68.827h74v34.22h-74z" fill="#d7e057"/><path d="m165.007 67.328h-31.638c-.829 0-1.5.671-1.5 1.5s.671 1.5 1.5 1.5h30.138v31.22h-71v-31.22h28.137c.829 0 1.5-.671 1.5-1.5s-.671-1.5-1.5-1.5h-29.637c-.829 0-1.5.671-1.5 1.5v34.22c0 .829.671 1.5 1.5 1.5h74c.829 0 1.5-.671 1.5-1.5v-34.22c0-.829-.672-1.5-1.5-1.5z" fill="#3a312a"/><g fill="#decaad"><path d="m223.007 138.547h15v31h-15z"/><path d="m223.007 206.547v21.72c0 5.24-4.26 9.5-9.5 9.5h15c5.24 0 9.5-4.26 9.5-9.5v-21.72z"/><path d="m223.007 104.547h15v31h-15z"/><path d="m223.007 172.547h15v31h-15z"/></g><path d="m235.227 73.107c-1.72-1.72-4.1-2.78-6.72-2.78h-15c2.62 0 5 1.06 6.72 2.78s2.78 4.1 2.78 6.72v21.72h15v-21.72c0-2.62-1.06-5-2.78-6.72z" fill="#6ca8bf"/></svg>