<svg id="Layer_1" enable-background="new 0 0 256 256" height="512" viewBox="0 0 256 256" width="512" xmlns="http://www.w3.org/2000/svg"><circle cx="164.742" cy="188.492" fill="#f16c7a" r="8"/><path d="m164.742 178.992c-5.238 0-9.5 4.262-9.5 9.5s4.262 9.5 9.5 9.5 9.5-4.262 9.5-9.5-4.262-9.5-9.5-9.5zm0 16c-3.584 0-6.5-2.916-6.5-6.5s2.916-6.5 6.5-6.5 6.5 2.916 6.5 6.5-2.916 6.5-6.5 6.5z" fill="#3a312a"/><circle cx="196.742" cy="168.492" fill="#f16c7a" r="8"/><path d="m196.742 158.992c-5.238 0-9.5 4.262-9.5 9.5s4.262 9.5 9.5 9.5 9.5-4.262 9.5-9.5-4.262-9.5-9.5-9.5zm0 16c-3.584 0-6.5-2.916-6.5-6.5s2.916-6.5 6.5-6.5 6.5 2.916 6.5 6.5-2.916 6.5-6.5 6.5z" fill="#3a312a"/><ellipse cx="117.742" cy="188.492" fill="#f16c7a" rx="8" ry="8" transform="matrix(.987 -.16 .16 .987 -28.673 21.294)"/><path d="m117.742 178.992c-5.238 0-9.5 4.262-9.5 9.5s4.262 9.5 9.5 9.5 9.5-4.262 9.5-9.5-4.261-9.5-9.5-9.5zm0 16c-3.584 0-6.5-2.916-6.5-6.5s2.916-6.5 6.5-6.5 6.5 2.916 6.5 6.5-2.916 6.5-6.5 6.5z" fill="#3a312a"/><circle cx="152.742" cy="149.492" fill="#f16c7a" r="8"/><path d="m152.742 139.992c-5.238 0-9.5 4.262-9.5 9.5s4.262 9.5 9.5 9.5 9.5-4.262 9.5-9.5-4.262-9.5-9.5-9.5zm0 16c-3.584 0-6.5-2.916-6.5-6.5s2.916-6.5 6.5-6.5 6.5 2.916 6.5 6.5-2.916 6.5-6.5 6.5z" fill="#3a312a"/><circle cx="196.742" cy="133.492" fill="#f16c7a" r="8"/><path d="m196.742 123.992c-5.238 0-9.5 4.262-9.5 9.5s4.262 9.5 9.5 9.5 9.5-4.262 9.5-9.5-4.262-9.5-9.5-9.5zm0 16c-3.584 0-6.5-2.916-6.5-6.5s2.916-6.5 6.5-6.5 6.5 2.916 6.5 6.5-2.916 6.5-6.5 6.5z" fill="#3a312a"/><circle cx="97.742" cy="120.492" fill="#f16c7a" r="8"/><path d="m97.742 110.992c-5.238 0-9.5 4.262-9.5 9.5s4.262 9.5 9.5 9.5 9.5-4.262 9.5-9.5-4.262-9.5-9.5-9.5zm0 16c-3.584 0-6.5-2.916-6.5-6.5s2.916-6.5 6.5-6.5 6.5 2.916 6.5 6.5-2.916 6.5-6.5 6.5z" fill="#3a312a"/><ellipse cx="129.742" cy="78.492" fill="#f16c7a" rx="8" ry="8" transform="matrix(.122 -.993 .993 .122 35.986 197.672)"/><path d="m129.742 68.992c-5.238 0-9.5 4.262-9.5 9.5s4.262 9.5 9.5 9.5 9.5-4.262 9.5-9.5-4.261-9.5-9.5-9.5zm0 16c-3.584 0-6.5-2.916-6.5-6.5s2.916-6.5 6.5-6.5 6.5 2.916 6.5 6.5-2.916 6.5-6.5 6.5z" fill="#3a312a"/><circle cx="58.742" cy="110.492" fill="#f16c7a" r="8"/><path d="m58.742 100.992c-5.238 0-9.5 4.262-9.5 9.5s4.262 9.5 9.5 9.5 9.5-4.262 9.5-9.5-4.262-9.5-9.5-9.5zm0 16c-3.584 0-6.5-2.916-6.5-6.5s2.916-6.5 6.5-6.5 6.5 2.916 6.5 6.5-2.916 6.5-6.5 6.5z" fill="#3a312a"/><circle cx="89.742" cy="83.492" fill="#f16c7a" r="8"/><path d="m89.742 73.992c-5.238 0-9.5 4.262-9.5 9.5s4.262 9.5 9.5 9.5 9.5-4.262 9.5-9.5-4.262-9.5-9.5-9.5zm0 16c-3.584 0-6.5-2.916-6.5-6.5s2.916-6.5 6.5-6.5 6.5 2.916 6.5 6.5-2.916 6.5-6.5 6.5z" fill="#3a312a"/><ellipse cx="129.742" cy="43.492" fill="#f16c7a" rx="8" ry="8" transform="matrix(.383 -.924 .924 .383 39.911 146.714)"/><path d="m129.742 33.992c-5.238 0-9.5 4.262-9.5 9.5s4.262 9.5 9.5 9.5 9.5-4.262 9.5-9.5-4.261-9.5-9.5-9.5zm0 16c-3.584 0-6.5-2.916-6.5-6.5s2.916-6.5 6.5-6.5 6.5 2.916 6.5 6.5-2.916 6.5-6.5 6.5z" fill="#3a312a"/><path d="m75.803 179.432c-.586-.586-1.535-.586-2.121 0l-28.75 28.75c-.586.585-.586 1.536 0 2.121.293.293.677.439 1.061.439s.768-.146 1.06-.439l28.75-28.75c.586-.586.586-1.536 0-2.121z" fill="#3a312a"/><path d="m189.803 65.432c-.586-.586-1.535-.586-2.121 0l-105.5 105.5c-.586.585-.586 1.536 0 2.121.293.293.677.439 1.061.439s.768-.146 1.06-.439l105.5-105.5c.586-.586.586-1.536 0-2.121z" fill="#3a312a"/><path d="m226.711 26.212c-.974 11.564-13.024 13.389-13.024 13.389 10.347.487 12.925 14.059 12.925 14.059.221-9.677 13.321-14.202 13.321-14.202-9.813-.587-13.222-13.246-13.222-13.246z" fill="#d7e057"/><path d="m240.023 37.961c-8.604-.515-11.832-12.024-11.863-12.141-.19-.702-.849-1.163-1.584-1.102-.725.066-1.298.642-1.359 1.367-.86 10.215-11.313 11.964-11.755 12.033-.763.115-1.313.79-1.273 1.56s.657 1.384 1.428 1.421c9.028.425 11.499 12.718 11.522 12.842.138.711.76 1.217 1.473 1.217.042 0 .084-.001.126-.005.765-.064 1.357-.693 1.375-1.46.193-8.509 12.191-12.777 12.313-12.819.676-.235 1.092-.914.994-1.623-.099-.706-.683-1.247-1.397-1.29zm-13.566 10.346c-1.356-3.13-3.709-6.907-7.587-8.876 2.931-1.404 6.409-3.913 8.202-8.273 1.551 3.071 4.199 6.88 8.334 8.723-3.008 1.638-6.923 4.404-8.949 8.426z" fill="#3a312a"/><path d="m205.013 43.192c-.689 8.179-9.213 9.471-9.213 9.471 7.318.344 9.142 9.944 9.142 9.944.156-6.844 9.422-10.045 9.422-10.045-6.94-.416-9.351-9.37-9.351-9.37z" fill="#d7e057"/><path d="m214.454 51.065c-5.766-.345-7.972-8.186-7.994-8.265-.189-.702-.864-1.165-1.581-1.102-.726.065-1.3.643-1.361 1.368-.578 6.871-7.646 8.067-7.941 8.114-.763.115-1.313.79-1.273 1.56s.657 1.384 1.428 1.421c6.034.284 7.723 8.644 7.738 8.726.136.712.759 1.22 1.473 1.22.041 0 .083-.001.125-.005.765-.064 1.358-.694 1.376-1.461.13-5.709 8.331-8.633 8.412-8.661.676-.234 1.093-.913.996-1.622-.099-.709-.684-1.251-1.398-1.293zm-9.585 6.794c-.924-1.886-2.34-3.947-4.446-5.28 1.855-1.041 3.697-2.629 4.87-4.916 1.058 1.874 2.654 3.954 4.941 5.223-1.849 1.102-3.988 2.741-5.365 4.973z" fill="#3a312a"/><path d="m205.013 16.535c-.689 8.179-9.213 9.471-9.213 9.471 7.318.344 9.142 9.944 9.142 9.944.156-6.845 9.422-10.045 9.422-10.045-6.94-.416-9.351-9.37-9.351-9.37z" fill="#d7e057"/><g fill="#3a312a"><path d="m214.454 24.407c-5.766-.345-7.972-8.185-7.994-8.265-.189-.702-.864-1.164-1.581-1.102-.726.065-1.3.643-1.361 1.368-.578 6.871-7.646 8.067-7.941 8.114-.763.115-1.313.79-1.273 1.561.04.77.657 1.384 1.428 1.421 6.034.284 7.723 8.644 7.738 8.726.136.712.759 1.22 1.473 1.22.041 0 .083-.002.125-.005.765-.063 1.358-.694 1.376-1.461.13-5.709 8.331-8.634 8.412-8.662.676-.234 1.093-.913.996-1.622-.099-.709-.684-1.25-1.398-1.293zm-9.585 6.795c-.924-1.885-2.34-3.947-4.446-5.279 1.855-1.041 3.697-2.63 4.87-4.917 1.058 1.874 2.654 3.954 4.941 5.223-1.849 1.101-3.989 2.74-5.365 4.973z"/><path d="m238.617 226.617h-209.5v-210.5c0-.829-.672-1.5-1.5-1.5s-1.5.671-1.5 1.5v212c0 .829.672 1.5 1.5 1.5h211c.828 0 1.5-.671 1.5-1.5s-.672-1.5-1.5-1.5z"/><path d="m27.617 226.617c-.828 0-1.5.671-1.5 1.5v11.75c0 .829.672 1.5 1.5 1.5s1.5-.671 1.5-1.5v-11.75c0-.828-.672-1.5-1.5-1.5z"/><path d="m61.087 226.617c-.828 0-1.5.671-1.5 1.5v11.75c0 .829.672 1.5 1.5 1.5s1.5-.671 1.5-1.5v-11.75c0-.828-.672-1.5-1.5-1.5z"/><path d="m94.547 226.617c-.828 0-1.5.671-1.5 1.5v11.75c0 .829.672 1.5 1.5 1.5s1.5-.671 1.5-1.5v-11.75c0-.828-.672-1.5-1.5-1.5z"/><path d="m128.017 226.617c-.828 0-1.5.671-1.5 1.5v11.75c0 .829.672 1.5 1.5 1.5s1.5-.671 1.5-1.5v-11.75c0-.828-.672-1.5-1.5-1.5z"/><path d="m161.478 226.617c-.828 0-1.5.671-1.5 1.5v11.75c0 .829.672 1.5 1.5 1.5s1.5-.671 1.5-1.5v-11.75c0-.828-.672-1.5-1.5-1.5z"/><path d="m194.947 226.617c-.828 0-1.5.671-1.5 1.5v11.75c0 .829.672 1.5 1.5 1.5s1.5-.671 1.5-1.5v-11.75c0-.828-.672-1.5-1.5-1.5z"/><path d="m228.407 226.617c-.828 0-1.5.671-1.5 1.5v11.75c0 .829.672 1.5 1.5 1.5s1.5-.671 1.5-1.5v-11.75c0-.828-.672-1.5-1.5-1.5z"/><path d="m27.617 226.617h-11.75c-.828 0-1.5.671-1.5 1.5s.672 1.5 1.5 1.5h11.75c.828 0 1.5-.671 1.5-1.5s-.672-1.5-1.5-1.5z"/><path d="m27.617 193.147h-11.75c-.828 0-1.5.671-1.5 1.5s.672 1.5 1.5 1.5h11.75c.828 0 1.5-.671 1.5-1.5s-.672-1.5-1.5-1.5z"/><path d="m27.617 159.687h-11.75c-.828 0-1.5.671-1.5 1.5s.672 1.5 1.5 1.5h11.75c.828 0 1.5-.671 1.5-1.5s-.672-1.5-1.5-1.5z"/><path d="m27.617 126.217h-11.75c-.828 0-1.5.671-1.5 1.5s.672 1.5 1.5 1.5h11.75c.828 0 1.5-.671 1.5-1.5s-.672-1.5-1.5-1.5z"/><path d="m27.617 92.757h-11.75c-.828 0-1.5.671-1.5 1.5s.672 1.5 1.5 1.5h11.75c.828 0 1.5-.671 1.5-1.5s-.672-1.5-1.5-1.5z"/><path d="m27.617 59.287h-11.75c-.828 0-1.5.671-1.5 1.5s.672 1.5 1.5 1.5h11.75c.828 0 1.5-.671 1.5-1.5s-.672-1.5-1.5-1.5z"/><path d="m27.617 25.827h-11.75c-.828 0-1.5.671-1.5 1.5s.672 1.5 1.5 1.5h11.75c.828 0 1.5-.671 1.5-1.5s-.672-1.5-1.5-1.5z"/></g></svg>