<svg id="Layer_1" enable-background="new 0 0 256 256" height="512" viewBox="0 0 256 256" width="512" xmlns="http://www.w3.org/2000/svg"><path d="m136.595 27.978c-15.592 11.285-23.943 28.855-24.084 46.728l58.232.426 29.037-50.462c-19.259-11.068-44.023-10.562-63.185 3.308z" fill="#8ac5dc"/><path d="m201.228 24.28c-.103-.384-.355-.711-.701-.91-20.357-11.699-45.799-10.369-64.813 3.392-15.319 11.088-24.555 29.007-24.704 47.932-.003.398.152.781.431 1.064s.66.444 1.058.447l58.232.426h.011c.536 0 1.032-.287 1.3-.752l29.037-50.461c.2-.344.253-.754.149-1.138zm-31.349 49.345-55.836-.409c.604-17.417 9.288-33.787 23.432-44.024 17.652-12.777 41.138-14.272 60.247-3.953z" fill="#3a312a"/><path d="m112.511 74.706c-.107 11.996 3.483 24.117 11.055 34.579 9.795 13.534 24.325 21.607 39.679 23.597l7.498-57.749z" fill="#d6df58"/><path d="m171.874 74.146c-.283-.324-.69-.511-1.12-.514l-58.232-.426h-.011c-.823 0-1.493.663-1.5 1.487-.113 12.799 3.808 25.064 11.34 35.471 9.75 13.471 24.204 22.067 40.702 24.205.065.008.13.012.194.012.742 0 1.388-.551 1.485-1.307l7.498-57.749c.056-.426-.074-.855-.356-1.179zm-9.921 57.036c-15.05-2.341-28.206-10.389-37.172-22.777-6.86-9.478-10.567-20.577-10.765-32.188l55.021.403z" fill="#3a312a"/><path d="m220.479 44.897-49.736 30.235-7.498 57.749c.288.042.575.073.864.109 13.941 1.603 28.498-1.806 40.76-10.681 24.778-17.934 31.263-51.738 15.61-77.412z" fill="#ef6d7a"/><path d="m221.76 44.116c-.431-.707-1.354-.931-2.06-.501l-49.736 30.235c-.389.236-.649.637-.708 1.088l-7.498 57.749c-.105.812.459 1.558 1.269 1.677.222.033.443.059.665.085l.247.03c2.285.263 4.568.393 6.845.393 12.504 0 24.713-3.928 34.967-11.349 25.063-18.14 32.096-53.02 16.009-79.407zm-17.77 76.977c-11.338 8.206-25.188 11.916-39.063 10.477l7.21-55.531 47.824-29.072c14.28 24.896 7.429 57.191-15.971 74.126z" fill="#3a312a"/><path d="m217.58 40.749c-4.886-6.788-10.997-12.164-17.828-16.05l-29.217 50.282 49.573-30.398c-.783-1.302-1.626-2.58-2.528-3.834z" fill="#87796f"/><path d="m221.394 43.811c-.799-1.329-1.672-2.654-2.596-3.938-4.905-6.814-11.063-12.358-18.304-16.478-.715-.406-1.625-.162-2.039.55l-29.217 50.282c-.346.594-.243 1.347.249 1.827.288.281.666.427 1.048.427.271 0 .542-.073.784-.221l49.572-30.398c.702-.43.926-1.346.503-2.051zm-46.576 26.784 25.474-43.84c6.31 3.818 11.712 8.815 16.07 14.871.583.809 1.144 1.634 1.676 2.466z" fill="#3a312a"/><path d="m48.194 202.248c-.974 11.564-13.024 13.39-13.024 13.39 10.347.487 12.925 14.059 12.925 14.059.221-9.677 13.321-14.202 13.321-14.202-9.813-.588-13.222-13.247-13.222-13.247z" fill="#d6df58"/><path d="m61.506 213.997c-8.605-.515-11.833-12.024-11.864-12.141-.191-.703-.864-1.169-1.583-1.102-.725.066-1.298.642-1.359 1.367-.86 10.215-11.314 11.964-11.754 12.033-.763.115-1.313.79-1.273 1.561.04.77.657 1.384 1.428 1.421 9.028.425 11.498 12.718 11.522 12.842.137.711.759 1.217 1.472 1.217.042 0 .084-.001.126-.005.764-.064 1.357-.693 1.374-1.459.195-8.508 12.192-12.777 12.313-12.819.675-.235 1.092-.914.994-1.623-.098-.708-.682-1.249-1.396-1.292zm-13.566 10.346c-1.356-3.131-3.709-6.908-7.587-8.877 2.931-1.405 6.409-3.913 8.202-8.273 1.551 3.071 4.199 6.88 8.334 8.723-3.007 1.64-6.922 4.406-8.949 8.427z" fill="#3a312a"/><path d="m26.496 219.229c-.689 8.179-9.212 9.47-9.212 9.47 7.318.344 9.142 9.944 9.142 9.944.156-6.844 9.422-10.045 9.422-10.045-6.941-.415-9.352-9.369-9.352-9.369z" fill="#d6df58"/><path d="m35.938 227.101c-5.766-.345-7.972-8.186-7.994-8.265-.19-.702-.853-1.167-1.582-1.102-.726.065-1.299.642-1.36 1.368-.579 6.871-7.646 8.067-7.942 8.114-.763.115-1.313.79-1.273 1.561.04.77.657 1.384 1.428 1.421 6.035.284 7.723 8.644 7.739 8.726.135.713.759 1.22 1.472 1.22.042 0 .084-.001.125-.005.765-.063 1.358-.694 1.376-1.461.13-5.709 8.331-8.634 8.412-8.662.676-.234 1.094-.913.996-1.622-.099-.709-.683-1.25-1.397-1.293zm-9.586 6.795c-.924-1.886-2.34-3.947-4.447-5.28 1.855-1.041 3.697-2.63 4.871-4.916 1.057 1.874 2.654 3.954 4.941 5.223-1.849 1.1-3.988 2.741-5.365 4.973z" fill="#3a312a"/><path d="m26.496 192.571c-.689 8.179-9.212 9.471-9.212 9.471 7.318.344 9.142 9.944 9.142 9.944.156-6.844 9.422-10.045 9.422-10.045-6.941-.416-9.352-9.37-9.352-9.37z" fill="#d6df58"/><path d="m35.938 200.443c-5.766-.345-7.972-8.186-7.994-8.265-.19-.702-.853-1.168-1.582-1.102-.726.065-1.299.642-1.36 1.368-.579 6.871-7.646 8.067-7.942 8.114-.763.115-1.313.79-1.273 1.561.04.77.657 1.384 1.428 1.421 6.035.284 7.723 8.644 7.739 8.726.135.713.759 1.22 1.472 1.22.042 0 .084-.001.125-.005.765-.063 1.358-.694 1.376-1.461.13-5.709 8.331-8.634 8.412-8.662.676-.234 1.094-.913.996-1.622-.099-.708-.683-1.25-1.397-1.293zm-9.586 6.795c-.924-1.886-2.34-3.947-4.447-5.28 1.855-1.041 3.697-2.63 4.871-4.916 1.057 1.874 2.654 3.954 4.941 5.223-1.849 1.101-3.988 2.741-5.365 4.973z" fill="#3a312a"/><path d="m102.715 15h-62.474c-8.228 0-14.888 6.66-14.888 14.888v113.213c0 8.229 6.66 14.888 14.888 14.888h84.806c8.228 0 14.888-6.66 14.888-14.888v-90.881z" fill="#f7e3c7"/><g fill="#3a312a"><path d="m140.996 51.16-37.221-37.22c-.281-.281-.663-.439-1.061-.439h-62.473c-9.036 0-16.388 7.352-16.388 16.388v38.819c0 .829.671 1.5 1.5 1.5s1.5-.671 1.5-1.5v-38.82c0-7.382 6.006-13.388 13.388-13.388h61.853l36.342 36.341v90.26c0 7.382-6.006 13.388-13.389 13.388h-84.806c-7.382 0-13.388-6.006-13.388-13.388v-61.141c0-.829-.671-1.5-1.5-1.5s-1.5.671-1.5 1.5v61.141c0 9.037 7.352 16.388 16.388 16.388h84.806c9.037 0 16.389-7.352 16.389-16.388v-90.881c-.001-.398-.159-.779-.44-1.06z"/><path d="m118.879 60.32h-72.47c-.829 0-1.5.671-1.5 1.5s.671 1.5 1.5 1.5h72.471c.829 0 1.5-.671 1.5-1.5s-.672-1.5-1.501-1.5z"/><path d="m118.879 78.087h-72.47c-.829 0-1.5.671-1.5 1.5s.671 1.5 1.5 1.5h72.471c.829 0 1.5-.671 1.5-1.5s-.672-1.5-1.501-1.5z"/><path d="m118.879 95.854h-72.47c-.829 0-1.5.671-1.5 1.5s.671 1.5 1.5 1.5h72.471c.829 0 1.5-.671 1.5-1.5s-.672-1.5-1.501-1.5z"/><path d="m118.879 113.621h-72.47c-.829 0-1.5.671-1.5 1.5s.671 1.5 1.5 1.5h72.471c.829 0 1.5-.671 1.5-1.5s-.672-1.5-1.501-1.5z"/><path d="m118.879 131.388h-72.47c-.829 0-1.5.671-1.5 1.5s.671 1.5 1.5 1.5h72.471c.829 0 1.5-.671 1.5-1.5s-.672-1.5-1.501-1.5z"/></g><path d="m102.792 15.077v24.128c0 7.239 5.869 13.108 13.108 13.108h24.036v-.093z" fill="#f7e3c7"/><path d="m140.996 51.16-37.144-37.144c-.428-.428-1.073-.558-1.635-.325-.561.232-.926.779-.926 1.386v24.128c0 8.055 6.553 14.608 14.607 14.608h24.036c.828 0 1.5-.671 1.5-1.5v-.093c.001-.398-.157-.779-.438-1.06zm-25.097-.347c-6.4 0-11.607-5.208-11.607-11.608v-20.507l32.114 32.115z" fill="#3a312a"/><path d="m87.429 34.916h-35.909c-2.823 0-5.112 2.289-5.112 5.112v1.309c0 2.823 2.289 5.112 5.112 5.112h35.909c2.823 0 5.112-2.289 5.112-5.112v-1.309c0-2.823-2.289-5.112-5.112-5.112z" fill="#8ac6dd"/><path d="m87.429 33.416h-35.908c-3.646 0-6.612 2.966-6.612 6.612v1.31c0 3.646 2.966 6.612 6.612 6.612h35.909c3.646 0 6.612-2.966 6.612-6.612v-1.31c-.001-3.646-2.967-6.612-6.613-6.612zm3.612 7.921c0 1.992-1.62 3.612-3.612 3.612h-35.908c-1.992 0-3.612-1.62-3.612-3.612v-1.31c0-1.992 1.62-3.612 3.612-3.612h35.909c1.992 0 3.612 1.62 3.612 3.612v1.31z" fill="#3a312a"/><path d="m128.228 212.5c-8.42 0-16.62-.74-24.5-2.15v29.15h49v-29.15c-7.88 1.41-16.08 2.15-24.5 2.15z" fill="#87796f"/><path d="m153.69 209.2c-.341-.285-.793-.404-1.227-.326-15.775 2.823-32.697 2.822-48.472 0-.436-.077-.887.041-1.227.326s-.537.707-.537 1.15v29.15c0 .829.671 1.5 1.5 1.5h48.999c.828 0 1.5-.671 1.5-1.5v-29.15c.001-.444-.195-.865-.536-1.15zm-2.463 28.8h-45.999v-25.87c15.02 2.482 30.979 2.482 45.999 0z" fill="#3a312a"/><path d="m127.875 124.5h-12.794-97.853c0 48.601 49.696 88 111 88s111-39.399 111-88z" fill="#87796f"/><path d="m239.227 123h-111.352c-.829 0-1.5.671-1.5 1.5s.671 1.5 1.5 1.5h109.836c-1.016 47.007-49.738 85-109.483 85s-108.467-37.993-109.484-85h96.337c.829 0 1.5-.671 1.5-1.5s-.671-1.5-1.5-1.5h-97.853c-.829 0-1.5.671-1.5 1.5 0 49.351 50.467 89.5 112.5 89.5s112.499-40.149 112.499-89.5c0-.829-.671-1.5-1.5-1.5z" fill="#3a312a"/><path d="m218.833 120.385h-1.382c-.81-3.541-2.222-6.853-4.124-9.822l1.017-1.017c1.172-1.172 1.172-3.071 0-4.243l-5.402-5.402c-1.172-1.172-3.071-1.172-4.243 0l-1.055 1.055c-2.962-1.866-6.26-3.247-9.783-4.033v-1.511c0-1.657-1.343-3-3-3h-7.64c-1.657 0-3 1.343-3 3v1.511c-1.867.503-6.821 2.167-9.783 4.033l-1.055-1.055c-1.172-1.172-3.071-1.172-4.243 0l-5.402 5.402c-1.172 1.172-1.172 3.071 0 4.243l1.017 1.017c-1.902 2.968-3.314 6.28-4.124 9.822h-1.382c-1.657 0-3 1.343-3 3v7.64c0 1.657 1.343 3 3 3h1.31c.779 3.585 2.174 6.94 4.069 9.948l-.89.89c-1.172 1.172-1.172 3.071 0 4.243l5.402 5.402c1.172 1.172 3.071 1.172 4.243 0l.852-.852c3.014 1.931 6.383 3.356 9.987 4.16v1.181c0 1.657 1.343 3 3 3h7.64c1.657 0 3-1.344 3-3v-1.181c3.603-.804 6.972-2.229 9.987-4.16l.852.852c1.172 1.172 3.071 1.172 4.243 0l5.402-5.402c1.172-1.172 1.172-3.072 0-4.243l-.89-.89c1.895-3.009 3.29-6.363 4.069-9.948h1.31c1.657 0 3-1.343 3-3v-7.64c-.002-1.657-1.345-3-3.002-3zm-31.793 22.418c-8.615 0-15.598-6.984-15.598-15.598s6.984-15.598 15.598-15.598c8.615 0 15.598 6.983 15.598 15.598s-6.983 15.598-15.598 15.598z" fill="#8ac6dd"/><path d="m187.04 110.107c-9.428 0-17.099 7.67-17.099 17.098s7.671 17.098 17.099 17.098 17.099-7.67 17.099-17.098-7.671-17.098-17.099-17.098zm0 31.196c-7.774 0-14.099-6.324-14.099-14.098s6.324-14.098 14.099-14.098c7.774 0 14.099 6.324 14.099 14.098s-6.325 14.098-14.099 14.098zm31.793-22.418h-.209c-.762-2.843-1.901-5.559-3.398-8.098l.179-.179c.851-.85 1.318-1.98 1.318-3.182 0-1.203-.468-2.333-1.318-3.182l-5.402-5.403c-1.754-1.754-4.61-1.753-6.364 0l-.225.224c-2.529-1.467-5.229-2.581-8.053-3.321v-.332c0-2.481-2.019-4.5-4.5-4.5h-7.641c-2.481 0-4.5 2.019-4.5 4.5v.389c-1.96.609-5.372 1.812-8.041 3.276l-.236-.237c-1.754-1.754-4.61-1.753-6.364 0l-5.402 5.402c-.851.85-1.318 1.98-1.318 3.183 0 1.202.468 2.332 1.318 3.182l.179.179c-1.497 2.54-2.637 5.255-3.398 8.098h-.209c-2.482 0-4.5 2.019-4.5 4.5v7.64c0 2.481 2.018 4.5 4.5 4.5h.125c.739 2.884 1.867 5.639 3.362 8.218l-.059.059c-1.755 1.755-1.755 4.61 0 6.365l5.402 5.402c1.754 1.754 4.61 1.753 6.364 0l.015-.014c2.588 1.526 5.358 2.68 8.263 3.441v.001c0 2.481 2.019 4.5 4.5 4.5h7.641c2.481 0 4.5-2.019 4.5-4.5v-.001c2.904-.761 5.675-1.915 8.263-3.441l.015.015c1.754 1.754 4.61 1.753 6.364 0l5.402-5.402c1.755-1.755 1.755-4.61 0-6.365l-.059-.059c1.495-2.579 2.623-5.334 3.362-8.218h.125c2.481 0 4.5-2.019 4.5-4.5v-7.64c-.001-2.481-2.02-4.5-4.501-4.5zm1.5 12.14c0 .827-.673 1.5-1.5 1.5h-1.311c-.706 0-1.315.492-1.466 1.181-.731 3.364-2.034 6.549-3.872 9.468-.373.593-.286 1.365.209 1.86l.89.89c.585.585.585 1.537 0 2.123l-5.402 5.401c-.585.584-1.535.585-2.122 0l-.852-.852c-.496-.498-1.273-.583-1.87-.203-2.922 1.872-6.119 3.204-9.503 3.959-.687.153-1.174.761-1.174 1.464v1.181c0 .827-.673 1.5-1.5 1.5h-7.641c-.827 0-1.5-.673-1.5-1.5v-1.181c0-.703-.487-1.311-1.174-1.464-3.384-.755-6.581-2.087-9.503-3.959-.249-.159-.53-.237-.809-.237-.388 0-.773.15-1.062.439l-.852.851c-.585.584-1.535.585-2.122 0l-5.402-5.402c-.585-.585-.585-1.537 0-2.123l.89-.89c.495-.495.582-1.267.209-1.86-1.838-2.918-3.141-6.104-3.872-9.468-.15-.689-.76-1.181-1.466-1.181h-1.31c-.827 0-1.5-.673-1.5-1.5v-7.64c0-.827.673-1.5 1.5-1.5h1.382c.699 0 1.306-.483 1.462-1.166.761-3.324 2.082-6.469 3.925-9.347.381-.593.296-1.372-.202-1.87l-1.017-1.017c-.283-.284-.44-.661-.44-1.061 0-.401.156-.777.44-1.061l5.402-5.402c.585-.584 1.535-.586 2.122 0l1.055 1.055c.494.495 1.265.583 1.86.208 2.76-1.739 7.593-3.374 9.373-3.854.655-.176 1.11-.77 1.11-1.448v-1.512c0-.827.673-1.5 1.5-1.5h7.641c.827 0 1.5.673 1.5 1.5v1.512c0 .703.487 1.311 1.174 1.464 3.305.737 6.438 2.028 9.31 3.838.595.375 1.366.287 1.86-.208l1.055-1.055c.585-.584 1.535-.585 2.122 0l5.402 5.403c.283.283.439.66.439 1.061 0 .4-.156.777-.439 1.061l-1.017 1.017c-.498.498-.583 1.276-.202 1.87 1.843 2.878 3.164 6.022 3.925 9.347.156.682.763 1.166 1.462 1.166h1.382c.827 0 1.5.673 1.5 1.5v7.642z" fill="#3a312a"/><path d="m223.338 126v5.02c0 1.23-.5 2.35-1.3 3.17-5.83 41.22-48.49 73.77-101.31 76.6 2.48.14 4.98.21 7.5.21 59.75 0 108.47-37.99 109.48-85z" fill="#695b51"/></svg>