<svg id="Layer_1" enable-background="new 0 0 256 256" height="512" viewBox="0 0 256 256" width="512" xmlns="http://www.w3.org/2000/svg"><path d="m45.593 85.068c-.974 11.564-13.024 13.39-13.024 13.39 10.347.487 12.925 14.059 12.925 14.059.221-9.677 13.321-14.202 13.321-14.202-9.814-.587-13.222-13.247-13.222-13.247z" fill="#d6df58"/><path d="m58.904 96.817c-8.604-.514-11.832-12.024-11.863-12.14-.19-.702-.848-1.16-1.584-1.102-.725.066-1.298.642-1.359 1.367-.859 10.215-11.313 11.964-11.754 12.032-.763.116-1.313.791-1.273 1.561.04.771.657 1.385 1.428 1.421 9.027.426 11.498 12.719 11.521 12.843.138.712.76 1.218 1.473 1.218.042 0 .084-.002.126-.005.764-.064 1.357-.693 1.375-1.46.194-8.51 12.191-12.778 12.313-12.82.676-.234 1.092-.914.994-1.622-.1-.71-.683-1.251-1.397-1.293zm-13.566 10.347c-1.357-3.131-3.708-6.908-7.587-8.877 2.931-1.405 6.409-3.913 8.202-8.273 1.551 3.071 4.2 6.88 8.334 8.723-3.007 1.639-6.923 4.406-8.949 8.427z" fill="#3a312a"/><path d="m23.894 102.049c-.689 8.179-9.212 9.47-9.212 9.47 7.318.344 9.142 9.944 9.142 9.944.156-6.844 9.422-10.045 9.422-10.045-6.941-.415-9.352-9.369-9.352-9.369z" fill="#d6df58"/><path d="m33.336 109.921c-5.767-.345-7.972-8.186-7.993-8.265-.19-.702-.865-1.162-1.582-1.102-.726.065-1.3.643-1.361 1.368-.579 6.871-7.646 8.066-7.942 8.113-.763.116-1.313.791-1.273 1.561.04.771.657 1.385 1.428 1.421 6.035.284 7.724 8.645 7.739 8.727.136.713.759 1.22 1.473 1.22.041 0 .083-.002.125-.005.765-.063 1.358-.693 1.376-1.461.13-5.709 8.331-8.634 8.412-8.662.676-.234 1.093-.913.996-1.622-.099-.709-.684-1.251-1.398-1.293zm-9.585 6.795c-.924-1.885-2.34-3.947-4.447-5.279 1.856-1.041 3.697-2.63 4.871-4.917 1.057 1.874 2.654 3.955 4.941 5.224-1.849 1.1-3.989 2.739-5.365 4.972z" fill="#3a312a"/><path d="m23.894 75.391c-.689 8.179-9.212 9.471-9.212 9.471 7.318.344 9.142 9.944 9.142 9.944.156-6.844 9.422-10.045 9.422-10.045-6.941-.416-9.352-9.37-9.352-9.37z" fill="#d6df58"/><path d="m33.336 83.264c-5.767-.345-7.972-8.186-7.993-8.265-.19-.702-.865-1.161-1.582-1.102-.726.065-1.3.643-1.361 1.368-.579 6.87-7.646 8.066-7.942 8.113-.763.116-1.313.791-1.273 1.561.04.771.657 1.385 1.428 1.421 6.035.284 7.724 8.645 7.739 8.727.136.713.759 1.22 1.473 1.22.041 0 .083-.002.125-.005.765-.063 1.358-.693 1.376-1.461.13-5.709 8.331-8.634 8.412-8.662.676-.234 1.093-.913.996-1.622-.099-.709-.684-1.251-1.398-1.293zm-9.585 6.795c-.924-1.886-2.34-3.947-4.447-5.28 1.856-1.041 3.697-2.63 4.871-4.916 1.057 1.874 2.654 3.955 4.941 5.224-1.849 1.1-3.989 2.739-5.365 4.972z" fill="#3a312a"/><path d="m159.126 36.82h-59c-.828 0-1.5.672-1.5 1.5s.672 1.5 1.5 1.5h59c.828 0 1.5-.672 1.5-1.5s-.672-1.5-1.5-1.5z" fill="#3a312a"/><path d="m189.626 126.32h-120c-.828 0-1.5.672-1.5 1.5s.672 1.5 1.5 1.5h120c.828 0 1.5-.672 1.5-1.5s-.672-1.5-1.5-1.5z" fill="#3a312a"/><path d="m93.126 215.82h-59c-.828 0-1.5.672-1.5 1.5s.672 1.5 1.5 1.5h59c.828 0 1.5-.672 1.5-1.5s-.672-1.5-1.5-1.5z" fill="#3a312a"/><path d="m223.126 215.82h-59c-.828 0-1.5.672-1.5 1.5s.672 1.5 1.5 1.5h59c.828 0 1.5-.672 1.5-1.5s-.672-1.5-1.5-1.5z" fill="#3a312a"/><path d="m99.626 195.82c-11.87 0-21.493 9.623-21.493 21.492v.455c0 11.87 9.623 21.492 21.493 21.492s21.493-9.623 21.493-21.492v-.455c0-11.869-9.623-21.492-21.493-21.492z" fill="#d7e057"/><path d="m99.626 194.32c-12.678 0-22.992 10.314-22.992 22.992v.455c0 12.678 10.314 22.992 22.992 22.992 12.679 0 22.993-10.314 22.993-22.992v-.455c0-12.677-10.314-22.992-22.993-22.992zm19.993 23.448c0 11.023-8.969 19.992-19.993 19.992-11.023 0-19.992-8.969-19.992-19.992v-.455c0-11.023 8.969-19.992 19.992-19.992 11.024 0 19.993 8.969 19.993 19.992z" fill="#3a312a"/><path d="m159.626 195.82c-11.87 0-21.493 9.623-21.493 21.492v.455c0 11.87 9.623 21.492 21.493 21.492s21.493-9.623 21.493-21.492v-.455c0-11.869-9.623-21.492-21.493-21.492z" fill="#8ac6dd"/><path d="m159.626 194.32c-12.678 0-22.992 10.314-22.992 22.992v.455c0 12.678 10.314 22.992 22.992 22.992 12.679 0 22.993-10.314 22.993-22.992v-.455c0-12.677-10.314-22.992-22.993-22.992zm19.993 23.448c0 11.023-8.969 19.992-19.993 19.992-11.023 0-19.992-8.969-19.992-19.992v-.455c0-11.023 8.969-19.992 19.992-19.992 11.024 0 19.993 8.969 19.993 19.992z" fill="#3a312a"/><path d="m219.626 195.82c-11.87 0-21.493 9.623-21.493 21.492v.455c0 11.87 9.623 21.492 21.493 21.492s21.493-9.623 21.493-21.492v-.455c0-11.869-9.623-21.492-21.493-21.492z" fill="#87796f"/><path d="m219.626 194.32c-12.678 0-22.992 10.314-22.992 22.992v.455c0 12.678 10.314 22.992 22.992 22.992 12.679 0 22.993-10.314 22.993-22.992v-.455c0-12.677-10.314-22.992-22.993-22.992zm19.993 23.448c0 11.023-8.969 19.992-19.993 19.992-11.023 0-19.992-8.969-19.992-19.992v-.455c0-11.023 8.969-19.992 19.992-19.992 11.024 0 19.993 8.969 19.993 19.992z" fill="#3a312a"/><path d="m39.626 195.82c-11.87 0-21.493 9.623-21.493 21.492v.455c0 11.87 9.623 21.492 21.493 21.492s21.493-9.623 21.493-21.492v-.455c0-11.869-9.623-21.492-21.493-21.492z" fill="#f16c7a"/><path d="m39.626 194.32c-12.678 0-22.992 10.314-22.992 22.992v.455c0 12.678 10.314 22.992 22.992 22.992 12.679 0 22.993-10.314 22.993-22.992v-.455c0-12.677-10.314-22.992-22.993-22.992zm19.993 23.448c0 11.023-8.969 19.992-19.993 19.992-11.023 0-19.992-8.969-19.992-19.992v-.455c0-11.023 8.969-19.992 19.992-19.992 11.024 0 19.993 8.969 19.993 19.992z" fill="#3a312a"/><path d="m129.626 106.101c-11.87 0-21.493 9.622-21.493 21.492v.455c0 11.87 9.623 21.492 21.493 21.492s21.493-9.623 21.493-21.492v-.455c0-11.87-9.623-21.492-21.493-21.492z" fill="#d7e057"/><path d="m129.626 104.601c-12.678 0-22.992 10.314-22.992 22.992v.455c0 12.678 10.314 22.992 22.992 22.992 12.679 0 22.993-10.314 22.993-22.992v-.455c0-12.678-10.314-22.992-22.993-22.992zm19.993 23.447c0 11.023-8.969 19.992-19.993 19.992-11.023 0-19.992-8.969-19.992-19.992v-.455c0-11.023 8.969-19.992 19.992-19.992 11.024 0 19.993 8.969 19.993 19.992z" fill="#3a312a"/><path d="m189.626 106.101c-11.87 0-21.493 9.622-21.493 21.492v.455c0 11.87 9.623 21.492 21.493 21.492s21.493-9.623 21.493-21.492v-.455c0-11.87-9.623-21.492-21.493-21.492z" fill="#8ac6dd"/><path d="m189.626 104.601c-12.678 0-22.992 10.314-22.992 22.992v.455c0 12.678 10.314 22.992 22.992 22.992 12.679 0 22.993-10.314 22.993-22.992v-.455c0-12.678-10.314-22.992-22.993-22.992zm19.993 23.447c0 11.023-8.969 19.992-19.993 19.992-11.023 0-19.992-8.969-19.992-19.992v-.455c0-11.023 8.969-19.992 19.992-19.992 11.024 0 19.993 8.969 19.993 19.992z" fill="#3a312a"/><path d="m69.626 106.101c-11.87 0-21.493 9.622-21.493 21.492v.455c0 11.87 9.623 21.492 21.493 21.492s21.493-9.623 21.493-21.492v-.455c0-11.87-9.623-21.492-21.493-21.492z" fill="#f16c7a"/><path d="m69.626 104.601c-12.678 0-22.992 10.314-22.992 22.992v.455c0 12.678 10.314 22.992 22.992 22.992 12.679 0 22.993-10.314 22.993-22.992v-.455c0-12.678-10.314-22.992-22.993-22.992zm19.993 23.447c0 11.023-8.969 19.992-19.993 19.992-11.023 0-19.992-8.969-19.992-19.992v-.455c0-11.023 8.969-19.992 19.992-19.992 11.024 0 19.993 8.969 19.993 19.992z" fill="#3a312a"/><path d="m99.626 16.82c-11.87 0-21.493 9.623-21.493 21.492v.455c0 11.87 9.623 21.492 21.493 21.492s21.493-9.623 21.493-21.492v-.455c0-11.869-9.623-21.492-21.493-21.492z" fill="#d7e057"/><path d="m99.626 15.32c-12.678 0-22.992 10.314-22.992 22.992v.455c0 12.678 10.314 22.992 22.992 22.992 12.679 0 22.993-10.314 22.993-22.992v-.455c0-12.677-10.314-22.992-22.993-22.992zm19.993 23.448c0 11.023-8.969 19.992-19.993 19.992-11.023 0-19.992-8.969-19.992-19.992v-.455c0-11.023 8.969-19.992 19.992-19.992 11.024 0 19.993 8.969 19.993 19.992z" fill="#3a312a"/><path d="m159.626 16.82c-11.87 0-21.493 9.623-21.493 21.492v.455c0 11.87 9.623 21.492 21.493 21.492s21.493-9.623 21.493-21.492v-.455c0-11.869-9.623-21.492-21.493-21.492z" fill="#8ac6dd"/><path d="m159.626 15.32c-12.678 0-22.992 10.314-22.992 22.992v.455c0 12.678 10.314 22.992 22.992 22.992 12.679 0 22.993-10.314 22.993-22.992v-.455c0-12.677-10.314-22.992-22.993-22.992zm19.993 23.448c0 11.023-8.969 19.992-19.993 19.992-11.023 0-19.992-8.969-19.992-19.992v-.455c0-11.023 8.969-19.992 19.992-19.992 11.024 0 19.993 8.969 19.993 19.992z" fill="#3a312a"/><path d="m219.626 16.82c-11.87 0-21.493 9.623-21.493 21.492v.455c0 11.87 9.623 21.492 21.493 21.492s21.493-9.623 21.493-21.492v-.455c0-11.869-9.623-21.492-21.493-21.492z" fill="#87796f"/><path d="m219.626 15.32c-12.678 0-22.992 10.314-22.992 22.992v.455c0 12.678 10.314 22.992 22.992 22.992 12.679 0 22.993-10.314 22.993-22.992v-.455c0-12.677-10.314-22.992-22.993-22.992zm19.993 23.448c0 11.023-8.969 19.992-19.993 19.992-11.023 0-19.992-8.969-19.992-19.992v-.455c0-11.023 8.969-19.992 19.992-19.992 11.024 0 19.993 8.969 19.993 19.992z" fill="#3a312a"/><path d="m39.626 16.82c-11.87 0-21.493 9.623-21.493 21.492v.455c0 11.87 9.623 21.492 21.493 21.492s21.493-9.623 21.493-21.492v-.455c0-11.869-9.623-21.492-21.493-21.492z" fill="#f16c7a"/><g fill="#3a312a"><path d="m39.626 15.32c-12.678 0-22.992 10.314-22.992 22.992v.455c0 12.678 10.314 22.992 22.992 22.992 12.679 0 22.993-10.314 22.993-22.992v-.455c0-12.677-10.314-22.992-22.993-22.992zm19.993 23.448c0 11.023-8.969 19.992-19.993 19.992-11.023 0-19.992-8.969-19.992-19.992v-.455c0-11.023 8.969-19.992 19.992-19.992 11.024 0 19.993 8.969 19.993 19.992z"/><path d="m160.458 59.572c-.688-.46-1.62-.273-2.08.416l-11.726 17.589c-.46.689-.273 1.62.416 2.08.256.171.545.252.831.252.484 0 .96-.234 1.249-.668l11.726-17.589c.46-.689.273-1.621-.416-2.08z"/><path d="m140.499 89.51c-.689-.46-1.62-.273-2.08.416l-10.041 15.063c-.46.689-.273 1.62.416 2.08.256.171.545.252.831.252.484 0 .96-.234 1.249-.668l10.041-15.063c.46-.69.273-1.621-.416-2.08z"/><path d="m220.458 59.572c-.688-.46-1.62-.273-2.08.416l-30 45c-.46.689-.273 1.62.416 2.08.256.171.545.252.831.252.484 0 .96-.234 1.249-.668l30-45c.46-.689.273-1.62-.416-2.08z"/><path d="m190.874 104.988-30-45c-.46-.69-1.392-.877-2.08-.416-.689.46-.876 1.391-.416 2.08l30 45c.289.434.765.668 1.249.668.286 0 .575-.081.831-.252.689-.46.876-1.39.416-2.08z"/><path d="m100.458 59.572c-.689-.46-1.621-.273-2.08.416l-30 45c-.46.689-.273 1.62.416 2.08.256.171.545.252.831.252.484 0 .96-.234 1.249-.668l30-45c.46-.689.273-1.62-.416-2.08z"/><path d="m70.874 104.988-30-45c-.46-.69-1.393-.877-2.08-.416-.689.46-.876 1.391-.416 2.08l30 45c.289.434.765.668 1.249.668.286 0 .575-.081.831-.252.689-.46.876-1.39.416-2.08z"/><path d="m130.458 148.572c-.689-.46-1.621-.273-2.08.416l-30 45c-.46.689-.273 1.62.416 2.08.256.171.545.252.831.252.484 0 .96-.234 1.249-.668l30-45c.46-.689.274-1.62-.416-2.08z"/><path d="m49.95 179.334c-.69-.461-1.62-.273-2.08.416l-9.492 14.238c-.46.689-.273 1.62.416 2.08.256.171.545.252.831.252.484 0 .96-.234 1.249-.668l9.492-14.238c.46-.689.274-1.62-.416-2.08z"/><path d="m70.458 148.572c-.689-.46-1.62-.273-2.08.416l-12.106 18.16c-.46.689-.273 1.621.416 2.08.256.171.545.252.831.252.484 0 .96-.234 1.249-.668l12.106-18.16c.46-.689.273-1.621-.416-2.08z"/><path d="m100.874 193.988-30-45c-.46-.69-1.392-.877-2.08-.416-.689.46-.876 1.391-.416 2.08l30 45c.289.434.765.668 1.249.668.286 0 .575-.081.831-.252.689-.46.876-1.39.416-2.08z"/><path d="m190.458 148.572c-.688-.46-1.62-.273-2.08.416l-30 45c-.46.689-.273 1.62.416 2.08.256.171.545.252.831.252.484 0 .96-.234 1.249-.668l30-45c.46-.689.273-1.62-.416-2.08z"/><path d="m220.874 193.988-30-45c-.46-.69-1.392-.877-2.08-.416-.689.46-.876 1.391-.416 2.08l30 45c.289.434.765.668 1.249.668.286 0 .575-.081.831-.252.689-.46.876-1.39.416-2.08z"/></g><path d="m219.626 197.32c-2.65 0-5.19.52-7.5 1.46 7.32 2.98 12.49 10.16 12.49 18.53v.46c0 8.37-5.17 15.55-12.49 18.53 2.31.94 4.85 1.46 7.5 1.46 11.02 0 19.99-8.97 19.99-19.99v-.46c0-11.02-8.97-19.99-19.99-19.99z" fill="#695b51"/><path d="m189.626 107.6c-2.65 0-5.19.52-7.5 1.46 7.32 2.98 12.49 10.16 12.49 18.53v.46c0 8.37-5.17 15.55-12.49 18.53 2.31.94 4.85 1.46 7.5 1.46 11.02 0 19.99-8.97 19.99-19.99v-.46c0-11.02-8.97-19.99-19.99-19.99z" fill="#6ca8bf"/><path d="m219.626 18.32c-2.65 0-5.19.52-7.5 1.46 7.32 2.98 12.49 10.16 12.49 18.53v.46c0 8.37-5.17 15.55-12.49 18.53 2.31.94 4.85 1.46 7.5 1.46 11.02 0 19.99-8.97 19.99-19.99v-.46c0-11.02-8.97-19.99-19.99-19.99z" fill="#695b51"/></svg>