<svg id="Layer_1" enable-background="new 0 0 256 256" height="512" viewBox="0 0 256 256" width="512" xmlns="http://www.w3.org/2000/svg"><path d="m47.918 26.263s3.408 12.659 13.222 13.246c0 0-13.1 4.525-13.321 14.202 0 0-2.578-13.572-12.925-14.059 0 0 12.05-1.826 13.024-13.389z" fill="#d7e057"/><path d="m47.818 55.21c-.713 0-1.335-.506-1.472-1.217-.024-.124-2.495-12.417-11.522-12.842-.771-.037-1.388-.651-1.428-1.421-.039-.771.511-1.445 1.273-1.561.441-.069 10.894-1.817 11.754-12.033.061-.725.634-1.301 1.359-1.367.724-.066 1.392.398 1.583 1.102.032.116 3.259 11.626 11.864 12.141.714.043 1.297.584 1.395 1.292s-.319 1.388-.994 1.623c-.121.042-12.118 4.31-12.313 12.819-.018.767-.61 1.396-1.375 1.459-.04.004-.083.005-.124.005zm-7.741-15.729c3.878 1.969 6.23 5.746 7.587 8.876 2.026-4.021 5.942-6.787 8.949-8.427-4.135-1.843-6.783-5.651-8.334-8.723-1.793 4.361-5.272 6.869-8.202 8.274z" fill="#3a312a"/><path d="m26.22 43.243s2.411 8.954 9.352 9.369c0 0-9.266 3.201-9.422 10.045 0 0-1.824-9.6-9.142-9.944-.001.001 8.523-1.291 9.212-9.47z" fill="#d7e057"/><path d="m26.148 64.158c-.714 0-1.337-.507-1.473-1.22-.016-.082-1.704-8.442-7.739-8.726-.77-.037-1.388-.651-1.428-1.421-.04-.771.511-1.445 1.273-1.561.296-.047 7.364-1.243 7.943-8.114.061-.726.635-1.303 1.36-1.368.728-.067 1.392.399 1.582 1.102.022.079 2.228 7.92 7.994 8.265.714.043 1.299.584 1.396 1.293.098.709-.32 1.388-.996 1.622-.081.028-8.282 2.952-8.412 8.661-.018.767-.611 1.398-1.376 1.461-.041.004-.083.006-.124.006zm-4.519-11.528c2.107 1.333 3.523 3.394 4.447 5.28 1.376-2.232 3.515-3.872 5.365-4.972-2.287-1.27-3.884-3.35-4.941-5.224-1.173 2.286-3.015 3.875-4.871 4.916z" fill="#3a312a"/><path d="m26.22 16.586s2.411 8.954 9.352 9.37c0 0-9.266 3.201-9.422 10.045 0 0-1.824-9.6-9.142-9.944-.001-.001 8.523-1.292 9.212-9.471z" fill="#d7e057"/><path d="m26.148 37.5c-.713 0-1.337-.507-1.472-1.22-.016-.082-1.704-8.442-7.74-8.726-.77-.037-1.387-.651-1.427-1.421-.04-.771.511-1.445 1.273-1.561.296-.047 7.364-1.243 7.943-8.114.061-.726.635-1.303 1.36-1.368.728-.067 1.392.399 1.582 1.102.022.079 2.228 7.92 7.994 8.265.714.043 1.299.584 1.396 1.293.098.709-.32 1.388-.996 1.622-.081.028-8.282 2.952-8.412 8.662-.018.767-.611 1.397-1.376 1.461-.042.004-.084.005-.125.005zm-4.519-11.527c2.107 1.333 3.523 3.394 4.448 5.28 1.376-2.233 3.515-3.872 5.365-4.973-2.287-1.27-3.884-3.35-4.941-5.224-1.174 2.287-3.016 3.876-4.872 4.917z" fill="#3a312a"/><path d="m239.25 90.418c-35.613-14.752-75.628-14.752-111.241 0v149.065c35.613-14.751 75.628-14.751 111.241 0 0-49.688 0-99.377 0-149.065z" fill="#fae6ca"/><path d="m239.25 240.983c-.194 0-.389-.038-.574-.114-35.497-14.703-74.596-14.703-110.093 0-.464.191-.992.14-1.408-.139-.417-.278-.667-.746-.667-1.247v-149.065c0-.607.365-1.154.926-1.386 36.239-15.011 76.152-15.01 112.39 0 .561.232.926.779.926 1.386v149.065c0 .501-.25.969-.667 1.247-.25.168-.541.253-.833.253zm-109.741-149.56v145.833c34.991-13.889 73.252-13.889 108.241 0v-145.833c-34.942-14.198-73.298-14.198-108.241 0z" fill="#3a312a"/><path d="m16.764 126.338v113.145c35.613-14.751 75.628-14.751 111.241 0v-149.065c-35.613-14.752-75.628-14.752-111.241 0v22.664z" fill="#fae6ca"/><g fill="#3a312a"><path d="m128.005 240.983c-.194 0-.389-.038-.574-.114-35.497-14.703-74.596-14.703-110.093 0-.464.191-.991.14-1.408-.139-.417-.278-.667-.746-.667-1.247v-113.145c0-.829.671-1.5 1.5-1.5s1.5.671 1.5 1.5v110.918c34.991-13.889 73.252-13.889 108.241 0v-145.833c-34.942-14.198-73.298-14.198-108.241 0v21.658c0 .829-.671 1.5-1.5 1.5s-1.5-.671-1.5-1.5v-22.663c0-.607.365-1.154.926-1.386 36.239-15.011 76.152-15.01 112.39 0 .561.232.926.779.926 1.386v149.065c0 .501-.25.969-.666 1.247-.251.168-.541.253-.834.253z"/><path d="m115.185 212.908c-.146 0-.295-.021-.442-.067-27.717-8.549-57.011-8.548-84.715-.001-.792.244-1.631-.199-1.875-.991-.245-.792.199-1.631.991-1.876 28.283-8.728 58.188-8.727 86.484-.001.792.244 1.236 1.084.992 1.876-.201.646-.794 1.06-1.435 1.06z"/><path d="m141.416 212.714c-.643 0-1.238-.417-1.435-1.064-.241-.792.207-1.63.999-1.871 27.817-8.451 57.24-8.47 85.089-.056.793.24 1.241 1.077 1.002 1.87-.24.792-1.075 1.239-1.87 1.002-27.279-8.243-56.1-8.223-83.349.054-.145.044-.291.065-.436.065z"/><path d="m115.185 192.198c-.146 0-.295-.021-.442-.067-27.717-8.548-57.011-8.548-84.715 0-.792.245-1.631-.199-1.875-.991-.245-.792.199-1.631.991-1.876 28.283-8.727 58.188-8.727 86.484 0 .792.244 1.236 1.084.992 1.875-.201.645-.794 1.059-1.435 1.059z"/><path d="m141.416 192.005c-.643 0-1.238-.417-1.435-1.064-.241-.793.207-1.63.999-1.871 27.817-8.452 57.241-8.472 85.089-.056.793.24 1.241 1.077 1.002 1.87-.24.792-1.075 1.24-1.87 1.002-27.278-8.243-56.1-8.224-83.349.054-.145.044-.291.065-.436.065z"/><path d="m29.584 171.488c-.641 0-1.234-.414-1.433-1.058-.245-.792.199-1.631.991-1.876 28.283-8.728 58.188-8.727 86.484 0 .792.244 1.236 1.084.992 1.875-.244.792-1.086 1.236-1.876.992-27.717-8.548-57.011-8.548-84.715 0-.147.046-.296.067-.443.067z"/><path d="m141.416 171.295c-.643 0-1.238-.417-1.435-1.064-.241-.792.207-1.63.999-1.871 27.817-8.453 57.24-8.471 85.089-.056.793.24 1.241 1.077 1.002 1.87-.24.792-1.075 1.24-1.87 1.002-27.279-8.244-56.1-8.224-83.349.054-.145.044-.291.065-.436.065z"/><path d="m115.185 150.779c-.146 0-.295-.021-.442-.067-27.717-8.548-57.011-8.548-84.715-.001-.792.244-1.631-.199-1.875-.991-.245-.791.199-1.631.991-1.875 28.283-8.728 58.188-8.727 86.484-.001.792.244 1.236 1.084.992 1.876-.201.645-.794 1.059-1.435 1.059z"/><path d="m141.416 150.585c-.644 0-1.238-.417-1.435-1.064-.241-.792.207-1.63.999-1.871 27.817-8.452 57.241-8.471 85.089-.056.793.24 1.241 1.077 1.002 1.87-.24.792-1.075 1.239-1.87 1.002-27.278-8.243-56.1-8.224-83.349.054-.145.045-.291.065-.436.065z"/><path d="m115.185 130.069c-.146 0-.295-.021-.442-.067-27.717-8.548-57.011-8.548-84.715 0-.792.245-1.631-.199-1.875-.991-.245-.792.199-1.631.991-1.876 28.283-8.728 58.188-8.727 86.484 0 .792.244 1.236 1.084.992 1.875-.201.645-.794 1.059-1.435 1.059z"/><path d="m141.416 129.876c-.643 0-1.238-.417-1.435-1.064-.241-.793.207-1.63.999-1.871 27.817-8.452 57.24-8.471 85.089-.056.793.24 1.241 1.077 1.002 1.87-.24.792-1.075 1.239-1.87 1.002-27.279-8.244-56.1-8.224-83.349.054-.145.044-.291.065-.436.065z"/><path d="m115.185 109.359c-.146 0-.295-.021-.442-.067-27.717-8.548-57.011-8.548-84.715-.001-.792.244-1.631-.199-1.875-.991-.245-.791.199-1.631.991-1.875 28.283-8.728 58.188-8.727 86.484-.001.792.244 1.236 1.084.992 1.876-.201.645-.794 1.059-1.435 1.059z"/><path d="m141.416 109.166c-.643 0-1.238-.417-1.435-1.064-.241-.792.207-1.63.999-1.871 27.817-8.451 57.24-8.47 85.089-.056.793.24 1.241 1.077 1.002 1.87-.24.792-1.075 1.24-1.87 1.002-27.279-8.243-56.1-8.223-83.349.054-.145.044-.291.065-.436.065z"/></g><path d="m115.283 106.202h25.449c1.68 0 3.042 1.362 3.042 3.042v5.8c0 1.68-1.362 3.042-3.042 3.042h-25.449c-1.68 0-3.042-1.362-3.042-3.042v-5.8c0-1.68 1.362-3.042 3.042-3.042z" fill="#87796f"/><path d="m140.731 119.585h-25.449c-2.504 0-4.542-2.037-4.542-4.542v-5.8c0-2.504 2.038-4.542 4.542-4.542h25.449c2.504 0 4.542 2.038 4.542 4.542v5.8c0 2.505-2.037 4.542-4.542 4.542zm-25.448-11.883c-.85 0-1.542.692-1.542 1.542v5.8c0 .85.692 1.542 1.542 1.542h25.449c.85 0 1.542-.691 1.542-1.542v-5.8c0-.85-.692-1.542-1.542-1.542z" fill="#3a312a"/><path d="m190.007 80.933c11.002 1.632 21.871 4.538 32.362 8.717 1.137.453 1.878 1.565 1.878 2.789v13.204c.61.17 1.21.35 1.82.53.8.24 1.24 1.08 1.01 1.87-.311 1.025-1.632 1.477-2.544.594-.192.084-.094.041-.286.126v17.59c.61.17 1.22.35 1.82.53.8.24 1.24 1.08 1.01 1.87-.311 1.025-1.632 1.477-2.544.594-.192.084-.094.041-.286.126v17.59c.61.17 1.21.35 1.82.53.8.24 1.24 1.08 1.01 1.87-.311 1.025-1.632 1.477-2.544.594-.192.084-.094.041-.286.126v17.59c.61.17 1.21.35 1.82.53.8.24 1.24 1.08 1.01 1.87-.311 1.025-1.632 1.477-2.544.594-.192.084-.094.041-.286.126v17.59c.61.17 1.21.35 1.82.53.8.24 1.24 1.08 1.01 1.87-.311 1.025-1.632 1.477-2.544.594-.192.084-.094.041-.286.126v17.59c.61.17 1.21.35 1.82.53.8.24 1.24 1.08 1.01 1.87-.311 1.025-1.632 1.477-2.544.594-.192.084-.094.041-.286.126v20.31c4.54 1.32 9.05 2.86 13.5 4.63v-145.83c-15.44-6.27-31.55-9.77-47.74-10.49z" fill="#decaad"/><path d="m85.419 34.328c-10.76 10.845-17.412 25.773-17.412 42.258 0 33.137 26.863 60 60 60s60-26.863 60-60-26.863-60-60-60c-11.911 0-23.001 3.485-32.334 9.47z" fill="#8ac6dd"/><path d="m128.007 138.085c-33.911 0-61.5-27.589-61.5-61.5 0-16.332 6.338-31.715 17.848-43.314.584-.588 1.534-.591 2.122-.008s.592 1.533.008 2.122c-10.949 11.033-16.978 25.665-16.978 41.2 0 32.257 26.243 58.5 58.5 58.5s58.5-26.243 58.5-58.5-26.243-58.5-58.5-58.5c-11.204 0-22.105 3.193-31.524 9.233-.697.447-1.625.244-2.072-.453s-.245-1.625.453-2.072c9.903-6.351 21.364-9.708 33.144-9.708 33.911 0 61.5 27.589 61.5 61.5-.001 33.912-27.59 61.5-61.501 61.5z" fill="#3a312a"/><path d="m166.385 68.353h-1.668c-.978-4.275-2.683-8.273-4.978-11.856l1.228-1.227c1.414-1.414 1.414-3.708 0-5.122l-6.521-6.521c-1.414-1.415-3.708-1.415-5.122 0l-1.274 1.274c-3.576-2.253-7.557-3.92-11.81-4.868v-1.824c0-2-1.622-3.622-3.622-3.622h-9.222c-2 0-3.622 1.622-3.622 3.622v1.824c-2.254.607-8.234 2.616-11.81 4.868l-1.273-1.274c-1.414-1.415-3.708-1.415-5.122 0l-6.521 6.521c-1.414 1.414-1.414 3.708 0 5.122l1.228 1.227c-2.296 3.583-4 7.581-4.978 11.856h-1.668c-2 0-3.622 1.621-3.622 3.622v9.222c0 2 1.621 3.622 3.622 3.622h1.582c.94 4.327 2.624 8.377 4.912 12.009l-1.074 1.074c-1.414 1.414-1.414 3.707 0 5.122l6.521 6.521c1.414 1.414 3.708 1.414 5.122 0l1.028-1.028c3.639 2.331 7.705 4.051 12.055 5.022v1.426c0 2 1.621 3.622 3.622 3.622h9.222c2 0 3.622-1.621 3.622-3.622v-1.426c4.35-.97 8.416-2.69 12.055-5.022l1.028 1.028c1.414 1.414 3.708 1.414 5.122 0l6.521-6.521c1.414-1.415 1.414-3.708 0-5.122l-1.074-1.074c2.288-3.632 3.971-7.681 4.912-12.009h1.582c2 0 3.622-1.622 3.622-3.622v-9.222c-.003-2.001-1.625-3.622-3.625-3.622zm-38.378 27.062c-10.399 0-18.829-8.43-18.829-18.829s8.43-18.829 18.829-18.829 18.829 8.43 18.829 18.829-8.43 18.829-18.829 18.829z" fill="#ef6d7a"/><path d="m132.618 120.085h-9.222c-2.824 0-5.122-2.297-5.122-5.122v-.243c-3.641-.93-7.107-2.374-10.334-4.304l-.188.187c-.967.968-2.254 1.501-3.622 1.501s-2.654-.533-3.622-1.501l-6.521-6.521c-.968-.967-1.501-2.253-1.501-3.622s.533-2.654 1.501-3.622l.24-.24c-1.893-3.218-3.304-6.666-4.208-10.282h-.392c-2.824 0-5.122-2.297-5.122-5.122v-9.222c0-2.824 2.297-5.122 5.122-5.122h.492c.932-3.567 2.359-6.967 4.254-10.135l-.387-.388c-.967-.967-1.501-2.253-1.501-3.622 0-1.368.533-2.654 1.501-3.622l6.521-6.521c1.997-1.997 5.247-1.997 7.244 0l.451.451c3.326-1.861 7.714-3.39 10.072-4.111v-.698c0-2.824 2.297-5.122 5.122-5.122h9.222c2.824 0 5.121 2.298 5.121 5.122v.641c3.544.906 6.925 2.3 10.083 4.157l.44-.44c1.996-1.997 5.246-1.997 7.243 0l6.521 6.521c.968.967 1.5 2.253 1.5 3.622s-.533 2.655-1.5 3.622l-.387.387c1.895 3.168 3.323 6.568 4.254 10.135h.492c2.824 0 5.122 2.297 5.122 5.122v9.222c0 2.824-2.297 5.122-5.122 5.122h-.392c-.904 3.616-2.315 7.064-4.208 10.282l.24.24c.968.968 1.5 2.254 1.5 3.622s-.533 2.654-1.5 3.622l-6.521 6.521c-.967.968-2.253 1.501-3.622 1.501s-2.655-.533-3.622-1.501l-.188-.188c-3.227 1.93-6.694 3.374-10.335 4.304v.243c.003 2.827-2.295 5.124-5.119 5.124zm-24.898-13.068c.279 0 .56.078.809.237 3.558 2.28 7.452 3.901 11.573 4.821.686.153 1.173.761 1.173 1.464v1.426c0 1.17.952 2.122 2.122 2.122h9.222c1.17 0 2.121-.952 2.121-2.122v-1.426c0-.703.488-1.311 1.173-1.464 4.121-.919 8.015-2.541 11.573-4.821.592-.38 1.371-.296 1.87.202l1.028 1.028c.801.802 2.199.803 3.001.001l6.52-6.521c.827-.828.827-2.173 0-3.001l-1.074-1.073c-.496-.496-.582-1.268-.208-1.86 2.239-3.554 3.825-7.433 4.715-11.528.15-.69.76-1.182 1.466-1.182h1.582c1.17 0 2.122-.952 2.122-2.122v-9.222c0-1.17-.952-2.122-2.122-2.122h-1.668c-.7 0-1.306-.483-1.462-1.165-.926-4.048-2.534-7.877-4.779-11.381-.38-.593-.296-1.372.203-1.87l1.228-1.228c.401-.401.622-.934.622-1.5s-.221-1.1-.622-1.5l-6.52-6.521c-.828-.827-2.174-.827-3.001 0l-1.274 1.274c-.496.495-1.267.583-1.86.208-3.497-2.203-7.311-3.776-11.336-4.674-.686-.153-1.173-.761-1.173-1.464v-1.824c0-1.17-.952-2.122-2.121-2.122h-9.222c-1.17 0-2.122.952-2.122 2.122v1.824c0 .678-.455 1.272-1.11 1.448-2.255.607-8.008 2.553-11.4 4.689-.594.374-1.366.287-1.861-.208l-1.273-1.274c-.827-.827-2.174-.828-3.001 0l-6.521 6.521c-.401.401-.622.934-.622 1.5 0 .567.221 1.1.622 1.5l1.228 1.228c.499.498.582 1.276.203 1.87-2.245 3.504-3.854 7.333-4.779 11.381-.156.682-.763 1.165-1.462 1.165h-1.669c-1.17 0-2.122.952-2.122 2.122v9.222c0 1.17.952 2.122 2.122 2.122h1.582c.706 0 1.316.492 1.466 1.182.89 4.096 2.477 7.974 4.715 11.528.373.593.287 1.365-.209 1.86l-1.074 1.074c-.401.4-.622.933-.622 1.5s.221 1.1.622 1.5l6.521 6.521c.828.828 2.174.826 3.001 0l1.028-1.028c.284-.289.668-.439 1.056-.439zm20.287-10.102c-11.209 0-20.329-9.12-20.329-20.329 0-11.21 9.12-20.33 20.329-20.33 11.21 0 20.329 9.12 20.329 20.33 0 11.209-9.12 20.329-20.329 20.329zm0-37.659c-9.555 0-17.329 7.774-17.329 17.33 0 9.555 7.774 17.329 17.329 17.329s17.329-7.774 17.329-17.329c0-9.556-7.774-17.33-17.329-17.33z" fill="#3a312a"/><path d="m128.007 18.084c-2.54 0-5.04.16-7.5.48 26.61 3.42 47.68 24.78 50.64 51.53.23.58.36 1.22.36 1.88v9.22c0 .67-.13 1.31-.36 1.89-2.97 26.74-24.03 48.1-50.64 51.52 2.46.32 4.96.48 7.5.48 32.26 0 58.5-26.24 58.5-58.5s-26.24-58.5-58.5-58.5z" fill="#6ca8bf"/></svg>